<svg width="50" height="50" viewBox="0 0 50 50" fill="none" xmlns="http://www.w3.org/2000/svg">
<path d="M25 1C19.2704 1 8.70544 2.2594 3.32512 4.91751C-3.75861 26.2547 5.87523 40.7645 25 49C44.1248 40.7645 53.7587 26.1829 46.6748 4.91764C41.2891 2.2594 30.7294 1 25 1Z" fill="#9C824A" stroke="#9C824A" stroke-width="0.793" stroke-miterlimit="282"/>
<path d="M25 2.37183C19.371 2.37183 13.0331 2.98354 4.73233 5.86202C-1.44685 24.4872 5.7217 39.4153 25 47.5516C44.2782 39.4153 51.4414 24.487 45.2622 5.86202C36.9615 2.98354 30.6289 2.37183 25 2.37183Z" fill="#023474" stroke="#023474" stroke-width="0.793" stroke-miterlimit="282"/>
<path d="M24.9737 2.354C19.3711 2.354 13.3559 3.06007 7.92787 4.8053C2.2989 23.8757 6.45195 37.8007 25.0054 47.5383L24.9737 2.354ZM25.0054 47.5383C43.5588 37.8007 47.7066 23.8757 42.0775 4.8053C36.6496 3.06007 30.6396 2.354 25.0372 2.354L25.0054 47.5383Z" fill="white"/>
<path d="M25.0054 47.5383C6.45195 37.8007 2.2989 23.8757 7.92787 4.8053C13.3559 3.06007 19.3711 2.354 24.9737 2.354L25.0054 47.5383ZM25.0054 47.5383C43.5588 37.8007 47.7066 23.8757 42.0775 4.8053C36.6496 3.06007 30.6396 2.354 25.0372 2.354L25.0054 47.5383Z" stroke="white" stroke-width="0.793" stroke-miterlimit="282"/>
<path d="M25.0056 2.34937C19.3713 2.34937 13.6682 3.07342 9.03381 4.44515C3.20375 24.4332 7.88569 37.9308 25.0108 47.1557L25.0056 2.34937Z" fill="#EF0107" stroke="#EF0107" stroke-width="0.793" stroke-miterlimit="282"/>
<path d="M25.016 2.34937C30.6501 2.34937 36.3534 3.07342 40.993 4.44515C46.823 24.4332 42.1409 37.9308 25.0107 47.1557L25.016 2.34937Z" fill="#DB0007" stroke="#DB0007" stroke-width="0.793" stroke-miterlimit="282"/>
<path d="M17.7253 32.5111C15.2388 33.9596 13.2603 34.4813 10.9642 34.9985L9.57812 33.1679C11.6891 32.2595 13.874 30.9955 16.0748 29.165C16.26 30.9414 17.2332 32.2007 17.7253 32.5111Z" fill="white"/>
<path d="M17.3873 32.4348C15.0279 33.8109 11.7424 34.769 7.98097 35.2367L7.21387 34.2474C10.4357 33.2216 13.5464 31.6926 15.959 29.5427C16.324 30.9189 16.8795 31.832 17.3873 32.4348Z" fill="#9C824A"/>
<path d="M11.1019 24.0284C11.1019 24.7975 10.3719 25.4182 9.4672 25.4182C8.5625 25.4182 7.82715 24.7975 7.82715 24.0284C7.82715 23.2593 8.5625 22.6387 9.4672 22.6387C10.3719 22.6387 11.1019 23.2593 11.1019 24.0284Z" fill="white"/>
<path d="M10.9277 21.2893V26.5337H15.7896C16.107 24.7751 17.2815 22.9085 19.9425 21.2893H10.9277Z" fill="white"/>
<path d="M11.1235 26.5337C10.0389 26.5471 9.14495 25.3912 9.129 23.943C9.11842 22.4946 9.98615 21.3073 11.076 21.2893C11.0866 21.2893 11.0972 21.2893 11.1131 21.2893" fill="white"/>
<path d="M10.4147 24.0284C10.4147 24.6222 9.90686 25.099 9.28257 25.099C8.65827 25.099 8.15039 24.6223 8.15039 24.0284C8.15039 23.4347 8.65827 22.958 9.28257 22.958C9.90686 22.9579 10.4147 23.4347 10.4147 24.0284Z" fill="#9C824A"/>
<path d="M11.0605 21.5637V26.2772H15.8854C16.2663 24.7121 17.2028 23.0479 19.541 21.5637H11.0605Z" fill="#9C824A"/>
<path d="M11.24 26.2772C10.2189 26.2953 9.38309 25.2519 9.36729 23.9519C9.3567 22.6521 10.1767 21.5816 11.1977 21.5637C11.2083 21.5637 11.2189 21.5637 11.2295 21.5637" fill="#9C824A"/>
<path d="M34.2313 27.7616C34.2313 32.1381 30.0626 35.6821 24.915 35.6821C19.7727 35.6821 15.5986 32.1381 15.5986 27.7616C15.5986 23.3853 19.7727 19.8411 24.915 19.8411C30.0626 19.8411 34.2313 23.3853 34.2313 27.7616Z" fill="white"/>
<path d="M33.745 27.7615C33.745 31.9085 29.7929 35.2681 24.9152 35.2681C20.0428 35.2681 16.0908 31.9085 16.0908 27.7615C16.0908 23.6192 20.0428 20.2549 24.9152 20.2549C29.7929 20.2548 33.745 23.6146 33.745 27.7615Z" fill="#9C824A"/>
<path d="M32.2798 27.7616C32.2798 31.2204 28.9838 34.0227 24.9156 34.0227C20.8525 34.0227 17.5566 31.2204 17.5566 27.7616C17.5566 24.3028 20.8525 21.5007 24.9156 21.5007C28.9838 21.5007 32.2798 24.3028 32.2798 27.7616Z" fill="white"/>
<path d="M31.7929 27.7616C31.7929 30.9909 28.7137 33.6042 24.9152 33.6042C21.122 33.6042 18.043 30.9909 18.043 27.7616C18.043 24.5323 21.122 21.9192 24.9152 21.9192C28.7137 21.9191 31.7929 24.5323 31.7929 27.7616Z" fill="#9C824A"/>
<path d="M27.7827 27.7615C27.788 29.1064 26.5025 30.1994 24.9205 30.2038C23.3336 30.2038 22.0479 29.1109 22.0479 27.766V27.7615C22.0479 26.4166 23.3282 25.3237 24.9152 25.3237C26.4969 25.3193 27.7825 26.4123 27.7825 27.7571C27.7827 27.7615 27.7827 27.7615 27.7827 27.7615Z" fill="white"/>
<path d="M27.4445 27.7617C27.4445 28.9493 26.3174 29.9117 24.9209 29.9117C23.5243 29.9117 22.3921 28.9538 22.3867 27.7664V27.7618C22.3867 26.5745 23.5189 25.6118 24.9155 25.6118C26.3121 25.6118 27.4445 26.5699 27.4445 27.7573V27.7617Z" fill="#9C824A"/>
<path d="M26.2167 27.7616C26.2167 28.3687 25.6347 28.8634 24.9153 28.8678C24.2011 28.8678 23.6191 28.3733 23.6191 27.7616C23.6191 27.15 24.2011 26.6597 24.9153 26.6553C25.6345 26.6551 26.2167 27.15 26.2167 27.7616Z" fill="white"/>
<path d="M25.8579 27.7616C25.8579 28.2023 25.44 28.5622 24.9163 28.5622C24.3978 28.5622 23.9746 28.2068 23.9746 27.7616C23.9746 27.321 24.3978 26.9612 24.9163 26.9612C25.4346 26.9611 25.8579 27.3163 25.8579 27.7616Z" fill="#9C824A"/>
<path d="M25.8842 21.7842H23.9268V25.6656H25.8842V21.7842Z" fill="white"/>
<path d="M25.5813 21.2263H24.2324V26.1603H25.5813V21.2263Z" fill="#9C824A"/>
<path d="M30.3697 23.9744L31.4384 25.3686L27.6082 27.4828L26.5449 26.0884L30.3697 23.9744Z" fill="white"/>
<path d="M31.084 23.8892L31.8194 24.8517L26.9522 27.5413L26.2168 26.5744L31.084 23.8892Z" fill="#9C824A"/>
<path d="M22.1692 28.0764L23.2167 29.4797L19.36 31.5577L18.3125 30.1499L22.1692 28.0764Z" fill="white"/>
<path d="M22.8257 27.9954L23.5505 28.9669L18.6517 31.607L17.9268 30.6355L22.8257 27.9954Z" fill="#9C824A"/>
<path d="M25.8842 29.988H23.9268V33.8693H25.8842V29.988Z" fill="white"/>
<path d="M25.5813 29.4348H24.2324V34.3642H25.5813V29.4348Z" fill="#9C824A"/>
<path d="M23.0054 29.5742C23.27 29.7631 23.5608 29.934 23.9259 30.0645L23.9153 33.5277C22.069 33.3253 20.6723 32.5517 19.6143 31.4499L23.0108 29.5742" fill="#EF0107"/>
<path d="M23.0054 29.5742C23.27 29.7631 23.5608 29.934 23.9259 30.0645L23.9153 33.5277C22.069 33.3253 20.6723 32.5517 19.6143 31.4499L23.0108 29.5742" stroke="#EF0107" stroke-width="0.3115" stroke-miterlimit="282"/>
<path d="M26.8199 29.5876C26.5501 29.772 26.2643 29.9475 25.8994 30.0733L25.9046 33.5367C27.751 33.3343 29.1478 32.5607 30.2058 31.4588L26.8147 29.5878" fill="#DB0007"/>
<path d="M26.8199 29.5876C26.5501 29.772 26.2643 29.9475 25.8994 30.0733L25.9046 33.5367C27.751 33.3343 29.1478 32.5607 30.2058 31.4588L26.8147 29.5878" stroke="#DB0007" stroke-width="0.3115" stroke-miterlimit="282"/>
<path d="M27.7461 28.1348L31.7879 27.7209C31.8197 28.5799 31.5762 29.3356 31.2323 30.0598L27.7354 28.1348" fill="#DB0007"/>
<path d="M27.751 28.1214C27.7668 28.0675 27.7616 28.0181 27.7881 27.8607L31.7772 27.4199C31.793 27.5773 31.7824 27.6357 31.7772 27.7077L27.751 28.1214Z" fill="white" stroke="white" stroke-width="0.3115" stroke-miterlimit="282"/>
<path d="M33.6553 25.2654H38.8876C38.7235 25.7915 38.5647 26.3267 37.8134 26.5652C36.6125 26.9477 34.1208 27.3163 34.1208 27.3163C34.0731 26.736 33.9197 25.9488 33.6553 25.2654Z" fill="white"/>
<path d="M30.0098 21.2129L43.6801 21.2263L43.1987 25.4721L33.8611 25.886C33.3584 23.9879 31.6601 22.1754 30.0098 21.2129Z" fill="white"/>
<path d="M30.4961 21.5142L47.9492 21.5276L47.2825 24.9865L33.7391 25.5533C33.2047 23.835 31.9828 22.5802 30.4961 21.5142Z" fill="#9C824A"/>
<path d="M33.6553 25.2654H38.4747C38.316 25.733 38.2048 26.1603 37.496 26.3717C36.3692 26.7135 34.0996 26.9834 34.0996 26.9834C34.0044 26.4213 33.8668 25.85 33.6553 25.2654Z" fill="#9C824A"/>
<path d="M28.3648 15.0465C28.3648 15.2354 28.3172 15.7527 28.2908 15.8965H30.9995C30.8353 15.2847 30.7612 14.4348 30.7402 13.7781C30.7402 13.823 30.6926 12.4602 30.6926 12.4602C30.6926 12.3657 30.7402 12.2218 30.8089 12.1769C30.9043 12.0824 30.9995 12.0824 31.116 12.0824C31.2322 12.0374 31.4439 12.0374 31.4703 12.4108L31.5392 13.823C31.5655 14.4841 31.5655 15.3793 31.4703 15.8965H34.0785C34.0572 15.7076 33.9833 15.2353 33.9621 15.0959C34.2901 15.7076 34.999 16.0359 35.9407 16.0359C36.5015 16.0359 36.9299 15.8513 37.258 15.6625C37.258 15.7075 37.3956 15.8965 37.3956 15.8965H42.2417C42.03 15.2847 41.8924 14.4348 41.8185 13.7781L41.1359 9.16337L38.6441 8.78557C38.8559 9.39729 38.9987 10.2923 39.0884 10.904L39.4693 13.8726C39.5382 14.3898 39.5859 14.9566 39.5859 15.5681V15.6131L39.4905 15.4241C39.3001 15.0463 39.2101 14.5786 39.136 13.8724L39.0461 12.9279C38.9033 11.4211 37.9405 10.7643 35.8189 10.7643C35.4698 10.7643 34.5757 10.8093 34.0308 10.9533L34.1736 12.6444L34.7398 12.3656C35.2107 12.1272 35.5598 12.0327 35.9829 12.0327C36.3164 12.0327 36.5279 12.1273 36.6231 12.3162C36.2213 12.3656 35.7766 12.46 35.2794 12.6444C34.5281 12.9278 34.0572 13.3549 33.8457 13.8228V13.7778L33.7716 12.2216C33.7294 11.2321 32.9729 10.5754 31.8194 10.5754C31.3063 10.5754 30.8353 10.7148 30.4122 10.9532C30.3858 10.9037 30.3647 10.8586 30.3381 10.8092L30.2429 10.6202L28.079 10.5257C28.1742 10.8586 28.3172 11.7987 28.3384 12.1271C28.2218 11.6592 27.915 11.142 27.3489 10.7642C26.9046 10.5259 26.3385 10.3864 25.7513 10.3864C24.9523 10.3864 24.127 10.6697 23.5874 11.142C23.0214 11.6097 22.7408 12.271 22.7145 13.0221C22.5029 12.8332 22.2225 12.6488 21.8944 12.5544L20.9051 12.1271H20.8575C20.6248 12.0325 20.5983 11.9875 20.5983 11.9426C20.6248 11.8481 20.8575 11.7536 21.1645 11.7536C21.5877 11.7536 22.175 11.9426 22.6457 12.1765L22.6933 10.6697C22.3388 10.5257 21.8469 10.4358 21.1379 10.4358C20.7623 10.4358 20.0587 10.4808 19.4449 10.7641C19.2808 10.8586 19.138 10.953 19.0006 11.0475L19.0217 10.6201C18.4557 10.5302 17.8472 10.5302 17.0959 11.1419C17.0695 11.0924 17.0218 10.8584 16.9743 10.7641L14.6466 10.8586C14.8106 11.4209 14.8369 12.2214 14.7894 12.9276L14.7418 13.6832V13.7777C14.7153 14.1555 14.6943 14.5782 14.6466 14.956C14.4561 14.4342 14.2498 13.7282 14.0804 13.166L12.9272 8.74023L9.63654 9.16299C9.65771 9.20795 9.70526 9.35195 9.7318 9.49126C9.75312 9.68022 9.75312 10.058 9.44618 10.8586C8.90656 12.1271 8.15525 14.061 7.42526 15.4238C7.33001 15.6127 7.13965 15.896 7.13965 15.896H9.70541C9.75312 15.5676 9.91709 15.001 10.0811 14.5781C10.4356 14.5781 11.3508 14.5781 11.7739 14.5286C11.8691 14.8614 11.9644 15.2842 11.9909 15.5675L12.0333 15.8959H17.1649C17.0485 15.1897 17.0961 14.2496 17.1386 13.7279C17.1861 13.1162 17.3289 12.6935 17.6359 12.4595C17.8685 12.2212 18.1278 12.1762 18.3183 12.1762C18.2919 13.0217 18.9268 13.3997 19.4928 13.6334L20.5032 14.0606C20.8577 14.2496 20.8577 14.2946 20.8577 14.389C20.8365 14.5285 20.5507 14.578 20.2917 14.578C19.752 14.578 19.0219 14.2946 18.223 13.5435L18.1755 15.518C18.8104 15.8013 19.6092 15.9407 20.3182 15.9407C21.4927 15.9407 22.7411 15.4729 23.0692 14.5779C23.6564 15.5179 24.8098 15.9407 25.9419 15.9407C26.9522 15.9415 27.7033 15.6625 28.3648 15.0465ZM10.6948 13.1168C10.8376 12.7886 10.9539 12.5051 11.1655 11.9879C11.3083 12.5051 11.3771 12.8335 11.4459 13.0719C11.1655 13.1168 11.0227 13.1168 10.6948 13.1168ZM25.0952 12.5996C25.0952 11.9429 25.3756 11.6596 25.6562 11.6596C25.7514 11.6596 25.963 11.6101 26.0581 11.9429C26.1056 12.0824 26.1268 12.1769 26.1268 12.2218C26.1268 12.4108 26.0105 12.4602 25.8677 12.4602V12.5051C25.8677 12.5051 25.4709 12.5996 25.0952 12.7435C25.0952 12.6941 25.0952 12.6491 25.0952 12.5996ZM27.7774 13.9669C27.28 14.3403 26.9256 14.5786 26.3385 14.5786C25.8677 14.5291 25.5872 14.2952 25.4232 13.9669C25.9153 13.823 27.8198 13.2113 28.3646 13.0224C28.3646 13.4002 28.3859 13.8229 28.3859 13.8229V14.6236L27.7774 13.9669ZM36.5489 14.6237C36.1047 14.6237 36.0093 14.3403 35.9881 14.1559C36.0093 13.9669 36.078 13.6836 36.7868 13.4948C36.8081 13.7287 36.8344 13.9175 36.8344 13.9175V14.1064C36.8557 14.2502 36.8557 14.3897 36.8767 14.5291C36.787 14.5786 36.6707 14.5786 36.5489 14.6237Z" fill="#9C824A"/>
<path d="M22.291 10.9041C22.0583 10.8591 21.7039 10.7646 21.1378 10.7646C20.6935 10.7646 20.1061 10.8591 19.6564 11.0481C19.1379 11.3314 18.7623 11.7048 18.7411 12.1321C18.6936 12.7888 19.0956 13.0721 19.6828 13.306C20.0796 13.4949 20.4605 13.6838 20.6933 13.7783C21.0001 13.9177 21.2805 14.0616 21.2593 14.39C21.233 14.7184 20.8785 14.9567 20.2913 14.9567C19.7992 14.9567 19.0956 14.6734 18.5983 14.2955L18.5771 15.285C19.0004 15.474 19.6828 15.5683 20.3177 15.5683C21.3969 15.5683 22.7406 15.1456 22.7618 14.1065C22.7882 13.306 22.1271 13.0225 21.7302 12.8381C21.3282 12.6943 20.926 12.5054 20.741 12.4604C20.5505 12.3659 20.1749 12.2715 20.2014 11.8936C20.2437 11.5653 20.6935 11.4213 21.1642 11.4213C21.5611 11.4213 21.9631 11.5158 22.2699 11.6597" fill="white"/>
<path d="M12.6257 9.16333L10.1286 9.44664C10.1763 9.73008 10.0811 10.2923 9.82185 10.9534C9.30876 12.2218 8.4622 14.3401 7.80078 15.568H9.35631C9.4462 15.1408 9.56262 14.7674 9.80068 14.2502L12.1074 14.2007C12.1973 14.5785 12.3666 15.1902 12.3878 15.568H14.4828C14.2235 15.0463 13.8956 13.9668 13.6841 13.2112L12.6257 9.16333ZM10.1286 13.4452L11.2608 10.6701L11.9434 13.4002" fill="white"/>
<path d="M18.5993 10.9041L18.5517 11.8486C18.1761 11.7992 17.7053 11.8936 17.3297 12.222C17.0016 12.5053 16.79 12.9282 16.7425 13.6837C16.6948 14.2955 16.6736 15.0017 16.7159 15.5683H14.9541C15.0705 15.0017 15.1182 14.3449 15.1392 13.7288L15.1868 12.9777C15.2343 12.366 15.2343 11.7542 15.1181 11.1876L16.6735 11.1427C16.7423 11.3316 16.7899 11.6599 16.7635 11.9882C17.4459 11.0929 18.1072 10.9041 18.5993 10.9041Z" fill="white"/>
<path d="M40.7867 9.44661L39.1836 9.20825C39.3477 9.82453 39.3953 10.2473 39.4905 10.8589L39.8663 13.823C39.9403 14.4347 40.0091 15.0014 39.9878 15.5681H41.7285C41.5591 15.0014 41.4904 14.4347 41.4216 13.823" fill="white"/>
<path d="M33.6084 15.5682C33.5183 15.0015 33.4706 14.4348 33.4441 13.8231L33.3754 12.2714C33.3278 11.4213 32.7618 10.9536 31.82 10.9536C31.3069 10.9536 30.693 11.093 30.1747 11.6596C30.1535 11.5158 30.0795 11.1424 29.9844 10.9536L28.5771 10.9041C28.6934 11.4708 28.7411 12.033 28.7621 12.6447L28.7887 13.8231C28.8098 14.4348 28.7887 15.0015 28.7411 15.5682H30.5028C30.4128 15.0015 30.3652 14.4348 30.3387 13.8231L30.2911 12.5053C30.27 12.033 30.6932 11.7046 31.1165 11.7046C31.6085 11.7046 31.8465 11.9879 31.8678 12.4108L31.9418 13.8231C31.9631 14.4348 31.9631 15.0015 31.9154 15.5682" fill="white"/>
<path d="M39.1151 15.5683C38.9035 15.096 38.7871 14.5294 38.7394 13.9177L38.644 12.9776C38.5487 11.8486 37.9882 11.093 35.819 11.093C35.4434 11.093 34.9037 11.1425 34.4595 11.2325L34.5282 12.0825C34.9724 11.8486 35.4223 11.6598 35.9883 11.6598C36.5755 11.6598 37.0676 11.8937 37.1153 12.5998C36.5491 12.6493 36.0307 12.7392 35.4435 12.9776C34.7876 13.2115 34.105 13.6838 34.1737 14.4348C34.2425 15.2848 34.999 15.6626 35.9408 15.6626C36.6708 15.6626 37.1629 15.3793 37.4433 15.096C37.4908 15.2848 37.5649 15.4243 37.6336 15.5683H39.1151ZM36.5491 14.9566C36.0305 14.9566 35.6076 14.7182 35.5863 14.201C35.5863 13.6838 35.962 13.261 37.1629 13.117L37.2317 13.9177C37.2581 14.201 37.2581 14.3899 37.3057 14.6239C37.1366 14.8127 36.8561 14.9072 36.5491 14.9566Z" fill="white"/>
<path d="M27.1168 11.0479C26.7149 10.8096 26.244 10.7151 25.7521 10.7151C24.5987 10.7151 23.0697 11.4213 23.1173 13.2113C23.1385 15.0465 24.7891 15.6131 25.9424 15.6131C26.9528 15.6131 27.5667 15.2847 28.0585 14.862L27.704 14.4346C27.4449 14.6236 27.0215 14.9069 26.3391 14.9069C25.609 14.862 25.1434 14.4346 24.8842 13.778L28.0796 12.7885C27.9844 11.8936 27.6089 11.3763 27.1168 11.0479ZM26.0112 12.7886L24.7414 13.2113C24.715 13.0225 24.6938 12.8335 24.6938 12.5996C24.6938 11.5156 25.3974 11.3268 25.6354 11.3268C26.0112 11.2818 26.3391 11.4707 26.4606 11.8485C26.5983 12.2714 26.5508 12.6491 26.0112 12.7886Z" fill="white"/>
<path d="M18.4824 25.0495L19.5563 23.6597L23.376 25.7826L22.302 27.1768L18.4824 25.0495Z" fill="white"/>
<path d="M18.1279 24.5726L18.8687 23.6101L23.7199 26.3132L22.9792 27.2758L18.1279 24.5726Z" fill="#9C824A"/>
<path d="M26.6348 29.4752L27.7087 28.0808L31.5282 30.2083L30.4543 31.6027L26.6348 29.4752Z" fill="white"/>
<path d="M26.2803 28.9985L27.021 28.0361L31.8724 30.7392L31.1317 31.6973L26.2803 28.9985Z" fill="#9C824A"/>
</svg>
