<svg width="50" height="50" viewBox="0 0 50 50" fill="none" xmlns="http://www.w3.org/2000/svg">
<path fill-rule="evenodd" clip-rule="evenodd" d="M5.25243 2.45541C8.57264 3.89477 14.0219 3.72434 17.677 1C22.7877 4.69835 27.7064 4.31869 32.3964 1C35.5232 3.2322 40.3372 4.18527 44.8543 2.50225L46.8794 5.28102C41.599 12.2506 43.5536 18.9125 49 24.7753L46.713 27.0656C47.231 42.0976 35.4428 45.6866 28.6738 46.0592L25.0344 49L21.4221 46.103C9.3373 45.0722 2.95675 38.7756 3.35149 27.1042L1 24.7578C5.59458 19.8495 9.04712 13.1426 3.14499 5.27951L5.25243 2.45541Z" fill="black" stroke="black" stroke-width="0.189272"/>
<path fill-rule="evenodd" clip-rule="evenodd" d="M5.52712 26.8015H44.4128C45.4348 37.429 38.5983 43.1691 28.2026 43.7335L21.5967 43.75C11.6509 43.0438 4.24086 37.8576 5.52712 26.8015Z" fill="#004D98"/>
<path d="M27.7992 26.9292H22.291V43.9112H27.7992V26.9292Z" fill="#A50044"/>
<path d="M16.8364 26.9292H11.3281V42.1063H16.8364V26.9292Z" fill="#A50044"/>
<path d="M16.8368 41.3286H13.249V42.892H16.8368V41.3286Z" fill="#A50044"/>
<path d="M38.6996 26.9292H33.1914V42.1063H38.6996V26.9292Z" fill="#A50044"/>
<path d="M36.7792 41.3286H33.1914V42.892H36.7792V41.3286Z" fill="#A50044"/>
<path fill-rule="evenodd" clip-rule="evenodd" d="M24.8662 5.967V21.051L6.30392 21.1836L8.21721 13.9234L5.83398 5.23767L17.5823 3.74585L24.8662 5.967Z" fill="white"/>
<path fill-rule="evenodd" clip-rule="evenodd" d="M25.1348 5.967V21.051L43.6971 21.1836L41.7838 13.9234L44.167 5.23767L32.4187 3.74585L25.1348 5.967Z" fill="#FFED02"/>
<path d="M19.4618 4.17554H14.1396V20.9575H19.4618V4.17554Z" fill="#DB0030"/>
<path d="M24.8662 15.6916V10.4353H8.30548V15.6916H24.8662Z" fill="#DB0030"/>
<path d="M28.7692 5.36523H26.8008V20.8483H28.7692V5.36523Z" fill="#DB0030"/>
<path d="M32.5055 4.2561H30.5371V20.8848H32.5055V4.2561Z" fill="#DB0030"/>
<path d="M36.2672 5.19336H34.2988V20.9194H36.2672V5.19336Z" fill="#DB0030"/>
<path d="M39.9928 5.76953H38.0244V20.9054H39.9928V5.76953Z" fill="#DB0030"/>
<path fill-rule="evenodd" clip-rule="evenodd" d="M17.6454 2.19482C14.2175 4.67633 8.79304 4.93741 5.67909 3.69668L4.4319 5.28243C9.78245 12.7179 6.70832 20.1985 2.46582 24.78L4.41947 26.822C3.62671 38.0292 10.2489 44.5108 21.8904 45.1778L25.0457 47.7804L28.1947 45.1368C34.9742 45.0214 46.8616 41.2662 45.5808 26.8056L47.5448 24.7963C42.5625 19.3391 40.8452 11.8645 45.6595 5.28243L44.489 3.70691C40.2291 5.08954 35.3557 4.32314 32.4232 2.22961C28.0246 5.34214 22.4387 5.66343 17.6454 2.19482ZM32.4625 4.32484C35.1072 5.94665 38.0297 6.40812 43.0677 5.97197C40.5449 10.2829 40.2724 15.4184 42.5063 20.3767L7.54365 20.3562C9.42408 15.9257 9.85553 10.8275 6.90763 5.87376C10.5415 6.39481 14.0912 6.26996 17.6309 4.36781C22.4323 7.15153 27.3717 7.20245 32.4625 4.32484ZM6.30268 26.9693H43.7949C44.7803 37.2158 38.1887 42.7492 28.1657 43.2933L21.7951 43.3097C12.2058 42.6288 5.06254 37.629 6.30268 26.9693Z" fill="#EDBB00" stroke="#DEB405" stroke-width="0.177515"/>
<path fill-rule="evenodd" clip-rule="evenodd" d="M6.86816 5.92784C9.81606 10.8816 9.3843 15.9797 7.50387 20.4102L42.4657 20.4306C40.2319 15.4724 40.5053 10.3368 43.0281 6.02584C37.99 6.46199 35.0683 6.00096 32.4236 4.37915C27.3328 7.25676 22.3918 7.20473 17.5904 4.42101C14.0507 6.32316 10.502 6.4489 6.86816 5.92784Z" stroke="black" stroke-width="0.75709"/>
<path fill-rule="evenodd" clip-rule="evenodd" d="M6.30316 26.9692H43.7948C44.7801 37.2157 38.1888 42.7501 28.1657 43.2942L21.7967 43.3101C12.2074 42.6293 5.06302 37.6289 6.30316 26.9692Z" stroke="black" stroke-width="0.75709"/>
<path d="M25.0117 6.4458V20.437" stroke="black" stroke-width="0.75709"/>
<path d="M30.1828 34.9536C30.1829 35.6148 30.0511 36.2695 29.795 36.8804C29.5389 37.4913 29.1635 38.0464 28.6902 38.514C28.2168 38.9815 27.6549 39.3524 27.0364 39.6055C26.4179 39.8585 25.755 39.9888 25.0855 39.9888C24.4161 39.9888 23.7532 39.8585 23.1347 39.6055C22.5162 39.3524 21.9542 38.9815 21.4809 38.514C21.0076 38.0464 20.6321 37.4913 20.376 36.8804C20.1199 36.2695 19.9882 35.6148 19.9883 34.9536C19.9882 34.2924 20.1199 33.6377 20.376 33.0268C20.6321 32.4159 21.0076 31.8608 21.4809 31.3933C21.9542 30.9257 22.5162 30.5548 23.1347 30.3018C23.7532 30.0487 24.4161 29.9185 25.0855 29.9185C25.755 29.9185 26.4179 30.0487 27.0364 30.3018C27.6549 30.5548 28.2168 30.9257 28.6902 31.3933C29.1635 31.8608 29.5389 32.4159 29.795 33.0268C30.0511 33.6377 30.1829 34.2924 30.1828 34.9536Z" fill="#EDBB00" stroke="black" stroke-width="0.760882"/>
<path d="M22.1451 30.853C21.5501 32.9947 21.1812 35.1035 22.8975 36.1167C24.0968 36.8248 24.9078 35.3808 25.1324 34.8214" stroke="black" stroke-width="0.662453"/>
<path d="M20.3682 36.9837C21.373 36.9384 21.8973 36.8568 22.5418 35.8896" stroke="black" stroke-width="0.662453"/>
<path d="M25.0898 34.8589C26.0982 34.2468 26.995 34.543 27.4117 36.0754C28.3931 35.6859 29.3389 36.434 29.5853 37.1901" stroke="black" stroke-width="0.662453"/>
<path d="M27.4325 36.0754C26.6876 37.8517 24.7282 38.674 21.9775 38.9447" stroke="black" stroke-width="0.662453"/>
<path d="M25.0909 34.9318C24.472 34.3721 23.5199 33.7316 24.907 32.0861C24.3184 31.3495 24.158 30.6298 24.9274 29.9468" stroke="black" stroke-width="0.662453"/>
<path d="M30.159 35.2547C29.2538 33.6742 27.1468 31.4842 24.9072 32.0658" stroke="black" stroke-width="0.662453"/>
<path d="M17.9583 21.2754V21.2938H17.0322V23.0698V24.0765V26.051H18.0329V24.0765H19.4603V23.0698H18.0329V22.2985H20.4962V21.2754H17.9583Z" fill="black"/>
<path fill-rule="evenodd" clip-rule="evenodd" d="M25.5339 22.7654L26.432 22.3022C25.8587 21.0502 23.5343 20.6942 22.7696 22.3022C21.9807 24.2201 22.8193 26.002 24.3463 26.1756C25.3167 26.3151 26.0856 25.846 26.4121 25.0125L25.5239 24.5099C25.2874 25.092 24.3855 25.4926 23.6977 24.5198C23.4859 24.085 23.4316 23.4159 23.6678 22.7654C24.2318 22 25.0563 22.0828 25.5339 22.7654Z" fill="black" stroke="black" stroke-width="0.0378545"/>
<path fill-rule="evenodd" clip-rule="evenodd" d="M28.9678 21.2876L28.9864 26.0878L31.632 26.0776C32.4929 25.9585 33.6214 24.5668 32.2991 23.4851C32.9982 22.8767 32.9106 21.5751 31.5119 21.2978L28.9678 21.2876ZM29.985 22.2329H31.3026C31.8821 22.3976 31.7101 22.9478 31.3213 23.0411H29.985V22.2329ZM29.9954 23.9783L31.3813 23.9967C32.0669 24.1982 31.9121 24.9698 31.4021 25.1016L30.0057 25.0913L29.9954 23.9783Z" fill="black" stroke="black" stroke-width="0.189272"/>
</svg>
