<svg width="48" height="48" viewBox="0 0 48 48" fill="none" xmlns="http://www.w3.org/2000/svg">
<g clip-path="url(#clip0_204_50597)">
<path d="M47.6928 24.0011C47.6928 10.9355 37.0639 0.307129 23.9994 0.307129C10.935 0.307129 0.306641 10.9355 0.306641 24.0011C0.306641 37.0644 10.935 47.6927 23.9994 47.6927C37.0639 47.6927 47.6928 37.0644 47.6928 24.0011Z" fill="white" stroke="black" stroke-width="1.0875"/>
<path d="M39.5801 35.861L39.2973 36.163L39.8073 36.6408L40.0764 36.3532C40.2397 36.1781 40.2754 35.9441 40.1059 35.7862C39.9404 35.6311 39.7352 35.6949 39.5801 35.861ZM9.9381 37.3101C9.54685 37.6883 9.55234 38.2024 9.87427 38.5353C10.1962 38.8675 10.7096 38.8902 11.1002 38.512C11.4942 38.1317 11.4887 37.6175 11.1668 37.2847C10.8455 36.9525 10.3321 36.9291 9.9381 37.3101ZM39.2283 35.1141C39.0738 34.97 38.8981 35.0448 38.7931 35.1573L38.5267 35.4422L38.9688 35.8554L39.2262 35.5795C39.3594 35.4374 39.3676 35.2445 39.2283 35.1141ZM44.9995 23.9883C45.0819 23.8448 45.1533 23.6876 45.1533 23.5126C45.1533 23.0479 44.7854 22.6834 44.2994 22.6834C43.8134 22.6834 43.4448 23.0479 43.4448 23.5126C43.4448 24.002 43.845 24.3384 44.2637 24.3384C44.2994 24.3384 44.3351 24.3342 44.3708 24.3274L43.8347 25.2493H44.2706L44.9995 23.9883ZM42.8476 24.4598C42.8476 24.1667 42.698 23.9272 42.4618 23.7913C42.5799 23.6808 42.6513 23.527 42.6513 23.3444C42.6513 22.9765 42.3616 22.6834 41.9827 22.6834C41.6079 22.6834 41.3217 22.9765 41.3217 23.3444C41.3217 23.527 41.3896 23.6808 41.5077 23.7878C41.2716 23.9237 41.1219 24.1667 41.1219 24.4598C41.1219 24.9204 41.4967 25.278 41.9827 25.278C42.4763 25.278 42.8476 24.9204 42.8476 24.4598ZM40.4754 35.3982C40.229 35.1682 39.9167 35.1868 39.6641 35.3563C39.7767 35.1113 39.7183 34.8292 39.5227 34.6459C39.268 34.407 38.8603 34.4152 38.4889 34.812L37.8286 35.5176L39.7794 37.3428L40.461 36.6132C40.866 36.1807 40.763 35.6673 40.4754 35.3982ZM38.1705 37.8075L37.0386 36.5109L36.635 36.8637L37.7291 38.1171C37.9934 38.4198 37.92 38.7053 37.6969 38.9003C37.4731 39.0952 37.1752 39.124 36.9164 38.8275L35.8216 37.5734L35.418 37.9262L36.5498 39.2229C36.9932 39.7301 37.6213 39.6285 38.0249 39.2764C38.4285 38.9236 38.6166 38.3182 38.1705 37.8075ZM36.2354 40.6396L35.9807 40.2586L35.0932 40.8517L33.8639 39.0121L33.4184 39.3093L34.9024 41.5305L36.2354 40.6396ZM33.4355 41.4963L32.9406 41.4626C32.955 41.8649 32.7738 42.1579 32.4546 42.2994C32.0386 42.4834 31.5794 42.3186 31.3474 41.7949C31.1058 41.2499 31.3385 40.8318 31.7538 40.6479C31.9803 40.547 32.2597 40.5168 32.528 40.6911L32.7271 40.2079C32.3221 39.9958 31.8952 40.0342 31.5609 40.1825C30.93 40.4618 30.4908 41.1935 30.8655 42.0399C31.2177 42.834 31.9906 43.0558 32.6365 42.7696C33.119 42.5561 33.4451 42.1003 33.4355 41.4963ZM29.0054 44.0731L28.9154 43.6228L27.8687 43.8321L27.4349 41.6631L26.9091 41.7681L27.4335 44.3875L29.0054 44.0731ZM26.2007 44.5995L26.1753 44.1417L25.1093 44.2021L24.9837 41.9933L24.449 42.0235L24.6 44.6901L26.2007 44.5995ZM39.4526 24.0008C39.4526 23.0761 39.3744 22.1783 39.2145 21.2887C39.1685 21.0327 39.0772 20.7293 39.0772 20.7293L39.9599 17.6651C40.1494 17.0082 40.2235 16.827 40.1199 16.6581C40.0787 16.5909 40.0032 16.4824 39.697 16.4021L37.0469 15.7414L36.965 15.594C34.2036 11.3429 29.4143 8.52557 23.9784 8.52557C18.5194 8.52557 13.7127 11.3667 10.9575 15.6476L10.9039 15.7465L8.25301 16.4068C7.94688 16.4878 7.87137 16.5962 7.83019 16.6628C7.72654 16.8324 7.80136 17.0129 7.99012 17.6705L8.87287 20.7346C8.87287 20.7346 8.79393 21.0058 8.74726 21.2639C8.60036 22.069 8.50427 23.0671 8.50427 24.0006C8.50427 32.5333 15.4456 39.4752 23.9789 39.4752C32.5116 39.4752 39.4535 32.5339 39.4535 24.0006M23.373 44.7225L22.6083 41.9597L22.0997 41.9082L20.7921 44.4603L21.3693 44.5194L21.6528 43.94L22.6337 44.0396L22.795 44.6635L23.373 44.7225ZM19.6389 41.5087L18.7082 41.2492L17.9909 43.8219L18.9532 44.0903C19.5237 44.2495 19.9314 43.9208 20.0371 43.5412C20.1278 43.2165 19.9664 42.9488 19.6994 42.8026C19.9692 42.7889 20.1923 42.607 20.2644 42.3489C20.3584 42.0125 20.1627 41.6549 19.6389 41.5087ZM17.7088 40.9431L15.6997 40.0261L15.5095 40.4434L16.2701 40.7907L15.351 42.8033L15.839 43.0264L16.7574 41.0131L17.518 41.3605L17.7088 40.9431ZM14.0174 38.9158C13.3633 38.4991 12.5361 38.6804 12.1043 39.3585C11.6753 40.0333 11.862 40.859 12.5161 41.275C13.1702 41.6916 13.9974 41.5104 14.4264 40.8357C14.8582 40.1575 14.6715 39.3317 14.0174 38.9158ZM11.4793 38.8988C12.0572 38.34 12.0682 37.493 11.5294 36.9363C10.9905 36.3789 10.1442 36.3618 9.56623 36.9205C8.99102 37.4765 8.98001 38.3229 9.51886 38.8803C10.0577 39.4376 10.9048 39.4547 11.4793 38.8988ZM8.58326 35.3075L9.10562 34.9224L9.7495 35.7941L10.1188 35.5216L9.15715 34.2181L7.00731 35.8038L7.32581 36.2355L8.21403 35.58L8.72747 36.276L9.09676 36.0034L8.58326 35.3075ZM6.31879 24.4657C6.31879 24.1726 6.16846 23.933 5.93303 23.7971C6.05109 23.6866 6.12248 23.5329 6.12248 23.3503C6.12248 22.9824 5.83281 22.6892 5.45392 22.6892C5.07845 22.6892 4.79288 22.9823 4.79288 23.3503C4.79288 23.5329 4.86083 23.6866 4.97821 23.7937C4.74277 23.9296 4.59244 24.1726 4.59244 24.4657C4.59244 24.927 4.96791 25.2839 5.4539 25.2839C5.94674 25.2839 6.31879 24.927 6.31879 24.4657ZM3.75645 22.6893L3.36314 22.9343V25.2558H3.75645V22.6893ZM7.28666 11.66L10.007 13.9389L10.8595 12.9216C11.3654 12.3182 11.1903 11.6442 10.7895 11.3085C10.4463 11.0209 10.0331 11.069 9.70976 11.3119C9.84155 10.9783 9.7434 10.6083 9.47089 10.3797C9.11533 10.0818 8.57516 10.1217 8.1104 10.6756L7.28666 11.66ZM10.3227 8.39882L12.5515 11.161L13.1054 10.7134L12.2247 9.62202L12.4807 9.41541L13.9661 10.0195L14.6375 9.47721L12.9544 8.82582C13.1884 8.39407 13.0937 7.95064 12.8638 7.66507C12.5082 7.22439 11.9007 7.12486 11.3468 7.57172L10.3227 8.39882ZM14.1193 5.74792L15.6513 8.94935L17.6316 8.00076L17.3687 7.45162L16.0309 8.092L15.6602 7.31841L16.6967 6.82214L16.4338 6.27235L15.3973 6.76862L15.0246 5.99023L16.3233 5.36832L16.0604 4.81854L14.1193 5.74792ZM18.0497 4.13139L18.8418 7.59089L19.5357 7.43165L19.0374 5.25499L21.1612 7.05956L21.818 6.90924L21.0252 3.44973L20.3319 3.60829L20.8337 5.80071L18.7071 3.98032L18.0497 4.13139ZM22.5498 3.88085L23.6611 3.88634L23.6446 6.82626L24.3571 6.83038L24.3729 3.89047L25.4842 3.89664L25.4869 3.2871L22.5526 3.27131L22.5498 3.88085ZM26.4554 6.98137L27.1549 7.11591L27.4322 5.67512L28.5607 5.89202L28.6759 5.29326L27.5482 5.07636L27.7108 4.22936L29.1248 4.50115L29.24 3.90262L27.1263 3.49558L26.456 6.98134L26.4554 6.98137ZM30.7208 8.35485C31.6708 8.75297 32.7134 8.33014 33.1239 7.34996C33.5365 6.36494 33.1068 5.32503 32.1561 4.92692C31.2061 4.5288 30.1634 4.95163 29.7509 5.93667C29.3404 6.91688 29.7701 7.95673 30.7208 8.35485ZM35.3259 6.68072L33.1864 9.51284L33.7547 9.94184L34.5997 8.82299L34.8626 9.02137L34.6375 10.6084L35.326 11.1287L35.5497 9.33713C36.0254 9.46 36.4325 9.26025 36.6535 8.96784C36.9947 8.51549 36.9445 7.9032 36.3762 7.47357L35.3259 6.68072ZM38.7539 9.51013L36.2265 12.0011L37.0516 12.8392C37.9378 13.7377 39.0415 13.5132 39.66 12.9037C40.2826 12.2908 40.4583 11.2392 39.6367 10.4052L38.7546 9.51067L38.7539 9.51013ZM46.8343 23.9993C46.8343 36.5883 36.5922 46.8298 24.0038 46.8298C11.4153 46.8298 1.17383 36.5878 1.17383 23.9993C1.17383 11.4098 11.4159 1.16772 24.0038 1.16772C36.5927 1.16772 46.8343 11.4098 46.8343 23.9993ZM30.9779 7.74373C31.5448 7.98122 32.1839 7.7396 32.4633 7.07314C32.7447 6.40181 32.4681 5.77719 31.9011 5.53968C31.3342 5.30149 30.6944 5.54308 30.4136 6.21445C30.1343 6.88164 30.4109 7.50548 30.9779 7.74373ZM36.0594 8.56611C36.2124 8.36361 36.1864 8.09385 35.9406 7.90851L35.5274 7.59687L34.9687 8.33681L35.3599 8.63265C35.6098 8.82142 35.8967 8.78164 36.0594 8.56611ZM44.303 23.0468C44.0243 23.0468 43.8452 23.2576 43.8452 23.5115C43.8452 23.7614 44.0243 23.9762 44.303 23.9762C44.5783 23.9762 44.7602 23.7614 44.7602 23.5115C44.7602 23.2576 44.5783 23.0468 44.303 23.0468ZM41.9864 24.001C41.7111 24.001 41.5258 24.2048 41.5258 24.4588C41.5258 24.7086 41.7111 24.9125 41.9864 24.9125C42.2692 24.9125 42.4552 24.7086 42.4552 24.4588C42.4552 24.2048 42.2692 24.001 41.9864 24.001ZM41.9864 23.6399C42.1621 23.6399 42.2795 23.5115 42.2795 23.3434C42.2795 23.1752 42.1621 23.0468 41.9864 23.0468C41.8154 23.0468 41.7008 23.1752 41.7008 23.3434C41.7008 23.5115 41.8154 23.6399 41.9864 23.6399ZM39.1309 12.4203C39.5722 11.9851 39.7068 11.3454 39.2029 10.834L38.8206 10.4462L37.1609 12.0819L37.5288 12.4546C38.0436 12.977 38.6847 12.8596 39.1309 12.4203ZM12.3305 8.14662C12.1713 7.94962 11.9036 7.90912 11.664 8.10269L11.2611 8.42736L11.8438 9.14945L12.2254 8.84125C12.4691 8.64494 12.5 8.35666 12.3305 8.14662ZM5.45571 24.0092C5.18046 24.0092 4.99444 24.2131 4.99444 24.467C4.99444 24.7169 5.18046 24.9208 5.45571 24.9208C5.73783 24.9208 5.92384 24.7169 5.92384 24.467C5.92384 24.2131 5.73782 24.0092 5.45571 24.0092ZM19.2159 42.9619L18.8171 42.8507L18.6297 43.5233L19.0086 43.629C19.2392 43.6936 19.463 43.6167 19.5255 43.3936C19.5866 43.1746 19.4349 43.0229 19.2159 42.9619ZM13.7527 39.3355C13.3621 39.0871 12.8576 39.1845 12.5632 39.6472C12.2715 40.1064 12.3971 40.6047 12.787 40.8532C13.1775 41.1016 13.682 41.0042 13.9744 40.545C14.2682 40.0823 14.1433 39.584 13.7527 39.3355ZM5.45495 23.648C5.62998 23.648 5.74805 23.5196 5.74805 23.3515C5.74805 23.1833 5.62998 23.0549 5.45495 23.0549C5.28334 23.0549 5.16872 23.1833 5.16872 23.3515C5.16872 23.5196 5.28334 23.648 5.45495 23.648ZM8.54101 11.1144L8.2084 11.5113L8.82449 12.0275L9.14637 11.6429C9.31249 11.4445 9.30905 11.1878 9.1148 11.0251C8.89995 10.8446 8.67213 10.9572 8.54101 11.1144ZM19.4748 41.9383L19.0993 41.8339L18.9366 42.416L19.3004 42.5176C19.4878 42.5698 19.6629 42.4881 19.7137 42.3041C19.7706 42.101 19.623 41.9801 19.4748 41.9383ZM21.8868 43.4615L22.5005 43.5239L22.2774 42.6646L21.8868 43.4615ZM10.3307 12.6065L9.99501 13.0074L9.28388 12.4116L9.6367 11.9901C9.83095 11.7581 10.0973 11.6579 10.3293 11.8521C10.5647 12.0498 10.5352 12.3621 10.3307 12.6065Z" fill="#E30613"/>
<path d="M12.1512 15.9699C14.7293 12.1775 19.0784 9.68186 24.0004 9.68186C28.9556 9.68186 33.331 12.2127 35.9027 16.0495L36.4456 15.8223C33.7757 11.8083 29.1705 9.10962 24.0001 9.10962C18.839 9.10962 14.2826 11.7496 11.6104 15.7494L12.1513 15.9691L12.1512 15.9699ZM9.35197 21.3108C9.19341 22.1798 9.11035 23.0866 9.11035 24.0009C9.11035 32.2106 15.7897 38.8899 24 38.8899C32.2096 38.8899 38.889 32.2106 38.889 24.0009C38.889 23.0824 38.8052 22.1764 38.6453 21.304L38.0687 21.3047C38.2321 22.1682 38.3172 23.09 38.3172 24.0009C38.3172 31.895 31.8948 38.3191 24.0002 38.3191C16.1051 38.3191 9.68212 31.8955 9.68212 24.0009C9.68212 23.0825 9.76861 22.184 9.93472 21.3136L9.35197 21.3108Z" fill="#140E0C"/>
<path d="M13.3553 24.7228V32.2871L13.6175 32.2411V24.7412L13.3553 24.7228ZM13.6011 16.5967V14.8539L13.3389 15.0941V16.4985L13.6011 16.5967ZM21.8029 13.7681V15.655L22.0651 15.5191V14.1743L21.8029 13.7681ZM21.8029 33.8162V37.7336L22.0651 37.7755V34.0366L21.8029 33.8162ZM22.0651 12.5867V10.2371L21.8029 10.2933V12.4425L22.0651 12.5867ZM17.8477 24.4952V23.9447L17.5855 24.1115V25.0279L17.8477 24.4952ZM17.8477 18.3286V17.1968L17.5855 16.8886V18.2141L17.8477 18.3286ZM17.5855 29.5939V36.2417L17.8477 36.3913V29.1681L17.5855 29.5939ZM17.8477 15.1601V11.4623L17.5855 11.6099V14.906L17.8477 15.1601ZM34.519 24.7414V32.2413L34.7812 32.2873V24.723L34.519 24.7414ZM34.7977 16.499V15.0945L34.5355 14.8543V16.5972L34.7977 16.499ZM26.0718 14.1748V15.5195L26.3334 15.6555V13.7685L26.0718 14.1748ZM26.0718 34.0366V37.7756L26.3334 37.7337V33.8163L26.0718 34.0366ZM26.3334 12.4429V10.2937L26.0718 10.2374V12.587L26.3334 12.4429ZM30.5507 25.0285V24.1121L30.2885 23.9453V24.4958L30.5507 25.0285ZM30.5507 18.2142V16.8887L30.2885 17.1969V18.3287L30.5507 18.2142ZM30.2885 29.1689V36.392L30.5507 36.2424V29.5947L30.2885 29.1689ZM30.2885 15.1608V11.463L30.5507 11.6106V14.9067L30.2885 15.1608Z" fill="#E8E4D9"/>
<path d="M28.164 19.6215L36.7536 16.1408L35.2655 18.5191L28.1667 20.1631L28.164 19.6215ZM28.1757 20.555L28.1729 20.9312H38.5389L35.1893 19.1033L28.1757 20.555ZM8.52746 17.5156L9.34909 20.3738L12.2649 18.8266C12.2649 18.8266 10.7219 16.2822 10.7191 16.3007L8.93999 16.7633C8.59611 16.856 8.49384 16.9068 8.44648 16.9795C8.39225 17.0619 8.42656 17.147 8.52746 17.5156ZM12.8147 19.1033L9.46439 20.927H19.8311L19.8277 20.555L12.8147 19.1033ZM11.398 22.0321C11.3925 22.122 11.4831 22.2058 11.6183 22.3486L13.5533 24.2677L15.1107 22.7707L12.1805 21.5434L11.6067 21.8317C11.4563 21.9168 11.4021 21.971 11.398 22.0321ZM19.8613 19.6215L11.2717 16.1408L12.7591 18.5191L19.8585 20.1631L19.8613 19.6215ZM12.8607 21.3217L15.5521 22.3973L19.8627 21.6903L19.8531 21.3217H12.8607ZM15.7889 22.8613C15.8314 22.8448 14.0605 24.4537 14.0605 24.4537L15.3352 24.5258C15.3352 24.5258 15.7243 24.5512 15.9714 24.4949C16.1293 24.4599 16.6146 24.1867 16.6146 24.1867C16.6146 24.1867 19.8661 22.4419 19.8654 22.4275L19.8585 22.0466C19.8585 22.0466 15.7456 22.8784 15.7889 22.8613ZM28.1667 22.0466L28.1592 22.4275C28.1585 22.4419 31.41 24.1867 31.41 24.1867C31.41 24.1867 31.8952 24.4599 32.0538 24.4949C32.3002 24.5512 32.6894 24.5258 32.6894 24.5258L33.9648 24.4537C33.9648 24.4537 32.1932 22.8448 32.2364 22.8613C32.2797 22.8784 28.1667 22.0466 28.1667 22.0466ZM36.4138 21.8317L35.8393 21.5434L32.9091 22.7707L34.4672 24.2677L36.4022 22.3486C36.5374 22.2058 36.628 22.122 36.6218 22.0321C36.6184 21.971 36.5642 21.9168 36.4138 21.8317ZM31.6022 28.9016C31.5479 28.8289 30.053 24.8669 30.053 24.8669C29.7997 24.2334 29.5828 24.125 29.1304 23.8717L28.1029 23.2162L28.0542 23.2779L29.232 24.8848L29.2348 27.2192L33.0676 32.0865C33.5921 32.7379 33.6099 32.9548 34.3704 32.9548L34.8406 32.7379L33.9545 32.5924C33.9545 32.5924 31.6564 28.9737 31.6022 28.9016ZM16.4389 28.9016C16.3847 28.9737 14.0866 32.5924 14.0866 32.5924L13.2005 32.7379L13.6706 32.9548C14.4305 32.9548 14.449 32.7379 14.9734 32.0865L18.8001 27.2192L18.809 24.8848L19.9862 23.2779L19.9375 23.2162L18.9113 23.8717C18.459 24.125 18.2414 24.2334 17.9881 24.8669C17.9881 24.8669 16.4931 28.8289 16.4389 28.9016ZM39.5308 16.9727C39.4827 16.8999 39.3805 16.8491 39.0366 16.7565L37.2581 16.2938C37.2547 16.2753 35.7123 18.8198 35.7123 18.8198L38.6281 20.3669L39.4498 17.5088C39.5507 17.1402 39.5843 17.055 39.5308 16.9727ZM28.164 21.3148L28.1544 21.6834L32.4657 22.3904L35.1563 21.3148H28.164ZM28.0548 19.0195L30.7963 16.0474L32.5604 13.9031L32.6558 13.3196L32.4787 13.157L32.2618 13.8221L27.6615 18.0016C27.6746 18.0421 28.0548 19.0195 28.0548 19.0195ZM17.2255 16.0474L19.967 19.0195C19.967 19.0195 20.3473 18.0421 20.3603 18.0016L15.76 13.8221L15.5424 13.157L15.3667 13.3196L15.4615 13.9031L17.2255 16.0474ZM20.0749 12.0708L20.4878 12.5545L21.7726 13.2602L23.0639 15.1307L22.6982 15.6358C22.6982 15.6358 21.96 15.8809 21.8069 16.0745C21.6168 16.3168 21.5764 17.2553 21.5764 17.2553L21.0068 17.5824L20.3279 19.589V22.7657L20.8116 23.0875L19.3777 25.0963V29.9451L20.9789 32.6585L23.169 34.323L24.0119 35.3816L24.8528 34.323L27.0428 32.6585L28.644 29.9451V25.0963L27.238 23.0703L27.6938 22.7657V19.589L27.0149 17.5824L26.4444 17.2553C26.4444 17.2553 26.4056 16.3168 26.2148 16.0745C26.0618 15.8809 25.3236 15.6358 25.3236 15.6358L24.9783 15.1596L26.291 13.2602L27.5748 12.5545L27.9877 12.0708L27.3549 12.2703L25.9982 13.0296L24.6887 14.8829L24.0409 14.7134L23.3695 14.8764L22.0653 13.0296L20.7086 12.2703L20.0749 12.0708ZM22.6982 15.8171L22.8955 16.7244L22.0107 17.0655L22.6982 15.8171ZM25.3236 15.8171L26.0112 17.0655L25.1371 16.7126L25.3236 15.8171ZM24.0045 19.3992L26.6621 20.5575L25.7763 22.5481V20.9919L24.0046 20.0867L21.4927 20.3666L21.4713 20.2862L24.0045 19.3992ZM20.8234 28.4213L22.5297 29.0294H25.492L27.1994 28.4213L27.2177 28.4706L25.669 29.6547H22.3529L20.8042 28.4706L20.8234 28.4213Z" fill="#140E0C"/>
<path d="M27.6907 30.6588L25.5286 31.418H22.505L20.3703 30.6588L21.126 31.9753L22.9038 32.6178L21.6553 32.5876L23.3555 33.8794H24.6775L26.3777 32.5876L25.1305 32.6178L26.9076 31.9753L27.6907 30.6588ZM20.8048 19.5337L22.6141 18.5747H25.4201L27.2295 19.5337L27.0304 18.9722L25.727 17.887L26.8856 18.2851L26.7586 17.887C26.7586 17.887 25.51 17.272 25.4922 17.2177H22.5414C22.5236 17.272 21.275 17.887 21.275 17.887L21.148 18.2851L22.3066 17.887L21.0032 18.9722L20.8048 19.5337ZM28.1163 25.2486L28.1122 25.2438L25.5643 25.5561L27.5006 24.4853L26.7367 23.4166L25.637 24.1504H22.3966L21.3258 23.4351L20.5652 24.4853L22.4693 25.5561L19.9214 25.2438L19.918 25.2486V26.6111L21.564 27.2261H26.469L28.1163 26.6111V25.2486Z" fill="#FBB800"/>
</g>
<defs>
<clipPath id="clip0_204_50597">
<rect width="48" height="48" fill="white"/>
</clipPath>
</defs>
</svg>
