<svg width="48" height="48" viewBox="0 0 48 48" fill="none" xmlns="http://www.w3.org/2000/svg">
<path d="M46.7115 27.579C46.7115 38.8422 36.5261 48.0001 23.9993 48.0001C11.4725 48.0001 1.28711 38.8422 1.28711 27.579C1.28711 16.3159 11.4725 7.15796 23.9993 7.15796C36.5261 7.15796 46.7115 16.3159 46.7115 27.579Z" fill="#DEA600"/>
<path d="M45.9513 27.5789C45.9513 38.4736 36.1171 47.3157 24 47.3157C11.883 47.3157 2.04883 38.4736 2.04883 27.5789C2.04883 16.6841 11.883 7.84204 24 7.84204C36.1171 7.84204 45.9513 16.6841 45.9513 27.5789Z" fill="#153D8A"/>
<path d="M39.6287 27.579C39.6287 35.3685 32.6043 41.6316 23.9994 41.6316C15.3945 41.6316 8.37012 35.3158 8.37012 27.579C8.37012 19.7895 15.3945 13.5264 23.9994 13.5264C32.6043 13.5264 39.6287 19.7895 39.6287 27.579Z" fill="#DEA600"/>
<path d="M39.1608 27.5791C39.1608 35.1054 32.3706 41.2107 23.9998 41.2107C15.6291 41.2107 8.83887 35.1054 8.83887 27.5791C8.83887 20.0528 15.6291 13.9475 23.9998 13.9475C32.3706 13.9475 39.1608 20.0528 39.1608 27.5791Z" fill="white"/>
<path d="M11.0039 39.3684C11.1795 39.5263 11.5893 39.8421 11.5893 39.8421L11.9405 39.4736L10.7698 38.4736L10.5942 38.6315L9.01367 40.1052L9.59904 40.6315C9.59904 40.6315 10.1259 40.1578 10.3015 39.9999C10.4771 40.1578 10.8283 40.4736 10.8283 40.4736L11.2381 40.1052C11.2381 40.1052 10.8868 39.7894 10.7112 39.6315C10.8283 39.4736 10.8868 39.421 11.0039 39.3684Z" fill="#DEA600"/>
<path d="M13.8145 41.0526C13.756 40.7895 13.5803 40.5263 13.2877 40.3158C12.995 40.1579 12.7023 40.0526 12.3511 40.1052C11.9999 40.1579 11.7072 40.3158 11.473 40.6316C11.2389 40.8947 11.1803 41.2105 11.2389 41.5263C11.2974 41.7895 11.473 42.0526 11.7657 42.2105C12.0584 42.3684 12.3511 42.4737 12.7023 42.421C13.0535 42.3684 13.3462 42.2105 13.5803 41.8947C13.756 41.6842 13.8145 41.421 13.8145 41.1579C13.873 41.2105 13.873 41.1052 13.8145 41.0526ZM12.1169 41.8421C11.8243 41.6842 12.0584 41.3158 12.234 41.1052C12.4096 40.8947 12.7023 40.5789 12.995 40.7895C13.2877 41 12.995 41.3684 12.8779 41.5263C12.7608 41.6842 12.4096 42.0526 12.1169 41.8421Z" fill="#DEA600"/>
<path d="M15.6875 41.6315C15.0436 41.3684 14.3412 41.5789 13.99 42.1579C13.8144 42.4737 13.8144 42.7894 13.8729 43.1052C13.99 43.3684 14.1656 43.6315 14.5168 43.7368C14.8095 43.8947 15.1607 43.8947 15.4534 43.7894C15.8046 43.6842 16.0388 43.4737 16.2144 43.1579C16.5656 42.5789 16.3314 41.8947 15.6875 41.6315ZM14.9851 43.3158C14.9266 43.3158 14.8095 43.3158 14.7509 43.3158C14.6339 43.2631 14.5753 43.1579 14.5753 43.0526C14.5753 42.8947 14.6339 42.6842 14.7509 42.5789C14.868 42.3684 15.1022 42 15.4534 42.1579C15.5119 42.2105 15.5705 42.2631 15.629 42.3158C15.6875 42.4737 15.629 42.6842 15.5119 42.8947C15.3363 43.1052 15.1607 43.2631 14.9851 43.3158Z" fill="#DEA600"/>
<path d="M17.0348 42.4736L16.9177 42.7894C16.9177 42.7894 17.2104 42.8946 17.3274 42.8946C17.1518 43.1578 16.625 44.5262 16.625 44.5262L17.386 44.7894C17.386 44.7894 17.9128 43.4209 18.0299 43.1578C18.147 43.2104 18.4396 43.263 18.4396 43.263L18.6152 42.7894L17.0348 42.3157V42.4736Z" fill="#DEA600"/>
<path d="M20.2533 43.1053L19.1997 42.8948L19.1411 43.1053L18.6729 45.1053L19.7265 45.3158C20.0777 45.3685 20.3119 45.3158 20.4289 45.2106C20.6046 45.1053 20.7216 44.9474 20.7802 44.7895C20.7802 44.7369 20.7802 44.6843 20.7802 44.6316C20.7802 44.4737 20.7216 44.3685 20.6631 44.2632C20.7802 44.1579 20.8972 44.0527 20.8972 43.8948C20.8972 43.8421 20.8972 43.7895 20.8972 43.7895C20.9558 43.5264 20.7802 43.2106 20.2533 43.1053ZM19.9607 44.6316C19.9607 44.6843 19.9021 44.7369 19.9021 44.7369C19.8436 44.7369 19.785 44.7369 19.7265 44.7369C19.7265 44.7369 19.668 44.7369 19.6094 44.7369C19.668 44.579 19.668 44.4737 19.7265 44.3685C19.785 44.3685 19.8436 44.3685 19.8436 44.3685C19.9607 44.4211 20.0192 44.4737 20.0192 44.579C19.9607 44.6316 19.9607 44.6316 19.9607 44.6316ZM19.9021 43.579C20.0192 43.579 20.0777 43.6316 20.0777 43.6842V43.7369V43.7895C20.0777 43.8421 20.0192 43.9474 19.8436 43.8948C19.8436 43.8948 19.8436 43.8948 19.785 43.8948C19.8436 43.7369 19.8436 43.6843 19.9021 43.579Z" fill="#DEA600"/>
<path d="M22.244 43.4211L21.0732 45.5263L21.7171 45.5789C21.7171 45.5789 21.8928 45.2632 21.9513 45.1053C22.0684 45.1053 22.244 45.1053 22.361 45.1579C22.4196 45.3158 22.5367 45.6842 22.5367 45.6842L23.4147 45.7368L22.4781 43L22.244 43.4211Z" fill="#DEA600"/>
<path d="M24.8195 45.1052C24.8195 44.7895 24.7609 43.3684 24.7609 43.3684H24.5268H23.9414L24.0585 45.6316L25.6975 45.5789V45.0526C25.639 45.1052 25.0536 45.1052 24.8195 45.1052Z" fill="#DEA600"/>
<path d="M27.1024 44.8947C27.0439 44.5789 26.8097 43.2104 26.8097 43.2104L26.5756 43.2631L25.9902 43.3683L26.4 45.6315L28.039 45.421L27.9219 44.8947C27.9219 44.7894 27.3366 44.8947 27.1024 44.8947Z" fill="#DEA600"/>
<path d="M31.8448 43.4209C31.8448 43.6314 31.7277 43.7893 31.4936 43.8419C31.3765 43.8946 31.2595 43.8946 31.2009 43.8419C31.0253 43.7893 30.9082 43.6314 30.7912 43.4209C30.6741 43.1577 30.6741 42.9998 30.7326 42.8419C30.7912 42.7367 30.8497 42.684 31.0253 42.6314C31.2009 42.5788 31.318 42.6314 31.5521 42.7367L31.7277 42.8419L32.0204 42.4209L31.8448 42.263C31.4936 42.0525 31.0838 41.9998 30.7326 42.1577C30.3814 42.263 30.1473 42.5261 30.0302 42.7893C29.9131 43.1051 29.9131 43.4209 30.0302 43.7367C30.2643 44.3156 31.0253 44.6314 31.6692 44.3683C32.1375 44.2104 32.4302 43.8946 32.4302 43.4209V43.2104L31.8448 43.1577V43.4209Z" fill="#DEA600"/>
<path d="M33.7757 42.7895C33.6001 42.5263 32.8392 41.2632 32.8392 41.2632L32.6635 41.3684L32.1367 41.6316L33.366 43.6316L34.8294 42.8948L34.5367 42.4211C34.5367 42.4211 34.0099 42.6842 33.7757 42.7895Z" fill="#DEA600"/>
<path d="M35.4145 39.7368L35.2389 39.8421L34.9462 40.0526L35.9414 41.3158C35.9999 41.3684 35.9999 41.421 35.9999 41.421C35.9999 41.4737 35.9414 41.5789 35.8243 41.5789C35.7658 41.5789 35.7072 41.6316 35.6487 41.6316C35.5901 41.6316 35.5316 41.5789 35.5316 41.5789L34.5365 40.3684L33.8926 40.7894L34.8877 42C35.0633 42.1579 35.2389 42.3158 35.4145 42.3158C35.6487 42.3684 35.9414 42.2631 36.1755 42.1052C36.7023 41.7368 36.7023 41.3158 36.4682 41L35.4145 39.7368Z" fill="#DEA600"/>
<path d="M38.4584 39.263C38.2828 39.1051 38.1072 39.0525 37.9316 39.0525C37.9316 38.8946 37.8731 38.7893 37.756 38.6841C37.5218 38.4735 37.0535 38.3156 36.6438 38.7367L35.8828 39.4209L37.6389 41.0525L38.4584 40.3683C38.6926 40.1577 38.7511 39.9472 38.7511 39.7893C38.6926 39.5788 38.634 39.4209 38.4584 39.263ZM37.1706 39.2104C37.1706 39.2104 37.2292 39.263 37.2292 39.3156C37.2292 39.3683 37.2292 39.3683 37.1706 39.4209C37.1706 39.4209 37.1706 39.4209 37.1121 39.4735C36.995 39.3683 36.995 39.3156 36.8779 39.263C36.995 39.1051 37.1121 39.1577 37.1706 39.2104ZM37.5804 39.7893C37.6974 39.6841 37.8731 39.7893 37.8731 39.7893C37.9316 39.842 37.9316 39.8946 37.9316 39.8946C37.9316 39.9472 37.8731 39.9998 37.8145 40.0525C37.8145 40.0525 37.8145 40.1051 37.756 40.1051C37.6389 39.9998 37.5804 39.9472 37.4633 39.842C37.5218 39.842 37.5804 39.7893 37.5804 39.7893Z" fill="#DEA600"/>
<path d="M11.0052 39.1578C11.0637 39.2104 11.5905 39.6315 11.5905 39.6315L11.7662 39.4736L10.771 38.6841L9.30762 40.0525L9.65884 40.3683C9.65884 40.3683 10.3027 39.7893 10.3613 39.7367C10.4198 39.7893 10.8881 40.2104 10.8881 40.2104L11.0637 40.0525C11.0637 40.0525 10.5954 39.6314 10.5369 39.5788C10.5954 39.5262 10.9466 39.2104 11.0052 39.1578Z" fill="white"/>
<path d="M13.2293 40.4738C12.9952 40.3159 12.7025 40.2632 12.4684 40.3159C12.1757 40.3685 11.883 40.5264 11.7074 40.7369C11.5318 41.0001 11.4147 41.2632 11.4732 41.5264C11.5318 41.7896 11.6488 42.0001 11.883 42.158C12.1171 42.3159 12.4098 42.3685 12.7025 42.3159C12.9952 42.2632 13.2879 42.1054 13.4635 41.8948C13.6391 41.6843 13.6976 41.4738 13.6976 41.2632C13.6976 41.2106 13.6976 41.158 13.6976 41.1054C13.6391 40.8422 13.4635 40.6317 13.2293 40.4738ZM13.0537 41.579C12.8781 41.7896 12.4684 42.2106 12.0586 41.9475C11.6488 41.6843 12.0001 41.2106 12.1171 41.0001C12.2927 40.7896 12.7025 40.3685 13.1123 40.6317C13.522 40.8948 13.1708 41.4211 13.0537 41.579Z" fill="white"/>
<path d="M15.6289 41.7368C15.1021 41.4737 14.4582 41.6842 14.1655 42.2105C13.9899 42.4737 13.9899 42.7895 14.107 43C14.1655 43.2631 14.3997 43.421 14.6338 43.5263C14.868 43.6316 15.1606 43.6842 15.4533 43.5789C15.746 43.4737 15.9802 43.3158 16.1558 43.0526C16.3899 42.5789 16.1558 42 15.6289 41.7368ZM14.6923 43.421C14.2241 43.2105 14.4582 42.6842 14.6338 42.4737C14.7509 42.2631 15.1021 41.7895 15.5119 41.9474C15.6289 42 15.6875 42.1052 15.746 42.1579C15.8631 42.421 15.6875 42.6842 15.5704 42.8947C15.4533 43.0526 15.2777 43.3684 15.0436 43.421C14.9265 43.4737 14.8094 43.4737 14.6923 43.421Z" fill="white"/>
<path d="M17.1511 42.5264L17.0925 42.6843C17.0925 42.6843 17.3852 42.7895 17.5023 42.7895C17.4438 42.8948 16.8584 44.4211 16.8584 44.4211L17.3267 44.579C17.3267 44.579 17.9121 43 17.9706 42.9474C18.0291 42.9474 18.3803 43.0527 18.3803 43.0527L18.4389 42.8422L17.1511 42.5264Z" fill="white"/>
<path d="M20.2546 43.2631L19.3766 43.1052V43.1579L18.9668 45.0526L19.9034 45.2105C20.1375 45.2631 20.3131 45.2105 20.4887 45.1579C20.6058 45.1052 20.7229 44.9473 20.7229 44.7894C20.7229 44.7368 20.7229 44.6842 20.7229 44.6842C20.7229 44.5263 20.6058 44.3684 20.4887 44.2631C20.6644 44.2105 20.84 44.1052 20.84 43.8947C20.84 43.8421 20.84 43.8421 20.84 43.7894C20.7814 43.5789 20.6644 43.3157 20.2546 43.2631ZM19.9034 43.421C20.079 43.4736 20.1375 43.5263 20.1961 43.5789C20.2546 43.6315 20.2546 43.6842 20.2546 43.7368C20.2546 43.7894 20.2546 43.7894 20.2546 43.8421C20.1961 44.1052 19.9619 44.1052 19.8448 44.0526C19.8448 44.0526 19.7278 44 19.6107 44C19.6107 43.9473 19.7278 43.4736 19.7278 43.421C19.8448 43.421 19.9034 43.421 19.9034 43.421ZM19.8448 44.2631C20.079 44.3157 20.1375 44.4736 20.1375 44.5789C20.1375 44.6315 20.1375 44.6842 20.1375 44.6842C20.1375 44.7894 20.079 44.8421 20.0205 44.8947C19.9619 44.9473 19.8448 44.9473 19.7278 44.9473C19.7278 44.9473 19.5522 44.8947 19.4936 44.8947C19.4936 44.7894 19.6107 44.3158 19.6692 44.2105L19.8448 44.2631Z" fill="white"/>
<path d="M22.3613 43.5264L21.3076 45.4211H21.6003C21.6003 45.4211 21.8344 45.0001 21.8344 44.9475C21.893 44.9475 22.4198 45.0001 22.4783 45.0001C22.4783 45.0527 22.654 45.5264 22.654 45.5264L23.1808 45.579L22.4198 43.4211L22.3613 43.5264ZM22.2442 44.2632C22.3027 44.4211 22.4198 44.6843 22.4198 44.7896C22.3027 44.7896 22.0686 44.7896 21.9515 44.7369C22.0686 44.6843 22.1857 44.4211 22.2442 44.2632Z" fill="white"/>
<path d="M24.644 45.2632C24.644 45.1579 24.5854 43.5264 24.5854 43.5264H24.5269H24.0586L24.1757 45.4737L25.522 45.4211V45.1579C25.4635 45.2632 24.761 45.2632 24.644 45.2632Z" fill="white"/>
<path d="M26.9846 45.1054C26.9846 45.0001 26.6919 43.4211 26.6919 43.4211H26.6333L26.165 43.4738L26.5163 45.4211L27.8626 45.2106L27.8041 44.9475C27.8041 44.9475 27.0431 45.0527 26.9846 45.1054Z" fill="white"/>
<path d="M32.0205 43.4211C32.0205 43.6842 31.8449 43.8947 31.6108 44C31.4352 44.0526 31.3181 44.0526 31.1425 44C30.9669 43.9474 30.7327 43.7368 30.6742 43.4737C30.5571 43.2105 30.5571 42.9474 30.6157 42.7895C30.6742 42.6316 30.7913 42.5263 30.9669 42.4737C31.201 42.3684 31.4352 42.4737 31.6108 42.5789H31.6693L31.7864 42.3684L31.7279 42.3158C31.4352 42.1579 31.084 42.1053 30.7913 42.2105C30.4986 42.3158 30.2644 42.5263 30.1474 42.7368C30.0303 43 30.0303 43.2632 30.1474 43.5789C30.3815 44.1053 31.0254 44.3684 31.6108 44.1579C32.0205 44 32.2547 43.7368 32.2547 43.3684V43.3158L32.0205 43.4211Z" fill="white"/>
<path d="M33.7164 42.9999C33.6579 42.8947 32.7798 41.4736 32.7798 41.4736H32.7213L32.3115 41.6842L33.3652 43.421L34.5359 42.8421L34.4774 42.6315C34.4774 42.6315 33.8335 42.9473 33.7164 42.9999Z" fill="white"/>
<path d="M35.3562 39.9473L35.122 40.1052L36.0586 41.2104C36.1171 41.2631 36.1171 41.3683 36.1171 41.4209C36.1171 41.5788 35.9415 41.6841 35.883 41.6841C35.8245 41.7367 35.7074 41.7894 35.5903 41.7367C35.4732 41.7367 35.4147 41.6841 35.3562 41.5788L34.4781 40.5262L34.0684 40.7894L34.9464 41.8946C35.0635 42.0525 35.2391 42.1578 35.4147 42.1578C35.7074 42.2104 35.9415 42.0525 36.0586 41.9999C36.4684 41.7367 36.5269 41.3683 36.2927 41.1052L35.3562 39.9473Z" fill="white"/>
<path d="M38.3415 39.3684C38.1659 39.2105 37.9318 39.1579 37.7562 39.2631C37.7562 39.2105 37.7562 39.1579 37.7562 39.1052C37.7562 39 37.6976 38.8947 37.5805 38.7895C37.4635 38.6842 37.0537 38.4737 36.7025 38.8421L36.0586 39.421L37.5805 40.8421L38.2245 40.2631C38.4001 40.1052 38.4586 39.9474 38.4586 39.7895C38.5171 39.6316 38.4586 39.5263 38.3415 39.3684ZM37.3464 39.3158C37.3464 39.421 37.2879 39.4737 37.2293 39.5263C37.2293 39.5263 37.1123 39.6316 37.0537 39.6842C36.9952 39.6316 36.644 39.3158 36.5854 39.2631C36.644 39.2105 36.7025 39.1579 36.7025 39.1579C36.9366 39 37.1123 38.9474 37.2293 39.1052C37.3464 39.2105 37.3464 39.2631 37.3464 39.3158ZM37.8147 40.3684C37.7562 40.3158 37.3464 39.9474 37.2879 39.8947C37.3464 39.8421 37.4635 39.7368 37.4635 39.7368C37.7562 39.5263 37.9903 39.7368 37.9903 39.7368C38.0488 39.7895 38.1074 39.8947 38.1074 39.9474C38.1074 40.0526 38.0488 40.1052 37.9318 40.2105C37.9903 40.2105 37.8732 40.3158 37.8147 40.3684Z" fill="white"/>
<path d="M13.9311 14.1052L12.9945 14.3157L13.1116 14.6315C13.2287 14.9999 13.1116 15.3684 12.8189 15.6315C12.6433 15.7894 12.4677 15.842 12.2335 15.842C11.8823 15.842 11.5311 15.6315 11.2384 15.3157C10.8872 14.9473 10.7116 14.6315 10.7116 14.3157C10.7116 14.1052 10.8287 13.8947 11.0628 13.7368C11.297 13.5263 11.6482 13.5263 12.0579 13.6315L12.3506 13.6841L12.5262 12.8947L12.2335 12.842C11.5311 12.6841 10.8287 12.842 10.3604 13.2631C9.36525 14.0526 9.30671 15.3157 10.1848 16.2105C11.0043 17.0526 12.4092 17.1578 13.3457 16.421C13.9896 15.8947 14.2238 15.2105 14.0482 14.4736L13.9311 14.1052Z" fill="#DEA600"/>
<path d="M16.3897 9.9473L15.4531 10.3684C15.4531 10.3684 15.9799 11.3684 16.1555 11.6841C15.8628 11.7894 15.6287 11.8947 15.336 11.9999C15.1604 11.6315 14.6336 10.6841 14.6336 10.6841L13.4043 11.2105L15.2775 14.7894L16.5067 14.2631C16.5067 14.2631 15.9214 13.1578 15.7458 12.7894C16.0384 12.6841 16.2726 12.5789 16.5653 12.4736C16.7409 12.842 17.3262 13.9473 17.3262 13.9473L18.5555 13.421L16.6823 9.84204L16.3897 9.9473Z" fill="#DEA600"/>
<path d="M20.6054 12.2106C20.5468 11.9474 20.4883 11.6842 20.4298 11.4211C20.8395 11.3685 21.8346 11.1579 21.8346 11.1579L21.659 10.3685C21.659 10.3685 20.6639 10.5264 20.2541 10.6316C20.1956 10.3685 20.1371 10.1579 20.0785 9.94741C20.4883 9.89478 21.5419 9.68425 21.5419 9.68425L21.3663 8.89478L21.0151 8.94741L18.498 9.42109L19.3761 13.3158L22.2444 12.7895L22.0688 12C22.0688 11.8948 20.9566 12.1053 20.6054 12.2106Z" fill="#DEA600"/>
<path d="M24.6432 8.73682H23.2968V9.05261L23.2383 12.7368L26.1066 12.7894V11.9473C26.1066 11.9473 24.9944 11.9473 24.5846 11.8947C24.5261 11.3684 24.6432 8.73682 24.6432 8.73682Z" fill="#DEA600"/>
<path d="M29.0338 10.7369C28.6826 10.5264 28.5655 10.4211 28.624 10.2632C28.624 10.2106 28.7411 10.0001 28.9753 10.0527C29.1509 10.1053 29.2679 10.158 29.3265 10.4737L29.385 10.7895L30.2631 10.5264L30.2045 10.2632C30.0874 9.73691 29.6192 9.31585 29.0338 9.21059C28.624 9.10533 28.1557 9.15796 27.8631 9.36849C27.5704 9.52638 27.3362 9.78954 27.2192 10.158C26.985 10.9474 27.6289 11.3685 27.9801 11.6316C28.3899 11.8948 28.507 12.0001 28.4484 12.2106C28.4484 12.2632 28.3899 12.3159 28.3314 12.3685C28.2728 12.4211 28.1557 12.4211 28.0387 12.4211C27.8045 12.3685 27.746 12.2632 27.6289 12.0527L27.5118 11.7369L26.6338 12.0527L26.7509 12.3159C26.9265 12.8422 27.3362 13.158 27.9801 13.2632C28.7411 13.4211 29.6192 13.1053 29.8533 12.3159C30.0874 11.4211 29.4435 11.0001 29.0338 10.7369Z" fill="#DEA600"/>
<path d="M32.3125 12.842C32.6637 12.9999 33.6003 13.421 33.6003 13.421L34.01 12.6841C34.01 12.6841 33.0734 12.2631 32.7222 12.1052C32.8393 11.8947 32.9564 11.6841 33.0734 11.4736C33.4246 11.6315 34.4198 12.1052 34.4198 12.1052L34.8295 11.3683L32.2539 10.2104L32.0783 10.4736L30.2637 13.7368L32.8393 14.8947L33.249 14.1578C33.249 14.1578 32.2539 13.6841 31.9027 13.5262C32.0198 13.3683 32.1954 13.1052 32.3125 12.842Z" fill="#DEA600"/>
<path d="M37.4042 13.2105L33.3066 15.1052L34.0676 15.7368C34.0676 15.7368 34.7701 15.421 35.0042 15.3157C35.1798 15.4736 35.4725 15.6841 35.6481 15.7894C35.531 15.9999 35.2969 16.6841 35.2969 16.6841L36.4091 17.5263L38.1652 12.842L37.4042 13.2105Z" fill="#DEA600"/>
<path d="M13.7562 14.3685L13.2879 14.4738L13.3464 14.579C13.522 15.0001 13.3464 15.4738 12.9952 15.7895C12.7611 15.9474 12.5269 16.0527 12.2342 16.0001C11.8245 16.0001 11.4147 15.7369 11.0635 15.4211C10.6537 15.0001 10.4781 14.6317 10.4781 14.2632C10.4781 14.0001 10.6537 13.7369 10.8879 13.5264C11.2391 13.2632 11.6489 13.3159 12.0586 13.3685H12.1757L12.2928 12.9474H12.1757C11.5903 12.7895 10.9464 12.9474 10.4781 13.3159C9.60008 14.0001 9.48301 15.158 10.3025 16.0001C11.0635 16.7369 12.3513 16.8422 13.1708 16.2106C13.7562 15.7369 13.9903 15.158 13.7562 14.4738V14.3685Z" fill="white"/>
<path d="M16.508 10.158L15.747 10.4738C15.747 10.4738 16.3909 11.6843 16.4495 11.8422C16.2739 11.8948 15.3958 12.2633 15.2787 12.3685C15.2202 12.2106 14.5763 11.0527 14.5763 11.0527L13.6982 11.3159L15.3958 14.5264L16.2153 14.158C16.2153 14.158 15.5129 12.8422 15.4543 12.6843C15.6299 12.6317 16.508 12.2633 16.6251 12.158C16.6836 12.3159 17.386 13.6317 17.386 13.6317L18.2056 13.2633L16.508 10.0527V10.158Z" fill="white"/>
<path d="M20.4291 12.4212C20.3705 12.2633 20.1949 11.3685 20.1364 11.2106C20.312 11.158 21.5413 10.9475 21.5413 10.9475L21.4242 10.5264C21.4242 10.5264 20.1949 10.7369 20.0193 10.7896C19.9608 10.6317 19.7852 9.84221 19.7852 9.68431C20.0193 9.68431 21.3071 9.47379 21.3071 9.47379L21.19 9.05273H21.073L18.79 9.47379L19.551 13.0001L21.951 12.5791L21.8925 12.158C21.8925 12.158 20.6047 12.3685 20.4291 12.4212Z" fill="white"/>
<path d="M24.4102 8.94727H23.4736V9.05253L23.415 12.5262L25.8736 12.5788V12.1052C25.8736 12.1052 24.5858 12.1052 24.3516 12.0525C24.2931 11.842 24.4102 8.94727 24.4102 8.94727Z" fill="white"/>
<path d="M29.0331 9.89466C29.3258 9.94729 29.5014 10.1578 29.5599 10.4736V10.5789L30.0282 10.421V10.3157C29.9111 9.89466 29.5014 9.52624 29.0331 9.42097C28.6819 9.31571 28.2721 9.36834 27.9794 9.52624C27.6868 9.68413 27.5111 9.89466 27.4526 10.1578C27.277 10.842 27.7453 11.1578 28.155 11.421C28.5648 11.6841 28.799 11.842 28.6819 12.2104C28.6233 12.3683 28.5063 12.4736 28.4477 12.4736C28.3307 12.5262 28.1551 12.5789 28.038 12.5262C27.7453 12.4736 27.5697 12.3157 27.4526 11.9999L27.3941 11.8947L26.9258 12.1052V12.2104C27.0429 12.6315 27.4526 12.8947 27.9794 13.0526C28.6233 13.2104 29.3843 12.9473 29.5599 12.2631C29.7355 11.5262 29.2087 11.2104 28.799 10.8947C28.4477 10.6315 28.2136 10.4736 28.2721 10.2104C28.4477 9.99992 28.6819 9.7894 29.0331 9.89466Z" fill="white"/>
<path d="M32.9557 11.2105C33.1313 11.2631 34.302 11.8421 34.302 11.8421L34.5361 11.4736L32.3703 10.4736L32.3118 10.5789L30.5557 13.6842L32.7801 14.6842L33.0142 14.3157C33.0142 14.3157 31.7849 13.7894 31.6679 13.6842C31.7264 13.5263 32.1947 12.7368 32.2532 12.5789C32.4288 12.6315 33.541 13.1578 33.541 13.1578L33.7752 12.7894C33.7752 12.7894 32.663 12.2631 32.4874 12.2105C32.4874 12.1052 32.8971 11.3684 32.9557 11.2105Z" fill="white"/>
<path d="M37.5217 13.421L33.7168 15.2105L34.1266 15.5263C34.1266 15.5263 34.9461 15.1579 35.0631 15.1053C35.1802 15.1579 35.8241 15.6842 35.9412 15.7895C35.8827 15.8947 35.59 16.6842 35.59 16.6842L36.2924 17.2631L37.7558 13.3684L37.5217 13.421ZM35.4729 14.8947C35.6485 14.7895 36.1168 14.5789 36.4095 14.4737C36.2924 14.7368 36.1168 15.2105 36.0583 15.3684C35.9412 15.2105 35.6485 15 35.4729 14.8947Z" fill="white"/>
<path d="M34.8294 27.0527C34.5367 26.3159 33.4245 26.0001 32.4294 26.3159C32.0196 26.4737 31.6684 26.6843 31.4343 27.0001C32.1367 25.2632 34.8294 24.8948 34.8294 23.3159C34.8294 20.6316 30.5562 21.3685 31.2001 23.3159C31.2001 22.4211 32.7806 22.2632 32.7806 23.3159C32.7806 24.3685 30.0294 25.0527 30.0294 26.7895C30.0294 28.7369 32.1952 28.8948 31.9611 30.6843C31.9025 31.0001 31.5513 31.3685 31.0245 31.3685C27.6879 31.3685 28.9172 27.6843 27.7465 26.579L27.805 25.8422C28.4489 26.2106 30.2635 25.3685 29.0928 24.0527C29.0928 24.6843 27.5708 24.6843 27.5708 23.4211C27.5708 21.7895 29.2684 22.6316 29.3855 23.0001C29.3269 22.4211 29.2684 22.0001 29.3855 21.6843C28.4489 21.9474 28.3904 21.4737 28.5074 21.2632C28.6245 21.0527 28.8001 20.7895 29.2099 20.7895C29.3855 20.7895 29.5026 20.7895 29.6196 20.8422C29.7367 20.8948 29.7952 20.7369 29.7952 20.8948C29.9123 20.7369 29.8538 20.9474 29.9708 20.7895C30.0879 20.6316 30.205 20.5264 30.4391 20.3159V20.0001L30.7318 20.1053L30.966 19.7369C30.6733 19.2106 30.3221 19.4737 30.0294 18.8422C29.7952 18.7895 26.166 19.158 26.283 17.8422C25.9904 17.8422 25.2879 18.0001 25.6977 18.5264C25.3465 18.579 25.1123 18.2106 24.5855 19.158C25.2294 19.0527 24.8782 19.6843 24.8782 19.8948C24.8782 21.1053 23.1221 21.0527 23.1221 20.5264C22.7123 20.8948 22.9465 21.6843 23.5904 21.8948C23.5904 21.8948 23.3562 22.7369 22.7708 23.3159C21.8928 23.2632 20.4294 23.158 19.6099 22.4211C19.2586 22.1053 18.966 21.9474 18.7318 21.8948V21.5264C19.083 21.3685 19.4928 21.1053 19.844 20.6316C20.1367 20.2632 20.3123 19.8422 20.2538 19.3685C20.2538 19.3159 20.2538 19.2632 20.2538 19.2106V19.158C20.2538 19.1053 20.2538 19.1053 20.1952 19.0527V19.0001C20.1952 18.9474 20.1952 18.9474 20.1367 18.8948V18.8422C20.1367 18.7895 20.0782 18.7369 20.0782 18.6843C20.0782 18.6843 20.0782 18.6316 20.0196 18.6316C20.0196 18.579 19.9611 18.579 19.9611 18.5264L19.9026 18.4737L19.844 18.4211L19.7855 18.3685C19.7855 18.3685 19.7855 18.3159 19.7269 18.3159C19.6684 18.2632 19.6099 18.2106 19.5513 18.158C19.4928 18.158 19.4928 18.1053 19.4343 18.1053C19.3757 18.1053 19.3757 18.0527 19.3172 18.0527C18.966 17.8422 18.4977 17.7369 18.0294 17.7895C16.8587 17.8948 16.0391 18.7369 16.0977 19.7369C16.1562 20.5264 16.8001 21.1053 17.6196 21.3159C17.3269 21.4737 17.0928 21.5264 17.0343 21.5264C17.0343 21.5264 17.0343 21.5264 17.0928 21.5264C17.0928 21.5264 17.0928 21.5264 17.1513 21.5264H17.2099H17.2684C17.3269 21.5264 17.3855 21.579 17.444 21.579H17.5026C17.5611 21.579 17.5611 21.579 17.6196 21.579V21.7895C17.6196 21.7895 17.6196 21.7895 17.5611 21.7895C17.2099 21.8422 16.9172 21.9474 16.8587 22.2632C16.7416 22.579 16.8587 22.6843 17.0343 22.8948C16.8587 23.158 16.5074 23.2106 16.9757 23.7369C16.9172 23.9474 16.9757 24.2632 17.3269 24.3685C17.444 24.4211 17.5026 24.4211 17.6196 24.4211V28.3685C17.3269 28.5264 17.1513 28.7369 17.0343 28.8948C17.0343 28.8948 16.8001 28.3685 16.8001 29.4211C17.0928 29.2106 16.9757 29.6316 16.9757 29.6316C16.566 30.1053 17.0928 30.0527 17.0928 30.0527C17.444 29.7369 17.3855 30.2106 17.3855 30.2106C17.3855 30.7369 17.6196 30.9474 17.6196 30.9474V33.9474H17.3269V34.7895H17.8538C17.5611 34.8948 17.3855 35.158 17.3855 35.4211C17.444 35.7895 17.7952 36.0527 18.205 36.0001C18.6147 35.9474 18.9074 35.6843 18.9074 35.3159C18.9074 35.0527 18.7318 34.8948 18.4391 34.7895H18.9074V33.9474H18.6147V31.2632C18.6733 31.3159 18.7318 31.3159 18.7904 31.3159H18.8489C18.8489 31.3159 18.8489 31.3159 18.9074 31.3159C18.8489 30.9474 19.083 30.7369 19.083 30.7369C19.2001 30.579 19.3757 30.4737 19.5513 30.3685C20.1367 30.1053 20.9562 30.158 21.1904 30.579C22.7123 30.2106 24.0001 28.8422 24.0001 28.8422L24.7611 30.0001C23.1806 30.4737 19.7269 33.158 22.1269 34.1053C22.1269 34.3685 22.0684 36.4211 20.6635 36.2632C18.6147 36.0527 18.0879 36.7895 18.4391 37.6843C18.2635 38.4211 18.8489 38.6843 18.8489 38.6843C18.7318 38.2632 18.966 37.8948 19.844 37.8948C19.844 38.6843 20.3708 38.7895 20.3708 38.7895C20.3708 38.1053 20.8977 37.8948 21.366 37.8948C21.366 38.4211 22.0684 38.6316 22.0684 38.6316C22.0684 38.6316 21.8928 38.0001 22.7123 37.8948C24.7026 37.579 22.8294 35.7369 25.8733 35.2106C25.8733 35.2106 24.3513 35.0001 24.3513 34.2632C24.3513 33.579 25.7562 33.1053 26.2245 33.1053C27.2196 34.7895 28.2733 34.7895 28.5074 34.7895C28.9172 35.2106 28.8001 36.6843 28.1562 36.6316C25.8733 36.5264 25.9318 37.7895 26.2245 38.0001C26.2245 38.4737 26.6343 38.7895 26.6343 38.7895C26.6343 38.2632 27.1611 38.1053 27.8635 38.158C27.805 38.7895 28.2733 38.8948 28.2733 38.8948C28.2733 38.2632 28.8001 38.158 29.2099 38.158C29.2099 38.579 29.6782 38.7369 29.6782 38.7369C29.6782 38.7369 29.6196 38.158 30.3221 38.158C31.6099 38.158 29.7367 35.7369 32.1952 33.3159C30.0879 34.3159 28.9172 32.0527 28.9172 31.6316C30.0294 32.7895 33.6586 33.0527 33.6586 31.0527C33.6586 29.158 31.3172 28.4211 32.4294 27.6843C33.0733 27.2632 34.3026 28.1053 33.6001 29.0001C34.5952 28.6843 35.1806 27.7895 34.8294 27.0527ZM21.0147 27.1053C20.1952 27.5264 19.6684 28.1053 18.9074 28.3159C18.7904 28.3685 18.7318 28.3685 18.6147 28.3685V24.6316C18.7904 24.6316 19.3172 24.7369 19.9026 24.9474C20.4879 25.2632 20.4879 25.8422 19.7269 26.0001C20.1952 26.7895 21.8343 26.4211 22.1855 25.7369C22.3611 25.7369 22.5367 26.0001 22.6538 26.2632C22.5367 26.3685 22.0684 26.579 21.0147 27.1053ZM30.1465 20.9474C30.0294 21.0527 29.9708 21.158 29.9123 21.2632C30.1465 21.579 30.4977 21.7895 30.9074 21.7369C31.4928 21.6843 31.9026 21.2106 31.9026 20.6843V20.6316C31.844 20.8948 31.4928 21.158 31.0245 21.158C30.6733 21.158 30.3221 21.1053 30.1465 20.9474Z" fill="#DADADA"/>
<path d="M16.9762 18.6842V18.6316C17.0347 18.6316 16.9762 18.6842 16.9762 18.6842ZM16.6835 34.2105H17.2103C17.1518 34.2105 17.0932 34.2632 17.0347 34.3158C17.0932 34.3158 17.1518 34.2632 17.2103 34.2632C17.4445 34.2632 17.6786 34.4737 17.6786 34.6842C17.6786 34.8948 17.4445 35.1053 17.2103 35.1053C16.9762 35.1053 16.8006 35 16.742 34.7895V34.8421C16.8006 35.2105 17.1518 35.4737 17.5615 35.4211C17.9713 35.3684 18.264 35.1053 18.264 34.7369C18.264 34.4737 18.0884 34.3158 17.7957 34.2105H18.264V33.3684H17.9713V30.6842C17.6786 30.579 17.5615 30.2632 17.6201 30C17.7957 30 17.9713 30.0526 18.0298 30.1053C17.8542 30.4211 18.264 30.7895 18.264 30.7895C18.2054 30.4211 18.4396 30.2105 18.4396 30.2105C18.5567 30.0526 18.7323 29.9474 18.9079 29.8421C19.4932 29.579 20.3128 29.6316 20.5469 30.0526C22.0688 29.6842 23.3567 28.3158 23.3567 28.3158L24.1176 29.4737C25.8737 29.4737 25.2884 28.3158 25.1713 28.2105C25.581 28.2105 26.1664 28.4737 26.1664 29.0526C26.1664 30.5263 21.4835 30.7369 21.4835 32.4737C21.4835 33.2105 22.303 33.4737 22.303 33.4737C22.303 35.1053 21.0737 36.0526 20.2542 36.0526C18.9079 36.0526 17.8542 35.7895 17.8542 37.1053H18.3225C17.8542 37.5263 18.3225 38.1053 18.3225 38.1053C18.1469 37.6842 18.381 37.3684 19.2591 37.3684H19.7859C19.4347 37.6842 19.6689 38.1579 19.7859 38.2632C19.7859 37.579 20.3128 37.3684 20.781 37.3684H21.1908C21.0737 37.4737 21.2493 37.8948 21.4835 38.1053C21.4835 38.1053 21.3079 37.4737 22.1274 37.3684C24.1176 37.0526 22.2445 35.2105 25.2884 34.6842C25.2884 34.6842 23.7664 34.4737 23.7664 33.7369C23.7664 33.0526 25.1713 32.579 25.6396 32.579C25.9908 32.5263 26.342 32.5263 26.6932 32.579C26.8103 33.6842 28.2152 33.6316 28.5079 33.6316C29.6786 34.6842 28.2152 36.3684 28.2152 36.3684C26.4006 36.3684 25.6981 36.579 25.6981 37.5263H25.9908C25.8152 37.6842 25.9323 38.1579 26.0493 38.3158C26.0493 37.7895 26.5762 37.6316 27.2786 37.6842H27.6298C27.4542 37.8421 27.4542 38.2632 27.6884 38.4211C27.6884 37.7895 28.2152 37.6842 28.6249 37.6842H28.9176C28.8006 37.7895 28.9176 38.1053 29.0932 38.2632C29.0932 38.2632 29.0347 37.6842 29.7371 37.6842C31.0249 37.6842 29.1518 35.2632 31.6103 32.8421C29.4445 33.7369 28.2737 31.4737 28.2737 31.0526C29.3859 32.2105 33.0152 32.4737 33.0152 30.4737C33.0152 28.8421 31.3762 28.1053 31.4932 27.4737C31.5518 27 32.0201 26.579 32.5469 26.579C33.1323 26.579 33.6006 27 33.6006 27.5263C33.6006 27.9474 33.3079 28.2632 32.9567 28.4211C33.9518 28.1053 34.5371 27.2105 34.2445 26.4211C33.9518 25.6316 32.8396 25.3684 31.8445 25.6842C31.4347 25.8421 31.0835 26.0526 30.8493 26.3684C31.5518 24.6316 34.2445 24.2632 34.2445 22.6842C34.2445 20 29.9713 20.7369 30.6152 22.6842C30.6152 22.6316 30.6152 22.6316 30.6152 22.579C30.7323 21.4737 32.8981 21.2632 32.8981 22.6842C32.8981 23.8948 30.0884 24.579 30.0884 26.2105C30.0884 27.8948 32.1371 28.3158 32.1371 30.1053C32.1371 30.3158 32.0201 31.2105 30.6152 31.2105C29.2689 31.2105 28.6249 30.5263 28.2737 29.6842C27.5713 28.5263 27.864 26.6842 27.103 25.9474L27.1615 25.2632C27.8054 25.6316 29.6201 24.7895 28.4493 23.4737C28.4493 24.1053 26.9274 24.1053 26.9274 22.8421C26.9274 21.2105 28.6249 22.0526 28.742 22.4211C28.6835 21.8421 28.6249 21.4211 28.742 21.1053C27.8054 21.3684 27.7469 20.8948 27.864 20.6842C27.981 20.4737 28.1567 20.2105 28.5664 20.2105C29.0932 20.2105 29.0347 20.3684 29.0347 20.6316C29.2103 20.3684 29.2689 20.1579 29.7371 19.7369V19.4211L30.0298 19.5263L30.264 19.1579C29.9713 18.6316 29.6201 18.8948 29.3274 18.2632C29.0932 18.2105 26.0493 17.9474 26.1079 16.6316C25.8152 16.6316 25.1128 17.4737 25.581 17.9474H24.9371C24.5859 18 23.8249 17.7895 23.2981 18.6842C24.5274 17.579 25.3469 20.2632 23.064 20.2632C22.7128 20.2632 22.4201 20.1579 22.4201 19.8948C22.1859 20.7895 23.6493 21.0526 23.6493 21.0526C23.6493 21.3158 22.9469 22.7895 22.5371 23.1053C22.7713 23.3158 22.8298 24.6316 21.7176 24.6316C22.1274 23.6842 20.9567 22.8421 19.7859 22.3158C19.5518 22.2632 19.3762 22.1579 19.2006 22.0526C18.4981 21.7895 17.9128 21.579 17.9128 21.579V21.2105V20.8421C18.264 20.6842 18.6737 20.4211 19.0249 19.9474C19.3176 19.579 19.4932 19.1579 19.4347 18.6842C19.4347 18.6316 19.4347 18.579 19.4347 18.5263V18.4737C19.4347 18.4211 19.4347 18.4211 19.3762 18.3684V18.3158C19.3762 18.2632 19.3762 18.2632 19.3176 18.2105V18.1579C19.3176 18.1053 19.2591 18.0526 19.2591 18C19.2591 18 19.2591 17.9474 19.2006 17.9474C19.2006 17.8947 19.142 17.8948 19.142 17.8421L19.0835 17.7895L19.0249 17.7369L18.9664 17.6842C18.9664 17.6842 18.9664 17.6316 18.9079 17.6316C18.8493 17.579 18.7908 17.5263 18.7323 17.4737C18.6737 17.4737 18.6737 17.4211 18.6152 17.4211C18.5567 17.4211 18.5567 17.3684 18.4981 17.3684C18.1469 17.1579 17.6786 17.0526 17.2103 17.1053C17.0932 17.1053 17.0347 17.1053 16.9176 17.1579C16.2737 17.3684 15.7469 18.1053 15.7469 18.8948C15.7469 19.6842 16.1567 20.3158 16.8006 20.579C16.5079 20.7369 16.2737 20.7895 16.2152 20.7895C16.2152 20.7895 16.2152 20.7895 16.2737 20.7895C16.2737 20.7895 16.2737 20.7895 16.3323 20.7895C16.3323 20.7895 16.3908 20.7895 16.3908 20.8421H16.4493C16.5079 20.8421 16.5664 20.8948 16.6249 20.8948H16.6835C16.742 20.8948 16.742 20.8948 16.8006 20.8948C17.0347 20.8948 17.2688 20.8421 17.2688 20.8421V21.2632C17.2103 21.2632 16.8591 21.1579 16.8006 21.0526C16.8006 21.0526 16.8006 21.0526 16.742 21.0526C16.3908 21.1053 16.0981 21.2105 16.0396 21.5263C15.9225 21.8421 16.0396 21.9474 16.2152 22.1579C16.0396 22.4211 15.6884 22.4737 16.1567 23C16.0981 23.2105 16.1567 23.5263 16.5079 23.6316C16.6249 23.6842 16.6835 23.6842 16.8006 23.6842C16.9762 23.6842 17.2688 23.8421 17.2688 24.1579V27.5263C17.4445 27.5263 17.6201 27.579 17.7957 27.579V23.8421C17.9713 23.8421 18.4981 23.9474 19.0835 24.1579C19.142 24.1579 19.2006 24.1579 19.2591 24.2105C19.6688 24.3158 19.903 24.6316 19.7859 24.8948C19.6689 25.1579 19.3176 25.3158 18.9079 25.2105C19.3762 26 21.0152 25.6316 21.3664 24.9474C21.542 24.9474 21.7176 25.2105 21.8347 25.4737C21.8347 25.4737 22.2445 25.6316 23.2396 25.6316C23.2396 25.6316 19.142 28 17.9713 28C17.4445 28 16.3323 28 16.3323 28.3684C16.0396 28.3684 15.5713 28.8421 15.5713 29.1053C15.864 28.8948 16.0981 28.8948 16.0981 28.8948C16.3323 28.8948 16.5079 28.9474 16.5079 28.9474C16.3908 29.0526 15.981 29.4211 15.981 29.7895C16.3323 29.4737 16.4493 29.4737 16.4493 29.4737C16.4493 29.4737 16.8006 29.4211 16.9176 29.5263C16.8591 29.579 16.6835 29.8948 16.6835 30.2105C16.6835 30.2105 16.9176 29.8421 17.1518 29.8421V33.3684C17.1518 33.4737 16.6249 33.579 16.3908 33.579M16.8591 23.4737C16.742 23.4737 16.6835 23.3684 16.6835 23.3158C16.6835 23.2632 16.742 23.1579 16.8006 23.1579C17.0347 23.1579 17.503 23.2632 17.503 23.3158C17.5615 23.3684 17.0932 23.4737 16.8591 23.4737ZM16.6835 22.8948C16.5664 22.8948 16.5079 22.7369 16.5079 22.6316C16.5079 22.579 16.5664 22.4211 16.742 22.4211C17.0932 22.4211 17.7371 22.6316 17.7371 22.7369C17.7371 22.7895 17.0347 22.9474 16.6835 22.8948ZM16.6249 22.1579C16.4493 22.1053 16.4493 21.9474 16.5079 21.8948C16.5079 21.8421 16.6249 21.6842 16.8006 21.6842C17.1518 21.7895 17.7957 22.1053 17.7957 22.1579C17.7371 22.2105 16.9762 22.2105 16.6249 22.1579ZM17.7371 20.0526C17.7957 19.8948 17.7957 19.7369 17.7371 19.579C17.3274 19.579 16.9762 19.2632 16.9762 18.8948C16.9762 18.8421 16.9762 18.7895 16.9762 18.6842C17.0932 18.4211 17.3859 18.1579 17.7371 18.1579C18.1469 18.1579 18.4981 18.4737 18.4981 18.8421C18.4981 19.3158 18.1469 19.7369 17.7371 20.0526Z" fill="#153D8A"/>
<path d="M29.2686 20.6316C29.5027 20.9474 29.8539 21.1579 30.2637 21.1053C30.849 21.0526 31.2588 20.5789 31.2588 20.0526V20C31.2003 20.2632 30.849 20.5263 30.3808 20.5263C30.0295 20.5789 29.7368 20.4737 29.5612 20.3158C29.3856 20.4211 29.3271 20.5263 29.2686 20.6316Z" fill="#E30613"/>
<path d="M27.8056 18.842H28.1568L27.9812 19.0526C27.9812 19.1052 27.747 19.1578 27.8056 18.842ZM26.9275 18.842H27.4543C27.4543 18.842 27.4543 19.2105 27.8056 19.2631L27.747 19.421C27.747 19.421 26.6934 19.1578 26.9275 18.842Z" fill="white"/>
<path d="M17.796 22.1578C17.796 22.1052 17.1521 21.7368 16.8009 21.6841C16.6252 21.6315 16.5667 21.7894 16.5082 21.8946C16.5082 21.9473 16.5082 22.1578 16.6252 22.1578C16.9765 22.2104 17.7374 22.2104 17.796 22.1578ZM17.7374 22.7368C17.7374 22.6841 17.0935 22.4736 16.7423 22.421C16.6253 22.421 16.5082 22.5789 16.5082 22.6315C16.5082 22.6841 16.5667 22.842 16.6838 22.8946C17.035 22.9473 17.7374 22.7894 17.7374 22.7368ZM16.9765 20.9999V21.2104C17.0935 21.3157 17.4448 21.421 17.4448 21.421V20.9999C17.4448 20.9473 17.2106 20.9999 16.9765 20.9999ZM16.8594 23.1578C16.7423 23.1578 16.7423 23.2631 16.7423 23.3157C16.7423 23.3683 16.8009 23.4736 16.9179 23.4736C17.1521 23.4736 17.6204 23.3157 17.6204 23.2631C17.5618 23.2631 17.0935 23.1578 16.8594 23.1578ZM16.3326 29.0525C15.9228 29.5262 16.2155 29.9473 16.2155 29.9473C16.2155 29.6315 16.6253 29.2104 16.7423 29.1052C16.7423 29.1052 16.6252 29.0525 16.3326 29.0525ZM17.6204 29.9999C17.5618 30.2631 17.7374 30.5789 17.9716 30.6841C18.0301 30.7368 18.0887 30.7368 18.1472 30.7368H18.2057C18.2057 30.7368 18.2057 30.7368 18.2643 30.7368C18.2643 30.7368 17.8545 30.421 18.0301 30.0525C17.9716 30.0525 17.796 29.9999 17.6204 29.9999ZM16.9179 20.5789C16.3326 20.3157 15.8643 19.6315 15.8643 18.8946C15.8643 18.0525 16.3326 17.3683 17.035 17.1578C16.0399 17.3683 15.3374 18.1578 15.396 19.0525C15.4545 19.7368 16.0984 20.3683 16.9179 20.5789ZM23.2984 18.6315C23.9423 18.5262 24.1765 19.0525 24.1765 19.2104C24.1765 19.8946 23.5911 20.2104 23.0643 20.2104C25.3472 20.2104 24.5862 17.5262 23.2984 18.6315ZM21.7765 24.6315C22.8887 24.6315 22.8301 23.3157 22.596 23.1052C22.9472 22.7894 23.7082 21.3157 23.7082 21.0525C23.7082 21.0525 22.2448 20.7894 22.4789 19.842C22.0692 20.2104 22.3033 20.9999 22.9472 21.2104C22.9472 21.2104 22.7131 22.0525 22.1277 22.6315C21.5423 22.6315 20.6643 22.5262 19.9618 22.2631C20.957 22.842 22.1277 23.6315 21.7765 24.6315ZM17.4448 18.3683C17.7374 18.3683 17.9716 18.5262 18.0301 18.7894C18.0301 19.0525 17.8545 19.2631 17.5618 19.2631C17.2692 19.2631 17.035 19.1052 16.9765 18.842C16.9765 19.2104 17.3277 19.5262 17.7374 19.5262C17.796 19.6841 17.796 19.8946 17.7374 19.9999C18.1472 19.6841 18.4984 19.2631 18.4984 18.842C18.4984 18.4736 18.1472 18.1578 17.7374 18.1578C17.3862 18.1578 17.0935 18.3683 16.9765 18.6841C17.035 18.5262 17.2106 18.421 17.4448 18.3683ZM25.5813 17.8946C25.0545 17.421 25.8155 16.5789 26.1082 16.5789C25.8155 16.5789 24.5277 17.3157 24.9374 17.8946H25.5813ZM19.1423 25.3683C19.5521 25.4736 19.9618 25.3683 20.0204 25.0525C20.1374 24.7894 19.8448 24.4736 19.4935 24.3683C19.435 24.3683 19.3765 24.3683 19.3179 24.3157C19.9033 24.6315 19.9033 25.2104 19.1423 25.3683ZM17.9716 21.5789C17.9716 21.5789 18.557 21.7368 19.2594 22.0525C19.1423 21.9473 18.9667 21.8946 18.8496 21.7894C18.4984 21.4736 18.2057 21.3157 17.9716 21.2631V21.5789ZM18.2057 28.1578C19.3765 28.1578 23.474 25.7894 23.474 25.7894C22.4789 25.7894 22.0692 25.6315 22.0692 25.6315C21.835 25.7368 21.3667 25.9473 20.3716 26.4736C19.5521 26.8946 19.0252 27.4736 18.2643 27.6841C18.1472 27.7368 18.0887 27.7368 17.9716 27.7368C17.796 27.7368 17.6204 27.6841 17.4448 27.6841V24.3157C17.4448 23.9473 17.1521 23.842 16.9765 23.842V27.7894C16.6252 27.9473 16.5082 28.1578 16.3911 28.3157C16.3911 28.3157 15.8057 28.2631 15.8057 29.2631C15.8057 28.9999 16.274 28.5262 16.5667 28.5262C16.5667 28.1578 17.6789 28.1578 18.2057 28.1578ZM28.4496 33.6315C28.157 33.6315 26.7521 33.6841 26.635 32.5789C26.3423 32.5262 25.9911 32.5262 25.5813 32.5789C26.5765 34.2631 27.6301 34.2631 27.8643 34.2631C28.274 34.6841 28.157 36.1578 27.5131 36.1052C25.2301 35.9999 25.2887 37.2631 25.5813 37.4736C25.5813 36.5262 26.2838 36.3157 28.0984 36.3157C28.157 36.3683 29.6204 34.6841 28.4496 33.6315ZM28.9179 37.6315H28.6252C28.6252 38.0525 29.0935 38.2104 29.0935 38.2104C28.9179 38.1052 28.8009 37.7368 28.9179 37.6315ZM26.0496 38.2631C25.9326 38.1578 25.8155 37.6841 25.9911 37.4736H25.6399C25.6399 37.9999 26.0496 38.2631 26.0496 38.2631ZM32.8399 22.6841C32.8399 21.2631 30.674 21.4736 30.557 22.5789C30.674 21.7894 32.1374 21.6315 32.1374 22.6841C32.1374 23.7368 29.3862 24.421 29.3862 26.1578C29.3862 28.1052 31.5521 28.2631 31.3179 30.0525C31.2594 30.3683 30.9082 30.7368 30.3813 30.7368C29.2692 30.7368 28.6252 30.3157 28.274 29.6841C28.6252 30.5789 29.2692 31.2104 30.6155 31.2104C31.9618 31.2104 32.1374 30.3157 32.1374 30.1052C32.1374 28.3157 30.0887 27.8946 30.0887 26.2104C30.0301 24.6315 32.8399 23.9473 32.8399 22.6841ZM16.7423 29.6315C16.7423 30.1578 16.9765 30.3683 16.9765 30.3683C16.9765 30.0525 17.1521 29.7368 17.2106 29.6841C17.0935 29.5789 16.7423 29.6315 16.7423 29.6315ZM32.5472 26.5789C32.0204 26.5789 31.5521 26.9473 31.4935 27.4736C31.4935 27.3683 31.6106 27.2631 31.7862 27.1052C32.4301 26.6841 33.6594 27.5262 32.957 28.421C33.3667 28.2631 33.6009 27.9473 33.6009 27.5262C33.6009 26.9999 33.1326 26.5789 32.5472 26.5789ZM27.6887 37.6315H27.3374C27.2789 38.2631 27.7472 38.3683 27.7472 38.3683C27.5131 38.2104 27.4545 37.842 27.6887 37.6315ZM17.2106 34.2631C17.1521 34.2631 17.0935 34.2631 17.035 34.3157C16.8594 34.421 16.7423 34.6315 16.7423 34.842C16.8009 34.9999 16.9765 35.1578 17.2106 35.1578C17.4448 35.1578 17.6789 34.9473 17.6789 34.7368C17.6789 34.4736 17.4448 34.2631 17.2106 34.2631ZM19.7862 37.3683H19.2594C19.2594 38.1578 19.7862 38.2631 19.7862 38.2631C19.6692 38.1052 19.435 37.6315 19.7862 37.3683ZM21.4838 32.4736C21.4838 30.6841 26.1667 30.5262 26.1667 29.0525C26.1667 28.4736 25.5813 28.2104 25.1716 28.2104C25.2887 28.3157 25.874 29.4736 24.1179 29.4736C22.5374 29.9473 19.0838 32.6315 21.4838 33.5789C21.4838 33.842 21.4252 35.8947 20.0204 35.7368C17.9716 35.5262 17.4448 36.2631 17.796 37.1578C17.796 35.842 18.8496 36.1052 20.196 36.1052C21.0155 36.1052 22.2448 35.1578 22.2448 33.5262C22.3033 33.4736 21.4838 33.2104 21.4838 32.4736ZM17.4448 33.5789V29.9999C17.1521 29.9999 16.9765 30.3683 16.9765 30.3683V33.3683H16.6838V33.7368C16.9179 33.7894 17.4448 33.6841 17.4448 33.5789ZM18.2643 38.1052C18.2643 38.1052 17.8545 37.5262 18.2643 37.1052H17.796C17.6204 37.842 18.2643 38.1052 18.2643 38.1052ZM21.1911 37.3683H20.7813C20.7813 37.8946 21.4838 38.1052 21.4838 38.1052C21.2496 37.8947 21.074 37.4736 21.1911 37.3683Z" fill="#737DB7"/>
<path d="M8.07806 31.4737V31.421V31.3684C8.01952 31.1052 7.96099 30.6315 7.55123 30.5789C7.43416 30.5789 7.31709 30.5789 7.20001 30.6315C7.25855 30.5263 7.20001 30.421 7.20001 30.3158C7.0244 29.9473 6.49757 29.9473 6.20489 29.9473H6.14635H6.08782C5.79513 29.8947 5.2683 29.7894 5.09269 30.1579C5.03416 30.2631 5.03416 30.3684 5.03416 30.4737C4.91709 30.421 4.80001 30.3684 4.68294 30.3684C4.27318 30.3684 4.09757 30.8421 4.03904 31.1052V31.1579L3.9805 31.2105C3.86343 31.421 3.57074 31.8421 3.86343 32.1579C3.92196 32.2105 4.03904 32.2631 4.15611 32.3158C4.03904 32.3684 3.9805 32.4737 3.9805 32.5789C3.86343 32.9473 4.33172 33.2105 4.56587 33.3684L4.6244 33.421L4.68294 33.4736C4.85855 33.6842 5.26831 34 5.61952 33.8421C5.7366 33.7894 5.79513 33.7368 5.85367 33.6315C5.91221 33.7368 5.97074 33.8421 6.08782 33.8947C6.43904 34.1052 6.84879 33.7894 7.08294 33.6842L7.14147 33.6315L7.20001 33.5789C7.43416 33.4737 7.96099 33.2631 7.90245 32.8947C7.90245 32.7894 7.84391 32.6842 7.78538 32.6315C7.90245 32.6315 8.01952 32.5789 8.1366 32.5263C8.37074 32.1579 8.19513 31.7368 8.07806 31.4737Z" fill="white"/>
<path d="M6.26367 31.7893C8.60514 33.0525 7.9027 31.6841 7.84416 31.4735C7.78562 31.263 7.78562 29.7367 6.26367 31.7893Z" fill="#E30613"/>
<path d="M6.08747 32.1052C5.50211 34.4736 6.73137 33.4736 6.90698 33.3684C7.14113 33.2105 8.72162 32.7368 6.08747 32.1052Z" fill="#E30613"/>
<path d="M5.73661 32.0527C3.04392 32.2633 4.50734 33.0001 4.68295 33.158C4.85856 33.2633 5.85368 34.5264 5.73661 32.0527Z" fill="#E30613"/>
<path d="M5.67822 31.7367C4.62456 29.4735 4.27334 30.9998 4.21481 31.1577C4.09773 31.3683 3.10261 32.5788 5.67822 31.7367Z" fill="#E30613"/>
<path d="M44.3126 31.1578L44.254 31.0526V30.9999C44.1955 30.7368 44.0199 30.3157 43.6101 30.2631C43.493 30.2631 43.376 30.2631 43.2589 30.3684C43.2589 30.2631 43.2589 30.1578 43.2004 30.0526C42.9662 29.7368 42.4394 29.842 42.2052 29.842H42.1467H42.0882C41.7955 29.842 41.2687 29.842 41.093 30.2105C41.0345 30.3157 41.0345 30.421 41.093 30.5262C40.976 30.4736 40.8589 30.4736 40.7418 30.4736C40.3321 30.5789 40.2735 31.0526 40.215 31.2631V31.3157V31.3684C40.0979 31.6315 39.9809 32.0526 40.2735 32.3157C40.3321 32.3684 40.4491 32.421 40.6248 32.421C40.5662 32.5262 40.5077 32.5789 40.5077 32.6841C40.4491 33.0526 40.976 33.2631 41.2101 33.3684L41.2687 33.421L41.3272 33.4736C41.5613 33.6315 41.9711 33.8947 42.3223 33.6841C42.4394 33.6315 42.4979 33.5262 42.5565 33.421C42.615 33.5262 42.7321 33.5789 42.7906 33.6315C43.2004 33.7894 43.5516 33.421 43.7272 33.2631L43.7857 33.2105L43.8443 33.1578C44.0784 32.9999 44.4882 32.7368 44.4296 32.3684C44.4296 32.2631 44.3126 32.2105 44.254 32.1052C44.3711 32.0526 44.4882 32.0526 44.5467 31.9473C44.7223 31.7894 44.4296 31.3684 44.3126 31.1578Z" fill="white"/>
<path d="M42.2641 31.579C40.2153 29.9474 41.9129 30.158 42.147 30.158C42.3226 30.1053 43.9617 29.6317 42.2641 31.579Z" fill="#E30613"/>
<path d="M41.9711 31.7893C39.6296 33.0525 40.3321 31.6841 40.3906 31.4735C40.4491 31.263 40.4492 29.7367 41.9711 31.7893Z" fill="#E30613"/>
<path d="M42.0876 32.1052C42.673 34.4736 41.4437 33.4736 41.2681 33.3684C41.0925 33.2105 39.512 32.7368 42.0876 32.1052Z" fill="#E30613"/>
<path d="M42.4969 32.0527C45.1895 32.2633 43.7261 33.0001 43.5505 33.158C43.3749 33.2633 42.3798 34.5264 42.4969 32.0527Z" fill="#E30613"/>
<path d="M42.5566 31.7367C43.6103 29.4735 43.9615 30.9998 44.0201 31.1577C44.1371 31.3683 45.1323 32.5788 42.5566 31.7367Z" fill="#E30613"/>
<path d="M43.082 31.7893V31.7367C43.3161 31.5788 43.5503 31.4209 43.5503 31.4209V31.3683C43.5503 31.3683 43.2576 31.4209 43.0234 31.4736C42.9064 31.263 42.6722 31.1578 42.3795 31.1051C42.321 30.8946 42.2039 30.6841 42.2039 30.6841H42.1454C42.1454 30.6841 42.0869 30.8946 42.0869 31.1578C41.9113 31.2104 41.7942 31.263 41.6771 31.3683C41.6186 31.4209 41.56 31.5262 41.56 31.5788C41.2674 31.5788 41.0332 31.5788 41.0332 31.5788V31.6315C41.0332 31.6315 41.2674 31.7367 41.56 31.842V31.8946C41.56 32.1051 41.6771 32.263 41.8527 32.3683C41.7942 32.6315 41.6771 32.8946 41.6771 32.8946H41.7356C41.7356 32.8946 41.9698 32.6841 42.1454 32.5262C42.2625 32.5788 42.3795 32.5788 42.4381 32.5788C42.5552 32.5788 42.6722 32.5262 42.7308 32.4736C42.9649 32.6314 43.1991 32.7893 43.1991 32.7893L43.2576 32.7367C43.2576 32.7367 43.1405 32.4736 42.9649 32.263C43.0234 32.1578 43.1405 31.9999 43.082 31.7893Z" fill="white"/>
<path d="M42.2642 31.4211C42.1471 31.4211 42.03 31.4738 41.913 31.579C41.8544 31.6843 41.7959 31.7896 41.7959 31.8948C41.7959 32.158 42.03 32.3159 42.3227 32.2633C42.4398 32.2633 42.5569 32.2106 42.6739 32.1054C42.7325 32.0001 42.791 31.8948 42.791 31.7896C42.7325 31.579 42.4983 31.4211 42.2642 31.4211Z" fill="#E30613"/>
<path d="M5.97117 31.579C8.01995 29.9474 6.32239 30.158 6.08824 30.158C5.91263 30.1053 4.27361 29.6317 5.97117 31.579Z" fill="#E30613"/>
<path d="M6.7314 31.8946C6.96554 31.7893 7.25823 31.6841 7.25823 31.6841V31.6315C7.25823 31.6315 6.96554 31.6315 6.7314 31.6315C6.67286 31.5788 6.67286 31.4736 6.61432 31.4209C6.49725 31.3157 6.38018 31.2104 6.20457 31.2104C6.0875 30.9472 6.08749 30.6841 6.08749 30.6841H6.02896C6.02896 30.6841 5.97042 30.8946 5.85335 31.1051C5.6192 31.1051 5.38506 31.263 5.20945 31.4736C4.9753 31.4209 4.68262 31.3683 4.68262 31.3683V31.4209C4.68262 31.4209 4.91676 31.5788 5.15091 31.7367V31.7893C5.15091 31.9999 5.20945 32.1578 5.32652 32.3157C5.20945 32.5262 5.03384 32.7893 5.03384 32.7893L5.09237 32.842C5.09237 32.842 5.32652 32.6841 5.56067 32.5262C5.67774 32.5788 5.73628 32.5788 5.85335 32.6315C5.97042 32.6315 6.0875 32.6315 6.14603 32.5788C6.32164 32.7367 6.55579 32.9472 6.55579 32.9472H6.61432C6.61432 32.9472 6.49725 32.6841 6.43871 32.4209C6.61432 32.3157 6.67286 32.1051 6.7314 31.9472C6.7314 31.8946 6.7314 31.8946 6.7314 31.8946Z" fill="white"/>
<path d="M6.32141 31.579C6.26287 31.4738 6.1458 31.4211 5.97019 31.4211C5.67751 31.4211 5.5019 31.579 5.44336 31.7896C5.44336 31.8948 5.44336 32.0001 5.56043 32.1054C5.61897 32.2106 5.73604 32.2633 5.91165 32.2633C6.20434 32.2633 6.43848 32.1054 6.43848 31.8948C6.43848 31.7896 6.37994 31.6843 6.32141 31.579Z" fill="#E30613"/>
<path d="M6.26401 21.3684C5.15181 21.2105 4.03962 21.8947 3.80547 22.8947C3.62986 23.8947 4.39084 24.8947 5.50303 25.1052C6.61523 25.2631 7.72742 24.5789 7.96157 23.5789C8.19572 22.5263 7.43474 21.5789 6.26401 21.3684Z" fill="white"/>
<path d="M6.73105 22.7895C6.73105 22.7895 6.67252 22.7369 6.61398 22.7369C6.43837 22.6316 6.08715 22.4211 6.08715 22.4211C6.02862 22.3685 5.97008 22.3685 5.97008 22.3158C5.79447 22.2106 5.6774 22.1579 5.56032 22.1053C5.50179 22.1053 5.44325 22.0527 5.44325 22.0527C5.26764 21.9474 5.03349 21.8948 4.79935 21.8948C4.62374 22 4.44813 22.1579 4.33105 22.3158C4.85788 22.4737 5.38471 22.7369 6.43837 23.3685C6.55544 23.2106 6.73105 22.8421 6.73105 22.7895Z" fill="#E30613"/>
<path d="M6.26357 23.8422C6.26357 23.7896 6.38064 23.579 6.43918 23.4738C5.32698 22.8422 4.85869 22.579 4.33186 22.4211C4.27332 22.579 4.21479 22.6843 4.15625 22.8422C4.3904 23.2106 5.20991 23.579 6.26357 23.8422Z" fill="#E30613"/>
<path d="M6.14706 22.2631C6.55682 22.0526 7.02511 22.1053 7.37633 22.2105C7.25926 22.0526 7.08365 21.8947 6.90804 21.7895C6.55682 21.7368 6.08852 21.7368 5.7373 22C5.85438 22.1053 5.97145 22.2105 6.14706 22.2631Z" fill="#E30613"/>
<path d="M4.50644 24.0527C4.56497 24.1054 4.62351 24.1054 4.68205 24.158C4.79912 24.2106 4.91619 24.2633 5.0918 24.3159C5.15034 24.3159 5.20887 24.3685 5.26741 24.3685C5.44302 24.4212 5.91131 24.5264 5.96985 24.5264C5.96985 24.5264 6.14546 24.1054 6.204 23.9475C5.38448 23.7896 4.50644 23.4738 4.09668 23.0527C4.09668 23.2633 4.09668 23.4212 4.15522 23.6317C4.21375 23.7896 4.33083 23.8948 4.50644 24.0527Z" fill="#E30613"/>
<path d="M5.97099 24.6843L5.79538 24.6316C5.61977 24.579 5.44416 24.579 5.26855 24.5264C5.32709 24.6843 5.5027 24.7895 5.61977 24.8948C5.79538 24.8948 5.97099 24.8948 6.20514 24.8948C6.08807 24.7895 5.97099 24.6843 5.97099 24.6843Z" fill="#E30613"/>
<path d="M7.66855 22.7368C7.61001 22.6316 7.55148 22.5263 7.49294 22.4211C7.20026 22.3158 6.67343 22.1579 6.26367 22.3684L6.84904 22.7368C6.96611 22.7368 7.08318 22.7368 7.20026 22.7368C7.25879 22.7368 7.31733 22.7368 7.37587 22.7368C7.49294 22.7368 7.61001 22.7368 7.66855 22.7368Z" fill="#E30613"/>
<path d="M7.3761 22.842C7.3761 23.6841 6.9078 24.3684 6.49805 24.7894C7.08341 24.5789 7.61024 24.1052 7.72731 23.5263C7.78585 23.3157 7.78585 23.1052 7.72731 22.8947C7.61024 22.8947 7.49317 22.8947 7.3761 22.842Z" fill="#E30613"/>
<path d="M5.56101 21.9475C5.85369 21.737 6.14637 21.6317 6.43906 21.6317C6.38052 21.6317 6.26345 21.5791 6.20491 21.5791C5.79516 21.5264 5.3854 21.5791 5.03418 21.737C5.20979 21.8422 5.3854 21.8949 5.56101 21.9475Z" fill="#E30613"/>
<path d="M6.9074 22.842C6.79033 23.1052 6.67326 23.2631 6.61472 23.421C6.61472 23.4736 6.55618 23.5263 6.55618 23.5789C6.49765 23.6315 6.43911 23.8947 6.43911 23.8947L6.38057 24.0526L6.08789 24.5789C6.14643 24.6841 6.2635 24.7368 6.32204 24.7894C6.73179 24.3684 7.20009 23.7368 7.20009 22.842C7.14155 22.842 7.02448 22.842 6.9074 22.842Z" fill="#E30613"/>
<path d="M5.09341 24.4211C4.97633 24.3684 4.85926 24.3158 4.74219 24.2632C4.80072 24.3684 4.85926 24.5263 4.9178 24.579C5.03487 24.6842 5.21048 24.7369 5.38609 24.7895C5.26902 24.7369 5.15194 24.579 5.09341 24.4211Z" fill="#E30613"/>
<path d="M4.5652 24.2106C4.50666 24.158 4.38959 24.1054 4.33105 24.0527C4.38959 24.2106 4.50666 24.3159 4.62374 24.4212C4.5652 24.3685 4.5652 24.2633 4.5652 24.2106Z" fill="#E30613"/>
<path d="M40.0394 23.5789C40.215 24.5789 41.3272 25.3157 42.4979 25.1052C43.6101 24.9473 44.4296 23.9473 44.1955 22.8947C44.0199 21.8947 42.9077 21.1578 41.737 21.3684C40.5662 21.5789 39.8053 22.5263 40.0394 23.5789Z" fill="white"/>
<path d="M41.2676 22.7895C41.2676 22.7895 41.3261 22.7369 41.3847 22.7369C41.5603 22.6316 41.9115 22.4211 41.9115 22.4211C41.97 22.3685 42.0286 22.3685 42.0286 22.3158C42.2042 22.2106 42.3212 22.1579 42.4383 22.1053C42.4968 22.1053 42.5554 22.0527 42.5554 22.0527C42.731 21.9474 42.9651 21.8948 43.1993 21.8948C43.3749 22 43.5505 22.1579 43.6676 22.3158C43.1407 22.4737 42.6139 22.7369 41.5603 23.3685C41.4432 23.2106 41.2676 22.8421 41.2676 22.7895Z" fill="#E30613"/>
<path d="M41.7371 23.8422C41.7371 23.7896 41.6201 23.579 41.5615 23.4738C42.6737 22.8422 43.142 22.579 43.6688 22.4211C43.7274 22.579 43.7859 22.6843 43.8445 22.8422C43.6103 23.2106 42.7908 23.579 41.7371 23.8422Z" fill="#E30613"/>
<path d="M41.8533 22.2631C41.4435 22.0526 40.9752 22.1053 40.624 22.2105C40.7411 22.0526 40.9167 21.8947 41.0923 21.7895C41.4435 21.7368 41.9118 21.7368 42.263 22C42.146 22.1053 42.0289 22.2105 41.8533 22.2631Z" fill="#E30613"/>
<path d="M43.4935 24.0527C43.4349 24.1054 43.3764 24.1054 43.3178 24.158C43.2008 24.2106 43.0837 24.2633 42.9081 24.3159C42.8496 24.3159 42.791 24.3685 42.7325 24.3685C42.5569 24.4212 42.0886 24.5264 42.03 24.5264C42.03 24.5264 41.8544 24.1054 41.7959 23.9475C42.6154 23.7896 43.4935 23.4738 43.9032 23.0527C43.9032 23.2633 43.9032 23.4212 43.8447 23.6317C43.7861 23.7896 43.6691 23.8948 43.4935 24.0527Z" fill="#E30613"/>
<path d="M42.03 24.6843L42.2057 24.6316C42.3813 24.579 42.5569 24.579 42.7325 24.5264C42.6739 24.6843 42.4983 24.7895 42.3813 24.8948C42.2057 24.8948 42.03 24.8948 41.7959 24.8948C41.913 24.7895 42.03 24.6843 42.03 24.6843Z" fill="#E30613"/>
<path d="M40.332 22.7368C40.3906 22.6316 40.4491 22.5263 40.5076 22.4211C40.8003 22.3158 41.3272 22.1579 41.7369 22.3684L41.1515 22.7368C41.0345 22.7368 40.9174 22.7368 40.8003 22.7368C40.7418 22.7368 40.6833 22.7368 40.6247 22.7368C40.5076 22.7368 40.3906 22.7368 40.332 22.7368Z" fill="#E30613"/>
<path d="M40.6246 22.842C40.6246 23.6841 41.0929 24.3684 41.5027 24.7894C40.9173 24.5789 40.3905 24.1052 40.2734 23.5263C40.2149 23.3157 40.2149 23.1052 40.2734 22.8947C40.3905 22.8947 40.5075 22.8947 40.6246 22.842Z" fill="#E30613"/>
<path d="M42.4396 21.9475C42.1469 21.737 41.8542 21.6317 41.5615 21.6317C41.6201 21.6317 41.7371 21.5791 41.7957 21.5791C42.2054 21.5264 42.6152 21.5791 42.9664 21.737C42.7908 21.8422 42.6152 21.8949 42.4396 21.9475Z" fill="#E30613"/>
<path d="M41.0924 22.842C41.2095 23.1052 41.3266 23.2631 41.3851 23.421C41.3851 23.4736 41.4437 23.5263 41.4437 23.5789C41.5022 23.6315 41.5607 23.8947 41.5607 23.8947L41.6193 24.0526L41.8534 24.6315C41.7949 24.7368 41.6778 24.7894 41.6193 24.842C41.2095 24.421 40.7412 23.7894 40.7412 22.8947C40.8583 22.842 40.9754 22.842 41.0924 22.842Z" fill="#E30613"/>
<path d="M42.9069 24.4211C43.024 24.3684 43.1411 24.3158 43.2582 24.2632C43.1996 24.3684 43.1411 24.5263 43.0825 24.579C42.9655 24.6842 42.7899 24.7369 42.6143 24.7895C42.7313 24.7369 42.8484 24.579 42.9069 24.4211Z" fill="#E30613"/>
<path d="M43.4345 24.2106C43.5516 24.158 43.6101 24.1054 43.6687 24.0527C43.6101 24.2106 43.493 24.3159 43.376 24.4212C43.4345 24.3685 43.4345 24.2633 43.4345 24.2106Z" fill="#E30613"/>
</svg>
