<svg width="24" height="25" viewBox="0 0 24 25" fill="none" xmlns="http://www.w3.org/2000/svg">
<path d="M19.6037 8.23554L12.5762 15.152C12.4228 15.3037 12.2159 15.3888 12.0002 15.3888C11.7845 15.3888 11.5775 15.3037 11.4242 15.152L4.39667 8.23704C4.24238 8.08543 4.03473 8.00048 3.81841 8.00048C3.60211 8.00048 3.39445 8.08543 3.24017 8.23704C3.16419 8.31111 3.10382 8.39963 3.06259 8.4974C3.02136 8.59516 3.00012 8.70019 3.00012 8.8063C3.00012 8.9124 3.02136 9.01742 3.06259 9.11519C3.10382 9.21295 3.16419 9.30148 3.24017 9.37554L10.2662 16.2905C10.7289 16.7449 11.3516 16.9995 12.0002 16.9995C12.6487 16.9995 13.2714 16.7449 13.7342 16.2905L20.7602 9.37554C20.8364 9.30146 20.8969 9.21284 20.9383 9.11493C20.9797 9.01703 21.001 8.91183 21.001 8.80554C21.001 8.69926 20.9797 8.59406 20.9383 8.49615C20.8969 8.39825 20.8364 8.30963 20.7602 8.23554C20.6059 8.08393 20.3982 7.99898 20.1819 7.99898C19.9656 7.99898 19.7579 8.08393 19.6037 8.23554Z" fill="#808080"/>
</svg>
