<svg width="48" height="48" viewBox="0 0 48 48" fill="none" xmlns="http://www.w3.org/2000/svg">
<g clip-path="url(#clip0_204_50587)">
<path d="M44.8222 32.8426L44.6431 33.1242C44.5956 33.199 44.5444 33.1919 44.4639 33.1456L43.4328 32.5788L44.208 33.6482C44.2247 33.667 44.2339 33.6911 44.2339 33.7159C44.2339 33.7408 44.2247 33.7649 44.208 33.7837L44.1422 33.8871C44.1322 33.9138 44.1127 33.9361 44.0871 33.9499C44.0616 33.9637 44.0318 33.9679 44.0032 33.9619L42.6431 33.8122L43.6559 34.4574C43.7363 34.5073 43.7217 34.5501 43.6851 34.6071L43.5352 34.8424C43.495 34.9066 43.4511 34.9244 43.389 34.8852L41.612 33.691C41.5986 33.6849 41.5867 33.676 41.5773 33.6648C41.5679 33.6536 41.5612 33.6405 41.5577 33.6265C41.5541 33.6124 41.5539 33.5978 41.557 33.5837C41.5601 33.5695 41.5664 33.5563 41.5754 33.5448L41.7071 33.3416C41.7193 33.3136 41.7418 33.2911 41.7703 33.2785C41.7987 33.266 41.831 33.2643 41.8606 33.2739L43.5681 33.4486L42.6285 32.069C42.6106 32.0452 42.601 32.0165 42.601 31.987C42.601 31.9575 42.6106 31.9288 42.6285 31.905L42.7564 31.7054C42.793 31.6484 42.8259 31.6412 42.8771 31.6697L44.7857 32.7107C44.7979 32.7155 44.8088 32.7231 44.8175 32.7329C44.8261 32.7426 44.8323 32.7542 44.8355 32.7667C44.8387 32.7792 44.8388 32.7923 44.8359 32.8048C44.833 32.8174 44.827 32.8291 44.8186 32.839M42.3104 36.4466C41.8606 36.9742 41.3634 36.9742 40.8076 36.5214L39.8679 35.7586C39.8168 35.7158 39.8277 35.6694 39.8679 35.6231L40.0837 35.3664C40.1275 35.3201 40.1604 35.3023 40.2153 35.3486L41.1221 36.0865C41.5352 36.4216 41.7692 36.3788 41.974 36.14C42.1787 35.9012 42.1641 35.6766 41.7546 35.3451L40.8478 34.6071C40.793 34.5644 40.804 34.518 40.8478 34.4717L41.0636 34.2186C41.1038 34.1687 41.1403 34.1544 41.1952 34.1972L42.1312 34.9601C42.7199 35.4413 42.7345 35.9511 42.314 36.4466M41.0051 37.844L40.7528 38.0721C40.6906 38.1327 40.6431 38.1149 40.5773 38.0472L39.7546 37.2273L40.2116 38.4571C40.2227 38.4794 40.2254 38.5048 40.2194 38.5288C40.2134 38.5529 40.199 38.5741 40.1787 38.589L40.0837 38.6746C40.0662 38.6969 40.0411 38.7124 40.013 38.7183C39.9848 38.7242 39.9554 38.7201 39.9301 38.7067L38.6614 38.2112L39.4621 39.0917C39.5279 39.1594 39.5023 39.1986 39.4621 39.2449L39.2573 39.4303C39.1988 39.4838 39.155 39.4873 39.1038 39.4303L37.7144 37.819C37.7023 37.8104 37.6925 37.7992 37.6857 37.7861C37.6789 37.7731 37.6754 37.7588 37.6754 37.7442C37.6754 37.7296 37.6789 37.7152 37.6857 37.7022C37.6925 37.6892 37.7023 37.6779 37.7144 37.6693L37.8935 37.5053C37.9142 37.4839 37.9416 37.4698 37.9714 37.4652C38.0012 37.4607 38.0317 37.466 38.0581 37.4804L39.6632 38.09L39.1184 36.525C39.1066 36.4976 39.1042 36.4672 39.1114 36.4383C39.1187 36.4095 39.1352 36.3836 39.1586 36.3646L39.3341 36.2042C39.3853 36.1614 39.4182 36.1614 39.4621 36.2042L41.0233 37.6978C41.0339 37.7051 41.0425 37.7147 41.0485 37.7258C41.0544 37.737 41.0575 37.7494 41.0575 37.762C41.0575 37.7746 41.0544 37.787 41.0485 37.7981C41.0425 37.8093 41.0339 37.8189 41.0233 37.8262M37.2573 38.425L37.1111 38.532L38.1056 39.851L38.2409 39.7547C38.2499 39.7475 38.2604 39.7423 38.2717 39.7394C38.283 39.7366 38.2948 39.7362 38.3063 39.7382C38.3178 39.7402 38.3287 39.7447 38.3382 39.7512C38.3477 39.7578 38.3557 39.7663 38.3615 39.7761L38.4676 39.9187C38.4753 39.925 38.4815 39.933 38.4857 39.9419C38.49 39.9508 38.4922 39.9605 38.4922 39.9704C38.4922 39.9802 38.49 39.9899 38.4857 39.9989C38.4815 40.0078 38.4753 40.0157 38.4676 40.0221L37.7619 40.5354C37.7464 40.5492 37.7262 40.5568 37.7052 40.5568C37.6843 40.5568 37.6641 40.5492 37.6486 40.5354L37.5389 40.3892C37.5307 40.381 37.5245 40.371 37.521 40.36C37.5174 40.349 37.5164 40.3374 37.5182 40.326C37.52 40.3146 37.5244 40.3038 37.5311 40.2944C37.5379 40.2849 37.5468 40.2771 37.5572 40.2716L37.6815 40.1789L36.687 38.8599L36.5407 38.9669C36.5318 38.9739 36.5213 38.9789 36.5101 38.9815C36.4989 38.9841 36.4873 38.9842 36.4761 38.9818C36.4648 38.9794 36.4543 38.9746 36.4452 38.9677C36.4362 38.9608 36.4288 38.952 36.4237 38.9419L36.314 38.7993C36.3004 38.7854 36.2928 38.7669 36.2928 38.7477C36.2928 38.7284 36.3004 38.7099 36.314 38.696L37.0453 38.1612C37.0608 38.1475 37.081 38.1398 37.1019 38.1398C37.1229 38.1398 37.1431 38.1475 37.1586 38.1612L37.2683 38.3074C37.2769 38.3148 37.2837 38.3238 37.2884 38.334C37.2931 38.3441 37.2955 38.3551 37.2955 38.3662C37.2955 38.3773 37.2931 38.3883 37.2884 38.3985C37.2837 38.4086 37.2769 38.4177 37.2683 38.425M35.9593 39.3519C35.9886 39.4125 35.9594 39.4481 35.9009 39.4838L35.3817 39.7868L36.3286 41.3339C36.3652 41.3981 36.3652 41.4159 36.3067 41.448L35.974 41.644C35.9118 41.6797 35.9008 41.6726 35.8643 41.6155L34.9173 40.0648L34.3798 40.3786C34.3213 40.4106 34.2811 40.3786 34.2445 40.3393L34.1166 40.1254C34.0873 40.0791 34.0983 40.0399 34.1531 40.0078L35.5791 39.1736L35.729 39.0845C35.7802 39.056 35.8168 39.0667 35.8387 39.0845L35.9593 39.3519ZM33.1001 40.9596L32.9466 41.0309L33.261 41.6868L33.4292 41.6155C33.4771 41.5976 33.5205 41.5699 33.5567 41.5345C33.5929 41.4991 33.6211 41.4566 33.6394 41.4099C33.6576 41.3632 33.6656 41.3132 33.6628 41.2633C33.66 41.2133 33.6464 41.1645 33.623 41.12C33.5133 40.8883 33.3305 40.8562 33.1001 40.9596ZM33.6083 41.9863L33.4328 42.054L33.729 42.6814C33.7546 42.7313 33.7473 42.7741 33.6742 42.8062L33.367 42.9452C33.3085 42.9702 33.2647 42.9666 33.2317 42.8917L32.3213 40.9739C32.2848 40.899 32.2994 40.8705 32.3725 40.8384L32.8551 40.6174C32.984 40.5386 33.1285 40.4874 33.2791 40.4671C33.4298 40.4469 33.5831 40.458 33.729 40.4998C33.892 40.579 34.0214 40.7114 34.0946 40.8741C34.325 41.3624 34.069 41.7688 33.5937 41.9863M30.9246 41.7938C30.6431 41.8865 30.5334 42.193 30.6943 42.66C30.8551 43.127 31.1184 43.3231 31.4255 43.2233C31.7327 43.1234 31.8168 42.8418 31.6486 42.3499C31.4804 41.8579 31.2317 41.6904 30.9173 41.7938M31.5498 43.6546C30.899 43.8685 30.3762 43.537 30.1422 42.8561C29.9082 42.1752 30.1422 41.5728 30.782 41.3589C31.4219 41.145 31.9667 41.5157 32.1897 42.1609C32.4347 42.8739 32.1568 43.455 31.5498 43.6546ZM28.1349 42.4568L27.952 42.4853L28.2372 44.1002L28.4054 44.0752C28.4168 44.0732 28.4284 44.0735 28.4396 44.076C28.4508 44.0786 28.4614 44.0833 28.4706 44.09C28.4799 44.0967 28.4877 44.1052 28.4934 44.1149C28.4992 44.1246 28.5028 44.1354 28.5041 44.1465L28.5334 44.3212C28.5377 44.3406 28.534 44.3609 28.5231 44.3776C28.5121 44.3943 28.4948 44.4061 28.4749 44.4103L27.6083 44.5565C27.598 44.5591 27.5872 44.5596 27.5766 44.5579C27.5661 44.5562 27.556 44.5524 27.5471 44.5467C27.5381 44.541 27.5305 44.5335 27.5247 44.5248C27.5189 44.516 27.515 44.5062 27.5133 44.4959L27.4804 44.3212C27.4764 44.3099 27.4752 44.2979 27.4767 44.2861C27.4783 44.2743 27.4826 44.263 27.4893 44.253C27.4959 44.243 27.5049 44.2347 27.5154 44.2286C27.5259 44.2225 27.5377 44.2188 27.5498 44.2178L27.7034 44.1929L27.4182 42.578L27.2391 42.6101C27.2276 42.6122 27.2159 42.6118 27.2046 42.609C27.1934 42.6062 27.1829 42.6011 27.1739 42.594C27.1648 42.5869 27.1575 42.578 27.1523 42.5678C27.1472 42.5577 27.1443 42.5466 27.144 42.5352L27.1111 42.3606C27.109 42.3509 27.109 42.341 27.111 42.3313C27.113 42.3217 27.1171 42.3126 27.1229 42.3045C27.1288 42.2965 27.1363 42.2897 27.1449 42.2846C27.1536 42.2796 27.1632 42.2763 27.1732 42.275L28.0727 42.1182C28.094 42.1139 28.1162 42.1178 28.1346 42.1291C28.153 42.1404 28.1662 42.1582 28.1714 42.1788L28.2043 42.357C28.2076 42.3681 28.2083 42.3797 28.2065 42.3911C28.2046 42.4024 28.2002 42.4133 28.1936 42.4228C28.187 42.4323 28.1783 42.4403 28.1681 42.4462C28.158 42.4521 28.1466 42.4557 28.1349 42.4568ZM25.8204 44.8025C25.5747 44.8213 25.3275 44.7996 25.0891 44.7383C25.0343 44.7383 25.016 44.7026 25.0124 44.6741C25.009 44.6553 25.009 44.636 25.0124 44.6171L25.0855 44.339C25.0855 44.3034 25.1038 44.2749 25.1513 44.2713C25.1705 44.2666 25.1906 44.2666 25.2098 44.2713C25.3837 44.323 25.5658 44.3435 25.7473 44.3319C25.8899 44.3319 26.0654 44.2357 26.0508 44.0717C26.0361 43.9077 25.9338 43.8899 25.8241 43.8507L25.3524 43.6796C25.225 43.6419 25.1121 43.5677 25.0286 43.4666C24.9451 43.3655 24.8949 43.2422 24.8844 43.1128C24.8901 42.9148 24.9753 42.727 25.1217 42.5896C25.268 42.4523 25.4637 42.3765 25.6668 42.3784C25.8969 42.3604 26.1283 42.3883 26.3469 42.4604C26.4018 42.4818 26.4237 42.5032 26.4274 42.5317C26.4302 42.5494 26.4302 42.5674 26.4274 42.5852L26.3433 42.8525C26.3433 42.8953 26.3104 42.9131 26.2811 42.9167C26.2606 42.9213 26.2394 42.9213 26.2189 42.9167C26.0678 42.864 25.9077 42.8398 25.7473 42.8454C25.612 42.8454 25.4621 42.9167 25.4731 43.0735C25.484 43.2304 25.623 43.2375 25.7144 43.266L26.1166 43.4086C26.2498 43.4412 26.3692 43.5138 26.4578 43.6161C26.5464 43.7185 26.5997 43.8454 26.6102 43.979C26.6183 44.0854 26.6036 44.1923 26.5671 44.2929C26.5306 44.3935 26.4731 44.4856 26.3981 44.5634C26.3232 44.6411 26.2325 44.7029 26.1318 44.7446C26.031 44.7864 25.9225 44.8073 25.8131 44.806M24.1239 42.8561H23.9813L23.9557 44.4959H24.1275C24.1387 44.4958 24.1498 44.4981 24.1601 44.5025C24.1704 44.5068 24.1796 44.5133 24.1872 44.5213C24.1947 44.5294 24.2005 44.5389 24.2041 44.5492C24.2077 44.5596 24.209 44.5706 24.208 44.5814V44.7597C24.2091 44.7698 24.208 44.78 24.2045 44.7896C24.2011 44.7992 24.1954 44.8079 24.1881 44.8151C24.1807 44.8223 24.1717 44.8278 24.1619 44.8312C24.1521 44.8345 24.1416 44.8357 24.1312 44.8345H23.2537C23.2326 44.8346 23.2122 44.827 23.1967 44.8131C23.1811 44.7992 23.1714 44.7802 23.1696 44.7597V44.5779C23.1685 44.5664 23.1699 44.5548 23.174 44.5439C23.178 44.533 23.1844 44.5231 23.1928 44.5149C23.2012 44.5068 23.2113 44.5005 23.2225 44.4966C23.2336 44.4927 23.2455 44.4912 23.2573 44.4923H23.4146L23.4402 42.8525H23.25C23.2385 42.8526 23.227 42.8503 23.2165 42.8457C23.2059 42.8411 23.1965 42.8344 23.1889 42.8259C23.1813 42.8174 23.1756 42.8075 23.1722 42.7967C23.1689 42.7859 23.168 42.7746 23.1696 42.7634V42.5887C23.1691 42.5786 23.1707 42.5685 23.1743 42.559C23.178 42.5495 23.1836 42.5408 23.1907 42.5335C23.1979 42.5261 23.2066 42.5203 23.2161 42.5163C23.2257 42.5123 23.236 42.5103 23.2464 42.5103H24.1604C24.171 42.5098 24.1816 42.5114 24.1915 42.5149C24.2015 42.5184 24.2106 42.5238 24.2184 42.5307C24.2262 42.5377 24.2326 42.5461 24.237 42.5554C24.2415 42.5647 24.2441 42.5749 24.2445 42.5852V42.767C24.2463 42.7783 24.2453 42.7898 24.2418 42.8007C24.2382 42.8117 24.2322 42.8216 24.224 42.8299C24.2159 42.8381 24.206 42.8445 24.1949 42.8484C24.1839 42.8523 24.1721 42.8537 24.1604 42.8525M22.0398 44.7668L21.7509 44.7312C21.7218 44.728 21.6938 44.7179 21.6696 44.7017C21.6454 44.6856 21.6256 44.6638 21.612 44.6385L20.7674 43.2126L20.6065 44.503C20.6065 44.5779 20.559 44.5993 20.4895 44.5921L20.1751 44.5529C20.0983 44.5529 20.0654 44.5208 20.0764 44.4424L20.3433 42.3356C20.3433 42.2501 20.3981 42.2394 20.4676 42.2465L20.7528 42.2822C20.7802 42.2833 20.8067 42.2919 20.8294 42.307C20.852 42.3222 20.8698 42.3432 20.8807 42.3677L21.7253 43.8186L21.8899 42.5139C21.8899 42.4426 21.9374 42.4247 22.0069 42.4319L22.3359 42.4711C22.4237 42.4711 22.4237 42.5317 22.4164 42.5852L22.1531 44.6991C22.1531 44.7846 22.1056 44.7989 22.0434 44.7918M17.133 43.9006C16.899 43.832 16.6789 43.7246 16.4822 43.5833C16.4347 43.5548 16.4274 43.5263 16.4347 43.4977C16.4422 43.48 16.4521 43.4632 16.4639 43.4478L16.6321 43.2126C16.654 43.184 16.6796 43.1591 16.7199 43.1734C16.7397 43.1771 16.7577 43.1871 16.771 43.2019C16.9158 43.3118 17.0791 43.3963 17.2537 43.4514C17.389 43.4906 17.5828 43.4728 17.6193 43.3159C17.6559 43.1591 17.5754 43.1056 17.4877 43.0308L17.1221 42.7028C17.0146 42.6204 16.9357 42.5079 16.8958 42.3804C16.8559 42.253 16.8571 42.1167 16.899 41.9898C16.9767 41.8074 17.1254 41.6625 17.3126 41.587C17.4998 41.5114 17.71 41.5115 17.8972 41.587C18.119 41.65 18.3246 41.7581 18.5005 41.9043C18.5444 41.9435 18.559 41.972 18.5517 42.0005C18.5444 42.029 18.5517 42.0255 18.5224 42.0433L18.3433 42.2643C18.314 42.3 18.2921 42.3107 18.2592 42.3035C18.2402 42.2945 18.2229 42.2824 18.208 42.2679C18.0859 42.1668 17.9459 42.0883 17.7948 42.0362C17.6632 41.997 17.5023 42.0005 17.4548 42.1538C17.4219 42.2536 17.5352 42.357 17.6047 42.4176L17.9301 42.6957C18.044 42.7732 18.1293 42.8843 18.1734 43.0127C18.2175 43.1411 18.2181 43.2799 18.1751 43.4086C18.143 43.51 18.0897 43.6039 18.0185 43.6841C17.9473 43.7644 17.8598 43.8294 17.7614 43.875C17.6631 43.9206 17.5562 43.9457 17.4474 43.9489C17.3386 43.9521 17.2303 43.9332 17.1294 43.8934M16.303 41.4908L16.1312 41.423L15.506 42.9416L15.6632 43.0058C15.6737 43.0101 15.6832 43.0163 15.6911 43.0243C15.699 43.0322 15.7052 43.0416 15.7093 43.0519C15.7134 43.0622 15.7154 43.0733 15.715 43.0843C15.7146 43.0954 15.7119 43.1063 15.7071 43.1163L15.6376 43.2803C15.6344 43.2897 15.6292 43.2983 15.6224 43.3057C15.6155 43.313 15.6072 43.3189 15.5979 43.3229C15.5886 43.3269 15.5786 43.329 15.5684 43.3291C15.5582 43.3291 15.5482 43.327 15.5389 43.3231L14.7235 43.0022C14.7036 42.995 14.6873 42.9806 14.6778 42.9621C14.6683 42.9436 14.6664 42.9223 14.6723 42.9024L14.7418 42.7349C14.7449 42.7237 14.7505 42.7133 14.7582 42.7045C14.7659 42.6956 14.7755 42.6886 14.7864 42.6838C14.7972 42.679 14.809 42.6767 14.8209 42.6769C14.8328 42.6771 14.8445 42.6798 14.8551 42.685L15.0014 42.742L15.6266 41.2234L15.4584 41.1557C15.4479 41.1514 15.4384 41.1451 15.4305 41.1372C15.4226 41.1293 15.4164 41.1199 15.4123 41.1096C15.4082 41.0992 15.4063 41.0882 15.4067 41.0771C15.4071 41.0661 15.4097 41.0552 15.4146 41.0452L15.484 40.8812C15.4872 40.8718 15.4924 40.8631 15.4993 40.8558C15.5061 40.8485 15.5144 40.8426 15.5237 40.8386C15.533 40.8345 15.543 40.8324 15.5532 40.8324C15.5634 40.8324 15.5734 40.8344 15.5827 40.8384L16.431 41.1735C16.4411 41.1767 16.4505 41.1819 16.4586 41.1886C16.4666 41.1954 16.4732 41.2037 16.478 41.213C16.4828 41.2223 16.4856 41.2324 16.4863 41.2427C16.487 41.2531 16.4856 41.2635 16.4822 41.2733L16.4127 41.4409C16.4101 41.4519 16.4049 41.4623 16.3976 41.4712C16.3903 41.48 16.3809 41.4871 16.3704 41.4919C16.3598 41.4967 16.3482 41.4991 16.3366 41.4989C16.3249 41.4987 16.3134 41.4959 16.303 41.4908ZM14.8405 40.9133C14.804 40.9703 14.7564 40.9667 14.6906 40.9133L14.1604 40.6423L13.3049 42.2394C13.272 42.3071 13.2573 42.3142 13.1952 42.2822L12.8551 42.1075C12.7893 42.0754 12.7893 42.0611 12.8222 42.0005L13.6778 40.3964L13.1257 40.1112C13.0636 40.0827 13.0562 40.0399 13.0855 39.9793L13.2025 39.7618C13.2317 39.7084 13.272 39.7012 13.3268 39.7298L14.7893 40.4819L14.9429 40.5604C14.9977 40.5889 15.0051 40.6245 14.9831 40.6637L14.8405 40.9133ZM11.9667 39.8224C11.9667 39.7476 12.0032 39.6834 12.0215 39.6264C11.974 39.6692 11.9228 39.7119 11.8606 39.7583L11.3158 40.1932L11.7838 40.4926L11.9667 39.8224ZM11.9667 41.6583L11.6449 41.4516C11.6181 41.4378 11.5974 41.415 11.5867 41.3875C11.5759 41.3599 11.5758 41.3295 11.5864 41.3018L11.6888 40.9061L11.5864 40.8384L11.0818 40.5176L10.9831 40.4534L10.6431 40.7172C10.625 40.733 10.6015 40.7417 10.5773 40.7417C10.553 40.7417 10.5296 40.733 10.5115 40.7172L10.186 40.5104C10.1806 40.5058 10.1762 40.5 10.1732 40.4936C10.1703 40.4871 10.1687 40.4801 10.1687 40.473C10.1687 40.4659 10.1703 40.4589 10.1732 40.4525C10.1762 40.446 10.1806 40.4403 10.186 40.4356C10.1928 40.4235 10.2029 40.4136 10.2153 40.4071L12.091 39.0453C12.1112 39.0294 12.1363 39.0207 12.1623 39.0207C12.1882 39.0207 12.2134 39.0294 12.2336 39.0453L12.5297 39.2342C12.5528 39.2462 12.571 39.2653 12.5816 39.2886C12.5922 39.3119 12.5946 39.3379 12.5882 39.3626L12.0983 41.5906C12.0956 41.6082 12.0894 41.6252 12.08 41.6405C12.0738 41.6473 12.0662 41.6528 12.0577 41.6565C12.0492 41.6603 12.04 41.6622 12.0306 41.6622C12.0213 41.6622 12.0121 41.6603 12.0036 41.6565C11.9951 41.6528 11.9875 41.6473 11.9813 41.6405M9.05624 39.6727C8.86876 39.5215 8.7071 39.3422 8.57726 39.1416C8.54801 39.0952 8.54801 39.0631 8.57726 39.0418C8.59073 39.0271 8.60685 39.015 8.6248 39.0061L8.87342 38.8528C8.90267 38.8314 8.93558 38.8172 8.96849 38.8528C8.98437 38.8651 8.99692 38.881 9.00505 38.8992C9.09408 39.0554 9.21183 39.1944 9.3524 39.3091C9.46575 39.3982 9.65222 39.4517 9.75825 39.3091C9.79016 39.2627 9.8072 39.2081 9.8072 39.1523C9.8072 39.0964 9.79016 39.0418 9.75825 38.9954L9.53522 38.5534C9.47227 38.4418 9.44458 38.3146 9.45565 38.1877C9.46671 38.0609 9.51602 37.94 9.59738 37.8404C9.66805 37.7711 9.75208 37.7161 9.84464 37.6786C9.93719 37.6411 10.0364 37.6217 10.1367 37.6217C10.2369 37.6217 10.3362 37.6411 10.4287 37.6786C10.5213 37.7161 10.6053 37.7711 10.676 37.8404C10.858 37.9806 11.0075 38.1568 11.1147 38.3573C11.1403 38.4108 11.1403 38.4393 11.1147 38.4643C11.102 38.4762 11.0871 38.4859 11.0709 38.4928L10.8222 38.6318C10.782 38.6568 10.7564 38.6568 10.7308 38.6318C10.7142 38.6187 10.7016 38.6015 10.6943 38.5819C10.6193 38.447 10.5203 38.3263 10.4018 38.2254C10.2957 38.1434 10.1422 38.0864 10.0361 38.2254C9.9301 38.3644 10.0361 38.4429 10.0727 38.5249L10.2665 38.9027C10.3398 39.0159 10.3749 39.1485 10.3671 39.2821C10.3592 39.4157 10.3087 39.5435 10.2226 39.6478C10.1534 39.7301 10.0673 39.7975 9.96988 39.8456C9.87246 39.8937 9.76583 39.9215 9.65678 39.9272C9.54774 39.9329 9.43866 39.9164 9.33653 39.8787C9.23439 39.841 9.14142 39.783 9.06355 39.7084M7.06355 37.8796L6.18604 36.9456C6.13485 36.8922 6.12388 36.8565 6.18604 36.7924L7.78019 35.3664C7.78842 35.3567 7.79875 35.3489 7.81045 35.3435C7.82214 35.3382 7.83491 35.3354 7.84783 35.3354C7.86076 35.3354 7.87352 35.3382 7.88522 35.3435C7.89691 35.3489 7.90724 35.3567 7.91547 35.3664L8.14948 35.6124C8.20066 35.6694 8.20066 35.7051 8.14948 35.755L6.79664 36.9278L7.38896 37.5552C7.39959 37.5632 7.40819 37.5735 7.41411 37.5852C7.42003 37.597 7.4231 37.6099 7.4231 37.623C7.4231 37.636 7.42003 37.6489 7.41411 37.6607C7.40819 37.6724 7.39959 37.6827 7.38896 37.6907L7.19884 37.8618C7.19071 37.8728 7.18001 37.8818 7.16761 37.888C7.15521 37.8942 7.14147 37.8975 7.12754 37.8975C7.1136 37.8975 7.09987 37.8942 7.08747 37.888C7.07507 37.8818 7.06437 37.8728 7.05624 37.8618M7.05624 34.8531L6.94289 34.7105L5.61566 35.7087L5.71803 35.8406C5.72505 35.8493 5.73016 35.8594 5.73304 35.8702C5.73593 35.881 5.73653 35.8922 5.73482 35.9032C5.73311 35.9142 5.72912 35.9248 5.72309 35.9342C5.71706 35.9437 5.70912 35.9518 5.69975 35.9582L5.5535 36.0651C5.54667 36.0722 5.53845 36.0777 5.52933 36.0816C5.52022 36.0854 5.5104 36.0873 5.50048 36.0873C5.49056 36.0873 5.48075 36.0854 5.47163 36.0816C5.46252 36.0777 5.4543 36.0722 5.44747 36.0651L4.91365 35.3807C4.89869 35.366 4.89029 35.3462 4.89029 35.3254C4.89029 35.3047 4.89869 35.2849 4.91365 35.2702L5.0599 35.1597C5.06708 35.1508 5.07624 35.1436 5.08669 35.1386C5.09714 35.1337 5.10861 35.1311 5.12022 35.1311C5.13184 35.1311 5.14331 35.1337 5.15376 35.1386C5.16421 35.1436 5.17337 35.1508 5.18056 35.1597L5.27928 35.2809L6.60651 34.2827L6.49317 34.1437C6.48633 34.1347 6.48146 34.1244 6.47885 34.1135C6.47625 34.1026 6.47597 34.0913 6.47802 34.0803C6.48008 34.0692 6.48443 34.0588 6.49081 34.0494C6.49719 34.0401 6.50545 34.0322 6.51511 34.0261L6.6577 33.9191C6.66485 33.912 6.67338 33.9064 6.6828 33.9025C6.69222 33.8987 6.70233 33.8967 6.71255 33.8967C6.72276 33.8967 6.73287 33.8987 6.74229 33.9025C6.75171 33.9064 6.76024 33.912 6.76739 33.9191L7.32315 34.6321C7.33811 34.6468 7.34651 34.6666 7.34651 34.6873C7.34651 34.708 7.33811 34.7279 7.32315 34.7426L7.1769 34.8531C7.16971 34.862 7.16055 34.8692 7.1501 34.8741C7.13965 34.8791 7.12819 34.8817 7.11657 34.8817C7.10495 34.8817 7.09349 34.8791 7.08304 34.8741C7.07259 34.8692 7.06343 34.862 7.05624 34.8531ZM4.27013 34.4966L4.11657 34.2542C4.10393 34.2286 4.09737 34.2006 4.09737 34.1722C4.09737 34.1438 4.10393 34.1158 4.11657 34.0902L4.73814 32.5431L3.60834 33.224C3.59783 33.2337 3.58501 33.2408 3.57102 33.2445C3.55704 33.2482 3.54233 33.2485 3.52821 33.2453C3.51408 33.2421 3.50099 33.2356 3.49009 33.2263C3.47919 33.217 3.47083 33.2052 3.46575 33.1919L3.30121 32.9281C3.261 32.8604 3.25734 32.8247 3.32681 32.782L5.15496 31.6697C5.23174 31.6234 5.26831 31.6484 5.30487 31.709L5.45478 31.9478C5.46975 31.9707 5.4777 31.9973 5.4777 32.0244C5.4777 32.0516 5.46975 32.0782 5.45478 32.1011L4.80396 33.6482L5.94472 32.9602C6.00688 32.921 6.0471 32.9424 6.08366 32.9994L6.25917 33.2739C6.30304 33.3488 6.25917 33.3809 6.21895 33.4094L4.39079 34.518C4.31401 34.5644 4.2811 34.5394 4.2482 34.4895" fill="#00019E"/>
<path d="M47.2616 30.2795C45.4553 34.7832 42.3456 38.6782 38.3109 41.4908C34.5233 44.1388 30.0395 45.6784 25.3859 45.9289H25.3639L23.9818 47.2657L22.618 45.9147H22.5961C17.949 45.6657 13.4708 44.1312 9.68568 41.4908C5.65476 38.6819 2.54569 34.7938 0.735043 30.2973L0.68751 30.1797L5.07508 28.49L5.12261 28.604C6.59663 32.2449 9.11981 35.392 12.3877 37.6658C15.6264 39.9248 19.4854 41.1851 23.4663 41.284H23.5175L23.9818 41.7474L24.4499 41.284H24.501C28.483 41.1847 32.3431 39.9245 35.5833 37.6658C38.8491 35.3908 41.3708 32.2439 42.8447 28.604L42.8923 28.49L47.2798 30.1797L47.2616 30.2795ZM1.01658 28.0836L0.976361 28.0051C0.78014 27.6926 0.700103 27.3239 0.749672 26.9607C0.775936 26.8716 0.822446 26.7895 0.885745 26.7203C0.949045 26.6512 1.02751 26.5969 1.1153 26.5614L4.63998 24.9466L4.5961 25.1391V25.2103C4.53948 25.5947 4.5874 25.9869 4.73504 26.3475L4.76795 26.4295L1.01658 28.0836ZM5.0568 26.8323C5.1489 26.7923 5.2216 26.7192 5.25975 26.6282C5.2979 26.5372 5.29854 26.4354 5.26155 26.344L5.2323 26.2762C5.0883 25.9749 5.03626 25.6395 5.08239 25.3102C5.08956 25.221 5.11688 25.1345 5.16239 25.0568C5.20791 24.9792 5.27049 24.9123 5.34565 24.861C5.3969 24.8368 5.45324 24.8246 5.51018 24.8253C5.76978 24.8253 6.06594 25.0713 6.34382 25.5027C6.44658 26.4203 6.6388 27.3263 6.91786 28.2083H6.85204C6.67952 28.1359 6.53581 28.0108 6.44254 27.8519C6.39675 27.7815 6.33361 27.7234 6.25889 27.6829C6.18416 27.6425 6.10023 27.6209 6.01475 27.6201C5.94723 27.6198 5.88025 27.6319 5.81731 27.6558L3.62353 28.4971C3.53994 28.2079 3.41697 27.931 3.2579 27.6736L5.0568 26.8323ZM7.36758 29.3491L6.27069 29.7448C6.03669 29.2742 5.78075 28.6753 5.61256 28.2761L5.76612 28.219L5.94894 28.1406H5.97453C5.98493 28.1409 5.99515 28.1433 6.00458 28.1476C6.01401 28.1519 6.02244 28.158 6.02937 28.1656C6.19564 28.4433 6.45335 28.6582 6.76064 28.7751C6.89609 28.8097 7.03925 28.8023 7.17015 28.7538C7.21402 28.8892 7.33833 29.2207 7.38587 29.3526M22.885 40.6958C19.2208 40.4959 15.6905 39.2843 12.7058 37.2023C10.094 35.3848 7.9634 32.9874 6.49007 30.2082L7.5504 29.8303C8.35183 31.5771 9.47315 33.1669 10.8594 34.5216C13.8089 37.3679 17.6619 39.1539 21.7881 39.5872L22.885 40.6958ZM7.47362 20.9041C7.66517 19.9297 7.92663 18.9696 8.25607 18.0308L8.47179 17.3856C8.63998 16.94 8.7972 16.4909 8.93614 16.0488C9.35317 14.8312 9.60515 13.5657 9.68568 12.2844C9.68568 10.6054 8.29629 8.31677 6.65461 6.83381L12.8703 1.24064C14.5441 2.25128 16.4793 2.77447 18.448 2.74857C20.4166 2.72268 22.3366 2.14878 23.9818 1.09449C25.632 2.15317 27.559 2.72829 29.5342 2.75167C31.5095 2.77505 33.4502 2.2457 35.1263 1.22639L41.342 6.81955C39.7003 8.30251 38.3109 10.5911 38.3109 12.2701C38.3914 13.5514 38.6434 14.817 39.0605 16.0346C39.1994 16.4766 39.3566 16.9258 39.5248 17.3714L39.7442 18.0166C40.0708 18.9556 40.3298 19.9157 40.5193 20.8898C40.7106 21.8644 40.817 22.853 40.8374 23.845C40.8374 31.5593 34.2561 37.9117 25.8173 38.7138L23.9892 40.4962L22.1829 38.7138C13.7442 37.926 7.16283 31.5735 7.16283 23.8593C7.18382 22.8674 7.28899 21.879 7.47727 20.9041M41.4809 30.2082C40.0076 32.9874 37.877 35.3848 35.2652 37.2023C32.2799 39.283 28.7499 40.4945 25.0861 40.6958L26.2049 39.5872C30.3219 39.1484 34.1651 37.3628 37.108 34.5216C38.5007 33.1684 39.6283 31.5785 40.4352 29.8303L41.4809 30.2082ZM41.0714 28.7823C41.1294 28.7818 41.1871 28.7746 41.2433 28.7609C41.5492 28.6418 41.8063 28.4275 41.9745 28.1513C41.9813 28.1436 41.9897 28.1373 41.9992 28.133C42.0086 28.1287 42.0189 28.1265 42.0294 28.1264H42.055L42.2341 28.2048L42.3877 28.2618C42.2195 28.6753 41.9636 29.26 41.7296 29.7305L40.6327 29.3348C40.6839 29.2029 40.8045 28.8714 40.8484 28.7359C40.9255 28.7645 41.0073 28.779 41.0897 28.7787M41.6455 25.467C41.9233 25.0357 42.2158 24.7897 42.4754 24.7897L42.6583 24.8325C42.7334 24.8838 42.796 24.9506 42.8415 25.0283C42.887 25.106 42.9143 25.1925 42.9215 25.2816C42.9676 25.611 42.9156 25.9464 42.7716 26.2477L42.7424 26.3154C42.7054 26.4069 42.706 26.5087 42.7442 26.5997C42.7823 26.6907 42.855 26.7638 42.9471 26.8038L43.2798 26.95L44.7424 27.5952L44.3767 28.4187L42.1829 27.5774C42.0721 27.5343 41.9494 27.5304 41.8359 27.5662C41.7224 27.602 41.6253 27.6753 41.5614 27.7734C41.4681 27.9324 41.3244 28.0575 41.1519 28.1299H41.0824C41.3609 27.2475 41.5543 26.3417 41.6601 25.4242M43.2798 26.2905C43.4257 25.9294 43.4735 25.5377 43.4188 25.1533V25.082L43.3749 24.8895L46.8996 26.5044C46.9908 26.5376 47.0729 26.591 47.1394 26.6602C47.206 26.7295 47.2553 26.8128 47.2835 26.9036C47.3331 27.2668 47.253 27.6356 47.0568 27.9481L47.0129 28.0265L43.2616 26.3725L43.2798 26.2905ZM48.0111 29.8089C47.9997 29.7863 47.9802 29.7686 47.9563 29.759L44.9471 28.6575C45.0239 28.3749 45.1474 28.1064 45.3127 27.8626L46.852 28.5434C46.9409 28.5819 47.0414 28.5864 47.1335 28.556C47.2256 28.5256 47.3026 28.4626 47.3493 28.3795C47.4528 28.2195 47.5398 28.05 47.6089 27.8733C47.7631 27.5375 47.7979 27.1611 47.7076 26.8038C47.6614 26.6448 47.5789 26.498 47.4661 26.3745C47.3534 26.251 47.2135 26.1541 47.0568 26.0909L42.9434 24.2086H42.9142C42.7194 24.1257 42.5049 24.0972 42.2944 24.1261C42.084 24.1551 41.8859 24.2404 41.7222 24.3726V23.845C41.7005 22.7981 41.5892 21.7547 41.3895 20.7258C41.191 19.7081 40.9198 18.7051 40.5778 17.7243L40.3548 17.0719C40.1939 16.6513 40.044 16.2164 39.9087 15.785C39.5177 14.653 39.2792 13.4763 39.1994 12.2844C39.1994 10.9583 40.3804 8.89427 41.9489 7.48261L42.6802 6.81955L35.2213 0.0927821L34.6327 0.474215C33.1084 1.39498 31.3465 1.87326 29.5535 1.85306C27.7605 1.83285 26.0104 1.315 24.5084 0.360142L23.9855 0.00366211L23.4663 0.360142C21.9635 1.3149 20.2129 1.83267 18.4193 1.85287C16.6257 1.87307 14.8634 1.39487 13.3383 0.474215L12.7497 0.0927821L6.0111 6.15294L5.27984 6.80173L6.0111 7.46478C7.57965 8.8907 8.76064 10.9405 8.76064 12.2666C8.68046 13.4584 8.44203 14.6351 8.05131 15.7672C7.91603 16.1985 7.76612 16.6334 7.60525 17.0541L7.37855 17.7207C7.03584 18.7013 6.7646 19.7044 6.56685 20.7223C6.36714 21.7512 6.25585 22.7945 6.23413 23.8415V24.3691C6.07049 24.2368 5.87241 24.1515 5.66196 24.1225C5.45152 24.0936 5.23695 24.1222 5.04217 24.2051H5.01658L0.94711 26.1229C0.790445 26.1861 0.650503 26.2831 0.537784 26.4066C0.425065 26.5301 0.342499 26.6769 0.296288 26.8359C0.206016 27.1931 0.240764 27.5695 0.395009 27.9053C0.464113 28.082 0.551071 28.2516 0.654604 28.4115C0.688044 28.4709 0.737253 28.5205 0.797077 28.555C0.856901 28.5895 0.925141 28.6076 0.994644 28.6076C1.04872 28.6072 1.10217 28.5963 1.15186 28.5755L2.69117 27.8946C2.85652 28.1385 2.98001 28.407 3.0568 28.6896L0.0659385 29.8375C0.0438935 29.8484 0.0259729 29.8659 0.0147504 29.8874C0.00549987 29.9115 0.00549987 29.9381 0.0147504 29.9622L0.197566 30.4114C2.03823 35.0347 5.22102 39.0347 9.35662 41.9221C13.1782 44.5884 17.6905 46.1558 22.3804 46.4459L23.9197 47.968C23.9284 47.9775 23.9391 47.985 23.9511 47.9899C23.9631 47.9949 23.9761 47.9971 23.9892 47.9965C24.0016 47.9968 24.014 47.9944 24.0254 47.9895C24.0367 47.9846 24.0469 47.9772 24.055 47.968L25.5943 46.4459C30.2842 46.1558 34.7965 44.5884 38.618 41.9221C42.7651 39.032 45.9561 35.0238 47.799 30.39L47.9819 29.9408C47.9911 29.9167 47.9911 29.8901 47.9819 29.866" fill="#00019E"/>
<path d="M17.9052 9.76396C17.6677 9.733 17.4271 9.79166 17.2325 9.92794C17.018 10.0539 16.8541 10.2476 16.7681 10.4769C17.0052 10.5108 17.2466 10.4532 17.4409 10.3165C17.656 10.1897 17.82 9.99459 17.9052 9.76396ZM16.9217 6.41305C16.9324 6.16028 16.8607 5.9107 16.7169 5.70009C16.5974 5.48975 16.4059 5.327 16.1758 5.24023C16.1617 5.49287 16.2323 5.74312 16.3769 5.95319C16.4969 6.16457 16.6899 6.32754 16.9217 6.41305ZM16.9327 7.28643C16.9109 7.5143 16.9648 7.74295 17.0862 7.93879C17.1839 8.1345 17.3498 8.28994 17.5542 8.37726C17.5759 8.14939 17.5221 7.92073 17.4007 7.7249C17.303 7.52918 17.1371 7.37375 16.9327 7.28643ZM17.2946 6.71606C17.4236 6.50054 17.4822 6.25189 17.4628 6.0031C17.4628 5.7458 17.3768 5.49551 17.2178 5.29014C17.0874 5.50506 17.0286 5.7542 17.0497 6.0031C17.0486 6.26057 17.1347 6.51119 17.2946 6.71606ZM17.6456 8.12059C17.8667 8.00596 18.0409 7.82105 18.1392 7.59657C18.2594 7.37079 18.3042 7.11402 18.2672 6.86222C18.0448 6.97519 17.8702 7.16063 17.7736 7.38624C17.6515 7.61138 17.6066 7.86876 17.6456 8.12059ZM16.7389 6.97273C16.8935 7.12165 17.0994 7.2093 17.3166 7.2187C17.2695 6.99988 17.1485 6.80279 16.9729 6.65903C16.821 6.50826 16.6155 6.42019 16.3988 6.41305C16.4462 6.6309 16.5657 6.82754 16.7389 6.97273ZM17.5177 7.56448C17.694 7.3829 17.8044 7.15001 17.8321 6.90143C17.8829 6.65107 17.8509 6.39144 17.7407 6.15995C17.5637 6.34109 17.4532 6.57421 17.4263 6.82301C17.3754 7.07337 17.4074 7.333 17.5177 7.56448ZM18.3769 8.90128C18.1394 8.87032 17.8987 8.92897 17.7041 9.06526C17.489 9.19211 17.325 9.38718 17.2398 9.61781C17.4773 9.64841 17.7178 9.58978 17.9125 9.45382C18.1277 9.32698 18.2916 9.13191 18.3769 8.90128ZM18.0149 8.66244C18.1751 8.46466 18.2672 8.22266 18.2782 7.97087C18.0392 8.03103 17.8319 8.17594 17.6968 8.37726C17.5354 8.57412 17.4443 8.81691 17.4372 9.06883C17.6733 9.00487 17.8782 8.86074 18.0149 8.66244ZM16.94 9.76396C17.1163 9.5814 17.2256 9.34695 17.2508 9.09735C17.2987 8.84656 17.2655 8.58743 17.1557 8.35587C16.98 8.53928 16.8697 8.77307 16.8412 9.02248C16.7924 9.27359 16.827 9.53333 16.94 9.76396ZM16.9034 10.6195C16.6616 10.6605 16.444 10.7875 16.2928 10.976C16.4997 11.0925 16.7449 11.1257 16.9765 11.0687C17.2188 11.029 17.4369 10.9017 17.5871 10.7122C17.3803 10.5957 17.135 10.5625 16.9034 10.6195ZM11.9418 9.61781C11.8595 9.3819 11.6952 9.18142 11.4774 9.051C11.2828 8.91472 11.0422 8.85606 10.8047 8.88702C10.8899 9.11765 11.0539 9.31272 11.269 9.43957C11.4638 9.57552 11.7043 9.63415 11.9418 9.60355M12.4135 10.4769C12.3275 10.2476 12.1636 10.0539 11.9491 9.92794C11.7545 9.79166 11.5138 9.733 11.2763 9.76396C11.3616 9.99459 11.5255 10.1897 11.7407 10.3165C11.935 10.4532 12.1763 10.5108 12.4135 10.4769ZM12.8888 10.9653C12.7376 10.7768 12.52 10.6498 12.2782 10.6088C12.0466 10.5514 11.8012 10.5847 11.5944 10.7015C11.7454 10.8902 11.9631 11.0173 12.205 11.058C12.4372 11.1121 12.6818 11.0776 12.8888 10.9617M16.6694 10.3058C16.7858 10.0776 16.8255 9.81937 16.7827 9.5679C16.5621 9.69224 16.3927 9.8876 16.3038 10.1204C16.1864 10.3471 16.1454 10.6041 16.1868 10.8548C16.4079 10.739 16.58 10.5509 16.6731 10.3236M12.2818 11.4608C12.4796 11.5926 12.7223 11.6438 12.9583 11.6034C13.199 11.5812 13.4228 11.4733 13.5871 11.3004C13.3895 11.1683 13.1466 11.1171 12.9107 11.1578C12.67 11.18 12.4461 11.2879 12.2818 11.4608ZM13.6054 11.1899C13.7913 11.3378 14.0278 11.4116 14.2672 11.3966C14.195 11.1609 14.0429 10.9561 13.8358 10.8156C13.6498 10.6677 13.4134 10.5938 13.174 10.6088C13.2467 10.8443 13.3987 11.049 13.6054 11.1899ZM12.4061 9.5679C12.3634 9.81937 12.4031 10.0776 12.5195 10.3058C12.6151 10.5329 12.7899 10.7198 13.0131 10.8334C13.0542 10.5827 13.0132 10.3258 12.8961 10.0991C12.8026 9.87228 12.6323 9.68357 12.4135 9.56434M12.8047 5.95319C12.9493 5.74312 13.0199 5.49287 13.0058 5.24023C12.7757 5.327 12.5842 5.48975 12.4646 5.70009C12.3209 5.9107 12.2492 6.16028 12.2599 6.41305C12.4916 6.32754 12.6847 6.16457 12.8047 5.95319ZM12.4427 6.97273C12.6159 6.82754 12.7354 6.6309 12.7827 6.41305C12.5661 6.42019 12.3606 6.50826 12.2087 6.65903C12.0331 6.80279 11.9121 6.99988 11.865 7.2187C12.0822 7.2093 12.288 7.12165 12.4427 6.97273ZM16.216 11.6034C16.4519 11.6438 16.6947 11.5926 16.8924 11.4608C16.7281 11.2879 16.5043 11.18 16.2636 11.1578C16.0276 11.1174 15.7849 11.1686 15.5871 11.3004C15.7514 11.4733 15.9753 11.5812 16.216 11.6034ZM13.7444 11.5036C13.5057 11.5537 13.2938 11.6867 13.1484 11.8779C13.3604 11.9856 13.6074 12.0074 13.8358 11.9385C14.0677 11.8904 14.2748 11.7642 14.4208 11.582L14.5195 11.6711C14.2131 11.8457 13.9458 12.0784 13.7334 12.3556L13.9528 12.712C14.1065 12.3601 14.3217 12.0368 14.589 11.7567C14.8401 12.0384 15.0415 12.3588 15.1849 12.7049L15.408 12.3484C15.2059 12.0771 14.9513 11.847 14.6584 11.6711L14.7572 11.582C14.902 11.7637 15.1078 11.8899 15.3385 11.9385C15.5668 12.0078 15.814 11.986 16.0259 11.8779C15.8876 11.7068 15.6989 11.581 15.4853 11.5173C15.2716 11.4536 15.0431 11.455 14.8303 11.5214C14.7473 11.5542 14.6667 11.5923 14.589 11.6355C14.5189 11.5975 14.4469 11.563 14.3732 11.5321H14.355C14.1587 11.4629 13.9452 11.4554 13.7444 11.5107M11.5506 8.12059C11.5878 7.86878 11.543 7.61194 11.4226 7.38624C11.326 7.16063 11.1514 6.97519 10.929 6.86222C10.892 7.11402 10.9368 7.37079 11.057 7.59657C11.1553 7.82105 11.3295 8.00596 11.5506 8.12059ZM15.5725 11.1899C15.7792 11.049 15.9312 10.8443 16.004 10.6088C15.7645 10.5938 15.5281 10.6677 15.3422 10.8156C15.1351 10.9561 14.983 11.1609 14.9107 11.3966C15.1502 11.4116 15.3866 11.3378 15.5725 11.1899ZM12.2416 9.76396C12.3533 9.53294 12.3866 9.27321 12.3367 9.02248C12.3108 8.77309 12.2016 8.53889 12.0259 8.35587C11.9161 8.58743 11.8829 8.84656 11.9308 9.09735C11.9559 9.34695 12.0652 9.5814 12.2416 9.76396ZM10.9034 7.98156C10.9151 8.2332 11.0071 8.475 11.1667 8.67314C11.3034 8.87143 11.5082 9.01557 11.7444 9.07952C11.7407 8.82048 11.6495 8.56986 11.4848 8.36656C11.3485 8.16707 11.1415 8.02363 10.9034 7.96374M12.0954 7.93879C12.2168 7.74295 12.2706 7.5143 12.2489 7.28643C12.0445 7.37375 11.8786 7.52918 11.7809 7.7249C11.6595 7.92073 11.6056 8.14939 11.6274 8.37726C11.8318 8.28994 11.9977 8.1345 12.0954 7.93879ZM12.1319 6.01736C12.153 5.76846 12.0942 5.51932 11.9637 5.3044C11.8048 5.50977 11.7188 5.76006 11.7188 6.01736C11.6994 6.26615 11.758 6.5148 11.887 6.73032C12.0469 6.52545 12.133 6.27483 12.1319 6.01736ZM11.6639 7.56448C11.7742 7.333 11.8062 7.07337 11.7553 6.82301C11.7284 6.57421 11.6179 6.34109 11.4409 6.15995C11.3306 6.39144 11.2986 6.65107 11.3495 6.90143C11.3772 7.15001 11.4876 7.3829 11.6639 7.56448Z" fill="#00019E"/>
<path d="M17.4373 10.3128C17.2444 10.4497 17.0041 10.5073 16.7681 10.4733C16.8541 10.244 17.018 10.0502 17.2325 9.92428C17.4271 9.78799 17.6678 9.72933 17.9053 9.7603C17.8191 9.99147 17.6538 10.1866 17.4373 10.3128ZM17.5872 10.7121C17.4359 10.9006 17.2183 11.0276 16.9766 11.0686C16.745 11.1256 16.4997 11.0924 16.2928 10.9759C16.4441 10.7874 16.6616 10.6604 16.9034 10.6194C17.135 10.5624 17.3803 10.5956 17.5872 10.7121ZM17.5543 8.37716C17.3498 8.28984 17.1839 8.1344 17.0862 7.93869C16.9648 7.74286 16.911 7.5142 16.9327 7.28633C17.1371 7.37365 17.3031 7.52908 17.4007 7.7248C17.5222 7.92063 17.576 8.14929 17.5543 8.37716ZM17.6968 8.37359C17.8351 8.17812 18.0418 8.03866 18.2782 7.98147C18.2665 8.23311 18.1745 8.4749 18.0149 8.67304C17.8783 8.87133 17.6734 9.01547 17.4373 9.07942C17.4409 8.82038 17.5322 8.56977 17.6968 8.36646M17.1557 8.3629C17.2655 8.59446 17.2987 8.85359 17.2508 9.10438C17.2257 9.35398 17.1164 9.58842 16.94 9.77099C16.827 9.54036 16.7924 9.28062 16.8413 9.02952C16.8698 8.7801 16.98 8.54631 17.1557 8.3629ZM17.2398 9.61771C17.3251 9.38708 17.489 9.19201 17.7042 9.06516C17.8988 8.92888 18.1394 8.87022 18.3769 8.90118C18.2917 9.13181 18.1277 9.32688 17.9126 9.45373C17.7178 9.58968 17.4773 9.64831 17.2398 9.61771ZM18.2672 6.86212C18.3042 7.11392 18.2595 7.37069 18.1393 7.59647C18.0409 7.82095 17.8667 8.00586 17.6457 8.12049C17.6067 7.86867 17.6515 7.61128 17.7736 7.38614C17.8702 7.16053 18.0449 6.97509 18.2672 6.86212ZM17.7407 6.15985C17.851 6.39134 17.883 6.65097 17.8321 6.90133C17.8044 7.14991 17.694 7.3828 17.5177 7.56438C17.4074 7.3329 17.3754 7.07327 17.4263 6.82291C17.4532 6.57412 17.5637 6.34099 17.7407 6.15985ZM17.2179 5.29004C17.3768 5.49541 17.4628 5.7457 17.4628 6.003C17.4823 6.25179 17.4236 6.50044 17.2947 6.71596C17.1347 6.51109 17.0486 6.26047 17.0497 6.003C17.0286 5.7541 17.0874 5.50496 17.2179 5.29004ZM17.3166 7.2186C17.0994 7.2092 16.8936 7.12155 16.7389 6.97263C16.5657 6.82744 16.4462 6.6308 16.3989 6.41295C16.6155 6.42009 16.821 6.50816 16.9729 6.65893C17.1485 6.80269 17.2696 6.99978 17.3166 7.2186ZM16.1758 5.23657C16.4059 5.32333 16.5974 5.48608 16.717 5.69643C16.8607 5.90704 16.9324 6.15662 16.9217 6.40939C16.69 6.32387 16.4969 6.16091 16.3769 5.94953C16.2323 5.73945 16.1617 5.48921 16.1758 5.23657ZM16.3038 10.1203C16.3973 9.89357 16.5676 9.70486 16.7864 9.58562C16.8292 9.8371 16.7895 10.0953 16.6731 10.3235C16.5801 10.5508 16.4079 10.7389 16.1868 10.8547C16.1477 10.604 16.1885 10.3476 16.3038 10.1203ZM16.2636 11.1577C16.5043 11.1799 16.7282 11.2878 16.8925 11.4607C16.6947 11.5925 16.452 11.6437 16.216 11.6033C15.9753 11.5811 15.7515 11.4732 15.5872 11.3003C15.7849 11.1685 16.0277 11.1174 16.2636 11.1577ZM15.3458 10.8084C15.5318 10.6605 15.7682 10.5866 16.0076 10.6016C15.9354 10.8402 15.7819 11.0476 15.5725 11.1898C15.3866 11.3377 15.1502 11.4115 14.9107 11.3965C14.9817 11.1602 15.134 10.955 15.3422 10.8155M14.3696 11.5463C14.4433 11.5771 14.5153 11.6116 14.5853 11.6496C14.6631 11.6064 14.7437 11.5683 14.8267 11.5356C15.0395 11.4692 15.268 11.4678 15.4816 11.5315C15.6953 11.5952 15.8839 11.721 16.0223 11.892C15.8104 12.0002 15.5632 12.022 15.3349 11.9526C15.1042 11.904 14.8984 11.7778 14.7535 11.5962L14.6548 11.6853C14.9476 11.8612 15.2023 12.0913 15.4043 12.3626L15.1813 12.7191C15.0379 12.373 14.8365 12.0525 14.5853 11.7708C14.3181 12.051 14.1028 12.3742 13.9491 12.7262L13.7298 12.3697C13.9422 12.0926 14.2095 11.8598 14.5159 11.6853L14.4171 11.5962C14.2711 11.7783 14.064 11.9045 13.8321 11.9526C13.6038 12.0216 13.3567 11.9998 13.1447 11.892C13.2838 11.7189 13.4743 11.5917 13.6903 11.5279C13.9062 11.4641 14.137 11.4668 14.3513 11.5356M13.8358 10.8084C14.0439 10.9478 14.1963 11.1531 14.2672 11.3894C14.0278 11.4044 13.7914 11.3305 13.6054 11.1827C13.3988 11.0417 13.2468 10.837 13.174 10.6016C13.4135 10.5866 13.6499 10.6605 13.8358 10.8084ZM13.5945 11.3003C13.4302 11.4732 13.2063 11.5811 12.9656 11.6033C12.7297 11.6437 12.4869 11.5925 12.2892 11.4607C12.4535 11.2878 12.6774 11.1799 12.9181 11.1577C13.154 11.117 13.3969 11.1682 13.5945 11.3003ZM13.0131 10.8333C12.792 10.7175 12.6199 10.5294 12.5268 10.3021C12.4104 10.0739 12.3707 9.81571 12.4135 9.56424C12.6323 9.68347 12.8026 9.87218 12.8961 10.099C13.0135 10.3256 13.0545 10.5826 13.0131 10.8333ZM12.4647 5.69643C12.5856 5.48441 12.78 5.32137 13.0131 5.23657C13.0238 5.48934 12.9521 5.73892 12.8084 5.94953C12.6884 6.16091 12.4953 6.32387 12.2636 6.40939C12.2529 6.15662 12.3246 5.90704 12.4683 5.69643M12.2087 6.65893C12.3606 6.50816 12.5661 6.42009 12.7828 6.41295C12.7354 6.6308 12.6159 6.82744 12.4427 6.97263C12.2881 7.12155 12.0822 7.2092 11.865 7.2186C11.9121 6.99978 12.0331 6.80269 12.2087 6.65893ZM11.6274 8.37716C11.6057 8.14929 11.6595 7.92063 11.7809 7.7248C11.8786 7.52908 12.0445 7.37365 12.249 7.28633C12.2707 7.5142 12.2169 7.74286 12.0954 7.93869C11.9978 8.1344 11.8318 8.28984 11.6274 8.37716ZM11.7444 9.06873C11.5083 9.00477 11.3034 8.86064 11.1667 8.66234C11.0072 8.4642 10.9151 8.22241 10.9034 7.97077C11.1415 8.03066 11.3485 8.1741 11.4848 8.37359C11.6495 8.57689 11.7407 8.82751 11.7444 9.08655M12.0259 8.3629C12.2016 8.54592 12.3108 8.78012 12.3367 9.02952C12.3867 9.28024 12.3534 9.53997 12.2416 9.77099C12.0653 9.58842 11.956 9.35398 11.9309 9.10438C11.8829 8.85359 11.9161 8.59446 12.0259 8.3629ZM11.7188 5.98874C11.7188 5.73145 11.8048 5.48116 11.9638 5.27579C12.0876 5.4971 12.146 5.74758 12.1324 5.99934C12.1189 6.2511 12.0339 6.49425 11.887 6.7017C11.758 6.48619 11.6994 6.23753 11.7188 5.98874ZM11.4409 6.15985C11.6179 6.34099 11.7284 6.57412 11.7553 6.82291C11.8062 7.07327 11.7742 7.3329 11.6639 7.56438C11.4876 7.3828 11.3772 7.14991 11.3495 6.90133C11.2987 6.65097 11.3307 6.39134 11.4409 6.15985ZM10.9144 6.86212C11.1368 6.97509 11.3114 7.16053 11.408 7.38614C11.5301 7.61128 11.575 7.86867 11.536 8.12049C11.3149 8.00586 11.1407 7.82095 11.0424 7.59647C10.9222 7.37069 10.8774 7.11392 10.9144 6.86212ZM10.8193 8.90118C11.0568 8.87022 11.2975 8.92888 11.4921 9.06516C11.7073 9.19201 11.8712 9.38708 11.9564 9.61771C11.719 9.64831 11.4785 9.58968 11.2837 9.45373C11.0685 9.32688 10.9046 9.13181 10.8193 8.90118ZM11.2764 9.76386C11.5139 9.7329 11.7545 9.79156 11.9491 9.92784C12.1637 10.0538 12.3275 10.2475 12.4135 10.4768C12.1764 10.5107 11.935 10.4531 11.7407 10.3164C11.5256 10.1896 11.3616 9.99449 11.2764 9.76386ZM11.5945 10.7121C11.8012 10.5953 12.0466 10.562 12.2782 10.6194C12.52 10.6604 12.7376 10.7874 12.8888 10.9759C12.682 11.0924 12.4367 11.1256 12.2051 11.0686C11.963 11.0282 11.7452 10.9011 11.5945 10.7121ZM21.3202 36.6424H20.8157V36.6139C20.8503 36.3838 20.8674 36.1514 20.8669 35.9188V34.6176C20.8669 34.2612 20.834 34.2219 20.7133 34.2219C20.6627 34.224 20.6125 34.2312 20.5634 34.2433L20.355 34.2897C20.3059 34.3003 20.2582 34.3158 20.2124 34.336L20.1539 34.2932C20.1911 34.2203 20.2205 34.1439 20.2416 34.0651H20.2599C20.3621 34.0568 20.4635 34.0413 20.5634 34.0187L21.0022 33.9261C21.0826 33.9261 21.1703 33.8869 21.2471 33.8655L21.2983 33.9154C21.2678 34.1376 21.2507 34.3614 21.2471 34.5856V35.983C21.2401 36.2029 21.2659 36.4227 21.3239 36.6353V36.6674L21.3202 36.6424ZM24.4281 36.6674V36.6888H24.4098C24.4098 36.6888 24.0771 36.6888 23.8833 36.7066L23.8468 36.6353L25.2837 34.2505H24.3842C24.2167 34.2411 24.0503 34.2835 23.9089 34.3717L23.8358 34.3431V34.3218C23.8797 34.1818 23.9127 34.0388 23.9345 33.894V33.8726H25.3203C25.4262 33.8782 25.5324 33.8782 25.6383 33.8726H25.6603V33.894C25.6708 33.9804 25.6866 34.0661 25.7078 34.1506C25.4356 34.4954 25.1969 34.8642 24.9948 35.2522C24.7119 35.6706 24.5249 36.1436 24.4464 36.6389M22.6329 36.4998C22.5586 36.5028 22.4844 36.4909 22.415 36.4648C22.3456 36.4388 22.2825 36.3991 22.2294 36.3484C22.1763 36.2976 22.1344 36.2368 22.1063 36.1696C22.0783 36.1025 22.0646 36.0305 22.0661 35.958C22.0793 35.8065 22.1375 35.6621 22.2336 35.5424C22.3297 35.4227 22.4596 35.333 22.6073 35.2842C22.9729 35.4839 23.2215 35.6407 23.2215 35.9616C23.2196 36.0348 23.2029 36.1068 23.1722 36.1737C23.1415 36.2405 23.0974 36.3007 23.0427 36.3507C22.9879 36.4008 22.9235 36.4398 22.8531 36.4654C22.7828 36.491 22.7079 36.5027 22.6329 36.4998ZM22.2307 34.4037C22.2296 34.3436 22.2412 34.2838 22.2647 34.2282C22.2881 34.1725 22.323 34.1221 22.3672 34.08C22.4114 34.038 22.4639 34.0052 22.5215 33.9836C22.5791 33.962 22.6407 33.9521 22.7023 33.9546C22.7653 33.9526 22.828 33.9632 22.8866 33.9858C22.9452 34.0084 22.9984 34.0425 23.043 34.0859C23.0875 34.1293 23.1224 34.1812 23.1456 34.2383C23.1688 34.2955 23.1797 34.3566 23.1777 34.418C23.1777 34.7139 22.9546 34.8636 22.7279 34.9884C22.4756 34.8458 22.2307 34.6889 22.2307 34.4037ZM22.9619 35.0882C23.1062 35.0354 23.2316 34.943 23.3231 34.8222C23.4146 34.7013 23.4682 34.5572 23.4775 34.4073C23.4739 34.3129 23.4506 34.2202 23.409 34.135C23.3673 34.0497 23.3081 33.9737 23.2352 33.9115C23.1622 33.8494 23.077 33.8025 22.9847 33.7738C22.8924 33.745 22.7951 33.7349 22.6987 33.7443C22.5943 33.739 22.49 33.754 22.3916 33.7883C22.2933 33.8226 22.2029 33.8756 22.1257 33.9443C22.0485 34.0129 21.986 34.0958 21.9419 34.1881C21.8978 34.2804 21.8729 34.3804 21.8687 34.4822C21.8771 34.628 21.9261 34.7687 22.0105 34.8894C22.0949 35.01 22.2115 35.1058 22.3477 35.1666C21.9638 35.3841 21.7298 35.6015 21.7298 35.9651C21.7321 36.0707 21.757 36.1745 21.8029 36.2702C21.8487 36.3658 21.9145 36.451 21.996 36.5205C22.0776 36.5899 22.1731 36.642 22.2764 36.6734C22.3798 36.7049 22.4887 36.715 22.5963 36.703C22.7171 36.7148 22.8391 36.7023 22.9548 36.6663C23.0705 36.6303 23.1773 36.5716 23.2688 36.4938C23.3603 36.4159 23.4344 36.3206 23.4867 36.2138C23.5389 36.1069 23.5681 35.9907 23.5725 35.8724C23.557 35.6989 23.4915 35.5331 23.3834 35.3943C23.2754 35.2556 23.1292 35.1494 22.9619 35.0882ZM26.6182 36.5711C26.5439 36.5741 26.4698 36.5622 26.4004 36.5361C26.331 36.51 26.2678 36.4704 26.2147 36.4197C26.1616 36.3689 26.1198 36.3081 26.0917 36.2409C26.0636 36.1738 26.05 36.1018 26.0515 36.0293C26.0651 35.878 26.1235 35.7337 26.2195 35.6141C26.3156 35.4945 26.4452 35.4047 26.5926 35.3555C26.9583 35.5587 27.2069 35.712 27.2069 36.0329C27.205 36.106 27.1882 36.1781 27.1575 36.245C27.1268 36.3118 27.0828 36.372 27.028 36.422C26.9733 36.4721 26.9088 36.5111 26.8385 36.5367C26.7681 36.5623 26.6933 36.574 26.6182 36.5711ZM26.216 34.4786C26.2265 34.3632 26.2809 34.2557 26.3685 34.1775C26.4561 34.0992 26.5707 34.0558 26.6895 34.0558C26.8084 34.0558 26.9229 34.0992 27.0106 34.1775C27.0982 34.2557 27.1526 34.3632 27.163 34.4786C27.163 34.7745 26.94 34.9242 26.717 35.049C26.461 34.9064 26.216 34.7531 26.216 34.4679M26.9144 35.1488C27.0586 35.096 27.1841 35.0036 27.2756 34.8828C27.3671 34.7619 27.4207 34.6178 27.4299 34.4679C27.4264 34.3735 27.4031 34.2808 27.3614 34.1956C27.3198 34.1103 27.2606 34.0343 27.1876 33.9721C27.1147 33.91 27.0294 33.8631 26.9372 33.8344C26.8449 33.8056 26.7475 33.7955 26.6511 33.8049C26.5465 33.7996 26.4419 33.8147 26.3433 33.8492C26.2447 33.8838 26.1541 33.9371 26.0769 34.0061C25.9996 34.0751 25.9372 34.1584 25.8933 34.2512C25.8494 34.3439 25.8249 34.4443 25.8212 34.5463C25.8302 34.6915 25.8795 34.8315 25.9639 34.9515C26.0483 35.0714 26.1645 35.1667 26.3001 35.2272C25.9162 35.4447 25.6822 35.6586 25.6822 36.0257C25.6846 36.1313 25.7095 36.2352 25.7553 36.3308C25.8012 36.4264 25.867 36.5116 25.9485 36.5811C26.0301 36.6505 26.1256 36.7026 26.2289 36.734C26.3323 36.7655 26.4412 36.7756 26.5488 36.7636C26.6696 36.7754 26.7916 36.7629 26.9073 36.7269C27.0229 36.6909 27.1298 36.6322 27.2213 36.5544C27.3128 36.4765 27.3869 36.3812 27.4392 36.2744C27.4914 36.1675 27.5206 36.0513 27.525 35.933C27.5095 35.7595 27.4439 35.5937 27.3359 35.4549C27.2278 35.3162 27.0817 35.21 26.9144 35.1488ZM15.3605 30.8746C15.3093 31.0564 15.1447 31.6303 15.1301 31.6767C14.2745 31.6482 13.7042 31.641 13.2032 31.641H11.8139C11.8858 31.169 11.9212 30.6923 11.9199 30.2151V27.8837C11.9394 27.4037 11.8876 26.9234 11.7663 26.4578H13.8285C14.3404 26.4578 14.5597 26.4578 15.1045 26.4364C15.0022 26.7929 14.8961 27.1672 14.8522 27.3098C14.8084 27.4524 14.7352 27.3454 14.7206 27.3098C14.483 26.9747 14.0259 26.9533 13.5908 26.9533H13.1009C13.1009 27.0781 13.0716 27.4346 13.0716 27.7554V28.5111H13.7078C14.0743 28.5121 14.4405 28.493 14.8047 28.4541C14.8815 28.4541 14.8669 28.504 14.8669 28.504C14.812 28.7036 14.7316 28.9746 14.6841 29.1492C14.1941 29.1065 13.9272 29.0922 13.5872 29.0922H13.046V30.1616C13.046 30.8461 13.1228 31.0671 13.9528 31.0671C14.1734 31.0938 14.3973 31.0759 14.6106 31.0146C14.8238 30.9533 15.0218 30.8498 15.1923 30.7106C15.2837 30.6429 15.3934 30.6785 15.3422 30.8603" fill="#00019E"/>
<path d="M17.6529 30.8818C17.5497 31.1272 17.4702 31.3814 17.4153 31.6411H16.4975C16.45 31.3469 16.3729 31.0579 16.2672 30.7784L15.7626 29.2741C15.6276 28.7963 15.3992 28.3484 15.0898 27.9551C15.5522 27.9661 16.0149 27.9519 16.4756 27.9123C16.5097 28.2754 16.5832 28.6339 16.695 28.9818L16.9802 29.93C17.0496 30.151 17.1959 30.643 17.1959 30.643C17.2471 30.479 17.3092 30.3221 17.3641 30.1831L17.8065 29.0638C17.9101 28.8084 17.9802 28.5413 18.0149 28.2688V27.9409H18.4792C18.6529 27.9391 18.8263 27.9272 18.9984 27.9052C19.1045 27.9052 19.0898 27.9587 19.0533 28.0015C18.7769 28.3784 18.5508 28.788 18.3805 29.2206L17.6529 30.8818ZM23.7919 31.6482H22.556C22.6246 31.2047 22.6552 30.7564 22.6474 30.3079V29.406C22.6571 28.9318 22.603 28.4584 22.4866 27.9979C22.7791 27.9979 23.2361 27.9801 23.5469 27.9658V28.8249L23.8248 28.4684C24.1721 28.0228 24.4134 27.8803 24.7754 27.8803C24.8908 27.8755 25.0054 27.9 25.1081 27.9516C24.9984 28.333 24.8851 28.7358 24.8193 28.9675C24.8193 29.0174 24.7571 29.0887 24.6876 29.0103C24.5377 28.8499 24.5121 28.7928 24.322 28.7928C24.2128 28.7952 24.1062 28.8262 24.0135 28.8827C23.9208 28.9391 23.8455 29.0189 23.7955 29.1137C23.673 29.3183 23.6193 29.5551 23.642 29.791V30.4041C23.6184 30.8232 23.6704 31.2431 23.7955 31.6447M28.0697 28.0264C28.0368 28.1298 27.9491 28.4399 27.9125 28.5683C27.6856 28.5428 27.4572 28.5309 27.2288 28.5326H26.8851C26.8851 28.7821 26.8595 29.0852 26.8595 29.299V30.1546C26.8595 30.7321 26.9217 31.1563 27.4372 31.1563C27.6125 31.1525 27.7838 31.1047 27.9345 31.0173C27.9674 31.0173 28.0478 31.0173 28.0185 31.1064C27.971 31.2739 27.9271 31.4272 27.876 31.6162C27.5836 31.7076 27.2797 31.7591 26.9728 31.7694C26.3074 31.7694 25.8759 31.4878 25.8759 30.5645V29.4131V28.5255C25.6996 28.5268 25.5236 28.5411 25.3494 28.5683C25.3275 28.5683 25.2763 28.5683 25.2983 28.4791C25.2983 28.4578 25.4006 28.1227 25.4372 27.9943H25.9089C25.9089 27.702 25.8906 27.5416 25.8759 27.3134C26.2173 27.2069 26.5458 27.0646 26.8558 26.8892C26.9326 26.8393 26.9728 26.9106 26.9692 26.9926C26.9211 27.3245 26.8967 27.6592 26.8961 27.9943H27.4335C27.625 27.9985 27.8163 27.9818 28.0039 27.9444C28.0295 27.9444 28.0734 27.9444 28.0588 28.0157M35.6054 31.634H34.9692C35.0414 31.1621 35.0732 30.6851 35.0643 30.2081V29.5486C35.0643 29.1065 35.035 28.5968 34.3915 28.5968C34.1575 28.6 33.9338 28.6906 33.7663 28.8499C33.5725 29.0388 33.5176 29.2064 33.5176 29.6698V30.2116C33.4934 30.6918 33.5452 31.1728 33.6712 31.6376H32.4207C32.4912 31.1655 32.523 30.6886 32.5158 30.2116V29.2812C32.5237 28.8351 32.4684 28.39 32.3513 27.9587C32.695 27.9587 33.1739 27.9587 33.4994 27.9266L33.4774 28.5825L33.7919 28.3223C34.0861 28.0441 34.4789 27.8871 34.8888 27.8838C35.7809 27.8838 36.0844 28.3686 36.0844 29.2278V30.2116C36.0609 30.692 36.114 31.173 36.2416 31.6376H35.6164M19.854 29.2884C19.8942 28.6788 20.099 28.3223 20.5853 28.3223C20.6662 28.3208 20.7465 28.3354 20.8214 28.3653C20.8963 28.3952 20.9641 28.4398 21.0206 28.4962C21.0772 28.5527 21.1212 28.6198 21.1501 28.6935C21.179 28.7672 21.1921 28.8459 21.1886 28.9247C21.1886 29.1636 21.0569 29.2598 20.7279 29.2812L19.854 29.2884ZM22.0478 29.7268C22.1794 29.7268 22.1794 29.4095 22.1794 29.3347C22.1926 29.1378 22.1616 28.9404 22.0888 28.7563C22.0159 28.5722 21.9029 28.4057 21.7576 28.2684C21.6122 28.1311 21.438 28.0262 21.2469 27.961C21.0559 27.8958 20.8526 27.8719 20.6511 27.891C19.5542 27.891 18.8229 28.693 18.8229 29.8552C18.8022 30.1087 18.8373 30.3635 18.926 30.6027C19.0146 30.8419 19.1547 31.0598 19.3369 31.2418C19.5191 31.4238 19.7391 31.5657 19.9822 31.6579C20.2252 31.7501 20.4857 31.7906 20.7462 31.7766C21.154 31.7633 21.5573 31.6887 21.9418 31.5556L22.0953 31.0101C22.1319 30.8889 22.0624 30.8533 22.0003 30.8925C21.7741 31.0637 21.4929 31.1509 21.2068 31.1385C20.3878 31.1385 19.9015 30.6323 19.8833 29.7482C20.1355 29.7482 20.695 29.7268 21.0898 29.7268H22.0478ZM30.1392 31.3524C29.5579 31.3524 29.2361 30.7998 29.2361 29.7553C29.2361 28.8677 29.4811 28.308 30.1173 28.308C30.7535 28.308 31.0423 28.8677 31.0423 29.9051C31.0423 30.8569 30.7279 31.3524 30.1392 31.3524ZM30.2379 27.8838C28.8741 27.8838 28.1465 28.7322 28.1465 29.9051C28.1465 31.0779 28.8522 31.7694 30.0551 31.7694C31.3202 31.7694 32.1319 30.9709 32.1319 29.7161C32.1319 28.554 31.4482 27.8838 30.2379 27.8838ZM28.2891 13.4072C28.2123 13.5426 28.0405 13.4892 27.8613 13.4072C26.6054 12.9956 25.2844 12.8049 23.96 12.8439C22.6794 12.8156 21.4019 12.9791 20.1721 13.3287C20.0039 13.368 19.7699 13.4999 19.6383 13.261C19.5542 13.1077 19.6639 12.958 19.9271 12.8511C21.2408 12.5165 22.5914 12.3394 23.9491 12.3235C25.8284 12.3057 27.6273 12.7049 28.1356 13.0364C28.2044 13.0716 28.2572 13.1306 28.2836 13.2019C28.31 13.2732 28.3081 13.3515 28.2781 13.4214M28.0332 25.0427C28.034 25.0497 28.0328 25.0569 28.0298 25.0634C28.0268 25.0698 28.022 25.0754 28.016 25.0794C28.01 25.0834 28.003 25.0858 27.9957 25.0862C27.9884 25.0867 27.9811 25.0852 27.9747 25.0819L27.152 24.8003C27.1358 24.7947 27.1216 24.7847 27.1112 24.7714C27.1009 24.7581 27.0947 24.7421 27.0935 24.7254V23.2995C27.0935 23.2638 27.1191 23.2425 27.152 23.2531L27.971 23.492C27.9883 23.498 28.0033 23.5091 28.0138 23.5238C28.0243 23.5385 28.0298 23.5561 28.0295 23.574L28.0332 25.0427ZM24.5377 14.17L24.439 16.013H23.4738L23.3641 14.1772C23.3641 14.1772 24.0953 14.1415 24.5377 14.1772M26.0807 15.0078C26.1502 15.0078 27.4116 15.0434 27.9637 15.4926V16.0023C27.2635 15.8366 26.5525 15.7175 25.8357 15.6459C25.5835 15.6209 25.3275 15.6067 25.0789 15.596H24.7571L24.8339 14.17C25.1995 14.195 25.5981 14.2306 25.9308 14.2734C26.6134 14.3542 27.2867 14.4975 27.9418 14.7012V15.0577C27.726 15.0113 27.2544 14.9115 26.9326 14.8687C26.6521 14.8267 26.368 14.8112 26.0844 14.8224C26.0076 14.8224 25.9162 14.8224 25.9198 14.9151C25.9235 15.0078 25.993 15.0006 26.0661 15.0006M22.5524 21.4173C20.9253 20.8647 20.1904 20.576 20.1721 20.1161C20.1721 19.8309 20.1246 18.6439 20.1538 18.3337L20.1246 13.9134C20.1246 13.7815 20.3403 13.7066 20.5414 13.6567C21.6574 13.4335 22.7954 13.3319 23.9345 13.3537C25.9345 13.3537 27.3348 13.589 27.6968 13.7102C27.7793 13.7378 27.8569 13.7774 27.9271 13.8278V14.2093C27.5834 14.1629 26.2928 13.9882 25.7334 13.9526C25.4774 13.9526 25.1447 13.9241 24.8193 13.9169C24.82 13.8999 24.8172 13.8828 24.8109 13.8669C24.8046 13.851 24.795 13.8364 24.7827 13.8243C24.7701 13.8098 24.7544 13.7982 24.7367 13.7902C24.7191 13.7822 24.6998 13.778 24.6803 13.7779C24.1225 13.7494 23.5636 13.7494 23.0058 13.7779C22.9863 13.778 22.967 13.7822 22.9494 13.7902C22.9317 13.7982 22.916 13.8098 22.9034 13.8243C22.8906 13.8383 22.8808 13.8547 22.8745 13.8724C22.8683 13.8901 22.8656 13.9089 22.8668 13.9276L22.9582 15.6138H22.8851C22.5195 15.6423 21.1191 15.8348 21.024 15.8598C20.929 15.8847 20.8632 15.9275 20.8778 15.9738C20.8924 16.0202 20.9948 16.0202 21.1008 16.0095C21.8028 15.9311 22.4317 15.8918 22.9728 15.8704V16.1378C22.9756 16.1747 22.9926 16.2092 23.0204 16.2343C23.0483 16.2595 23.0848 16.2734 23.1228 16.2733C23.5904 16.2483 24.0591 16.2483 24.5268 16.2733C24.5653 16.2743 24.6028 16.2608 24.6314 16.2355C24.66 16.2103 24.6775 16.1753 24.6803 16.1378V15.8704C24.9034 15.8704 25.024 15.8954 25.024 15.8954C26.0332 15.981 27.3458 16.1663 27.9162 16.5014V16.8971C27.5834 16.8294 26.7352 16.6583 26.4244 16.6333C26.2116 16.6125 25.9973 16.6125 25.7845 16.6333C25.7187 16.6333 25.6639 16.6797 25.6712 16.7296C25.6785 16.7795 25.737 16.8044 25.8211 16.8116C25.9052 16.8187 27.152 16.8686 27.9198 17.3784V17.7812C26.9544 17.5861 25.9775 17.4492 24.9948 17.3712C23.9562 17.3426 22.9167 17.3807 21.8833 17.4853C21.7516 17.4853 21.6895 17.5423 21.6968 17.6065C21.7041 17.6707 21.7297 17.7063 21.9125 17.6956C23.1829 17.6364 24.4559 17.6638 25.7224 17.7776C26.4757 17.8528 27.2143 18.0317 27.9162 18.3088V18.815C27.5067 18.733 26.6072 18.5619 26.1538 18.5262C25.2032 18.4478 24.5999 18.4621 24.4975 18.4621C24.3951 18.4621 24.3659 18.5048 24.3696 18.5619C24.3732 18.6189 24.4427 18.6296 24.5048 18.6332C25.0411 18.6478 25.5759 18.6942 26.1063 18.7722C26.7356 18.8369 27.3516 18.9919 27.9345 19.2321V19.7454C27.6639 19.7169 27.1264 19.6598 26.9034 19.6527C26.6827 19.6387 26.4611 19.6447 26.2416 19.6705C26.1794 19.6705 26.1465 19.7276 26.1538 19.7632C26.1605 19.7848 26.1748 19.8035 26.1942 19.8159C26.2136 19.8282 26.2368 19.8336 26.2599 19.8309C26.5501 19.8439 26.8394 19.8724 27.1264 19.9165C27.4063 19.9639 27.679 20.0453 27.9381 20.1589V20.8291C27.5564 20.7304 27.1678 20.6589 26.7754 20.6152C26.3043 20.5826 25.8315 20.5826 25.3604 20.6152C25.3239 20.6152 25.2142 20.6366 25.2178 20.7293C25.2215 20.822 25.3385 20.8148 25.397 20.8148C25.6931 20.8148 25.9418 20.8148 26.4646 20.8647C26.9641 20.915 27.4553 21.0252 27.9271 21.1927V21.8272C27.9271 21.8272 27.6017 21.7381 27.0898 21.6704C26.8478 21.635 26.6034 21.6171 26.3586 21.6169C26.2672 21.6169 26.1794 21.6419 26.1758 21.7239C26.1721 21.8058 26.3842 21.8451 26.461 21.8557C26.5377 21.8664 26.7644 21.8771 27.1593 21.9413C27.4147 21.9836 27.6664 22.0444 27.9125 22.1231V23.0785C26.2928 22.6364 24.1502 22.009 22.45 21.3745M26.5414 24.54C26.5414 24.5721 26.5158 24.5864 26.4829 24.5757L25.6602 24.2976C25.644 24.2921 25.6299 24.2821 25.6195 24.2688C25.6091 24.2554 25.6029 24.2395 25.6017 24.2228V22.8396C25.6013 22.8326 25.6027 22.8255 25.6057 22.8191C25.6088 22.8127 25.6134 22.8072 25.6192 22.8029C25.625 22.7987 25.6318 22.7959 25.6389 22.7949C25.6461 22.7938 25.6534 22.7945 25.6602 22.7969L26.4792 23.0393C26.4957 23.0454 26.51 23.0561 26.5204 23.07C26.5308 23.084 26.5368 23.1005 26.5377 23.1177V24.5436M25.163 24.0766C25.1638 24.0837 25.1626 24.0908 25.1596 24.0973C25.1566 24.1038 25.1518 24.1093 25.1458 24.1133C25.1398 24.1174 25.1328 24.1197 25.1255 24.1202C25.1182 24.1206 25.1109 24.1191 25.1045 24.1158L24.2818 23.8342C24.2653 23.828 24.251 23.8174 24.2407 23.8034C24.2303 23.7895 24.2242 23.773 24.2233 23.7558V22.419C24.2232 22.4118 24.225 22.4047 24.2286 22.3984C24.2321 22.392 24.2371 22.3867 24.2433 22.3827C24.2495 22.3788 24.2566 22.3765 24.264 22.376C24.2714 22.3755 24.2787 22.3768 24.2855 22.3798L25.1081 22.6329C25.1246 22.639 25.1389 22.6497 25.1493 22.6637C25.1597 22.6776 25.1657 22.6941 25.1666 22.7113V24.0766M23.7919 23.6096C23.7919 23.6381 23.7663 23.656 23.7334 23.6417L22.9107 23.3601C22.8945 23.3536 22.8804 23.3428 22.8701 23.3289C22.8598 23.3151 22.8536 23.2987 22.8522 23.2817V21.9698C22.8522 21.9377 22.8778 21.9235 22.9107 21.9342L23.7334 22.2051C23.7495 22.2106 23.7637 22.2207 23.7741 22.234C23.7845 22.2473 23.7907 22.2633 23.7919 22.28V23.6096ZM22.4171 23.1319C22.4172 23.1387 22.4155 23.1454 22.4122 23.1514C22.4089 23.1573 22.4041 23.1623 22.3982 23.1659C22.3923 23.1695 22.3856 23.1715 22.3786 23.1718C22.3717 23.1721 22.3648 23.1707 22.3586 23.1676L21.5323 22.8824C21.5158 22.8762 21.5015 22.8655 21.4911 22.8516C21.4807 22.8377 21.4747 22.8212 21.4738 22.804V21.5278C21.4738 21.4957 21.4994 21.4814 21.5323 21.4921L22.3586 21.7773C22.3743 21.7836 22.388 21.7938 22.3983 21.807C22.4086 21.8201 22.4151 21.8357 22.4171 21.8522V23.164M21.0387 22.6863C21.0395 22.6934 21.0383 22.7006 21.0353 22.707C21.0323 22.7135 21.0275 22.719 21.0215 22.7231C21.0155 22.7271 21.0085 22.7295 21.0012 22.7299C20.9939 22.7303 20.9866 22.7288 20.9802 22.7256L20.1538 22.4439C20.1379 22.438 20.124 22.4279 20.1136 22.4146C20.1033 22.4014 20.0969 22.3856 20.0953 22.3691V21.0287C20.0958 21.0222 20.0979 21.016 20.1015 21.0105C20.105 21.005 20.1099 21.0005 20.1157 20.9973C20.1215 20.9942 20.128 20.9924 20.1347 20.9923C20.1413 20.9922 20.1479 20.9937 20.1538 20.9966L20.9802 21.2961C20.9961 21.302 21.01 21.3121 21.0204 21.3254C21.0307 21.3386 21.037 21.3544 21.0387 21.3709V22.6863ZM23.8796 5.37925C24.0112 5.64661 24.1538 5.94249 24.3037 6.25975C24.1148 6.26907 23.9267 6.29051 23.7407 6.32392C23.6419 6.34531 23.6237 6.38096 23.6237 6.41304C23.6237 6.44512 23.6639 6.49147 23.7663 6.49503C23.9783 6.49503 24.2745 6.49503 24.4281 6.51999C24.4756 6.61267 24.5195 6.70892 24.567 6.80517C24.4573 6.83725 24.2964 6.88359 24.2526 6.90142C24.2087 6.91924 24.1136 6.95489 24.1173 7.0048C24.1209 7.05471 24.1977 7.0547 24.2599 7.06183C24.4065 7.08049 24.5544 7.08883 24.7023 7.08679C24.7754 7.2472 24.8339 7.36484 24.9107 7.52882C24.9582 7.62864 24.812 7.65002 24.6876 7.65715C24.5633 7.66428 24.1685 7.65716 23.9893 7.68924C23.9198 7.68924 23.8942 7.73558 23.8942 7.77479C23.8942 7.81401 23.9454 7.84253 24.0112 7.84609C24.2561 7.85698 24.5002 7.88078 24.7425 7.91739C24.8764 7.93973 25.0084 7.9719 25.1374 8.01363L25.28 8.31308C25.3092 8.37012 25.2288 8.39863 25.1703 8.40576C25.1118 8.41289 24.6474 8.40576 24.4171 8.40576C24.3184 8.40576 24.2964 8.43785 24.2964 8.48775C24.2964 8.53766 24.3147 8.54835 24.4134 8.56261C24.5962 8.59113 24.9619 8.60539 25.0752 8.62322C25.2156 8.64629 25.353 8.68455 25.4847 8.73729L25.6895 9.16863C25.7224 9.2328 25.6895 9.25775 25.6346 9.26131L24.7315 9.27914C24.6511 9.27914 24.5633 9.30409 24.5487 9.36826C24.5341 9.43243 24.6072 9.4859 24.7864 9.49659C25.2057 9.50106 25.618 9.60246 25.9893 9.79247L26.2635 10.3628C26.0003 10.3414 25.0825 10.263 24.6657 10.2773C24.2489 10.2915 24.1538 10.2773 24.1392 10.3486C24.1246 10.4199 24.2014 10.452 24.4317 10.4733C25.1235 10.5071 25.8092 10.6171 26.4756 10.8013L26.8047 11.4893C26.2858 11.3902 25.7604 11.327 25.2324 11.3004C25.0496 11.3004 24.9802 11.3325 24.9802 11.4073C24.9802 11.4822 25.141 11.4893 25.2544 11.5C25.8437 11.5666 26.4245 11.692 26.9875 11.8743C27.0204 11.9456 27.0496 11.9991 27.0716 12.0454C26.0005 11.8495 24.9144 11.7422 23.8248 11.7246C22.7635 11.7416 21.7065 11.861 20.6694 12.0811C20.9728 11.4537 22.8632 7.52169 23.8723 5.39351M28.0917 12.3876L24.2526 4.52013C24.2799 4.44839 24.2899 4.37143 24.2816 4.2953C24.2734 4.21918 24.2471 4.14595 24.205 4.08136C24.1628 4.01678 24.1059 3.9626 24.0387 3.92306C23.9714 3.88353 23.8957 3.85973 23.8175 3.85352C23.7411 3.8631 23.6681 3.88997 23.6043 3.93197C23.5405 3.97397 23.4876 4.02995 23.45 4.09541C23.4123 4.16088 23.3909 4.23403 23.3874 4.30902C23.3839 4.384 23.3985 4.45874 23.4299 4.52726L19.62 12.4304C18.8595 12.8297 18.695 13.3323 18.8522 13.6674C18.8929 13.7511 18.9525 13.8248 19.0266 13.8828C19.1007 13.9409 19.1873 13.9818 19.28 14.0025V20.3906C19.1264 20.3692 18.9509 20.469 18.9509 20.7257V22.1374C18.9569 22.231 18.9919 22.3207 19.0513 22.3946C19.1107 22.4684 19.1917 22.5229 19.2836 22.5509C19.2836 22.5509 26.5524 25.0819 26.7937 25.171C27.141 25.3029 27.4518 25.4063 27.7516 25.5275C27.8504 25.5631 27.854 25.6202 27.865 25.7948V26.1513H28.1429C28.8449 26.1513 28.7571 25.7948 28.7791 24.7575C28.801 23.7201 28.8047 23.3316 28.4829 23.2567C28.4573 20.3692 28.5195 15.3108 28.5048 13.8849C28.6291 13.8468 28.7399 13.7756 28.8246 13.6791C28.9092 13.5827 28.9644 13.465 28.9838 13.3394C29.0131 13.0828 28.7279 12.6906 28.0807 12.3805M30.088 9.45381C30.2813 9.58988 30.5208 9.64856 30.7571 9.61779C30.6719 9.38717 30.5079 9.1921 30.2928 9.06525C30.0982 8.92896 29.8575 8.8703 29.62 8.90127C29.7062 9.13245 29.8715 9.32759 30.088 9.45381ZM31.2215 9.56789C31.1787 9.81936 31.2184 10.0776 31.3348 10.3058C31.4278 10.5331 31.6 10.7211 31.8211 10.837C31.8622 10.5863 31.8213 10.3293 31.7041 10.1026C31.6106 9.87583 31.4403 9.68712 31.2215 9.56789ZM30.3513 8.12058C30.3903 7.86875 30.3454 7.61137 30.2233 7.38623C30.1267 7.16062 29.9521 6.97518 29.7297 6.86221C29.6927 7.11401 29.7375 7.37078 29.8577 7.59655C29.956 7.82103 30.1302 8.00595 30.3513 8.12058ZM31.62 5.95318C31.7638 5.74257 31.8355 5.49299 31.8248 5.24022C31.5991 5.32768 31.4116 5.489 31.2946 5.69652C31.1508 5.90712 31.0792 6.1567 31.0898 6.40948C31.3216 6.32396 31.5147 6.16099 31.6346 5.94962M31.258 6.97271C31.4312 6.82753 31.5507 6.63089 31.5981 6.41304C31.3814 6.42018 31.1759 6.50824 31.024 6.65901C30.8484 6.80278 30.7274 6.99986 30.6803 7.21869C30.8975 7.20929 31.1034 7.12164 31.258 6.97271ZM30.4792 7.56447C30.5895 7.33299 30.6215 7.07335 30.5707 6.82299C30.5438 6.5742 30.4332 6.34108 30.2562 6.15994C30.146 6.39142 30.114 6.65106 30.1648 6.90142C30.1925 7.14999 30.3029 7.38288 30.4792 7.56447ZM30.9473 6.01735C30.9701 5.76832 30.9112 5.51867 30.7791 5.30439C30.6201 5.50976 30.5341 5.76005 30.5341 6.01735C30.5147 6.26613 30.5733 6.51479 30.7023 6.73031C30.8622 6.52543 30.9483 6.27482 30.9473 6.01735ZM35.5542 6.97271C35.7089 7.12164 35.9147 7.20929 36.1319 7.21869C36.0849 6.99986 35.9638 6.80278 35.7882 6.65901C35.6363 6.50824 35.4308 6.42018 35.2142 6.41304C35.2615 6.63089 35.381 6.82753 35.5542 6.97271ZM35.0313 11.6034C35.2673 11.6437 35.51 11.5926 35.7078 11.4608C35.5435 11.2879 35.3196 11.18 35.0789 11.1578C34.843 11.117 34.6001 11.1683 34.4025 11.3004C34.5668 11.4733 34.7906 11.5812 35.0313 11.6034ZM35.737 6.41304C35.7477 6.16027 35.676 5.91069 35.5323 5.70008C35.4127 5.48973 35.2212 5.32698 34.9911 5.24022C34.977 5.49285 35.0476 5.7431 35.1922 5.95318C35.3122 6.16456 35.5053 6.32753 35.737 6.41304ZM35.4774 10.3058C35.5938 10.0776 35.6335 9.81936 35.5908 9.56789C35.3719 9.68712 35.2016 9.87583 35.1081 10.1026C34.9926 10.3298 34.9518 10.5863 34.9911 10.837C35.2122 10.7211 35.3844 10.5331 35.4774 10.3058ZM36.11 6.71605C36.2405 6.50113 36.2992 6.25199 36.2781 6.00309C36.2782 5.74579 36.1922 5.4955 36.0332 5.29013C35.9027 5.50504 35.8439 5.75418 35.865 6.00309C35.8639 6.26056 35.95 6.51117 36.11 6.71605ZM36.333 7.56447C36.5093 7.38288 36.6197 7.14999 36.6474 6.90142C36.6983 6.65106 36.6663 6.39142 36.556 6.15994C36.379 6.34108 36.2685 6.5742 36.2416 6.82299C36.1907 7.07335 36.2227 7.33299 36.333 7.56447ZM36.3696 8.37724C36.3913 8.14937 36.3375 7.92072 36.216 7.72489C36.1185 7.53033 35.9542 7.3752 35.7516 7.28642C35.7272 7.51399 35.7799 7.74311 35.9015 7.93877C35.9992 8.13449 36.1651 8.28993 36.3696 8.37724ZM36.461 8.12058C36.682 8.00595 36.8562 7.82103 36.9546 7.59655C37.0747 7.37078 37.1195 7.11401 37.0825 6.86221C36.8602 6.97518 36.6855 7.16062 36.5889 7.38623C36.4685 7.61193 36.4238 7.86877 36.461 8.12058ZM35.6602 9.0296C35.6103 9.28033 35.6436 9.54006 35.7553 9.77108C35.9317 9.58851 36.041 9.35407 36.0661 9.10446C36.114 8.85367 36.0808 8.59455 35.971 8.36299C35.7953 8.546 35.6861 8.78021 35.6602 9.0296ZM29.7224 7.98155C29.7308 8.23322 29.8218 8.47563 29.982 8.67312C30.1187 8.87142 30.3236 9.01555 30.5597 9.07951C30.556 8.82047 30.4648 8.56985 30.3001 8.36655C30.1612 8.17469 29.9562 8.03801 29.7224 7.98155ZM31.0204 11.058C31.252 11.115 31.4973 11.0818 31.7041 10.9653C31.5538 10.7758 31.3358 10.6485 31.0935 10.6088C30.8619 10.5518 30.6166 10.585 30.4098 10.7015C30.561 10.8899 30.7786 11.017 31.0204 11.058ZM34.3915 11.1899C34.5996 11.0504 34.752 10.8451 34.8229 10.6088C34.5835 10.5938 34.3471 10.6677 34.1611 10.8156C33.954 10.9561 33.802 11.1609 33.7297 11.3966C33.9692 11.4116 34.2056 11.3377 34.3915 11.1899ZM30.0917 9.76395C30.1779 9.99513 30.3431 10.1903 30.5597 10.3165C30.7526 10.4534 30.9928 10.511 31.2288 10.4769C31.1428 10.2476 30.979 10.0539 30.7644 9.92793C30.5698 9.79164 30.3292 9.73298 30.0917 9.76395ZM30.929 7.93877C31.0504 7.74294 31.1043 7.51429 31.0825 7.28642C30.8788 7.37477 30.7132 7.52991 30.6145 7.72489C30.4931 7.92072 30.4392 8.14937 30.461 8.37724C30.6654 8.28993 30.8313 8.13449 30.929 7.93877ZM31.0569 9.76395C31.1699 9.53332 31.2045 9.27358 31.1557 9.02247C31.1272 8.77306 31.0169 8.53927 30.8412 8.35586C30.7314 8.58742 30.6982 8.84654 30.7462 9.09733C30.7713 9.34694 30.8806 9.58138 31.0569 9.76395ZM31.1045 11.4608C31.3022 11.5926 31.545 11.6437 31.7809 11.6034C32.0216 11.5812 32.2455 11.4733 32.4098 11.3004C32.2122 11.1683 31.9693 11.117 31.7334 11.1578C31.4927 11.18 31.2688 11.2879 31.1045 11.4608ZM32.556 11.5036C32.3173 11.5537 32.1055 11.6867 31.9601 11.8779C32.1719 11.986 32.4191 12.0078 32.6474 11.9385C32.8781 11.8899 33.0839 11.7637 33.2288 11.582L33.3275 11.6711C33.0347 11.847 32.78 12.0771 32.578 12.3484C32.6694 12.4839 32.7132 12.5552 32.801 12.7049C32.9444 12.3588 33.1458 12.0384 33.397 11.7567C33.6642 12.0368 33.8795 12.36 34.0332 12.712L34.2526 12.3556C34.0401 12.0784 33.7728 11.8457 33.4664 11.6711L33.5652 11.582C33.7112 11.7641 33.9183 11.8903 34.1502 11.9385C34.3785 12.0074 34.6256 11.9856 34.8376 11.8779C34.6985 11.7047 34.508 11.5775 34.2921 11.5137C34.0761 11.4499 33.8453 11.4526 33.631 11.5214C33.5573 11.5523 33.4853 11.5868 33.4153 11.6248C33.3375 11.5816 33.2569 11.5435 33.1739 11.5107C32.9807 11.4447 32.7713 11.4385 32.5743 11.4929M32.4207 11.1899C32.6067 11.3377 32.8431 11.4116 33.0825 11.3966C33.0116 11.1603 32.8592 10.955 32.6511 10.8156C32.4652 10.6677 32.2288 10.5938 31.9893 10.6088C32.0621 10.8443 32.2141 11.0489 32.4207 11.1899ZM36.8302 8.66243C36.9904 8.46465 37.0826 8.22264 37.0935 7.97086C36.8546 8.03102 36.6473 8.17593 36.5122 8.37724C36.3508 8.57411 36.2596 8.8169 36.2526 9.06882C36.4887 9.00486 36.6936 8.86073 36.8302 8.66243ZM36.0478 9.92437C35.8333 10.0503 35.6694 10.244 35.5834 10.4733C35.8206 10.5072 36.0619 10.4497 36.2562 10.3129C36.4714 10.1861 36.6353 9.99101 36.7206 9.76039C36.4831 9.72942 36.2424 9.78808 36.0478 9.92437ZM36.5195 9.05099C36.3043 9.17784 36.1404 9.37291 36.0551 9.60354C36.2926 9.63414 36.5331 9.57551 36.7279 9.43955C36.943 9.31271 37.107 9.11764 37.1922 8.88701C36.9547 8.85604 36.7141 8.9147 36.5195 9.05099ZM35.7187 10.6195C35.4769 10.6605 35.2594 10.7875 35.1081 10.976C35.315 11.0925 35.5603 11.1257 35.7919 11.0687C36.0345 11.03 36.2529 10.9025 36.4025 10.7122C36.1957 10.5954 35.9503 10.5621 35.7187 10.6195Z" fill="#00019E"/>
<path d="M37.0826 6.86212C37.1196 7.11392 37.0749 7.37069 36.9547 7.59647C36.8563 7.82095 36.6821 8.00586 36.4611 8.12049C36.4239 7.86868 36.4686 7.61184 36.589 7.38614C36.6856 7.16053 36.8603 6.97509 37.0826 6.86212ZM35.9017 7.93869C35.7802 7.74286 35.7264 7.5142 35.7481 7.28633C35.9526 7.37365 36.1185 7.52909 36.2161 7.7248C36.3376 7.92063 36.3914 8.14929 36.3697 8.37716C36.1652 8.28984 35.9993 8.1344 35.9017 7.93869ZM36.0662 9.10438C36.0411 9.35398 35.9318 9.58842 35.7554 9.77099C35.6437 9.53997 35.6104 9.28024 35.6603 9.02952C35.6862 8.78012 35.7954 8.54592 35.9711 8.3629C36.0809 8.59446 36.1141 8.85359 36.0662 9.10438ZM36.5123 8.37359C36.6485 8.1741 36.8556 8.03066 37.0936 7.97077C37.0819 8.22241 36.9899 8.4642 36.8304 8.66234C36.6937 8.86064 36.4888 9.00477 36.2527 9.06873C36.2563 8.80969 36.3476 8.55907 36.5123 8.35577M36.5561 6.15985C36.6664 6.39134 36.6984 6.65097 36.6475 6.90133C36.6198 7.14991 36.5094 7.3828 36.3331 7.56438C36.2229 7.3329 36.1908 7.07327 36.2417 6.82291C36.2686 6.57412 36.3791 6.34099 36.5561 6.15985ZM36.0479 5.29004C36.2069 5.49541 36.2929 5.7457 36.2929 6.003C36.3123 6.25179 36.2536 6.50044 36.1247 6.71596C35.9778 6.50851 35.8928 6.26536 35.8792 6.0136C35.8657 5.76184 35.9241 5.51136 36.0479 5.29004ZM36.132 7.2186C35.9148 7.2092 35.709 7.12155 35.5543 6.97263C35.3811 6.82745 35.2616 6.6308 35.2143 6.41295C35.4309 6.42009 35.6364 6.50816 35.7883 6.65893C35.9639 6.80269 36.085 6.99978 36.132 7.2186ZM34.9912 5.23657C35.2213 5.32333 35.4128 5.48608 35.5324 5.69643C35.6761 5.90704 35.7478 6.15662 35.7371 6.40939C35.5054 6.32387 35.3123 6.16091 35.1923 5.94953C35.0477 5.73945 34.9771 5.48921 34.9912 5.23657ZM35.1082 10.1203C35.2017 9.89357 35.372 9.70486 35.5909 9.58562C35.6336 9.8371 35.594 10.0953 35.4775 10.3235C35.3845 10.5508 35.2123 10.7389 34.9912 10.8547C34.9521 10.604 34.993 10.3476 35.1082 10.1203ZM35.079 11.1577C35.3197 11.1799 35.5436 11.2878 35.7079 11.4607C35.5101 11.5925 35.2674 11.6437 35.0315 11.6033C34.7908 11.5811 34.5669 11.4732 34.4026 11.3003C34.6002 11.1682 34.8431 11.117 35.079 11.1577ZM34.1612 10.8084C34.3472 10.6605 34.5836 10.5866 34.823 10.6016C34.7503 10.837 34.5983 11.0417 34.3916 11.1827C34.2057 11.3305 33.9693 11.4044 33.7298 11.3894C33.8021 11.1537 33.9542 10.9489 34.1612 10.8084ZM33.3971 11.6354L33.6128 11.532C33.8271 11.4632 34.058 11.4606 34.2739 11.5243C34.4898 11.5881 34.6803 11.7153 34.8194 11.8885C34.6074 11.9962 34.3604 12.018 34.132 11.9491C33.9001 11.901 33.693 11.7747 33.547 11.5926L33.4483 11.6817C33.7547 11.8563 34.022 12.089 34.2344 12.3662L34.015 12.7226C33.8613 12.3707 33.646 12.0474 33.3788 11.7673C33.1276 12.049 32.9262 12.3694 32.7828 12.7155C32.6951 12.5801 32.6512 12.5088 32.5598 12.359C32.7619 12.0877 33.0165 11.8576 33.3093 11.6817L33.2106 11.5926C33.0657 11.7743 32.8599 11.9005 32.6293 11.9491C32.4009 12.0184 32.1537 11.9966 31.9419 11.8885C32.0802 11.7174 32.2688 11.5916 32.4825 11.5279C32.6962 11.4642 32.9247 11.4656 33.1375 11.532C33.2204 11.5648 33.301 11.6029 33.3788 11.6461M32.6512 10.8084C32.8593 10.9478 33.0117 11.1531 33.0826 11.3894C32.8432 11.4044 32.6068 11.3305 32.4208 11.1827C32.2142 11.0417 32.0622 10.837 31.9894 10.6016C32.2289 10.5866 32.4653 10.6605 32.6512 10.8084ZM32.4099 11.3003C32.2456 11.4732 32.0217 11.5811 31.781 11.6033C31.5451 11.6437 31.3023 11.5925 31.1046 11.4607C31.2689 11.2878 31.4928 11.1799 31.7335 11.1577C31.9694 11.117 32.2123 11.1682 32.4099 11.3003ZM30.4428 8.37716C30.4211 8.14929 30.4749 7.92063 30.5964 7.7248C30.694 7.52909 30.8599 7.37365 31.0644 7.28633C31.0861 7.5142 31.0323 7.74286 30.9108 7.93869C30.8132 8.1344 30.6473 8.28984 30.4428 8.37716ZM30.5634 9.06873C30.3273 9.00477 30.1224 8.86064 29.9857 8.66234C29.8255 8.46485 29.7345 8.22244 29.7262 7.97077C29.9627 8.03176 30.1682 8.17504 30.3038 8.37359C30.4685 8.57689 30.5598 8.82751 30.5634 9.08655M30.8413 8.3629C31.017 8.54631 31.1273 8.7801 31.1558 9.02952C31.2046 9.28062 31.17 9.54036 31.057 9.77099C30.882 9.58753 30.773 9.35357 30.7463 9.10438C30.6983 8.85359 30.7315 8.59446 30.8413 8.3629ZM31.2289 10.4768C30.9929 10.5109 30.7527 10.4533 30.5598 10.3164C30.3433 10.1902 30.178 9.99504 30.0918 9.76386C30.3293 9.7329 30.5699 9.79156 30.7645 9.92785C30.9791 10.0538 31.1429 10.2475 31.2289 10.4768ZM31.0936 10.6194C31.3354 10.6604 31.553 10.7874 31.7042 10.9759C31.4974 11.0924 31.2521 11.1256 31.0205 11.0686C30.7782 11.0289 30.5602 10.9016 30.4099 10.7121C30.6167 10.5956 30.862 10.5624 31.0936 10.6194ZM31.8212 10.8333C31.6001 10.7175 31.4279 10.5294 31.3349 10.3021C31.2185 10.0739 31.1788 9.81571 31.2216 9.56424C31.4404 9.68347 31.6107 9.87218 31.7042 10.099C31.8216 10.3256 31.8625 10.5826 31.8212 10.8333ZM31.2947 5.69643C31.4147 5.48505 31.6078 5.32209 31.8395 5.23657C31.8502 5.48934 31.7785 5.73892 31.6347 5.94953C31.5148 6.16091 31.3217 6.32387 31.09 6.40939C31.0793 6.15662 31.1509 5.90704 31.2947 5.69643ZM31.0241 6.65893C31.176 6.50816 31.3816 6.42009 31.5982 6.41295C31.5508 6.6308 31.4313 6.82745 31.2581 6.97263C31.1035 7.12155 30.8976 7.2092 30.6804 7.2186C30.7275 6.99978 30.8485 6.80269 31.0241 6.65893ZM30.5342 5.98874C30.5342 5.73145 30.6202 5.48116 30.7792 5.27579C30.9113 5.49006 30.9702 5.73972 30.9474 5.98874C30.9501 6.24647 30.8638 6.49761 30.7024 6.7017C30.5734 6.48619 30.5148 6.23753 30.5342 5.98874ZM30.2563 6.15985C30.4333 6.34099 30.5439 6.57412 30.5708 6.82291C30.6216 7.07327 30.5896 7.3329 30.4794 7.56438C30.3031 7.3828 30.1926 7.14991 30.1649 6.90133C30.1141 6.65097 30.1461 6.39134 30.2563 6.15985ZM29.7298 6.86212C29.9522 6.97509 30.1268 7.16053 30.2234 7.38614C30.3455 7.61128 30.3904 7.86867 30.3514 8.12049C30.1303 8.00586 29.9561 7.82095 29.8578 7.59647C29.7376 7.37069 29.6928 7.11392 29.7298 6.86212ZM35.792 11.0579C35.5604 11.1149 35.3151 11.0817 35.1082 10.9652C35.2585 10.7757 35.4765 10.6484 35.7188 10.6087C35.9504 10.5517 36.1957 10.5849 36.4026 10.7014C36.2518 10.8904 36.034 11.0175 35.792 11.0579ZM36.2563 10.3128C36.062 10.4496 35.8207 10.5071 35.5836 10.4733C35.6695 10.244 35.8334 10.0502 36.0479 9.92428C36.2425 9.78799 36.4832 9.72933 36.7207 9.7603C36.6354 9.99093 36.4715 10.186 36.2563 10.3128ZM36.728 9.45373C36.5332 9.58968 36.2927 9.64831 36.0552 9.61771C36.1405 9.38708 36.3044 9.19201 36.5196 9.06516C36.7142 8.92888 36.9548 8.87022 37.1923 8.90118C37.1071 9.13181 36.9431 9.32688 36.728 9.45373ZM30.2929 9.0509C30.508 9.17775 30.672 9.37282 30.7572 9.60345C30.5198 9.63405 30.2792 9.57542 30.0845 9.43947C29.8693 9.31262 29.7054 9.11755 29.6201 8.88692C29.8576 8.85596 30.0983 8.91462 30.2929 9.0509Z" fill="#00019E"/>
</g>
<defs>
<clipPath id="clip0_204_50587">
<rect width="48" height="48" fill="white"/>
</clipPath>
</defs>
</svg>
