<svg width="448" height="448" viewBox="0 0 448 448" fill="none" xmlns="http://www.w3.org/2000/svg">
<g filter="url(#filter0_d_204_67092)">
<path d="M41.0015 264.871L49.1146 259.515C49.1146 259.515 53.0539 238.175 50.1275 219.341C46.0194 192.769 28.3114 183.634 21.8772 186.255C15.443 188.876 13.9236 196.777 25.5445 212.081C32.4007 221.13 41.2172 240.251 41.0015 264.871Z" fill="#216A20"/>
<g opacity="0.3">
<path d="M41.0015 264.871L49.1146 259.515C49.1146 259.515 53.0539 238.175 50.1275 219.341C46.0194 192.769 28.3114 183.634 21.8772 186.255C15.443 188.876 13.9236 196.777 25.5445 212.081C32.4007 221.13 41.2172 240.251 41.0015 264.871Z" fill="white"/>
</g>
<path d="M43.9559 254.34H43.8715C43.7195 254.316 43.5826 254.233 43.4898 254.108C43.3969 253.983 43.3556 253.826 43.3744 253.67C46.7416 228.801 36.9496 201.617 25.9384 190.646C25.8277 190.535 25.7645 190.384 25.7627 190.227C25.761 190.069 25.8208 189.917 25.929 189.804C26.0372 189.691 26.1849 189.626 26.3397 189.625C26.4945 189.623 26.6437 189.684 26.7544 189.794C37.9626 200.957 47.9421 228.591 44.5281 253.823C44.5099 253.966 44.442 254.096 44.3369 254.191C44.2317 254.286 44.0964 254.339 43.9559 254.34Z" fill="white"/>
<path d="M20.5732 278.329C19.3539 279.037 15.8836 276.311 14.9456 275.651C13.2983 274.506 11.9676 272.948 11.0814 271.127C10.0925 269.049 9.76456 266.708 10.1434 264.431C10.3386 263.23 10.6143 262.045 10.9688 260.882C11.2971 259.735 11.616 258.587 11.9067 257.439C12.3013 256.328 12.4673 255.146 12.3945 253.967C12.1037 251.614 10.0497 249.969 8.19256 248.543C6.12912 246.975 3.99065 244.899 4.00003 242.068C4.14788 239.869 5.00913 237.782 6.44802 236.137C7.77987 234.416 9.35559 232.904 10.5561 231.087C11.5013 229.826 11.9945 228.273 11.9536 226.687C11.8244 225.717 11.5055 224.784 11.0157 223.942C10.0778 222.096 8.74594 220.403 8.07063 218.423C7.39532 216.443 7.48912 213.975 9.00856 212.559C10.2466 211.392 12.1037 211.23 13.7826 211.344C15.3607 211.541 16.8778 212.086 18.2284 212.942C22.6366 215.438 25.1596 220.766 29.8399 222.689C31.6846 223.281 33.5642 223.754 35.4675 224.104C37.3433 224.611 39.2661 225.596 40.1571 227.366C41.8735 230.867 38.6845 235.181 39.8945 238.892C40.9637 242.182 44.0964 243.436 45.8503 246.401C46.5672 247.71 46.8563 249.217 46.6757 250.705C46.5226 253.219 45.9186 255.683 44.8936 257.975C43.7364 260.353 42.4365 262.656 41.0012 264.871L20.5732 278.329Z" fill="#216A20"/>
<g opacity="0.65">
<path d="M20.5732 278.329C19.3539 279.037 15.8836 276.311 14.9456 275.651C13.2983 274.506 11.9676 272.948 11.0814 271.127C10.0925 269.049 9.76456 266.708 10.1434 264.431C10.3386 263.23 10.6143 262.045 10.9688 260.882C11.2971 259.735 11.616 258.587 11.9067 257.439C12.3013 256.328 12.4673 255.146 12.3945 253.967C12.1037 251.614 10.0497 249.969 8.19256 248.543C6.12912 246.975 3.99065 244.899 4.00003 242.068C4.14788 239.869 5.00913 237.782 6.44802 236.137C7.77987 234.416 9.35559 232.904 10.5561 231.087C11.5013 229.826 11.9945 228.273 11.9536 226.687C11.8244 225.717 11.5055 224.784 11.0157 223.942C10.0778 222.096 8.74594 220.403 8.07063 218.423C7.39532 216.443 7.48912 213.975 9.00856 212.559C10.2466 211.392 12.1037 211.23 13.7826 211.344C15.3607 211.541 16.8778 212.086 18.2284 212.942C22.6366 215.438 25.1596 220.766 29.8399 222.689C31.6846 223.281 33.5642 223.754 35.4675 224.104C37.3433 224.611 39.2661 225.596 40.1571 227.366C41.8735 230.867 38.6845 235.181 39.8945 238.892C40.9637 242.182 44.0964 243.436 45.8503 246.401C46.5672 247.71 46.8563 249.217 46.6757 250.705C46.5226 253.219 45.9186 255.683 44.8936 257.975C43.7364 260.353 42.4365 262.656 41.0012 264.871L20.5732 278.329Z" fill="white"/>
</g>
<path d="M32.3539 271.289C32.2816 271.287 32.2106 271.27 32.1448 271.239C32.0791 271.208 32.0201 271.164 31.9712 271.11C31.9223 271.056 31.8845 270.992 31.86 270.923C31.8355 270.853 31.8249 270.78 31.8287 270.706C32.7666 248.476 22.4494 223.923 14.946 216.797C14.8547 216.692 14.805 216.556 14.8067 216.415C14.8083 216.275 14.8611 216.14 14.9548 216.038C15.0485 215.935 15.1764 215.872 15.3135 215.86C15.4506 215.848 15.5871 215.889 15.6963 215.974C23.3123 223.253 33.7983 248.209 32.8791 270.754C32.8723 270.893 32.8148 271.026 32.7177 271.125C32.6207 271.224 32.491 271.282 32.3539 271.289Z" fill="white"/>
<path d="M28.8086 244.115H28.6492C23.4958 242.66 18.2033 241.778 12.8639 241.484C12.7916 241.482 12.7205 241.465 12.6548 241.434C12.5891 241.403 12.5301 241.359 12.4812 241.305C12.4322 241.251 12.3945 241.187 12.37 241.118C12.3455 241.048 12.3349 240.975 12.3386 240.901C12.3397 240.827 12.3556 240.754 12.3854 240.686C12.4151 240.618 12.4581 240.558 12.5116 240.507C12.5652 240.457 12.6282 240.419 12.6968 240.394C12.7655 240.37 12.8383 240.36 12.9108 240.365C18.3567 240.655 23.7561 241.543 29.015 243.015C29.1526 243.063 29.2665 243.164 29.333 243.295C29.3994 243.427 29.4132 243.581 29.3714 243.723C29.3339 243.843 29.2582 243.946 29.1562 244.018C29.0542 244.089 28.9319 244.123 28.8086 244.115Z" fill="white"/>
<path d="M227.349 440C347.002 440 444 382.889 444 312.439C444 241.989 347.002 184.878 227.349 184.878C107.695 184.878 10.6973 241.989 10.6973 312.439C10.6973 382.889 107.695 440 227.349 440Z" fill="#FAFAFA"/>
<path d="M112.209 258.061C158.101 231.049 232.498 231.049 278.381 258.061C317.277 280.96 323.186 315.921 296.145 342.502L397.113 401.194C403.266 404.819 403.266 410.692 397.113 414.318L388.034 419.665C381.881 423.29 372.089 423.003 366.124 419.033L277.959 356.152C232.001 382.934 157.979 382.829 112.246 355.903C66.3253 328.882 66.3253 285.083 112.209 258.061Z" fill="#E6E6E6"/>
<path d="M130.807 20.5486L122.854 25.2355C122.894 24.8798 122.916 24.5222 122.919 24.1642V21.8112C122.919 17.6216 120.04 15.9286 116.485 17.9851C114.953 18.9384 113.644 20.2213 112.649 21.7442C112.058 16.4834 108.016 14.5225 103.092 17.4112C97.7736 20.5486 93.4685 28.1625 93.4685 34.4276V37.9381C93.4316 39.3451 93.7107 40.7422 94.2845 42.0224L87.719 45.9154C86.6727 46.6075 85.803 47.5436 85.1816 48.6464C84.5603 49.7491 84.2051 50.9867 84.1455 52.2571C84.1455 54.5815 85.74 55.5188 87.719 54.3615L130.864 28.9564C131.905 28.268 132.772 27.3379 133.393 26.2423C134.014 25.1467 134.372 23.9167 134.437 22.6529C134.381 20.3286 132.786 19.3912 130.807 20.5486Z" fill="#EBEBEB"/>
<path d="M25.9007 41.6491L30.384 38.1196V28.0379C30.384 20.0414 36.64 10.7632 43.4212 6.77451C50.2117 2.77627 55.7174 6.01887 55.7174 14.0058V15.4693C57.1487 13.1046 59.1013 11.1133 61.42 9.65363C66.3066 6.78408 70.2646 9.10842 70.2646 14.8571V15.5266L76.5206 11.8441C79.7377 9.93102 82.3451 11.4806 82.3451 15.2684C82.2359 17.3301 81.6516 19.3365 80.6396 21.1247C79.6276 22.913 78.2164 24.4327 76.5206 25.5605L25.9007 55.3656C22.6836 57.2786 20.0762 55.7195 20.0762 51.9317C20.1853 49.8713 20.7697 47.8662 21.7818 46.0795C22.7939 44.2928 24.2051 42.7749 25.9007 41.6491Z" fill="#EBEBEB"/>
<path d="M92.4277 275.642V304.749C92.4277 320.55 102.67 336.314 123.145 348.414C164.095 372.527 230.5 372.527 271.45 348.414C291.925 336.352 302.167 320.55 302.167 304.749V275.642C302.167 259.84 291.925 244.077 271.45 231.986C230.5 207.873 164.095 207.873 123.145 231.986C102.67 244.038 92.4277 259.84 92.4277 275.642ZM292.018 275.642C292.018 288.287 282.911 300.607 266.376 310.344C248.086 321.115 223.559 327.045 197.297 327.045C171.035 327.045 146.509 321.115 128.219 310.344C111.683 300.607 102.576 288.287 102.576 275.642C102.576 262.997 111.683 250.677 128.219 240.939C146.509 230.169 171.035 224.239 197.297 224.239C223.559 224.239 248.095 230.169 266.376 240.939C282.921 250.677 292.018 263.025 292.018 275.642Z" fill="#216A20"/>
<path opacity="0.2" d="M92.4277 275.642V304.749C92.4277 320.55 102.67 336.314 123.145 348.414C164.095 372.527 230.5 372.527 271.45 348.414C291.925 336.352 302.167 320.55 302.167 304.749V275.642C302.167 259.84 291.925 244.077 271.45 231.986C230.5 207.873 164.095 207.873 123.145 231.986C102.67 244.038 92.4277 259.84 92.4277 275.642ZM292.018 275.642C292.018 288.287 282.911 300.607 266.376 310.344C248.086 321.115 223.559 327.045 197.297 327.045C171.035 327.045 146.509 321.115 128.219 310.344C111.683 300.607 102.576 288.287 102.576 275.642C102.576 262.997 111.683 250.677 128.219 240.939C146.509 230.169 171.035 224.239 197.297 224.239C223.559 224.239 248.095 230.169 266.376 240.939C282.921 250.677 292.018 263.025 292.018 275.642Z" fill="white"/>
<path opacity="0.6" d="M302.064 307.465C300.432 317.48 296.108 325.017 278.69 338.877C254.07 358.486 191.726 366.492 155.541 354.315C121.41 342.837 110.52 320.368 110.52 304.959L110.614 295.901C105.343 289.502 102.567 282.624 102.567 275.642C102.567 268.487 105.484 261.437 111.008 254.904L111.13 242.145H109.188C98.0178 252.312 92.4277 263.972 92.4277 275.623V304.729C92.4277 320.531 102.67 336.294 123.145 348.394C164.095 372.508 230.5 372.508 271.45 348.394C290.752 337.05 300.957 322.329 302.064 307.465Z" fill="#216A20"/>
<path d="M271.459 231.986C230.5 207.872 164.104 207.872 123.154 231.986C82.2045 256.1 82.1952 295.193 123.154 319.307C164.114 343.42 230.5 343.42 271.459 319.307C312.419 295.193 312.409 256.1 271.459 231.986ZM266.385 310.344C248.096 321.114 223.559 327.045 197.307 327.045C171.054 327.045 146.518 321.114 128.219 310.344C111.684 300.607 102.576 288.287 102.576 275.642C102.576 262.997 111.684 250.677 128.219 240.939C146.509 230.169 171.045 224.238 197.307 224.238C223.569 224.238 248.096 230.169 266.385 240.939C282.921 250.677 292.028 263.006 292.028 275.642C292.028 288.277 282.921 300.607 266.385 310.344Z" fill="#216A20"/>
<path opacity="0.5" d="M271.459 231.986C230.5 207.872 164.104 207.872 123.154 231.986C82.2045 256.1 82.1952 295.193 123.154 319.307C164.114 343.42 230.5 343.42 271.459 319.307C312.419 295.193 312.409 256.1 271.459 231.986ZM266.385 310.344C248.096 321.114 223.559 327.045 197.307 327.045C171.054 327.045 146.518 321.114 128.219 310.344C111.684 300.607 102.576 288.287 102.576 275.642C102.576 262.997 111.684 250.677 128.219 240.939C146.509 230.169 171.045 224.238 197.307 224.238C223.569 224.238 248.096 230.169 266.385 240.939C282.921 250.677 292.028 263.006 292.028 275.642C292.028 288.277 282.921 300.607 266.385 310.344Z" fill="white"/>
<path d="M292.037 275.642C291.977 280.782 290.561 285.81 287.939 290.2C283.784 282.863 276.458 275.977 266.366 270.056C248.095 259.276 223.55 253.345 197.288 253.345C171.026 253.345 146.499 259.276 128.219 270.056C118.136 275.977 110.821 282.863 106.647 290.2C104.045 285.803 102.64 280.777 102.576 275.642C102.576 263.006 111.683 250.677 128.228 240.93C146.509 230.178 171.045 224.239 197.297 224.239C223.55 224.239 248.105 230.178 266.376 240.93C282.93 250.677 292.037 263.025 292.037 275.642Z" fill="#216A20"/>
<path opacity="0.3" d="M292.037 275.642C291.977 280.782 290.561 285.81 287.939 290.2C283.784 282.863 276.458 275.977 266.366 270.056C248.095 259.276 223.55 253.345 197.288 253.345C171.026 253.345 146.499 259.276 128.219 270.056C118.136 275.977 110.821 282.863 106.647 290.2C104.045 285.803 102.64 280.777 102.576 275.642C102.576 263.006 111.683 250.677 128.228 240.93C146.509 230.178 171.045 224.239 197.297 224.239C223.55 224.239 248.105 230.178 266.376 240.93C282.93 250.677 292.037 263.025 292.037 275.642Z" fill="white"/>
<path opacity="0.6" d="M128.228 240.93C111.683 250.677 102.576 263.006 102.576 275.642C102.643 280.778 104.051 285.803 106.656 290.2C110.839 282.863 118.155 275.976 128.228 270.056C132.488 267.571 136.913 265.394 141.472 263.542C137.476 265.12 125.208 269.147 129.682 257.219C135 243.053 160.953 227.711 180.021 225.166C160.409 227.146 142.429 232.579 128.228 240.93Z" fill="#216A20"/>
<path opacity="0.4" d="M266.385 254.12C248.095 243.35 223.559 237.419 197.306 237.419C171.054 237.419 146.508 243.35 128.219 254.12C114.581 262.155 106.009 271.95 103.42 282.232C106.009 292.515 114.581 302.319 128.219 310.344C146.518 321.115 171.044 327.045 197.306 327.045C223.568 327.045 248.095 321.115 266.385 310.344C280.031 302.309 288.604 292.515 291.183 282.232C288.613 271.95 280.031 262.155 266.385 254.12Z" fill="white"/>
<path d="M121.213 288.909C127.075 293.596 133.725 296.561 140.506 298.914C147.306 301.21 154.271 302.963 161.337 304.156C175.458 306.494 189.779 307.327 204.069 306.643C211.207 306.317 218.354 305.638 225.454 304.663C232.532 303.693 239.545 302.284 246.454 300.444C253.33 298.69 259.981 296.122 266.273 292.792C267.826 291.948 269.329 291.013 270.775 289.99C272.226 288.979 273.603 287.86 274.892 286.642C276.193 285.417 277.354 284.047 278.353 282.558C279.387 281.027 280.176 279.338 280.688 277.555C280.719 279.51 280.401 281.455 279.751 283.294C279.062 285.143 278.162 286.902 277.068 288.536C275.987 290.181 274.756 291.718 273.391 293.127C272.04 294.542 270.602 295.868 269.086 297.097C262.974 301.848 256.199 305.639 248.987 308.345C241.875 311.078 234.54 313.162 227.067 314.572C219.634 316.007 212.113 316.918 204.557 317.298C189.391 318.107 174.196 316.457 159.537 312.41C152.203 310.361 145.121 307.473 138.424 303.802C135.089 301.937 131.919 299.78 128.951 297.355C128.21 296.752 127.516 296.092 126.803 295.442C126.09 294.791 125.415 294.131 124.768 293.433C123.461 292.029 122.272 290.515 121.213 288.909Z" fill="white"/>
<path d="M268.336 337.835C268.462 335.233 269.189 332.699 270.457 330.439C271.725 328.178 273.498 326.255 275.633 324.826C277.64 323.63 279.469 323.506 280.801 324.271L304.174 337.901C305.497 338.676 306.322 340.35 306.331 342.684C306.203 345.285 305.475 347.818 304.208 350.078C302.94 352.338 301.167 354.262 299.034 355.693C297.008 356.898 295.17 357.022 293.838 356.238L270.474 342.617C269.18 341.909 268.345 340.235 268.336 337.835Z" fill="#FFC93D"/>
<path d="M270.521 342.684C269.18 341.909 268.345 340.235 268.336 337.834C268.369 335.898 268.794 333.99 269.583 332.229L303.171 351.857C302.078 353.424 300.687 354.751 299.081 355.76C297.055 356.965 295.217 357.089 293.885 356.305L270.521 342.684Z" fill="#FFC93D"/>
<path d="M383.757 376.669L309.379 338.016L309.285 337.959C307.56 337.002 305.215 337.175 302.636 338.705C297.364 341.842 293.116 349.418 293.144 355.635C293.144 358.754 294.241 360.935 295.957 361.948L365.861 407.861C367.872 409.16 370.12 410.031 372.468 410.425C374.817 410.818 377.22 410.725 379.533 410.151C381.845 409.578 384.021 408.535 385.93 407.085C387.839 405.635 389.443 403.807 390.644 401.712C391.846 399.616 392.621 397.295 392.924 394.888C393.227 392.48 393.052 390.035 392.408 387.698C391.765 385.36 390.666 383.179 389.178 381.285C387.69 379.39 385.843 377.82 383.747 376.669H383.757Z" fill="#216A20"/>
<path d="M295.967 361.968L365.871 407.88C368.469 409.544 371.447 410.491 374.513 410.627C377.579 410.764 380.626 410.086 383.357 408.659C386.089 407.233 388.409 405.107 390.092 402.491C391.775 399.874 392.763 396.856 392.958 393.734C391.617 399.673 381.994 404.724 370.063 397.923C358.133 391.122 313.938 362.628 293.857 350.834C293.385 352.383 293.139 353.994 293.125 355.616C293.134 358.773 294.241 360.954 295.967 361.968Z" fill="#216A20"/>
<path d="M295.967 361.967C294.223 360.953 293.153 358.773 293.153 355.654C293.153 349.437 297.374 341.861 302.645 338.724C305.224 337.194 307.569 337.031 309.295 337.978L315.861 341.383C314.088 340.427 311.696 340.58 309.042 342.148C303.639 345.362 299.278 353.139 299.306 359.519C299.306 362.713 300.385 365 302.167 366.033" fill="#216A20"/>
<path opacity="0.2" d="M302.157 366.033C300.375 365 299.343 362.714 299.296 359.519C299.307 357.829 299.563 356.149 300.056 354.535C297.815 353.177 295.723 351.934 293.857 350.834C293.62 351.634 293.435 352.448 293.303 353.273C293.247 353.675 293.2 354.076 293.162 354.478C293.162 354.88 293.116 355.272 293.162 355.655C293.162 358.773 294.26 360.954 295.976 361.968L302.157 366.033Z" fill="black"/>
<path d="M118.108 406.274L61.8324 377.568L39.416 387.688L118.108 406.274Z" fill="#FFC93D"/>
<g opacity="0.15">
<path d="M118.108 406.274L61.8324 377.568L39.416 387.688L118.108 406.274Z" fill="white"/>
</g>
<path d="M118.108 406.273L68.5391 372.48L77.4118 359.471L118.108 406.273Z" fill="#FFC93D"/>
<g opacity="0.15">
<path d="M118.108 406.273L68.5391 372.48L77.4118 359.471L118.108 406.273Z" fill="white"/>
</g>
<path d="M68.5391 372.479L69.4676 381.461L118.108 406.273L68.5391 372.479Z" fill="#FFC93D"/>
<g opacity="0.2">
<path d="M68.5391 372.479L69.4676 381.461L118.108 406.273L68.5391 372.479Z" fill="black"/>
</g>
<path d="M60.5096 370.758C60.6459 370.754 60.7761 370.7 60.8754 370.605C60.9902 370.489 61.0594 370.335 61.0698 370.171C61.0802 370.007 61.031 369.845 60.9317 369.715L59.8531 368.242C59.8093 368.18 59.7531 368.128 59.6881 368.09C59.6231 368.052 59.5508 368.029 59.4762 368.021C59.4015 368.014 59.3262 368.023 59.2554 368.048C59.1845 368.073 59.1196 368.113 59.0652 368.166C58.9508 368.281 58.8811 368.434 58.8691 368.598C58.857 368.761 58.9033 368.924 58.9995 369.055C59.356 369.543 59.7217 370.012 60.0875 370.5C60.1336 370.573 60.1956 370.634 60.2689 370.679C60.3421 370.724 60.4245 370.751 60.5096 370.758Z" fill="#455A64"/>
<path d="M55.5668 364.235C54.8977 363.24 54.2505 362.235 53.6253 361.222C53.5407 361.082 53.5083 360.916 53.5342 360.755C53.56 360.593 53.6423 360.446 53.766 360.342C53.8243 360.294 53.892 360.261 53.9643 360.243C54.0367 360.225 54.112 360.223 54.185 360.238C54.2581 360.252 54.3272 360.283 54.3876 360.327C54.4481 360.371 54.4983 360.428 54.5351 360.495C55.1635 361.499 55.8012 362.494 56.4109 363.479C56.5028 363.614 56.5421 363.778 56.5213 363.941C56.5005 364.104 56.421 364.253 56.2983 364.359C56.2073 364.44 56.0907 364.484 55.9701 364.483C55.889 364.475 55.8109 364.448 55.7412 364.405C55.6714 364.362 55.6119 364.304 55.5668 364.235ZM50.6051 356.018C50.033 354.956 49.4702 353.875 48.9356 352.795C48.8622 352.649 48.8435 352.481 48.8833 352.322C48.923 352.164 49.0184 352.026 49.1514 351.934C49.2159 351.893 49.2883 351.867 49.3635 351.858C49.4388 351.849 49.5151 351.856 49.5873 351.88C49.6595 351.903 49.7258 351.943 49.7817 351.995C49.8376 352.047 49.8817 352.111 49.9111 352.182C50.4363 353.244 50.9897 354.306 51.5524 355.358C51.6323 355.5 51.6583 355.667 51.6255 355.828C51.5926 355.988 51.5032 356.131 51.3742 356.228C51.2867 356.283 51.1862 356.313 51.0835 356.315C50.9851 356.313 50.8889 356.285 50.8048 356.233C50.7208 356.18 50.6518 356.106 50.6051 356.018ZM46.422 347.256C45.953 346.118 45.4841 344.97 45.0901 343.832C45.0326 343.681 45.0314 343.514 45.0867 343.362C45.142 343.211 45.2501 343.085 45.3903 343.009C45.4601 342.979 45.5354 342.964 45.6113 342.965C45.6871 342.967 45.7619 342.984 45.8308 343.016C45.8997 343.049 45.9612 343.096 46.0113 343.154C46.0615 343.212 46.0991 343.28 46.1219 343.354C46.5252 344.473 46.966 345.602 47.4349 346.721C47.498 346.871 47.5051 347.039 47.4551 347.194C47.405 347.349 47.3011 347.48 47.163 347.562C47.0901 347.6 47.0099 347.619 46.9285 347.62C46.8184 347.616 46.7118 347.58 46.6218 347.516C46.5318 347.451 46.4623 347.361 46.422 347.256ZM43.1768 337.997C42.8391 336.802 42.5202 335.587 42.2388 334.41C42.194 334.254 42.21 334.087 42.2834 333.942C42.3568 333.798 42.4819 333.688 42.6328 333.636C42.7062 333.616 42.7828 333.612 42.8578 333.623C42.9328 333.635 43.0047 333.663 43.0689 333.704C43.1331 333.745 43.1883 333.799 43.2311 333.863C43.2738 333.927 43.3032 334 43.3175 334.076C43.5895 335.243 43.899 336.429 44.2554 337.605C44.3031 337.759 44.2931 337.925 44.2272 338.072C44.1613 338.219 44.0444 338.335 43.899 338.399H43.7301C43.6079 338.401 43.4882 338.363 43.3887 338.291C43.2891 338.219 43.2148 338.116 43.1768 337.997ZM41.0008 328.327C40.8132 327.112 40.6444 325.869 40.5037 324.635C40.4762 324.476 40.511 324.313 40.6005 324.181C40.69 324.048 40.8271 323.957 40.982 323.927C41.1358 323.916 41.2876 323.967 41.405 324.069C41.5224 324.171 41.5961 324.316 41.6104 324.472C41.7417 325.687 41.9106 326.911 42.0981 328.107C42.1297 328.263 42.1016 328.425 42.0197 328.56C41.9377 328.695 41.808 328.793 41.6573 328.834H41.5542C41.4189 328.827 41.2902 328.773 41.1894 328.68C41.0887 328.588 41.0221 328.463 41.0008 328.327ZM40.0628 318.417C40.0628 317.461 40.0066 316.504 40.0066 315.481V314.677C40.0028 314.6 40.0141 314.522 40.0399 314.448C40.0657 314.375 40.1054 314.307 40.1568 314.249C40.2082 314.192 40.2703 314.145 40.3394 314.112C40.4086 314.078 40.4836 314.059 40.5599 314.056C40.7151 314.068 40.8593 314.142 40.9611 314.262C41.063 314.382 41.1143 314.538 41.1039 314.697V315.481C41.1039 316.437 41.1039 317.394 41.1039 318.35C41.1171 318.51 41.0685 318.668 40.9686 318.792C40.8686 318.915 40.7253 318.993 40.5693 319.01C40.4284 318.992 40.2991 318.921 40.2058 318.812C40.1125 318.703 40.0617 318.562 40.0628 318.417ZM40.8038 309.149C40.6503 309.121 40.5132 309.033 40.4207 308.905C40.3283 308.777 40.2874 308.618 40.3067 308.46C40.4099 307.226 40.5412 305.973 40.6913 304.739C40.6969 304.661 40.7183 304.585 40.7539 304.515C40.7896 304.446 40.8388 304.385 40.8986 304.335C40.9583 304.286 41.0274 304.25 41.1014 304.229C41.1754 304.208 41.2529 304.202 41.329 304.213C41.4823 304.245 41.617 304.338 41.7046 304.47C41.7922 304.602 41.8257 304.764 41.798 304.921C41.6479 306.136 41.5166 307.37 41.4135 308.575C41.4068 308.723 41.3466 308.864 41.2445 308.97C41.1424 309.076 41.0055 309.139 40.8601 309.149H40.8038ZM42.1169 299.373C41.9667 299.324 41.8404 299.219 41.7637 299.079C41.687 298.938 41.6658 298.773 41.7042 298.617C41.9481 297.403 42.2295 296.188 42.539 294.992C42.553 294.916 42.5824 294.844 42.6253 294.781C42.6682 294.717 42.7236 294.663 42.7881 294.623C42.8525 294.582 42.9246 294.556 42.9996 294.545C43.0746 294.535 43.1509 294.541 43.2237 294.562C43.3721 294.62 43.4939 294.733 43.565 294.878C43.6362 295.023 43.6516 295.19 43.6082 295.346C43.3081 296.513 43.0267 297.718 42.7828 298.904C42.7633 299.036 42.6992 299.157 42.6016 299.246C42.504 299.336 42.3791 299.387 42.2482 299.392L42.1169 299.373ZM44.6493 289.913C44.5066 289.843 44.3954 289.719 44.338 289.569C44.2806 289.418 44.2812 289.25 44.3398 289.1C44.7431 287.952 45.1933 286.795 45.6623 285.666C45.6888 285.595 45.7295 285.529 45.782 285.474C45.8344 285.42 45.8974 285.377 45.967 285.348C46.0367 285.319 46.1113 285.305 46.1864 285.307C46.2615 285.31 46.3353 285.328 46.4032 285.36C46.5399 285.444 46.6425 285.575 46.6924 285.73C46.7423 285.884 46.7362 286.052 46.6752 286.202C46.2063 287.311 45.7373 288.44 45.3715 289.569C45.3363 289.681 45.2677 289.779 45.1752 289.849C45.0827 289.92 44.971 289.959 44.8557 289.961C44.784 289.964 44.7128 289.947 44.6493 289.913ZM48.5042 281.027C48.3721 280.932 48.2789 280.791 48.2426 280.63C48.2062 280.47 48.2292 280.301 48.3072 280.157C48.8794 279.095 49.4796 278.033 50.0893 277.01C50.1253 276.942 50.1753 276.883 50.2358 276.837C50.2963 276.79 50.3658 276.758 50.4398 276.741C50.5137 276.725 50.5902 276.725 50.6641 276.742C50.7379 276.758 50.8074 276.791 50.8678 276.838C50.9912 276.942 51.0742 277.088 51.1017 277.249C51.1292 277.411 51.0994 277.577 51.0178 277.718C50.4082 278.722 49.8173 279.765 49.2639 280.807C49.2193 280.898 49.1511 280.974 49.0667 281.028C48.9824 281.082 48.8851 281.112 48.7856 281.113C48.6856 281.113 48.5878 281.083 48.5042 281.027ZM53.4846 272.906C53.3709 272.793 53.3015 272.641 53.2895 272.479C53.2774 272.317 53.3234 272.156 53.4189 272.026C54.1224 271.07 54.8633 270.113 55.6043 269.214C55.6527 269.156 55.713 269.109 55.7811 269.077C55.8491 269.044 55.9232 269.028 55.9982 269.028C56.0732 269.028 56.1473 269.044 56.2153 269.077C56.2834 269.109 56.3437 269.156 56.3921 269.214C56.4989 269.337 56.5579 269.495 56.5579 269.659C56.5579 269.823 56.4989 269.981 56.3921 270.104C55.6606 270.993 54.9384 271.912 54.2443 272.858C54.1953 272.929 54.1307 272.986 54.0557 273.026C53.9807 273.066 53.8974 273.087 53.8128 273.088C53.7413 273.087 53.6708 273.07 53.6062 273.038C53.5415 273.007 53.4841 272.962 53.4377 272.906H53.4846ZM59.5154 265.752C59.4086 265.629 59.3496 265.471 59.3496 265.307C59.3496 265.143 59.4086 264.985 59.5154 264.862C60.3408 264.03 61.1943 263.217 62.0478 262.452C62.1041 262.4 62.1706 262.362 62.2426 262.34C62.3146 262.317 62.3906 262.311 62.4654 262.32C62.5401 262.33 62.6119 262.357 62.6758 262.398C62.7397 262.438 62.7942 262.493 62.8357 262.557C62.9265 262.692 62.9669 262.856 62.9497 263.019C62.9325 263.182 62.8588 263.334 62.7419 263.446C61.8978 264.192 61.063 264.986 60.247 265.799C60.1508 265.901 60.0194 265.959 59.8812 265.962C59.8014 265.961 59.7229 265.941 59.6515 265.905C59.5801 265.868 59.5176 265.816 59.4685 265.752H59.5154ZM66.4186 259.697C66.3416 259.555 66.3163 259.389 66.3472 259.23C66.3781 259.071 66.4632 258.928 66.5874 258.826C67.5253 258.138 68.4633 257.497 69.4012 256.913C69.4654 256.874 69.537 256.85 69.6112 256.842C69.6854 256.833 69.7605 256.841 69.8315 256.865C69.9025 256.888 69.9678 256.927 70.023 256.978C70.0781 257.029 70.122 257.092 70.1515 257.162C70.2244 257.306 70.2427 257.473 70.2029 257.63C70.1631 257.787 70.068 257.923 69.9358 258.013C68.9979 258.587 68.0599 259.219 67.122 259.926C67.0342 259.989 66.9292 260.023 66.8219 260.022C66.726 260.011 66.6345 259.975 66.5558 259.918C66.4771 259.862 66.4138 259.785 66.3717 259.697H66.4186Z" fill="#455A64"/>
<path d="M74.6729 255.565H74.8417C75.3371 255.373 75.8489 255.229 76.3705 255.134C76.5244 255.1 76.6593 255.006 76.7467 254.872C76.8342 254.738 76.8674 254.575 76.8395 254.417C76.8336 254.339 76.8126 254.263 76.7776 254.194C76.7427 254.125 76.6945 254.064 76.6359 254.014C76.5774 253.964 76.5096 253.926 76.4367 253.904C76.3637 253.881 76.287 253.873 76.2111 253.881C75.63 253.992 75.059 254.152 74.504 254.359C74.3555 254.419 74.235 254.535 74.1671 254.682C74.0991 254.83 74.0888 254.998 74.1382 255.153C74.1737 255.27 74.2444 255.373 74.3404 255.447C74.4363 255.521 74.5527 255.562 74.6729 255.565Z" fill="#455A64"/>
<path d="M338.042 35.5176L280.359 17.4873L324.798 48.6219L338.042 35.5176Z" fill="#FFC93D"/>
<path opacity="0.15" d="M338.042 35.5176L280.359 17.4873L324.798 48.6219L338.042 35.5176Z" fill="white"/>
<path d="M280.359 17.4874L342.441 27.6743L355.684 14.5701L280.359 17.4874Z" fill="#FFC93D"/>
<path opacity="0.15" d="M280.359 17.4874L342.441 27.6743L355.684 14.5701L280.359 17.4874Z" fill="white"/>
<path d="M342.441 27.6742L342.497 43.3228L338.042 35.5176L280.359 17.4873L342.441 27.6742Z" fill="#FFC93D"/>
<path opacity="0.2" d="M342.441 27.6742L342.497 43.3228L338.042 35.5176L280.359 17.4873L342.441 27.6742Z" fill="black"/>
<path d="M342.497 43.3228L333.624 39.8889L338.042 35.5176L342.497 43.3228Z" fill="#FFC93D"/>
<path opacity="0.2" d="M338.042 35.5176L333.624 39.8889L335.04 40.4341L338.042 35.5176Z" fill="black"/>
<path d="M354.136 32.763C354.083 32.8039 354.037 32.8555 354.003 32.9146C353.97 32.9738 353.948 33.0394 353.94 33.1074C353.92 33.2707 353.959 33.4356 354.048 33.5725C354.137 33.7093 354.272 33.809 354.427 33.8535L356.134 34.3222C356.206 34.3452 356.282 34.3519 356.356 34.342C356.43 34.3321 356.502 34.3057 356.565 34.2647C356.629 34.2237 356.683 34.1691 356.723 34.1047C356.764 34.0403 356.79 33.9676 356.8 33.8917C356.823 33.7307 356.788 33.5669 356.701 33.4299C356.615 33.293 356.484 33.1921 356.331 33.1457L354.605 32.677C354.526 32.6534 354.442 32.6488 354.361 32.6638C354.28 32.6787 354.203 32.7127 354.136 32.763Z" fill="#455A64"/>
<path d="M361.95 34.896C363.066 35.2786 364.182 35.6804 365.28 36.0917C365.43 36.1497 365.555 36.2607 365.633 36.4044C365.71 36.5482 365.734 36.7154 365.702 36.876C365.682 36.95 365.647 37.0189 365.6 37.078C365.552 37.1371 365.492 37.1851 365.424 37.2186C365.357 37.2522 365.283 37.2705 365.208 37.2725C365.133 37.2744 365.058 37.2599 364.989 37.2299C363.901 36.8186 362.794 36.4265 361.687 36.0439C361.537 35.9913 361.41 35.8848 361.331 35.744C361.251 35.6032 361.225 35.4379 361.256 35.2786C361.278 35.1559 361.345 35.0464 361.444 34.9726C361.515 34.9176 361.599 34.8818 361.687 34.8684C361.776 34.8551 361.866 34.8646 361.95 34.896ZM370.776 38.3586C371.873 38.856 372.952 39.3151 374.021 39.8986C374.166 39.9677 374.281 40.089 374.343 40.2391C374.405 40.3892 374.411 40.5575 374.359 40.7117C374.331 40.783 374.288 40.8476 374.234 40.901C374.18 40.9545 374.115 40.9956 374.045 41.0218C373.974 41.048 373.898 41.0586 373.823 41.053C373.748 41.0473 373.675 41.0256 373.608 40.989C372.558 40.463 371.489 39.956 370.41 39.4777C370.265 39.4106 370.148 39.2926 370.081 39.1452C370.014 38.9978 370.001 38.8307 370.044 38.6743C370.075 38.571 370.138 38.4806 370.223 38.416C370.301 38.3566 370.394 38.3198 370.491 38.3097C370.589 38.2996 370.687 38.3165 370.776 38.3586ZM379.311 42.749C380.362 43.3612 381.393 44.0021 382.406 44.6621C382.541 44.7474 382.641 44.8798 382.688 45.0345C382.734 45.1893 382.724 45.356 382.659 45.5038C382.622 45.5715 382.571 45.6305 382.51 45.6769C382.449 45.7233 382.379 45.7561 382.305 45.7733C382.231 45.7904 382.154 45.7914 382.079 45.7763C382.005 45.7612 381.934 45.7303 381.872 45.6855C380.877 45.0447 379.855 44.4229 378.823 43.7725C378.684 43.6934 378.579 43.5648 378.527 43.4113C378.475 43.2577 378.48 43.0901 378.542 42.9403C378.573 42.8606 378.625 42.7912 378.692 42.7395C378.785 42.6792 378.893 42.6479 379.003 42.6496C379.113 42.6513 379.22 42.6859 379.311 42.749ZM387.396 48.1151C388.381 48.8516 389.347 49.6168 390.275 50.382C390.401 50.4809 390.486 50.6246 390.512 50.7843C390.538 50.944 390.504 51.1078 390.416 51.2429C390.37 51.3048 390.311 51.3561 390.244 51.3935C390.177 51.4309 390.104 51.4534 390.027 51.4598C389.951 51.4661 389.875 51.456 389.803 51.4302C389.731 51.4043 389.665 51.3633 389.609 51.3099C388.672 50.5542 387.734 49.8081 386.796 49.0812C386.664 48.9879 386.572 48.8476 386.537 48.6881C386.502 48.5286 386.528 48.3616 386.608 48.2203C386.635 48.1702 386.674 48.1275 386.721 48.096C386.821 48.027 386.94 47.9918 387.061 47.9953C387.182 47.9987 387.299 48.0406 387.396 48.1151ZM394.852 54.5046C395.734 55.3559 396.606 56.2359 397.451 57.135C397.559 57.2508 397.62 57.405 397.62 57.5655C397.62 57.7259 397.559 57.8801 397.451 57.9959C397.396 58.0514 397.332 58.0955 397.261 58.1256C397.191 58.1557 397.115 58.1711 397.038 58.1711C396.961 58.1711 396.885 58.1557 396.814 58.1256C396.744 58.0955 396.679 58.0514 396.625 57.9959C395.8 57.1159 394.937 56.2455 394.074 55.4133C393.957 55.3065 393.883 55.158 393.869 54.998C393.855 54.8381 393.902 54.6788 393.999 54.5525L394.074 54.4759C394.184 54.3816 394.325 54.3324 394.469 54.3377C394.612 54.343 394.749 54.4025 394.852 54.5046ZM401.502 61.7933C402.112 62.5489 402.703 63.3141 403.294 64.0985L403.763 64.7393C403.861 64.8616 403.908 65.0184 403.894 65.1759C403.88 65.3333 403.806 65.4789 403.688 65.5811C403.624 65.6259 403.552 65.6573 403.476 65.6734C403.4 65.6895 403.322 65.69 403.246 65.6748C403.17 65.6597 403.098 65.6292 403.034 65.5852C402.969 65.5412 402.914 65.4845 402.872 65.4185L402.403 64.7872C401.831 64.022 401.249 63.2663 400.649 62.5202C400.541 62.4061 400.48 62.2534 400.48 62.0946C400.48 61.9357 400.541 61.7831 400.649 61.6689C400.709 61.614 400.78 61.5725 400.856 61.5469C400.933 61.5213 401.014 61.5123 401.094 61.5204C401.174 61.5285 401.252 61.5535 401.322 61.5939C401.393 61.6343 401.454 61.6892 401.502 61.755V61.7933ZM406.426 69.6367C406.564 69.5627 406.725 69.5452 406.875 69.5879C407.025 69.6306 407.153 69.7302 407.233 69.8663C407.88 70.9184 408.518 71.9897 409.109 73.0706C409.15 73.1363 409.178 73.2096 409.19 73.2864C409.203 73.3631 409.201 73.4417 409.183 73.5174C409.166 73.5932 409.134 73.6646 409.089 73.7275C409.044 73.7904 408.987 73.8435 408.921 73.8837C408.779 73.9485 408.617 73.956 408.469 73.9046C408.321 73.8531 408.198 73.7466 408.124 73.6063C407.524 72.5445 406.895 71.4828 406.248 70.4593C406.165 70.3378 406.13 70.1889 406.149 70.0419C406.168 69.895 406.24 69.7607 406.351 69.6654L406.426 69.6367ZM411.182 78.2454C411.331 78.1904 411.496 78.1954 411.642 78.2593C411.788 78.3232 411.905 78.4413 411.97 78.5897C412.485 79.7088 412.992 80.8471 413.452 81.9854C413.484 82.0554 413.502 82.1315 413.505 82.209C413.508 82.2864 413.496 82.3637 413.469 82.4361C413.441 82.5085 413.4 82.5745 413.347 82.6302C413.294 82.6859 413.231 82.7301 413.161 82.7601C413.008 82.8044 412.844 82.7886 412.702 82.7161C412.559 82.6435 412.449 82.5194 412.392 82.368C411.942 81.2488 411.454 80.1297 410.938 79.0393C410.873 78.9207 410.852 78.7826 410.878 78.6495C410.904 78.5165 410.975 78.397 411.079 78.3123C411.103 78.2605 411.138 78.2148 411.182 78.1784V78.2454ZM414.793 87.3323C414.949 87.3021 415.11 87.3325 415.246 87.4174C415.381 87.5023 415.48 87.6357 415.524 87.7914C415.881 88.9584 416.218 90.154 416.509 91.3401C416.532 91.4136 416.539 91.4912 416.53 91.5677C416.521 91.6441 416.496 91.7178 416.457 91.7838C416.418 91.8497 416.365 91.9065 416.303 91.9504C416.241 91.9943 416.171 92.0243 416.097 92.0383C415.94 92.0592 415.781 92.0198 415.651 91.9279C415.521 91.8359 415.429 91.6981 415.393 91.541C415.102 90.374 414.774 89.1975 414.455 88.0592C414.415 87.9492 414.41 87.8292 414.441 87.7161C414.471 87.6029 414.535 87.5022 414.624 87.4279C414.666 87.3604 414.724 87.3046 414.793 87.2653V87.3323ZM417.044 96.754C417.204 96.7499 417.361 96.8062 417.484 96.9119C417.606 97.0177 417.687 97.1657 417.71 97.3279C417.897 98.5235 418.047 99.7383 418.169 100.944C418.179 101.018 418.172 101.095 418.151 101.167C418.129 101.239 418.093 101.306 418.044 101.363C417.995 101.42 417.935 101.465 417.868 101.497C417.801 101.529 417.728 101.545 417.653 101.546C417.493 101.544 417.338 101.482 417.221 101.37C417.103 101.259 417.03 101.107 417.016 100.944C416.894 99.767 416.753 98.5809 416.565 97.4044C416.549 97.3053 416.558 97.2034 416.592 97.1092C416.627 97.0151 416.686 96.932 416.762 96.8687C416.834 96.7786 416.933 96.7149 417.044 96.687V96.754Z" fill="#455A64"/>
<path d="M427.315 249.472C424.801 247.941 421.256 248.152 417.316 250.428L345.884 292.515C338.259 297.001 332.068 307.676 332.068 316.351C332.068 320.589 333.55 323.554 335.951 324.96L343.614 329.465C346.119 330.919 349.617 330.689 353.5 328.403L424.942 286.317C432.567 281.831 438.748 271.156 438.748 262.48C438.748 258.272 437.285 255.297 434.903 253.872C433.599 253.145 428.572 250.237 427.315 249.472Z" fill="#E0E0E0"/>
<path d="M347.159 329.982C342.845 329.982 340.162 326.5 340.162 320.904C340.162 312.401 346.249 301.889 353.734 297.489L425.176 255.402C427.015 254.238 429.119 253.579 431.282 253.489C435.596 253.489 438.279 256.971 438.279 262.566C438.279 271.079 432.191 281.582 424.707 285.991L353.265 328.078C351.426 329.243 349.322 329.899 347.159 329.982Z" fill="#FAFAFA"/>
<path d="M431.282 253.929C435.306 253.929 437.847 257.229 437.847 262.538C437.847 270.897 431.863 281.218 424.51 285.494L353.068 327.581C351.301 328.706 349.278 329.345 347.197 329.436C346.306 329.467 345.42 329.289 344.607 328.916C343.794 328.543 343.076 327.984 342.507 327.284C341.175 325.419 340.512 323.142 340.631 320.837C340.631 312.487 346.615 302.166 353.969 297.881L425.41 255.794C427.178 254.669 429.2 254.03 431.282 253.938M431.282 252.982C429.034 253.069 426.848 253.755 424.941 254.971L353.5 297.058C345.874 301.554 339.693 312.219 339.693 320.895C339.693 326.969 342.723 330.46 347.197 330.46C349.443 330.371 351.628 329.689 353.537 328.48L424.979 286.393C432.604 281.907 438.785 271.232 438.785 262.557C438.785 256.483 435.756 252.992 431.282 252.992V252.982Z" fill="#EBEBEB"/>
<path d="M364.699 306.413C364.99 305.859 364.943 305.285 364.699 305.132L362.307 303.725C362.257 303.699 362.2 303.685 362.143 303.685C362.086 303.685 362.03 303.699 361.979 303.725L359.784 304.586L359.062 303.018C359.026 302.94 358.967 302.877 358.893 302.836L356.502 301.42C356.202 301.248 355.704 301.64 355.508 302.291L354.016 307.274C353.935 307.574 353.764 307.842 353.528 308.039L350.199 310.67C349.664 311.081 349.458 312.095 349.842 312.372L352.253 314.152C352.336 314.239 352.396 314.345 352.429 314.462C352.462 314.579 352.466 314.702 352.44 314.821L351.868 319.671C351.821 320.025 351.925 320.264 352.084 320.35L354.476 321.765C354.663 321.871 354.945 321.765 355.198 321.45L358.181 317.566C358.243 317.46 358.331 317.372 358.436 317.31C358.541 317.248 358.66 317.214 358.781 317.212L361.773 317.547C362.242 317.614 362.795 316.734 362.711 316.074L362.139 311.894C362.112 311.585 362.178 311.275 362.326 311.005L364.699 306.413Z" fill="#216A20"/>
<path opacity="0.15" d="M364.671 305.112C364.619 305.088 364.563 305.076 364.506 305.076C364.45 305.076 364.394 305.088 364.342 305.112L361.003 306.413C360.96 306.435 360.913 306.447 360.864 306.45C360.816 306.452 360.768 306.443 360.723 306.425C360.678 306.407 360.637 306.38 360.603 306.345C360.569 306.31 360.542 306.268 360.525 306.222L359.756 304.557L361.951 303.706C362.002 303.68 362.058 303.667 362.115 303.667C362.172 303.667 362.228 303.68 362.279 303.706L364.671 305.112Z" fill="white"/>
<path opacity="0.15" d="M356.38 308.67C356.296 308.97 356.126 309.236 355.892 309.436L352.563 312.057C352.409 312.178 352.287 312.336 352.206 312.516L349.814 311.1C349.9 310.923 350.022 310.767 350.171 310.641L353.5 308.02C353.734 307.824 353.905 307.561 353.988 307.264L356.38 308.67Z" fill="white"/>
<path opacity="0.1" d="M358.884 302.826C358.584 302.625 358.078 303.018 357.871 303.687L356.38 308.671L353.988 307.255L355.48 302.271C355.677 301.621 356.174 301.229 356.474 301.401C356.539 301.401 358.565 302.645 358.875 302.817L358.884 302.826Z" fill="black"/>
<path opacity="0.25" d="M354.616 315.548L352.243 314.151L349.833 312.372C349.552 312.162 349.589 311.588 349.833 311.119L352.225 312.535C351.981 312.994 351.943 313.578 352.225 313.788L354.616 315.548Z" fill="black"/>
<path opacity="0.15" d="M354.269 321.067C354.269 321.421 354.325 321.66 354.504 321.756L352.103 320.34C352.008 320.259 351.939 320.152 351.902 320.031C351.865 319.911 351.863 319.782 351.896 319.661L352.468 314.811C352.492 314.697 352.489 314.579 352.46 314.466C352.431 314.353 352.376 314.248 352.3 314.161L354.672 315.557C354.749 315.642 354.804 315.745 354.834 315.857C354.863 315.968 354.866 316.085 354.841 316.198L354.269 321.067Z" fill="black"/>
<path d="M359.034 302.998L360.525 306.231C360.543 306.278 360.569 306.319 360.603 306.354C360.637 306.39 360.678 306.417 360.723 306.435C360.768 306.453 360.816 306.461 360.865 306.459C360.913 306.457 360.96 306.445 361.004 306.423L364.343 305.122C364.868 304.911 365.084 305.677 364.699 306.413L362.289 311.024C362.14 311.294 362.075 311.604 362.101 311.913L362.673 316.093C362.758 316.753 362.204 317.633 361.735 317.566L358.753 317.193C358.631 317.195 358.513 317.229 358.408 317.291C358.302 317.352 358.215 317.441 358.152 317.547L355.207 321.43C354.729 322.052 354.176 321.832 354.269 321.057L354.842 316.208C354.869 316.089 354.866 315.965 354.833 315.848C354.8 315.731 354.738 315.624 354.654 315.538L352.243 313.769C351.859 313.482 352.075 312.477 352.6 312.057L355.93 309.436C356.166 309.238 356.336 308.971 356.417 308.671L357.909 303.687C358.106 302.893 358.79 302.491 359.034 302.998Z" fill="#216A20"/>
<path opacity="0.5" d="M359.034 302.998L360.525 306.231C360.543 306.278 360.569 306.319 360.603 306.354C360.637 306.39 360.678 306.417 360.723 306.435C360.768 306.453 360.816 306.461 360.865 306.459C360.913 306.457 360.96 306.445 361.004 306.423L364.343 305.122C364.868 304.911 365.084 305.677 364.699 306.413L362.289 311.024C362.14 311.294 362.075 311.604 362.101 311.913L362.673 316.093C362.758 316.753 362.204 317.633 361.735 317.566L358.753 317.193C358.631 317.195 358.513 317.229 358.408 317.291C358.302 317.352 358.215 317.441 358.152 317.547L355.207 321.43C354.729 322.052 354.176 321.832 354.269 321.057L354.842 316.208C354.869 316.089 354.866 315.965 354.833 315.848C354.8 315.731 354.738 315.624 354.654 315.538L352.243 313.769C351.859 313.482 352.075 312.477 352.6 312.057L355.93 309.436C356.166 309.238 356.336 308.971 356.417 308.671L357.909 303.687C358.106 302.893 358.79 302.491 359.034 302.998Z" fill="white"/>
<path d="M381.469 296.561C381.76 296.006 381.703 295.442 381.469 295.289L379.087 293.883C379.034 293.856 378.976 293.842 378.918 293.842C378.859 293.842 378.801 293.856 378.749 293.883L376.564 294.744L375.832 293.175C375.802 293.097 375.746 293.032 375.673 292.993L373.281 291.578C372.981 291.405 372.484 291.798 372.287 292.448L370.73 297.46C370.645 297.759 370.475 298.025 370.242 298.225L366.912 300.846C366.378 301.267 366.171 302.281 366.547 302.558L368.966 304.337C369.049 304.425 369.109 304.532 369.14 304.649C369.171 304.766 369.173 304.889 369.145 305.007L368.582 309.857C368.535 310.21 368.629 310.45 368.788 310.536L371.152 311.904C371.339 312.009 371.611 311.904 371.874 311.588L374.857 307.704C374.919 307.598 375.007 307.51 375.112 307.448C375.217 307.386 375.336 307.353 375.457 307.35L378.439 307.724C378.908 307.781 379.462 306.911 379.377 306.251L378.815 302.071C378.784 301.761 378.85 301.45 379.002 301.181L381.469 296.561Z" fill="#216A20"/>
<path opacity="0.15" d="M381.413 295.279C381.361 295.256 381.305 295.244 381.248 295.244C381.192 295.244 381.136 295.256 381.084 295.279L377.717 296.58C377.673 296.602 377.625 296.615 377.576 296.617C377.527 296.619 377.478 296.611 377.432 296.593C377.387 296.575 377.345 296.548 377.31 296.512C377.275 296.477 377.248 296.435 377.229 296.389L376.47 294.724L378.655 293.873C378.708 293.847 378.765 293.833 378.824 293.833C378.882 293.833 378.94 293.847 378.993 293.873L381.413 295.279Z" fill="white"/>
<path opacity="0.15" d="M373.122 298.828C373.038 299.127 372.868 299.394 372.634 299.593L369.276 302.243C369.123 302.364 369.001 302.522 368.92 302.702L366.547 301.286C366.639 301.111 366.763 300.955 366.913 300.827L370.242 298.206C370.475 298.006 370.645 297.739 370.73 297.441L373.122 298.828Z" fill="white"/>
<path opacity="0.1" d="M375.626 292.984C375.326 292.783 374.82 293.175 374.613 293.845L373.122 298.828L370.73 297.46L372.222 292.477C372.419 291.826 372.916 291.434 373.216 291.606C373.282 291.606 375.308 292.85 375.608 293.012L375.626 292.984Z" fill="black"/>
<path opacity="0.25" d="M371.358 305.696L368.985 304.309L366.575 302.53C366.303 302.319 366.34 301.745 366.575 301.277L368.976 302.692C368.732 303.152 368.695 303.735 368.976 303.936L371.358 305.696Z" fill="black"/>
<path opacity="0.15" d="M370.974 311.215C370.927 311.578 371.03 311.818 371.199 311.913L368.807 310.498C368.648 310.402 368.554 310.172 368.601 309.818L369.173 304.969C369.195 304.855 369.191 304.737 369.162 304.624C369.132 304.511 369.079 304.407 369.004 304.318L371.377 305.705C371.454 305.79 371.509 305.893 371.539 306.005C371.568 306.116 371.571 306.234 371.546 306.346L370.974 311.215Z" fill="black"/>
<path d="M375.766 293.156L377.258 296.389C377.276 296.435 377.303 296.477 377.338 296.513C377.373 296.548 377.415 296.575 377.46 296.593C377.506 296.611 377.555 296.619 377.604 296.617C377.653 296.615 377.701 296.602 377.745 296.58L381.084 295.279C381.61 295.069 381.825 295.834 381.441 296.561L379.03 301.181C378.878 301.45 378.812 301.761 378.843 302.071L379.405 306.251C379.499 306.911 378.946 307.781 378.467 307.724L375.485 307.351C375.364 307.353 375.245 307.386 375.14 307.448C375.035 307.51 374.947 307.598 374.885 307.704L371.902 311.588C371.424 312.21 370.87 311.99 370.964 311.215L371.536 306.365C371.561 306.247 371.558 306.123 371.525 306.007C371.492 305.89 371.432 305.783 371.349 305.696L368.938 303.926C368.554 303.639 368.76 302.635 369.295 302.214L372.624 299.593C372.86 299.395 373.031 299.128 373.112 298.828L374.603 293.845C374.847 293.051 375.532 292.678 375.766 293.156Z" fill="#216A20"/>
<path opacity="0.5" d="M375.766 293.156L377.258 296.389C377.276 296.435 377.303 296.477 377.338 296.513C377.373 296.548 377.415 296.575 377.46 296.593C377.506 296.611 377.555 296.619 377.604 296.617C377.653 296.615 377.701 296.602 377.745 296.58L381.084 295.279C381.61 295.069 381.825 295.834 381.441 296.561L379.03 301.181C378.878 301.45 378.812 301.761 378.843 302.071L379.405 306.251C379.499 306.911 378.946 307.781 378.467 307.724L375.485 307.351C375.364 307.353 375.245 307.386 375.14 307.448C375.035 307.51 374.947 307.598 374.885 307.704L371.902 311.588C371.424 312.21 370.87 311.99 370.964 311.215L371.536 306.365C371.561 306.247 371.558 306.123 371.525 306.007C371.492 305.89 371.432 305.783 371.349 305.696L368.938 303.926C368.554 303.639 368.76 302.635 369.295 302.214L372.624 299.593C372.86 299.395 373.031 299.128 373.112 298.828L374.603 293.845C374.847 293.051 375.532 292.678 375.766 293.156Z" fill="white"/>
<path d="M398.183 286.718C398.464 286.164 398.417 285.599 398.183 285.446L395.763 284.069C395.71 284.045 395.652 284.032 395.594 284.032C395.536 284.032 395.478 284.045 395.425 284.069L393.23 284.93L392.508 283.361C392.479 283.283 392.422 283.218 392.349 283.179L389.957 281.764C389.657 281.591 389.15 281.984 388.963 282.634L387.472 287.617C387.386 287.916 387.217 288.182 386.984 288.383L383.645 291.004C383.12 291.424 382.904 292.429 383.288 292.716L385.699 294.495C385.786 294.579 385.849 294.686 385.882 294.804C385.915 294.921 385.916 295.046 385.886 295.164L385.314 300.014C385.314 300.368 385.371 300.597 385.53 300.693L387.922 302.109C388.119 302.214 388.391 302.109 388.653 301.793L391.627 297.91C391.69 297.802 391.779 297.713 391.886 297.651C391.993 297.589 392.113 297.556 392.236 297.556L395.209 297.929C395.688 297.986 396.241 297.116 396.147 296.456L395.585 292.276C395.555 291.968 395.617 291.658 395.763 291.386L398.183 286.718Z" fill="#216A20"/>
<path opacity="0.15" d="M398.155 285.437C398.101 285.413 398.044 285.401 397.986 285.401C397.928 285.401 397.87 285.413 397.817 285.437L394.487 286.738C394.443 286.76 394.395 286.772 394.346 286.774C394.297 286.777 394.248 286.769 394.202 286.751C394.157 286.733 394.115 286.705 394.08 286.67C394.045 286.635 394.018 286.593 394 286.546L393.23 284.882L395.425 284.031C395.476 284.005 395.532 283.991 395.589 283.991C395.646 283.991 395.703 284.005 395.753 284.031L398.155 285.437Z" fill="white"/>
<path opacity="0.15" d="M389.911 288.976C389.826 289.277 389.656 289.546 389.423 289.751L386.093 292.372C385.94 292.495 385.815 292.652 385.728 292.831L383.336 291.415C383.428 291.24 383.553 291.084 383.702 290.956L387.031 288.335C387.264 288.135 387.434 287.868 387.519 287.57L389.911 288.976Z" fill="white"/>
<path opacity="0.1" d="M392.368 283.112C392.067 282.911 391.552 283.304 391.355 283.964L389.91 288.976L387.519 287.57L389.01 282.586C389.207 281.936 389.704 281.544 390.004 281.716C390.07 281.716 392.086 282.959 392.396 283.122L392.368 283.112Z" fill="black"/>
<path opacity="0.25" d="M388.091 295.853L385.728 294.466L383.289 292.677C383.017 292.467 383.045 291.893 383.289 291.424L385.681 292.84C385.447 293.299 385.409 293.883 385.681 294.084L388.091 295.853Z" fill="black"/>
<path opacity="0.15" d="M387.716 301.372C387.669 301.736 387.772 301.975 387.941 302.071L385.549 300.655C385.39 300.559 385.296 300.33 385.333 299.976L385.906 295.117C385.93 295.005 385.928 294.888 385.9 294.777C385.873 294.666 385.82 294.563 385.746 294.476L388.11 295.863C388.183 295.95 388.237 296.053 388.266 296.164C388.295 296.275 388.299 296.391 388.279 296.504L387.716 301.372Z" fill="black"/>
<path d="M392.508 283.313L394 286.546C394.018 286.593 394.045 286.635 394.08 286.67C394.115 286.705 394.157 286.732 394.203 286.75C394.248 286.768 394.297 286.776 394.346 286.774C394.395 286.772 394.443 286.759 394.487 286.737L397.817 285.437C398.352 285.226 398.558 285.991 398.183 286.718L395.763 291.338C395.617 291.61 395.555 291.92 395.585 292.228L396.148 296.408C396.241 297.068 395.688 297.938 395.21 297.881L392.236 297.508C392.114 297.508 391.993 297.541 391.886 297.603C391.779 297.665 391.69 297.754 391.627 297.862L388.654 301.745C388.175 302.367 387.622 302.147 387.716 301.372L388.278 296.523C388.307 296.405 388.305 296.281 388.274 296.164C388.243 296.047 388.183 295.94 388.1 295.853L385.68 294.074C385.305 293.796 385.512 292.783 386.046 292.371L389.376 289.75C389.609 289.55 389.778 289.284 389.864 288.985L391.355 284.002C391.589 283.208 392.274 282.806 392.508 283.313Z" fill="#216A20"/>
<path opacity="0.5" d="M392.508 283.313L394 286.546C394.018 286.593 394.045 286.635 394.08 286.67C394.115 286.705 394.157 286.732 394.203 286.75C394.248 286.768 394.297 286.776 394.346 286.774C394.395 286.772 394.443 286.759 394.487 286.737L397.817 285.437C398.352 285.226 398.558 285.991 398.183 286.718L395.763 291.338C395.617 291.61 395.555 291.92 395.585 292.228L396.148 296.408C396.241 297.068 395.688 297.938 395.21 297.881L392.236 297.508C392.114 297.508 391.993 297.541 391.886 297.603C391.779 297.665 391.69 297.754 391.627 297.862L388.654 301.745C388.175 302.367 387.622 302.147 387.716 301.372L388.278 296.523C388.307 296.405 388.305 296.281 388.274 296.164C388.243 296.047 388.183 295.94 388.1 295.853L385.68 294.074C385.305 293.796 385.512 292.783 386.046 292.371L389.376 289.75C389.609 289.55 389.778 289.284 389.864 288.985L391.355 284.002C391.589 283.208 392.274 282.806 392.508 283.313Z" fill="white"/>
<path d="M414.916 276.876C415.206 276.321 415.16 275.757 414.916 275.604L412.533 274.188C412.48 274.164 412.423 274.151 412.365 274.151C412.306 274.151 412.249 274.164 412.196 274.188L410.001 275.049L409.279 273.48C409.247 273.401 409.191 273.334 409.119 273.289C408.819 273.126 406.793 271.921 406.728 271.883C406.427 271.711 405.921 272.103 405.724 272.753L404.233 277.737C404.151 278.035 403.985 278.301 403.754 278.502L400.415 281.123C399.89 281.544 399.674 282.548 400.059 282.835L402.469 284.614C402.555 284.698 402.617 284.803 402.65 284.919C402.683 285.034 402.685 285.157 402.657 285.274L402.085 290.124C402.085 290.478 402.141 290.717 402.301 290.812L404.692 292.228C404.88 292.333 405.161 292.228 405.414 291.912L408.397 288.029C408.459 287.923 408.547 287.834 408.652 287.772C408.757 287.711 408.876 287.677 408.997 287.675L411.98 288.048C412.458 288.105 413.012 287.235 412.918 286.575L412.346 282.395C412.323 282.086 412.389 281.777 412.533 281.505L414.916 276.876Z" fill="#216A20"/>
<path opacity="0.15" d="M414.887 275.594C414.836 275.57 414.78 275.558 414.723 275.558C414.667 275.558 414.611 275.57 414.559 275.594L411.22 276.895C411.177 276.917 411.129 276.929 411.081 276.931C411.033 276.933 410.984 276.925 410.939 276.907C410.894 276.889 410.853 276.862 410.819 276.827C410.785 276.792 410.759 276.75 410.742 276.704L409.973 275.039L412.167 274.188C412.218 274.159 412.274 274.145 412.332 274.145C412.389 274.145 412.445 274.159 412.496 274.188L414.887 275.594Z" fill="white"/>
<path opacity="0.15" d="M406.606 279.133C406.521 279.434 406.352 279.704 406.118 279.908L402.789 282.529C402.635 282.653 402.51 282.809 402.423 282.988L400.031 281.572C400.12 281.398 400.241 281.242 400.388 281.113L403.717 278.492C403.956 278.296 404.13 278.028 404.214 277.727L406.606 279.133Z" fill="white"/>
<path opacity="0.1" d="M409.11 273.298C408.81 273.098 408.294 273.49 408.097 274.15L406.606 279.133L404.214 277.727L405.705 272.744C405.893 272.093 406.399 271.701 406.699 271.873C406.765 271.873 408.782 273.117 409.091 273.279L409.11 273.298Z" fill="black"/>
<path opacity="0.25" d="M404.833 285.982L402.469 284.595L400.059 282.816C399.777 282.605 399.815 282.031 400.059 281.563L402.45 282.978C402.206 283.437 402.178 284.021 402.45 284.222L404.833 285.982Z" fill="black"/>
<path opacity="0.15" d="M404.449 291.53C404.449 291.893 404.514 292.132 404.683 292.228L402.273 290.764C402.113 290.669 402.02 290.439 402.057 290.085L402.629 285.226C402.651 285.114 402.648 284.998 402.621 284.887C402.593 284.776 402.542 284.673 402.47 284.585L404.833 285.972C404.907 286.059 404.96 286.162 404.988 286.273C405.015 286.385 405.017 286.501 404.993 286.613L404.449 291.53Z" fill="black"/>
<path d="M409.25 273.471L410.742 276.704C410.76 276.75 410.787 276.792 410.822 276.827C410.857 276.862 410.899 276.89 410.945 276.908C410.99 276.926 411.039 276.934 411.088 276.932C411.137 276.93 411.185 276.917 411.229 276.895L414.559 275.594C415.094 275.384 415.3 276.149 414.915 276.876L412.505 281.496C412.36 281.768 412.295 282.077 412.317 282.385L412.889 286.565C412.983 287.225 412.43 288.096 411.952 288.038L408.969 287.665C408.848 287.667 408.729 287.701 408.624 287.763C408.519 287.825 408.431 287.913 408.369 288.019L405.386 291.903C404.917 292.524 404.364 292.304 404.448 291.53L405.02 286.68C405.05 286.562 405.049 286.437 405.016 286.319C404.983 286.202 404.919 286.095 404.833 286.011L402.422 284.231C402.038 283.954 402.253 282.94 402.779 282.529L406.118 279.908C406.349 279.706 406.518 279.44 406.605 279.143L408.097 274.15C408.331 273.365 409.016 272.964 409.25 273.471Z" fill="#216A20"/>
<path opacity="0.5" d="M409.25 273.471L410.742 276.704C410.76 276.75 410.787 276.792 410.822 276.827C410.857 276.862 410.899 276.89 410.945 276.908C410.99 276.926 411.039 276.934 411.088 276.932C411.137 276.93 411.185 276.917 411.229 276.895L414.559 275.594C415.094 275.384 415.3 276.149 414.915 276.876L412.505 281.496C412.36 281.768 412.295 282.077 412.317 282.385L412.889 286.565C412.983 287.225 412.43 288.096 411.952 288.038L408.969 287.665C408.848 287.667 408.729 287.701 408.624 287.763C408.519 287.825 408.431 287.913 408.369 288.019L405.386 291.903C404.917 292.524 404.364 292.304 404.448 291.53L405.02 286.68C405.05 286.562 405.049 286.437 405.016 286.319C404.983 286.202 404.919 286.095 404.833 286.011L402.422 284.231C402.038 283.954 402.253 282.94 402.779 282.529L406.118 279.908C406.349 279.706 406.518 279.44 406.605 279.143L408.097 274.15C408.331 273.365 409.016 272.964 409.25 273.471Z" fill="white"/>
<path d="M431.657 267.034C431.948 266.479 431.901 265.914 431.657 265.752L429.265 264.346C429.214 264.322 429.158 264.309 429.101 264.309C429.045 264.309 428.989 264.322 428.937 264.346L426.742 265.207L426.02 263.638C425.982 263.563 425.928 263.497 425.861 263.447C425.551 263.284 423.525 262.079 423.469 262.041C423.16 261.868 422.662 262.251 422.466 262.911L420.974 267.894C420.893 268.195 420.723 268.462 420.487 268.66L417.11 271.271C416.575 271.692 416.369 272.696 416.754 272.983L419.164 274.762C419.249 274.846 419.311 274.951 419.344 275.067C419.377 275.183 419.38 275.305 419.352 275.422L418.798 280.243C418.798 280.597 418.855 280.836 419.014 280.932L421.406 282.347C421.593 282.453 421.875 282.347 422.128 282.032L425.11 278.148C425.173 278.042 425.261 277.954 425.366 277.892C425.471 277.83 425.589 277.796 425.711 277.794L428.693 278.167C429.162 278.225 429.716 277.354 429.631 276.694L429.059 272.514C429.032 272.205 429.098 271.895 429.247 271.625L431.657 267.034Z" fill="#216A20"/>
<path opacity="0.15" d="M431.63 265.752C431.579 265.726 431.522 265.712 431.465 265.712C431.408 265.712 431.352 265.726 431.301 265.752L427.962 267.053C427.919 267.074 427.872 267.087 427.823 267.089C427.775 267.091 427.727 267.083 427.682 267.065C427.637 267.047 427.596 267.019 427.562 266.984C427.528 266.949 427.501 266.907 427.484 266.861L426.715 265.197L428.91 264.336C428.96 264.309 429.017 264.295 429.074 264.295C429.131 264.295 429.187 264.309 429.238 264.336L431.63 265.752Z" fill="white"/>
<path opacity="0.15" d="M423.347 269.291C423.259 269.593 423.086 269.862 422.85 270.065L419.521 272.686C419.37 272.811 419.248 272.967 419.164 273.145L416.772 271.73C416.858 271.553 416.98 271.396 417.129 271.271L420.459 268.65C420.695 268.452 420.865 268.185 420.946 267.885L423.347 269.291Z" fill="white"/>
<path opacity="0.1" d="M425.852 263.446C425.552 263.255 425.036 263.647 424.839 264.307L423.347 269.291L420.946 267.885L422.438 262.901C422.635 262.251 423.141 261.858 423.441 262.031C423.507 262.031 425.523 263.274 425.833 263.437L425.852 263.446Z" fill="black"/>
<path opacity="0.25" d="M421.574 276.168L419.201 274.781L416.791 273.002C416.51 272.792 416.547 272.218 416.791 271.749L419.183 273.165C418.939 273.624 418.901 274.207 419.183 274.408L421.574 276.168Z" fill="black"/>
<path opacity="0.15" d="M421.19 281.687C421.19 282.051 421.246 282.29 421.424 282.376L418.986 280.96C418.826 280.864 418.732 280.635 418.77 280.271L419.342 275.422C419.365 275.309 419.362 275.192 419.332 275.081C419.303 274.97 419.249 274.867 419.173 274.781L421.546 276.168C421.621 276.254 421.674 276.357 421.702 276.469C421.729 276.58 421.731 276.697 421.706 276.809L421.19 281.687Z" fill="black"/>
<path d="M425.992 263.628L427.484 266.861C427.502 266.908 427.529 266.95 427.564 266.985C427.599 267.02 427.641 267.047 427.687 267.065C427.733 267.083 427.781 267.091 427.83 267.089C427.879 267.087 427.927 267.074 427.972 267.052L431.301 265.752C431.826 265.541 432.042 266.306 431.658 267.033L429.247 271.634C429.098 271.905 429.033 272.215 429.06 272.524L429.632 276.704C429.716 277.364 429.163 278.234 428.694 278.177L425.711 277.804C425.59 277.806 425.471 277.839 425.366 277.901C425.261 277.963 425.173 278.051 425.111 278.158L422.128 282.041C421.659 282.663 421.106 282.433 421.19 281.668L421.762 276.818C421.789 276.7 421.786 276.576 421.754 276.459C421.721 276.342 421.659 276.235 421.575 276.149L419.164 274.37C418.78 274.092 418.996 273.078 419.521 272.667L422.86 270.046C423.086 269.842 423.252 269.577 423.338 269.281L424.829 264.288C425.073 263.523 425.758 263.112 425.992 263.628Z" fill="#216A20"/>
<path opacity="0.5" d="M425.992 263.628L427.484 266.861C427.502 266.908 427.529 266.95 427.564 266.985C427.599 267.02 427.641 267.047 427.687 267.065C427.733 267.083 427.781 267.091 427.83 267.089C427.879 267.087 427.927 267.074 427.972 267.052L431.301 265.752C431.826 265.541 432.042 266.306 431.658 267.033L429.247 271.634C429.098 271.905 429.033 272.215 429.06 272.524L429.632 276.704C429.716 277.364 429.163 278.234 428.694 278.177L425.711 277.804C425.59 277.806 425.471 277.839 425.366 277.901C425.261 277.963 425.173 278.051 425.111 278.158L422.128 282.041C421.659 282.663 421.106 282.433 421.19 281.668L421.762 276.818C421.789 276.7 421.786 276.576 421.754 276.459C421.721 276.342 421.659 276.235 421.575 276.149L419.164 274.37C418.78 274.092 418.996 273.078 419.521 272.667L422.86 270.046C423.086 269.842 423.252 269.577 423.338 269.281L424.829 264.288C425.073 263.523 425.758 263.112 425.992 263.628Z" fill="white"/>
<path d="M438.045 30.5918L430.542 33.8727L428.938 42.0317C428.892 42.2559 428.786 42.4626 428.631 42.6288C428.477 42.7949 428.28 42.9139 428.063 42.9725C427.846 43.0311 427.617 43.0269 427.402 42.9604C427.187 42.8939 426.995 42.7678 426.846 42.5961L421.472 36.3309L413.359 37.2874C413.126 37.3233 412.889 37.2889 412.676 37.1884C412.462 37.0879 412.283 36.9257 412.159 36.722C412.035 36.5184 411.972 36.2821 411.979 36.0425C411.986 35.803 412.061 35.5707 412.196 35.3744L416.37 28.2292L412.974 20.6632C412.892 20.46 412.864 20.2379 412.895 20.0202C412.925 19.8025 413.013 19.5972 413.148 19.4259C413.284 19.2547 413.462 19.1237 413.664 19.0469C413.866 18.97 414.085 18.9501 414.297 18.9893L422.25 20.8353L428.253 15.2015C428.418 15.0443 428.623 14.9376 428.844 14.8938C429.066 14.8499 429.295 14.8706 429.505 14.9535C429.716 15.0364 429.899 15.1781 430.034 15.3623C430.17 15.5466 430.251 15.766 430.27 15.9954L431.011 24.2788L438.12 28.3536C438.329 28.4568 438.505 28.62 438.625 28.8231C438.745 29.0262 438.805 29.2605 438.797 29.4976C438.789 29.7347 438.714 29.9643 438.58 30.1586C438.447 30.3528 438.261 30.5033 438.045 30.5918Z" fill="#E0E0E0"/>
<path d="M396.691 16.4162C396.625 16.5044 396.546 16.5819 396.457 16.6458C396.298 16.7626 396.11 16.8316 395.914 16.8451C395.719 16.8587 395.523 16.8161 395.35 16.7223L391.176 14.484L386.993 16.7223C386.82 16.8161 386.625 16.8587 386.429 16.8451C386.233 16.8316 386.045 16.7626 385.886 16.6458C385.725 16.5296 385.601 16.3685 385.528 16.1818C385.454 15.9952 385.436 15.7909 385.474 15.5936L386.271 10.811L382.885 7.45363C382.744 7.31422 382.644 7.13695 382.598 6.9423C382.551 6.74766 382.56 6.54357 382.622 6.35363C382.681 6.16331 382.792 5.99392 382.941 5.86521C383.09 5.7365 383.273 5.65377 383.467 5.62668L388.156 4.93799L390.248 0.614531C390.334 0.435977 390.467 0.285703 390.633 0.180846C390.799 0.0759899 390.99 0.0207734 391.186 0.0214913C391.38 0.0229637 391.571 0.0790838 391.736 0.183696C391.902 0.288308 392.036 0.43737 392.124 0.614531L394.215 4.93799L398.905 5.62668C399.099 5.65558 399.281 5.73919 399.43 5.86805C399.58 5.99692 399.691 6.16592 399.752 6.35595C399.812 6.54598 399.82 6.74947 399.773 6.94344C399.726 7.13741 399.627 7.31413 399.486 7.45363L396.1 10.811L396.907 15.5936C396.943 15.886 396.866 16.1812 396.691 16.4162ZM383.345 6.47798L383.288 6.60233C383.265 6.67375 383.262 6.75051 383.281 6.82345C383.299 6.89638 383.337 6.9624 383.391 7.01363L387.012 10.6197L386.158 15.7084C386.147 15.7833 386.156 15.86 386.184 15.93C386.213 16 386.26 16.0607 386.32 16.1052C386.38 16.1497 386.451 16.1764 386.525 16.1824C386.599 16.1883 386.674 16.1732 386.74 16.1388L391.223 13.7379L395.697 16.1388C395.761 16.1766 395.834 16.1965 395.908 16.1965C395.982 16.1965 396.055 16.1766 396.119 16.1388C396.181 16.0952 396.23 16.0339 396.258 15.9624C396.287 15.891 396.294 15.8126 396.279 15.7371L395.425 10.6484L399.045 7.04232C399.098 6.98982 399.135 6.92377 399.153 6.8513C399.171 6.77882 399.17 6.70267 399.149 6.63102C399.127 6.55828 399.086 6.49336 399.03 6.44412C398.973 6.39489 398.904 6.36345 398.83 6.35363L393.812 5.60755L391.523 0.939746C391.492 0.870247 391.442 0.811502 391.379 0.770722C391.315 0.729942 391.242 0.708901 391.167 0.710183C391.099 0.717794 391.034 0.742847 390.978 0.782999C390.923 0.82315 390.878 0.877084 390.848 0.939746L388.616 5.56929L383.598 6.31537C383.497 6.33621 383.407 6.39405 383.345 6.47798Z" fill="#E0E0E0"/>
<path d="M344.458 80.3306C337.395 76.1602 327.687 76.7245 316.958 83.0376C295.385 95.7592 277.855 126.913 277.855 152.634C277.855 165.575 282.301 174.634 289.458 178.871C291.118 179.827 297.608 183.654 297.608 183.654C297.304 186.564 296.318 189.358 294.733 191.799C293.148 194.239 291.01 196.255 288.501 197.676C288.088 197.915 288.341 198.327 288.707 198.537L298.621 204.381C298.755 204.463 298.906 204.509 299.062 204.515C308.826 204.515 320.128 197.82 323.279 183.912C324.461 183.338 325.652 182.716 326.862 181.999C348.434 169.287 365.964 138.123 365.964 112.412C365.964 99.4609 361.528 90.4123 354.371 86.1462L344.458 80.3306Z" fill="#37474F"/>
<path d="M326.862 88.8724C305.29 101.584 287.76 132.748 287.76 158.459C287.76 175.915 295.817 186.361 307.747 187.317C307.297 192.865 305.712 199.101 298.368 203.511C297.786 203.865 298.546 204.525 299.034 204.525C308.797 204.525 320.099 197.829 323.251 183.921C324.433 183.348 325.624 182.726 326.834 182.008C348.406 169.296 365.936 138.133 365.936 112.422C365.936 86.7106 348.453 76.1603 326.862 88.8724Z" fill="#455A64"/>
<path d="M298.396 203.511C298.039 203.741 298.199 204.075 298.499 204.305L288.707 198.566C288.341 198.336 288.088 197.944 288.501 197.695C291.016 196.271 293.157 194.25 294.742 191.802C296.327 189.354 297.311 186.552 297.608 183.635L298.687 184.285L299.681 184.878C302.165 186.271 304.918 187.094 307.747 187.288C307.306 192.865 305.712 199.101 298.396 203.511Z" fill="#263238"/>
<path d="M322.735 162.486C321.694 161.73 321.169 160.372 321.169 158.411C321.192 156.368 321.721 154.364 322.707 152.586C323.603 150.809 324.967 149.321 326.646 148.291C328.241 147.354 329.551 147.242 330.576 147.957C331.599 148.664 332.115 150.004 332.115 151.964C332.084 154.043 331.546 156.082 330.548 157.895C329.674 159.69 328.322 161.199 326.646 162.247C325.089 163.156 323.786 163.242 322.735 162.486ZM321.338 110.49L331.946 104.244L330.173 140.706L323.11 144.867L321.338 110.49Z" fill="#FAFAFA"/>
<path opacity="0.2" d="M332.077 178.517C343.595 169.909 353.528 156.259 359.605 141.605C348.088 150.223 338.155 163.863 332.077 178.517Z" fill="black"/>
<path d="M405.723 228.352C401.727 228.4 398.754 225.549 396.887 221.962C408.855 206.955 416.95 186.963 416.95 169.478C416.95 156.517 412.494 147.411 405.319 143.203L395.424 137.387C388.362 133.226 378.663 133.8 367.943 140.104C346.371 152.825 328.841 183.979 328.841 209.7C328.841 222.641 333.277 231.7 340.434 235.956C342.103 236.913 348.678 240.796 350.301 241.762C357.373 245.961 367.099 245.407 377.847 239.074C380.726 237.366 383.458 235.414 386.017 233.24C393.276 239.103 402.13 232.714 405.638 229.653C406.107 229.251 406.163 228.352 405.723 228.352Z" fill="#E0E0E0"/>
<path d="M360.543 243.895C347.469 243.895 339.355 233.039 339.355 215.573C339.355 190.091 356.763 159.138 378.148 146.522C384.132 143.002 389.853 141.213 395.153 141.213C408.218 141.213 416.34 152.06 416.34 169.535C416.34 186.246 408.706 206.208 396.419 221.618L396.166 221.943L396.353 222.307C398.557 226.544 401.756 228.916 405.376 229.002C405.351 229.082 405.305 229.155 405.245 229.213C402.75 231.393 397.798 235.038 392.667 235.038C390.383 235.048 388.165 234.25 386.392 232.78L386.008 232.474L385.623 232.79C383.089 234.928 380.384 236.847 377.538 238.529C371.564 242.059 365.843 243.895 360.543 243.895Z" fill="#FAFAFA"/>
<path d="M395.152 140.591V141.835C407.843 141.835 415.731 152.452 415.731 169.526C415.731 186.112 408.152 205.921 395.95 221.226L395.434 221.867L395.818 222.594C397.844 226.496 400.696 228.897 403.969 229.5C401.371 231.613 397.066 234.435 392.667 234.435C390.519 234.445 388.433 233.695 386.767 232.312L385.998 231.69L385.239 232.331C382.731 234.465 380.055 236.384 377.238 238.07C371.348 241.533 365.73 243.293 360.543 243.293C347.853 243.293 339.965 232.675 339.965 215.554C339.965 190.273 357.232 159.54 378.42 147.038C384.31 143.576 389.928 141.816 395.115 141.816V140.591M395.115 140.591C389.9 140.591 384.029 142.323 377.81 145.986C356.238 158.698 338.708 189.852 338.708 215.573C338.708 233.89 347.59 244.517 360.505 244.517C365.72 244.517 371.592 242.786 377.81 239.122C380.688 237.414 383.421 235.462 385.979 233.287C387.856 234.85 390.207 235.695 392.629 235.679C397.994 235.679 403.125 231.853 405.601 229.7C406.07 229.299 406.126 228.4 405.685 228.4H405.592C401.652 228.4 398.707 225.578 396.85 222.01C408.818 207.002 416.912 187.011 416.912 169.526C416.912 151.209 408.03 140.591 395.115 140.591Z" fill="#216A20"/>
<path d="M375.84 196.883C376.978 194.099 378.284 191.39 379.752 188.771C380.762 186.974 381.683 185.126 382.509 183.233C383.078 181.935 383.381 180.532 383.4 179.11C383.4 177.197 382.837 176.021 381.712 175.562C380.586 175.103 379.104 175.437 377.238 176.518C375.392 177.623 373.777 179.085 372.483 180.823C371.037 182.747 369.857 184.865 368.975 187.116L362.081 185.672C363.623 181.518 365.808 177.643 368.553 174.194C371.238 170.809 374.513 167.959 378.213 165.786C382.59 163.235 386.095 162.438 388.728 163.395C391.36 164.351 392.679 167.087 392.686 171.602C392.698 173.64 392.439 175.67 391.917 177.637C391.454 179.419 390.826 181.152 390.041 182.812C389.3 184.362 388.334 186.208 387.161 188.35C386.025 190.327 384.997 192.368 384.085 194.463C383.456 195.975 383.137 197.602 383.147 199.245L374.546 204.315C374.512 201.776 374.951 199.254 375.84 196.883ZM374.903 221.494C373.861 220.738 373.336 219.38 373.336 217.409C373.359 215.366 373.888 213.362 374.874 211.584C375.77 209.809 377.13 208.323 378.804 207.289C380.408 206.333 381.712 206.237 382.744 206.955C383.775 207.672 384.282 209.011 384.282 210.972C384.25 213.048 383.712 215.083 382.715 216.893C381.841 218.691 380.485 220.2 378.804 221.245C377.294 222.163 376 222.24 374.949 221.494H374.903Z" fill="#455A64"/>
<path d="M177.732 153.313L134.588 178.794L151.724 208.504C152.054 209.305 152.63 209.977 153.365 210.417C155.41 211.593 167.518 218.748 168.184 219.14C168.704 219.446 169.284 219.628 169.882 219.672C170.48 219.716 171.08 219.621 171.637 219.394C172.194 219.168 172.694 218.816 173.098 218.364C173.502 217.913 173.801 217.373 173.971 216.787L192.58 162.094L177.732 153.313Z" fill="#216A20"/>
<path opacity="0.2" d="M177.732 153.313L134.588 178.794L151.724 208.504C152.054 209.305 152.63 209.977 153.365 210.417C155.41 211.593 167.518 218.748 168.184 219.14C168.704 219.446 169.284 219.628 169.882 219.672C170.48 219.716 171.08 219.621 171.637 219.394C172.194 219.168 172.694 218.816 173.098 218.364C173.502 217.913 173.801 217.373 173.971 216.787L192.58 162.094L177.732 153.313Z" fill="black"/>
<path d="M149.436 187.537L166.571 217.246C166.899 218.001 167.446 218.635 168.138 219.062C168.83 219.489 169.635 219.689 170.442 219.635C171.249 219.581 172.021 219.275 172.652 218.759C173.284 218.242 173.744 217.541 173.972 216.749L192.58 162.055L149.436 187.537Z" fill="#216A20"/>
<path d="M225.867 0.93973L63.1648 96.7158C62.074 97.4368 61.1656 98.4105 60.5137 99.5574C59.8617 100.704 59.4846 101.992 59.4131 103.316V218.471C59.4822 219.79 59.8586 221.073 60.511 222.214C61.1635 223.355 62.0732 224.321 63.1648 225.032L76.549 232.685C77.7129 233.282 78.9978 233.593 80.3007 233.593C81.6036 233.593 82.8885 233.282 84.0524 232.685L246.764 136.851C247.853 136.128 248.76 135.154 249.412 134.008C250.064 132.861 250.442 131.574 250.516 130.251V15.0962C250.446 13.7773 250.069 12.4943 249.417 11.3533C248.764 10.2123 247.855 9.24608 246.764 8.53447L233.389 0.88234C232.218 0.292371 230.927 -0.00972715 229.621 0.0002388C228.315 0.0102047 227.029 0.331957 225.867 0.93973Z" fill="#216A20"/>
<path opacity="0.3" d="M250.45 14.398C250.15 12.485 248.621 11.7963 246.754 12.8868L84.0616 108.691C82.953 109.398 82.0445 110.387 81.4261 111.561L60.5947 99.4611C61.2199 98.3568 62.1026 97.427 63.1646 96.7541L225.876 0.93986C227.041 0.344849 228.325 0.0350342 229.628 0.0350342C230.93 0.0350342 232.215 0.344849 233.379 0.93986L246.754 8.59199C247.739 9.23685 248.578 10.0881 249.215 11.0892C249.852 12.0903 250.273 13.2182 250.45 14.398Z" fill="white"/>
<path d="M80.3193 230.886V115.722C80.3908 114.399 80.768 113.113 81.42 111.968C82.072 110.822 82.9804 109.85 84.071 109.131L246.764 13.3744C248.818 12.1596 250.515 13.1448 250.515 15.5743V130.691C250.442 132.014 250.064 133.301 249.412 134.448C248.76 135.594 247.853 136.568 246.764 137.291L84.0523 233.086C81.9888 234.33 80.3193 233.316 80.3193 230.886Z" fill="#216A20"/>
<path opacity="0.2" d="M84.0528 232.646C82.8845 233.229 81.6014 233.531 80.3011 233.531C79.0008 233.531 77.7176 233.229 76.5494 232.646L63.1746 224.994C62.0839 224.287 61.1744 223.324 60.5219 222.186C59.8694 221.048 59.4926 219.768 59.4229 218.452V103.287C59.4894 101.928 59.8998 100.61 60.614 99.4609L81.4266 111.542C80.7406 112.667 80.3587 113.957 80.3198 115.282V230.437C80.3198 232.665 81.858 233.947 84.0528 232.646Z" fill="black"/>
<path d="M125.969 138.678L124.346 137.722C123.725 137.359 123.022 137.168 122.306 137.168C121.591 137.168 120.887 137.359 120.266 137.722L110.352 143.556V129.744L128.707 118.945C129.567 118.428 130.279 117.691 130.772 116.807C131.266 115.922 131.524 114.922 131.521 113.904V106.156C131.524 105.139 131.266 104.138 130.772 103.254C130.279 102.37 129.567 101.633 128.707 101.116C127.839 100.603 126.854 100.334 125.851 100.334C124.849 100.334 123.864 100.603 122.996 101.116L97.5402 116.104C96.0332 116.99 94.782 118.266 93.9125 119.803C93.0431 121.339 92.5862 123.082 92.5879 124.856V196.777C92.5836 197.796 92.8411 198.798 93.3348 199.685C93.8284 200.571 94.5411 201.309 95.4017 201.827C96.2704 202.338 97.2552 202.606 98.2577 202.606C99.2602 202.606 100.245 202.338 101.114 201.827L107.463 198.097C108.324 197.579 109.037 196.84 109.53 195.954C110.024 195.068 110.282 194.066 110.277 193.046V164.829L125.903 155.628C126.522 155.261 127.036 154.735 127.393 154.102C127.75 153.469 127.938 152.752 127.938 152.021V142.303C127.951 141.576 127.776 140.858 127.43 140.221C127.084 139.585 126.58 139.053 125.969 138.678Z" fill="#E0E0E0"/>
<path opacity="0.1" d="M101.695 201.483L101.151 201.808C100.282 202.317 99.2976 202.585 98.2957 202.584C97.2938 202.583 96.3096 202.314 95.4416 201.804C94.5736 201.294 93.8523 200.56 93.3498 199.676C92.8473 198.792 92.5812 197.789 92.5781 196.767V124.846C92.5806 123.176 92.9899 121.533 93.7693 120.064L99.4813 123.421C98.6985 124.889 98.289 126.533 98.2901 128.204V199.455C98.2918 199.861 98.3973 200.259 98.5962 200.611C98.7951 200.963 99.0806 201.256 99.4245 201.46C99.7683 201.665 100.159 201.775 100.557 201.779C100.955 201.783 101.347 201.681 101.695 201.483Z" fill="black"/>
<path d="M110.352 129.744V150.29L125.949 141.117C126.158 140.992 126.396 140.925 126.638 140.924C126.88 140.923 127.118 140.988 127.328 141.111C127.538 141.235 127.712 141.413 127.832 141.627C127.952 141.842 128.015 142.085 128.013 142.332V152.069C128.012 152.796 127.825 153.509 127.47 154.139C127.114 154.768 126.603 155.291 125.987 155.656L110.352 164.858V193.066C110.356 194.082 110.098 195.082 109.604 195.965C109.11 196.847 108.398 197.583 107.538 198.097L101.76 201.502C101.413 201.707 101.019 201.816 100.618 201.816C100.217 201.817 99.8228 201.709 99.4754 201.504C99.1281 201.299 98.8399 201.005 98.64 200.65C98.4401 200.295 98.3355 199.893 98.3369 199.484V128.204C98.3371 126.431 98.7948 124.688 99.664 123.152C100.533 121.616 101.783 120.34 103.289 119.452L128.501 104.607C128.815 104.422 129.171 104.325 129.533 104.325C129.896 104.325 130.252 104.423 130.566 104.608C130.88 104.793 131.14 105.06 131.321 105.38C131.502 105.701 131.597 106.064 131.596 106.434V113.923C131.598 114.937 131.34 115.933 130.846 116.813C130.352 117.693 129.64 118.425 128.782 118.936L110.352 129.744Z" fill="#FAFAFA"/>
<path d="M164.808 86.299C164.519 85.3004 164.012 84.3817 163.324 83.6119C162.637 82.842 161.787 82.2412 160.839 81.8545C159.891 81.4678 158.87 81.3054 157.852 81.3793C156.833 81.4533 155.845 81.7618 154.96 82.2816L148.648 86.0025C147.835 86.4803 147.128 87.1263 146.574 87.8988C146.02 88.6714 145.631 89.5535 145.431 90.4885L126.606 177.895C126.459 178.632 126.542 179.397 126.843 180.083C127.144 180.77 127.648 181.342 128.285 181.721L130.011 182.735C130.546 183.05 131.152 183.216 131.77 183.216C132.387 183.216 132.994 183.05 133.528 182.735L141.135 178.259C142.193 177.597 143.056 176.655 143.63 175.532C144.271 174.399 144.742 173.174 145.027 171.898L148.085 155.962L163.467 146.904L165.061 153.38C165.287 154.224 165.803 154.957 166.515 155.446C167.153 155.828 171.589 158.42 172.227 158.813C172.639 158.992 173.091 159.055 173.535 158.995C173.979 158.934 174.399 158.752 174.75 158.468L184.036 152.997L164.808 86.299ZM152.306 133.962L155.598 116.678L155.795 115.721L159.284 129.849L152.306 133.962Z" fill="#E0E0E0"/>
<path opacity="0.1" d="M172.151 158.765C171.317 158.258 167.133 155.819 166.524 155.446C165.812 154.957 165.296 154.224 165.07 153.38L163.476 146.904L167.734 144.398L170.782 156.737C171.007 157.548 171.488 158.261 172.151 158.765Z" fill="black"/>
<path opacity="0.1" d="M164.995 133.207L159.283 129.84L155.794 115.721C155.794 115.721 155.794 115.721 155.794 115.664C156.094 114.287 156.394 112.718 156.732 110.977C157.135 108.806 157.51 106.491 157.867 104.014C158.273 106.003 158.677 107.837 159.077 109.514C159.48 111.188 159.855 112.622 160.212 113.828L164.995 133.207Z" fill="black"/>
<path opacity="0.1" d="M132.422 180.765C132.371 180.994 132.379 181.233 132.446 181.459C132.513 181.684 132.636 181.887 132.804 182.049C132.971 182.211 133.177 182.326 133.401 182.383C133.625 182.439 133.86 182.435 134.082 182.372V182.448L133.547 182.754C133.012 183.069 132.406 183.235 131.788 183.235C131.171 183.235 130.565 183.069 130.03 182.754L128.285 181.721C127.648 181.343 127.144 180.77 126.843 180.083C126.542 179.397 126.459 178.632 126.606 177.895L145.421 90.527C145.594 89.7187 145.912 88.9501 146.359 88.26L152.071 91.6269C151.618 92.3106 151.3 93.0772 151.133 93.8843L132.422 180.765Z" fill="black"/>
<path d="M184.044 153.026L174.749 158.497C173.708 159.109 172.874 159.224 172.236 158.841C171.525 158.352 171.009 157.619 170.782 156.775L167.734 144.417L148.037 155.981L144.989 171.917C144.695 173.195 144.221 174.422 143.582 175.561C143.011 176.683 142.148 177.623 141.087 178.278L134.362 182.247C134.136 182.378 133.878 182.44 133.618 182.425C133.358 182.41 133.108 182.318 132.898 182.162C132.688 182.005 132.527 181.79 132.434 181.542C132.341 181.294 132.32 181.024 132.374 180.765L151.086 93.8556C151.287 92.9222 151.677 92.042 152.231 91.2712C152.785 90.5004 153.491 89.8559 154.303 89.3791L160.371 85.8017C160.802 85.5481 161.285 85.3976 161.781 85.3616C162.278 85.3256 162.776 85.4049 163.239 85.5937C163.701 85.7825 164.115 86.0757 164.45 86.4514C164.785 86.8271 165.033 87.2754 165.173 87.7626L184.044 153.026ZM164.995 133.226L160.212 113.809C159.855 112.613 159.48 111.169 159.077 109.495C158.673 107.821 158.27 105.984 157.867 103.995C157.52 106.472 157.135 108.777 156.741 110.958C156.347 113.139 155.953 115.014 155.597 116.64L150.851 141.509L164.995 133.226Z" fill="#FAFAFA"/>
<path d="M228.502 119.548C230.14 116.676 231.579 113.691 232.807 110.614C234.076 107.442 235.141 104.189 235.996 100.876C236.859 97.5289 237.517 94.1299 237.966 90.6991C238.426 87.234 238.658 83.7412 238.66 80.2444C238.76 75.1033 238.115 69.9753 236.747 65.0262C235.771 61.3071 233.901 57.8947 231.307 55.0976C230.49 54.2994 229.576 53.6115 228.587 53.0507L222.959 49.722C221.177 48.6687 219.173 48.0683 217.116 47.9715C213.814 47.7802 210.157 48.8675 206.142 51.2333C201.941 53.7492 198.218 57.0151 195.15 60.875C191.766 65.0632 188.917 69.6721 186.671 74.5914C181.837 85.2009 179.315 96.7531 179.28 108.452C179.183 113.601 179.834 118.735 181.212 123.689C182.185 127.42 184.062 130.84 186.671 133.637C187.484 134.46 188.402 135.167 189.4 135.742C190.338 136.277 194.043 138.477 194.962 139.022C196.766 140.087 198.798 140.688 200.88 140.773C204.182 140.939 207.846 139.839 211.873 137.473C213.586 136.464 215.214 135.312 216.741 134.029L219.067 136.755C219.384 137.087 219.744 137.374 220.136 137.607C220.793 137.999 225.463 140.735 225.82 140.955C226.446 141.347 227.178 141.528 227.911 141.471C229.27 141.306 230.574 140.832 231.729 140.084L241.586 134.288L228.502 119.548ZM219.705 95.5391C219.107 98.9138 218.148 102.211 216.844 105.372C215.701 108.173 214.169 110.792 212.295 113.149C210.584 115.299 208.506 117.117 206.161 118.515C204.443 119.65 202.465 120.309 200.421 120.428C199.393 118.729 198.66 116.862 198.254 114.909C197.533 111.529 197.199 108.075 197.26 104.616C197.242 100.786 197.575 96.9628 198.254 93.1957C198.837 89.8229 199.78 86.5254 201.068 83.3627C202.222 80.5493 203.763 77.918 205.645 75.5479C207.368 73.3686 209.466 71.5276 211.835 70.1149C213.523 69.0145 215.463 68.3815 217.463 68.2784C218.502 69.992 219.245 71.8751 219.658 73.8453C220.393 77.23 220.743 80.69 220.699 84.1566C220.71 87.9865 220.377 91.8094 219.705 95.5774V95.5391Z" fill="#E0E0E0"/>
<path opacity="0.1" d="M194.728 138.917C193.536 138.219 190.263 136.277 189.4 135.78C188.402 135.206 187.484 134.498 186.671 133.675C184.062 130.878 182.185 127.458 181.212 123.727C179.834 118.773 179.183 113.639 179.28 108.49C179.28 102.6 179.928 96.7285 181.212 90.9859C182.356 85.7561 184.015 80.6575 186.164 75.7677L191.876 79.1346C187.365 89.4453 185.02 100.605 184.992 111.895C184.894 117.041 185.545 122.173 186.924 127.123C187.895 130.857 189.773 134.281 192.383 137.08C193.096 137.778 193.882 138.394 194.728 138.917Z" fill="black"/>
<path opacity="0.1" d="M222.556 70.7654C222.004 70.0602 221.315 69.4793 220.532 69.0595C219.749 68.6396 218.889 68.39 218.007 68.3263C217.848 68.3263 217.679 68.3263 217.519 68.3263C218.554 70.0379 219.293 71.9175 219.705 73.8837C220.422 77.2577 220.755 80.7047 220.699 84.1566C220.714 88.0057 220.381 91.848 219.705 95.6348C219.107 99.0095 218.148 102.307 216.844 105.468C215.701 108.269 214.169 110.888 212.295 113.244C210.584 115.395 208.506 117.213 206.161 118.61C204.443 119.745 202.465 120.405 200.421 120.523C200.625 120.859 200.854 121.179 201.106 121.48C201.656 122.191 202.349 122.773 203.139 123.187C203.928 123.601 204.796 123.838 205.683 123.881C207.884 123.87 210.035 123.205 211.873 121.968C214.218 120.57 216.296 118.752 218.007 116.602C219.877 114.242 221.408 111.624 222.556 108.825C223.861 105.661 224.821 102.361 225.417 98.9827C226.093 95.1959 226.426 91.3536 226.411 87.5045C226.465 84.0621 226.132 80.6248 225.417 77.2602C224.97 74.8984 223.99 72.6749 222.556 70.7654Z" fill="black"/>
<path opacity="0.1" d="M218.364 132.633C217.829 133.13 217.295 133.589 216.741 134.067L219.067 136.794C219.384 137.125 219.744 137.412 220.137 137.645C220.774 138.027 225.173 140.6 225.764 140.964C225.401 140.737 225.067 140.463 224.77 140.151L218.364 132.633Z" fill="black"/>
<path d="M241.587 134.326L231.729 140.132C230.575 140.871 229.275 141.342 227.921 141.509C227.331 141.539 226.742 141.432 226.198 141.197C225.654 140.962 225.169 140.604 224.779 140.151L218.364 132.633C216.381 134.494 214.204 136.13 211.873 137.511C207.847 139.877 204.182 140.977 200.881 140.811C197.684 140.691 194.649 139.345 192.383 137.042C189.776 134.241 187.9 130.817 186.925 127.085C185.554 122.146 184.903 117.028 184.992 111.895C185.028 100.196 187.549 88.6443 192.383 78.0348C194.634 73.1045 197.489 68.4858 200.881 64.2896C203.951 60.4319 207.674 57.1664 211.873 54.6479C215.888 52.2758 219.546 51.1885 222.847 51.3862C226.031 51.5413 229.042 52.9062 231.289 55.2123C233.888 58.0092 235.758 61.4261 236.728 65.1505C238.105 70.0819 238.756 75.1944 238.661 80.3208C238.662 83.8174 238.433 87.3102 237.976 90.7756C237.518 94.222 236.854 97.6367 235.988 101.001C235.129 104.311 234.061 107.56 232.789 110.729C231.564 113.807 230.126 116.793 228.484 119.662L241.587 134.326ZM197.261 104.674C197.2 108.135 197.534 111.592 198.255 114.975C198.697 117.324 199.659 119.539 201.069 121.451C201.622 122.158 202.317 122.737 203.105 123.15C203.894 123.564 204.76 123.803 205.646 123.852C207.847 123.84 209.998 123.175 211.836 121.939C214.181 120.541 216.259 118.723 217.97 116.573C219.843 114.214 221.378 111.596 222.528 108.796C223.817 105.631 224.761 102.33 225.342 98.9538C226.024 95.1677 226.357 91.3249 226.336 87.4756C226.395 84.0331 226.062 80.5952 225.342 77.2313C224.902 74.8816 223.94 72.6662 222.528 70.7557C221.975 70.0502 221.284 69.4692 220.5 69.0494C219.715 68.6296 218.854 68.3801 217.97 68.3166C215.792 68.2983 213.658 68.9373 211.836 70.1531C209.464 71.5592 207.366 73.3975 205.646 75.5765C203.767 77.9489 202.226 80.5798 201.069 83.3913C199.785 86.5556 198.841 89.8525 198.255 93.2243C197.577 96.9883 197.244 100.809 197.261 104.636V104.674Z" fill="#FAFAFA"/>
</g>
<defs>
<filter id="filter0_d_204_67092" x="0" y="0" width="448" height="448" filterUnits="userSpaceOnUse" color-interpolation-filters="sRGB">
<feFlood flood-opacity="0" result="BackgroundImageFix"/>
<feColorMatrix in="SourceAlpha" type="matrix" values="0 0 0 0 0 0 0 0 0 0 0 0 0 0 0 0 0 0 127 0" result="hardAlpha"/>
<feOffset dy="4"/>
<feGaussianBlur stdDeviation="2"/>
<feComposite in2="hardAlpha" operator="out"/>
<feColorMatrix type="matrix" values="0 0 0 0 0 0 0 0 0 0 0 0 0 0 0 0 0 0 0.5 0"/>
<feBlend mode="normal" in2="BackgroundImageFix" result="effect1_dropShadow_204_67092"/>
<feBlend mode="normal" in="SourceGraphic" in2="effect1_dropShadow_204_67092" result="shape"/>
</filter>
</defs>
</svg>
