<svg width="18" height="17" viewBox="0 0 18 17" fill="none" xmlns="http://www.w3.org/2000/svg">
<path d="M6.81818 16.5V10.935H11.1818V16.5H17V8.15246C17.0001 8.06108 16.9813 7.97058 16.9448 7.88614C16.9083 7.80169 16.8548 7.72495 16.7873 7.6603L9.51455 0.704018C9.447 0.639341 9.36679 0.588033 9.2785 0.553026C9.19021 0.518019 9.09557 0.5 9 0.5C8.90443 0.5 8.80979 0.518019 8.7215 0.553026C8.63321 0.588033 8.553 0.639341 8.48545 0.704018L1.21273 7.6603C1.14521 7.72495 1.09167 7.80169 1.05517 7.88614C1.01867 7.97058 0.999925 8.06108 1 8.15246V16.5H6.81818Z" stroke="#FFC93D" stroke-linecap="round" stroke-linejoin="round"/>
</svg>
