<svg width="48" height="48" viewBox="0 0 48 48" fill="none" xmlns="http://www.w3.org/2000/svg">
<path d="M33.4989 13.939C33.2088 13.939 32.9913 13.7818 32.9913 13.5722C32.9913 13.3626 33.2088 13.2054 33.4989 13.2054C33.7889 13.2054 34.0064 13.3626 34.0064 13.5722C34.0064 13.7294 33.7889 13.939 33.4989 13.939ZM3.69824 30.76C3.69824 22.6901 12.8342 16.1923 24.0004 16.1923C35.1665 16.1923 44.3025 22.7425 44.3025 30.76C44.3025 38.7775 35.1665 45.3277 24.0004 45.3277C12.8342 45.3277 3.69824 38.7775 3.69824 30.76ZM31.9762 8.48925C32.4837 8.59405 32.7738 8.90846 32.6288 9.27527C32.4837 9.64209 32.0487 9.85169 31.5411 9.74689C31.0336 9.64209 30.7436 9.32767 30.8886 8.96086C31.0336 8.59405 31.4686 8.38444 31.9762 8.48925ZM32.7738 7.1792C33.0638 7.1792 33.2813 7.33641 33.2813 7.54602C33.2813 7.75562 33.0638 7.91283 32.7738 7.91283C32.4837 7.91283 32.2662 7.75562 32.2662 7.54602C32.2662 7.33641 32.5563 7.1792 32.7738 7.1792ZM32.4112 5.86916C32.7013 5.86916 32.9188 6.02636 32.9188 6.23597C32.9188 6.44558 32.7013 6.60278 32.4112 6.60278C32.1212 6.60278 31.9037 6.44558 31.9037 6.23597C31.9037 6.02636 32.1212 5.86916 32.4112 5.86916ZM38.6469 9.32767C38.9369 9.32767 39.1544 9.48488 39.1544 9.69449C39.1544 9.90409 38.9369 10.0613 38.6469 10.0613C38.3569 10.0613 38.1393 9.90409 38.1393 9.69449C38.1393 9.48488 38.3569 9.32767 38.6469 9.32767ZM38.2118 8.01763C38.5019 8.01763 38.7194 8.17484 38.7194 8.38444C38.7194 8.59405 38.5019 8.75126 38.2118 8.75126C37.9218 8.75126 37.7043 8.59405 37.7043 8.38444C37.7043 8.17484 37.9218 8.01763 38.2118 8.01763ZM37.4868 6.86479C37.7768 6.86479 37.9943 7.022 37.9943 7.23161C37.9943 7.44121 37.7768 7.59842 37.4868 7.59842C37.1967 7.59842 36.9792 7.44121 36.9792 7.23161C36.9792 7.022 37.1967 6.86479 37.4868 6.86479ZM36.2541 5.86916C36.5442 5.86916 36.7617 6.02636 36.7617 6.23597C36.7617 6.44558 36.5442 6.60278 36.2541 6.60278C35.9641 6.60278 35.7466 6.44558 35.7466 6.23597C35.7466 6.02636 35.9641 5.86916 36.2541 5.86916ZM34.804 5.08313C35.094 5.08313 35.3115 5.24034 35.3115 5.44995C35.3115 5.65955 35.094 5.81676 34.804 5.81676C34.514 5.81676 34.2964 5.65955 34.2964 5.44995C34.2964 5.24034 34.514 5.08313 34.804 5.08313ZM33.2088 4.66392C33.4988 4.66392 33.7164 4.82113 33.7164 5.03073C33.7164 5.24034 33.4988 5.39754 33.2088 5.39754C32.9188 5.39754 32.7013 5.24034 32.7013 5.03073C32.7013 4.82113 32.9188 4.66392 33.2088 4.66392ZM31.6137 4.76872C31.9037 4.76872 32.1212 4.92593 32.1212 5.13554C32.1212 5.34514 31.9037 5.50235 31.6137 5.50235C31.3236 5.50235 31.1061 5.34514 31.1061 5.13554C31.1061 4.92593 31.3236 4.76872 31.6137 4.76872ZM30.381 3.77309C30.6711 3.77309 30.8886 3.9303 30.8886 4.1399C30.8886 4.34951 30.6711 4.50671 30.381 4.50671C30.091 4.50671 29.8735 4.34951 29.8735 4.1399C29.8735 3.9303 30.1635 3.77309 30.381 3.77309ZM28.8584 3.03947C29.1484 3.03947 29.3659 3.19667 29.3659 3.40628C29.3659 3.61588 29.1484 3.77309 28.8584 3.77309C28.5683 3.77309 28.3508 3.61588 28.3508 3.40628C28.3508 3.19667 28.5683 3.03947 28.8584 3.03947ZM27.2632 2.62025C27.5532 2.62025 27.7708 2.77746 27.7708 2.98706C27.7708 3.19667 27.5532 3.35388 27.2632 3.35388C26.9732 3.35388 26.7556 3.19667 26.7556 2.98706C26.7556 2.77746 26.9732 2.62025 27.2632 2.62025ZM25.5955 2.41064C25.8856 2.41064 26.1031 2.56785 26.1031 2.77746C26.1031 2.98706 25.8856 3.14427 25.5955 3.14427C25.3055 3.14427 25.088 2.98706 25.088 2.77746C25.088 2.56785 25.3055 2.41064 25.5955 2.41064ZM10.0064 11.9478C9.57135 12.105 8.99129 12.0002 8.77377 11.6858C8.55625 11.3713 8.70126 10.9521 9.13631 10.7949C9.57135 10.6377 10.1514 10.7425 10.3689 11.0569C10.5865 11.3713 10.4414 11.7382 10.0064 11.9478ZM16.4596 9.74689C15.952 9.85169 15.517 9.64209 15.372 9.27527C15.2269 8.90846 15.517 8.59405 16.0245 8.48925C16.5321 8.38444 17.0396 8.59405 17.1121 8.96086C17.2572 9.27527 16.9671 9.64209 16.4596 9.74689ZM24.0004 9.06567C23.4928 9.06567 23.0578 8.75126 23.0578 8.43685C23.0578 8.07003 23.4928 7.80802 24.0004 7.80802C24.5079 7.80802 24.943 8.12243 24.943 8.43685C24.943 8.75126 24.5079 9.06567 24.0004 9.06567ZM15.2269 7.91283C14.9369 7.91283 14.7194 7.75562 14.7194 7.54602C14.7194 7.33641 14.9369 7.1792 15.2269 7.1792C15.517 7.1792 15.7345 7.33641 15.7345 7.54602C15.7345 7.75562 15.517 7.91283 15.2269 7.91283ZM15.662 6.60278C15.372 6.60278 15.1544 6.44558 15.1544 6.23597C15.1544 6.02636 15.372 5.86916 15.662 5.86916C15.952 5.86916 16.1695 6.02636 16.1695 6.23597C16.1695 6.44558 15.8795 6.60278 15.662 6.60278ZM9.35383 10.0613C9.0638 10.0613 8.84628 9.90409 8.84628 9.69449C8.84628 9.48488 9.0638 9.32767 9.35383 9.32767C9.64386 9.32767 9.86138 9.48488 9.86138 9.69449C9.86138 9.90409 9.64386 10.0613 9.35383 10.0613ZM9.78888 8.75126C9.49885 8.75126 9.28132 8.59405 9.28132 8.38444C9.28132 8.17484 9.49885 8.01763 9.78888 8.01763C10.0789 8.01763 10.2964 8.17484 10.2964 8.38444C10.2964 8.59405 10.0789 8.75126 9.78888 8.75126ZM10.514 7.59842C10.2239 7.59842 10.0064 7.44121 10.0064 7.23161C10.0064 7.022 10.2239 6.86479 10.514 6.86479C10.804 6.86479 11.0215 7.022 11.0215 7.23161C11.0215 7.44121 10.804 7.59842 10.514 7.59842ZM11.7466 6.60278C11.4566 6.60278 11.239 6.44558 11.239 6.23597C11.239 6.02636 11.4566 5.86916 11.7466 5.86916C12.0366 5.86916 12.2541 6.02636 12.2541 6.23597C12.2541 6.44558 12.0366 6.60278 11.7466 6.60278ZM13.1967 5.81676C12.9067 5.81676 12.6892 5.65955 12.6892 5.44995C12.6892 5.24034 12.9067 5.08313 13.1967 5.08313C13.4868 5.08313 13.7043 5.24034 13.7043 5.44995C13.7043 5.65955 13.4868 5.81676 13.1967 5.81676ZM14.7919 5.39754C14.5019 5.39754 14.2843 5.24034 14.2843 5.03073C14.2843 4.82113 14.5019 4.66392 14.7919 4.66392C15.0819 4.66392 15.2995 4.82113 15.2995 5.03073C15.2995 5.24034 15.0819 5.39754 14.7919 5.39754ZM16.3871 5.50235C16.097 5.50235 15.8795 5.34514 15.8795 5.13554C15.8795 4.92593 16.097 4.76872 16.3871 4.76872C16.6771 4.76872 16.8946 4.92593 16.8946 5.13554C16.8946 5.34514 16.6771 5.50235 16.3871 5.50235ZM17.6197 4.50671C17.3297 4.50671 17.1121 4.34951 17.1121 4.1399C17.1121 3.9303 17.3297 3.77309 17.6197 3.77309C17.9097 3.77309 18.1272 3.9303 18.1272 4.1399C18.1272 4.34951 17.9097 4.50671 17.6197 4.50671ZM19.1424 3.77309C18.8523 3.77309 18.6348 3.61588 18.6348 3.40628C18.6348 3.19667 18.8523 3.03947 19.1424 3.03947C19.4324 3.03947 19.6499 3.19667 19.6499 3.40628C19.6499 3.61588 19.4324 3.77309 19.1424 3.77309ZM20.7375 3.35388C20.4475 3.35388 20.23 3.19667 20.23 2.98706C20.23 2.77746 20.4475 2.62025 20.7375 2.62025C21.0275 2.62025 21.2451 2.77746 21.2451 2.98706C21.2451 3.19667 21.0275 3.35388 20.7375 3.35388ZM24.0004 6.86479C23.7103 6.86479 23.4928 6.70759 23.4928 6.49798C23.4928 6.28837 23.7103 6.13117 24.0004 6.13117C24.2904 6.13117 24.5079 6.28837 24.5079 6.49798C24.5079 6.70759 24.2904 6.86479 24.0004 6.86479ZM24.0004 5.55475C23.7103 5.55475 23.4928 5.39754 23.4928 5.18794C23.4928 4.97833 23.7103 4.82112 24.0004 4.82112C24.2904 4.82112 24.5079 4.97833 24.5079 5.18794C24.5079 5.39754 24.2904 5.55475 24.0004 5.55475ZM24.0004 4.24471C23.7103 4.24471 23.4928 4.0875 23.4928 3.87789C23.4928 3.66829 23.7103 3.51108 24.0004 3.51108C24.2904 3.51108 24.5079 3.66829 24.5079 3.87789C24.5079 4.0875 24.2904 4.24471 24.0004 4.24471ZM22.4052 3.14427C22.1152 3.14427 21.8976 2.98706 21.8976 2.77746C21.8976 2.56785 22.1152 2.41064 22.4052 2.41064C22.6952 2.41064 22.9127 2.56785 22.9127 2.77746C22.9127 2.98706 22.6952 3.14427 22.4052 3.14427ZM38.8644 10.7949C39.2995 10.9521 39.4445 11.3713 39.2269 11.6858C39.0094 12.0002 38.4294 12.105 37.9943 11.9478C37.5593 11.7906 37.4143 11.3713 37.6318 11.0569C37.8493 10.7425 38.4294 10.6377 38.8644 10.7949ZM27.2632 12.6814C26.9732 12.6814 26.7556 12.5242 26.7556 12.3146C26.7556 12.105 26.9732 11.9478 27.2632 11.9478C27.5532 11.9478 27.7708 12.105 27.7708 12.3146C27.7708 12.5242 27.5532 12.6814 27.2632 12.6814ZM14.5019 13.939C14.2118 13.939 13.9943 13.7818 13.9943 13.5722C13.9943 13.3626 14.2118 13.2054 14.5019 13.2054C14.7919 13.2054 15.0094 13.3626 15.0094 13.5722C15.0094 13.7294 14.7919 13.939 14.5019 13.939ZM20.7375 12.6814C20.4475 12.6814 20.23 12.5242 20.23 12.3146C20.23 12.105 20.4475 11.9478 20.7375 11.9478C21.0275 11.9478 21.2451 12.105 21.2451 12.3146C21.2451 12.5242 21.0275 12.6814 20.7375 12.6814Z" fill="white"/>
<path d="M27.7703 10.061C27.9153 10.2707 28.0603 10.4279 28.2779 10.5851C27.8428 10.5327 27.3353 10.4803 26.9002 10.4803C27.1902 10.3755 27.4078 10.2183 27.5528 10.061C27.6253 10.061 27.6978 10.061 27.7703 10.061ZM20.2295 10.061C20.302 10.061 20.3745 10.061 20.447 10.061C20.5921 10.2183 20.8821 10.3755 21.0996 10.4803C20.6646 10.5327 20.157 10.5327 19.722 10.5851C19.9395 10.4803 20.157 10.2707 20.2295 10.061ZM17.5467 10.8995C17.1117 10.9519 16.7492 11.0567 16.3141 11.1091C16.5316 10.8995 16.6766 10.6899 16.6766 10.4279C16.9667 10.6375 17.2567 10.7947 17.5467 10.8995ZM12.9062 11.9999C13.0513 11.8427 13.1238 11.6855 13.1963 11.5283H13.2688C13.4138 11.5283 13.4863 11.4759 13.6313 11.4235C13.8488 11.5283 14.0664 11.5807 14.2839 11.6331C13.7763 11.7379 13.3413 11.8951 12.9062 11.9999ZM23.9999 9.79904C24.1449 10.061 24.3624 10.2707 24.6525 10.4279C24.435 10.4279 24.2174 10.4279 23.9999 10.4279C23.7824 10.4279 23.5649 10.4279 23.3473 10.4279C23.6374 10.2183 23.8549 10.0086 23.9999 9.79904ZM34.441 11.4235C34.5135 11.4759 34.6585 11.5283 34.8035 11.5283H34.876C34.9485 11.6855 35.0211 11.8427 35.1661 11.9999C34.731 11.8951 34.296 11.7379 33.8609 11.6331C34.0059 11.5807 34.2235 11.5283 34.441 11.4235ZM31.6857 11.1615C31.3232 11.1091 30.8881 11.0043 30.4531 10.9519C30.7431 10.8471 31.0331 10.6899 31.2507 10.4803C31.3232 10.6899 31.4682 10.9519 31.6857 11.1615ZM33.2809 8.33179C33.6434 8.22699 33.8609 8.01738 33.9334 7.75537C34.441 7.86017 35.0936 7.96498 35.6011 8.06978C36.0362 8.17458 36.4712 8.38419 36.6887 8.5414C36.9788 9.06541 37.1238 9.64183 37.1963 10.3231C36.8337 10.4279 36.6887 10.6899 36.5437 10.8995C36.3262 11.2663 36.3262 11.6331 36.9063 11.9475C36.3987 11.9475 35.9637 11.6855 35.9637 11.3711V11.3187C36.0362 11.2139 36.1087 11.1091 36.1812 11.0043C36.3262 10.5851 35.9637 10.1134 35.3836 10.0086C34.8035 9.90384 34.151 10.1659 34.0059 10.5851C34.0059 10.6375 34.0059 10.6899 34.0059 10.7423C33.4984 11.2139 32.4833 10.9519 32.4108 10.3755C33.3534 10.5327 33.7884 10.1659 33.9334 9.69424C34.0785 9.32742 34.0059 8.90821 33.4259 8.6986C33.3534 8.5414 33.2809 8.43659 33.2809 8.33179Z" fill="#E62644"/>
<path d="M17.1849 6.70763C18.9976 5.97401 21.3178 5.8692 23.203 6.07881V6.18361C22.913 6.49802 22.9855 6.91724 23.4205 7.12684C23.058 7.23165 22.8405 7.38885 22.6954 7.70326C22.0429 7.80807 21.8254 8.17488 21.8254 8.59409C21.8254 9.06571 22.1154 9.48492 23.058 9.53732C23.203 9.85173 22.9855 10.2709 22.4779 10.3758C22.0429 10.4806 21.4628 10.3233 21.3178 9.95654C21.2453 9.79933 21.2453 9.69453 21.3178 9.53732C21.4628 9.11811 21.1003 8.64649 20.5202 8.54169C20.4477 8.54169 20.3027 8.48929 20.2302 8.48929C19.5776 8.48929 19.0701 8.8561 19.0701 9.32772C19.0701 9.48492 19.1426 9.58973 19.2151 9.69453C19.2151 9.95654 18.925 10.2185 18.5625 10.2709C18.2 10.3233 17.7649 10.2185 17.5474 10.0089C18.49 9.79933 18.5625 9.38012 18.4175 8.9085C18.2725 8.54169 17.9825 8.17488 17.2574 8.22728C17.1849 8.07008 16.9673 7.96527 16.7498 7.86047C16.8948 7.38885 16.9673 7.02204 17.1849 6.70763ZM24.8707 6.02641C26.6834 5.8168 29.0761 5.97401 30.8888 6.65523C31.0338 7.02204 31.1788 7.38885 31.2513 7.75566C31.0338 7.80807 30.8888 7.96527 30.7438 8.12248C30.0187 8.12248 29.7287 8.43689 29.5837 8.8037C29.4386 9.27531 29.5112 9.69453 30.4538 9.90414C30.4538 10.2709 30.0912 10.5854 29.5837 10.5854C29.0761 10.5854 28.6411 10.3233 28.6411 9.95654C28.6411 9.85173 28.6411 9.69453 28.7861 9.58973C28.8586 9.48492 28.9311 9.32772 28.9311 9.22291C28.9311 8.7513 28.4235 8.38449 27.771 8.38449C27.1184 8.38449 26.6109 8.7513 26.6109 9.22291C26.6109 9.27532 26.6109 9.38012 26.6109 9.43252C26.4658 9.74693 25.9583 9.95654 25.4507 9.85173C25.1607 9.79933 25.0157 9.64213 24.8707 9.43252C25.8133 9.38012 26.1033 9.01331 26.1033 8.48929C26.1033 8.07008 25.8858 7.70326 25.2332 7.59846C25.1607 7.28405 24.8707 7.07444 24.5081 7.02204C24.8707 6.81243 25.0157 6.39322 24.7257 6.07881L24.8707 6.02641ZM12.4719 8.07007C12.9794 7.91287 13.5595 7.80807 14.1396 7.75566C14.2121 8.01767 14.4296 8.22728 14.7921 8.33208C14.7196 8.43689 14.7196 8.54169 14.7196 8.64649C14.067 8.8561 14.067 9.27532 14.2121 9.64213C14.3571 10.1137 14.7921 10.4282 15.7347 10.3234C15.7347 10.8998 14.6471 11.1618 14.1396 10.6902C14.1396 10.6378 14.1396 10.5854 14.1396 10.533C13.9945 10.1137 13.342 9.85173 12.7619 9.95654C12.1818 10.0613 11.8193 10.4806 11.9643 10.9522C12.0368 11.057 12.1093 11.2142 12.1818 11.2666C12.1818 11.5286 12.0368 11.7382 11.7468 11.843C11.6018 11.8954 11.4568 11.9478 11.2392 11.8954C11.8193 11.6334 11.8193 11.2142 11.6018 10.8474C11.4568 10.5854 11.2392 10.3758 10.9492 10.2709C11.0217 9.58973 11.1667 8.96091 11.4568 8.48929C11.6018 8.38449 11.9643 8.17488 12.4719 8.07007ZM25.5957 12.2098L24.0006 12.629L22.4054 12.2098L24.0006 11.7906L25.5957 12.2098ZM13.487 13.7819L13.342 14.2011L13.2695 14.3583L13.1244 14.3059L12.6169 14.0963L12.7619 13.7295V13.6247L12.9794 13.6771L13.487 13.7819ZM34.5867 13.7819L35.2393 13.6247V13.7295L35.3843 14.1487L34.8767 14.3583L34.8042 14.4107L34.7317 14.2535L34.5867 13.7819Z" fill="#E62644"/>
<path d="M31.6853 11.1616C31.4678 10.952 31.3228 10.7424 31.3228 10.4804C31.1053 10.69 30.8152 10.8472 30.5252 10.952C30.8878 11.0044 31.2503 11.0568 31.6853 11.1616ZM34.4406 11.4236C34.2231 11.5284 34.0056 11.5808 33.7881 11.6332C34.2231 11.738 34.6581 11.8428 35.0932 12C34.9482 11.8428 34.8757 11.6856 34.8032 11.5284C34.6581 11.5284 34.5131 11.476 34.4406 11.4236ZM23.9995 9.79915C23.8545 10.0612 23.637 10.2708 23.347 10.428C23.5645 10.428 23.782 10.428 23.9995 10.428C24.2171 10.428 24.4346 10.428 24.6521 10.428C24.3621 10.2184 24.1446 10.0088 23.9995 9.79915ZM12.9059 12C13.3409 11.8952 13.776 11.738 14.211 11.6332C13.9935 11.5808 13.776 11.5284 13.5584 11.4236C13.4859 11.476 13.3409 11.5284 13.1959 11.5284H13.1234C13.1234 11.6856 13.0509 11.8428 12.9059 12ZM17.5464 10.8996C17.2563 10.7948 16.9663 10.6376 16.7488 10.428C16.7488 10.69 16.6038 10.952 16.3862 11.1092C16.7488 11.0568 17.1838 11.0044 17.5464 10.8996ZM20.2291 10.0612C20.1566 10.2708 19.9391 10.428 19.7216 10.5852C20.1566 10.5328 20.6642 10.4804 21.0992 10.4804C20.8092 10.3756 20.5917 10.2184 20.4467 10.0612C20.3742 10.0612 20.3017 10.0612 20.2291 10.0612ZM27.7699 10.0612C27.6974 10.0612 27.6249 10.0612 27.5524 10.0612C27.4074 10.2184 27.1174 10.3756 26.8998 10.4804C27.3349 10.5328 27.8424 10.5328 28.2775 10.5852C28.06 10.4804 27.9149 10.3232 27.7699 10.0612ZM38.8636 10.7948C38.4285 10.6376 37.8485 10.7424 37.631 11.0568C37.4134 11.3712 37.5585 11.7904 37.9935 11.9476C38.4285 12.1048 39.0086 12 39.2261 11.6856C39.4436 11.3712 39.2986 10.952 38.8636 10.7948ZM31.9754 8.48911C31.4678 8.3843 31.0328 8.59391 30.8878 8.96072C30.7427 9.32753 31.0328 9.64194 31.5403 9.74675C32.0479 9.85155 32.5554 9.64194 32.6279 9.27513C32.7729 8.90832 32.4829 8.54151 31.9754 8.48911ZM32.773 7.17906C32.4829 7.17906 32.2654 7.33627 32.2654 7.54587C32.2654 7.75548 32.4829 7.91269 32.773 7.91269C33.063 7.91269 33.2805 7.75548 33.2805 7.54587C33.2805 7.33627 33.063 7.17906 32.773 7.17906ZM32.4104 5.86902C32.1204 5.86902 31.9029 6.02622 31.9029 6.23583C31.9029 6.44544 32.1204 6.60264 32.4104 6.60264C32.7004 6.60264 32.918 6.44544 32.918 6.23583C32.918 6.07862 32.7004 5.92142 32.4104 5.86902ZM38.6461 9.32753C38.356 9.32753 38.1385 9.48474 38.1385 9.69435C38.1385 9.90395 38.356 10.0612 38.6461 10.0612C38.9361 10.0612 39.1536 9.90395 39.1536 9.69435C39.1536 9.48474 38.9361 9.32753 38.6461 9.32753ZM38.211 8.01749C37.921 8.01749 37.7035 8.17469 37.7035 8.3843C37.7035 8.59391 37.921 8.75111 38.211 8.75111C38.501 8.75111 38.7186 8.59391 38.7186 8.3843C38.7186 8.17469 38.501 8.01749 38.211 8.01749ZM37.4859 6.86465C37.1959 6.86465 36.9784 7.02186 36.9784 7.23146C36.9784 7.44107 37.1959 7.59828 37.4859 7.59828C37.776 7.59828 37.9935 7.44107 37.9935 7.23146C37.9935 7.02186 37.7035 6.86465 37.4859 6.86465ZM36.2533 5.86902C35.9633 5.86902 35.7458 6.02622 35.7458 6.23583C35.7458 6.44544 35.9633 6.60264 36.2533 6.60264C36.5433 6.60264 36.7609 6.44544 36.7609 6.23583C36.7609 6.02622 36.5433 5.86902 36.2533 5.86902ZM34.8032 5.08299C34.5131 5.08299 34.2956 5.2402 34.2956 5.4498C34.2956 5.65941 34.5131 5.81662 34.8032 5.81662C35.0932 5.81662 35.3107 5.65941 35.3107 5.4498C35.3107 5.2402 35.0932 5.08299 34.8032 5.08299ZM33.208 4.66378C32.918 4.66378 32.7004 4.82098 32.7004 5.03059C32.7004 5.2402 32.918 5.3974 33.208 5.3974C33.498 5.3974 33.7155 5.2402 33.7155 5.03059C33.7155 4.82098 33.498 4.66378 33.208 4.66378ZM31.6128 4.76858C31.3228 4.76858 31.1053 4.92579 31.1053 5.13539C31.1053 5.345 31.3228 5.5022 31.6128 5.5022C31.9029 5.5022 32.1204 5.345 32.1204 5.13539C32.1204 4.92579 31.9029 4.76858 31.6128 4.76858ZM30.3802 3.77295C30.0902 3.77295 29.8726 3.93015 29.8726 4.13976C29.8726 4.34937 30.0902 4.50657 30.3802 4.50657C30.6702 4.50657 30.8878 4.34937 30.8878 4.13976C30.8878 3.93015 30.6702 3.77295 30.3802 3.77295ZM28.8575 3.03932C28.5675 3.03932 28.35 3.19653 28.35 3.40614C28.35 3.61574 28.5675 3.77295 28.8575 3.77295C29.1476 3.77295 29.3651 3.61574 29.3651 3.40614C29.3651 3.19653 29.1476 3.03932 28.8575 3.03932ZM27.2624 2.62011C26.9723 2.62011 26.7548 2.77731 26.7548 2.98692C26.7548 3.19653 26.9723 3.35373 27.2624 3.35373C27.5524 3.35373 27.7699 3.19653 27.7699 2.98692C27.7699 2.77731 27.5524 2.62011 27.2624 2.62011ZM25.5947 2.4105C25.3047 2.4105 25.0871 2.56771 25.0871 2.77731C25.0871 2.98692 25.3047 3.14413 25.5947 3.14413C25.8847 3.14413 26.1023 2.98692 26.1023 2.77731C26.1023 2.56771 25.8847 2.4105 25.5947 2.4105ZM10.0056 11.9476C10.4406 11.7904 10.5856 11.3712 10.3681 11.0568C10.1506 10.7424 9.57053 10.6376 9.13549 10.7948C8.70044 10.952 8.55543 11.3712 8.77295 11.6856C8.99047 12 9.57053 12.1048 10.0056 11.9476ZM16.4588 9.74675C16.9663 9.64194 17.2563 9.32753 17.1113 8.96072C16.9663 8.59391 16.4587 8.3843 16.0237 8.48911C15.5162 8.59391 15.2261 8.90832 15.3711 9.27513C15.5162 9.64194 16.0237 9.85155 16.4588 9.74675ZM23.9995 9.06552C24.5071 9.06552 24.9421 8.75111 24.9421 8.4367C24.9421 8.06989 24.5071 7.80788 23.9995 7.80788C23.492 7.80788 23.0569 8.12229 23.0569 8.4367C23.1294 8.75111 23.492 9.06552 23.9995 9.06552ZM15.2261 7.91269C15.5162 7.91269 15.7337 7.75548 15.7337 7.54587C15.7337 7.33627 15.5162 7.17906 15.2261 7.17906C14.9361 7.17906 14.7186 7.33627 14.7186 7.54587C14.7186 7.75548 14.9361 7.91269 15.2261 7.91269ZM15.6612 6.60264C15.9512 6.60264 16.1687 6.44544 16.1687 6.23583C16.1687 6.02622 15.9512 5.86902 15.6612 5.86902C15.3711 5.86902 15.1536 6.02622 15.1536 6.23583C15.1536 6.44544 15.3711 6.60264 15.6612 6.60264ZM9.35301 10.0612C9.64304 10.0612 9.86056 9.90395 9.86056 9.69435C9.86056 9.48474 9.64304 9.32753 9.35301 9.32753C9.06298 9.32753 8.84546 9.48474 8.84546 9.69435C8.84546 9.90395 9.13549 10.0612 9.35301 10.0612ZM9.78805 8.75111C10.0781 8.75111 10.2956 8.59391 10.2956 8.3843C10.2956 8.17469 10.0781 8.01749 9.78805 8.01749C9.49802 8.01749 9.2805 8.17469 9.2805 8.3843C9.2805 8.59391 9.49802 8.75111 9.78805 8.75111ZM10.5131 7.59828C10.8032 7.59828 11.0207 7.44107 11.0207 7.23146C11.0207 7.02186 10.8032 6.86465 10.5131 6.86465C10.2231 6.86465 10.0056 7.02186 10.0056 7.23146C10.0056 7.44107 10.2956 7.59828 10.5131 7.59828ZM11.7458 6.60264C12.0358 6.60264 12.2533 6.44544 12.2533 6.23583C12.2533 6.02622 12.0358 5.86902 11.7458 5.86902C11.4557 5.86902 11.2382 6.02622 11.2382 6.23583C11.2382 6.44544 11.4557 6.60264 11.7458 6.60264ZM13.1959 5.81662C13.4859 5.81662 13.7035 5.65941 13.7035 5.4498C13.7035 5.2402 13.4859 5.08299 13.1959 5.08299C12.9059 5.08299 12.6884 5.2402 12.6884 5.4498C12.6884 5.65941 12.9059 5.81662 13.1959 5.81662ZM14.7911 5.3974C15.0811 5.3974 15.2986 5.2402 15.2986 5.03059C15.2986 4.82098 15.0811 4.66378 14.7911 4.66378C14.501 4.66378 14.2835 4.82098 14.2835 5.03059C14.2835 5.2402 14.501 5.3974 14.7911 5.3974ZM16.3862 5.5022C16.6763 5.5022 16.8938 5.345 16.8938 5.13539C16.8938 4.92579 16.6763 4.76858 16.3862 4.76858C16.0962 4.76858 15.8787 4.92579 15.8787 5.13539C15.8787 5.345 16.1687 5.5022 16.3862 5.5022ZM17.6189 4.50657C17.9089 4.50657 18.1264 4.34937 18.1264 4.13976C18.1264 3.93015 17.9089 3.77295 17.6189 3.77295C17.3288 3.77295 17.1113 3.93015 17.1113 4.13976C17.1113 4.34937 17.3288 4.50657 17.6189 4.50657ZM19.1415 3.77295C19.4316 3.77295 19.6491 3.61574 19.6491 3.40614C19.6491 3.19653 19.4316 3.03932 19.1415 3.03932C18.8515 3.03932 18.634 3.19653 18.634 3.40614C18.634 3.61574 18.8515 3.77295 19.1415 3.77295ZM20.7367 3.35373C21.0267 3.35373 21.2442 3.19653 21.2442 2.98692C21.2442 2.77731 21.0267 2.62011 20.7367 2.62011C20.4467 2.62011 20.2291 2.77731 20.2291 2.98692C20.2291 3.19653 20.4467 3.35373 20.7367 3.35373ZM23.9995 6.86465C24.2896 6.86465 24.5071 6.70745 24.5071 6.49784C24.5071 6.28823 24.2896 6.13103 23.9995 6.13103C23.7095 6.13103 23.492 6.28823 23.492 6.49784C23.492 6.70745 23.7095 6.86465 23.9995 6.86465ZM23.9995 5.55461C24.2896 5.55461 24.5071 5.3974 24.5071 5.18779C24.5071 4.97819 24.2896 4.82098 23.9995 4.82098C23.7095 4.82098 23.492 4.97819 23.492 5.18779C23.492 5.3974 23.7095 5.55461 23.9995 5.55461ZM23.9995 4.24456C24.2896 4.24456 24.5071 4.08736 24.5071 3.87775C24.5071 3.66814 24.2896 3.51094 23.9995 3.51094C23.7095 3.51094 23.492 3.66814 23.492 3.87775C23.492 4.08736 23.7095 4.24456 23.9995 4.24456ZM22.4044 3.14413C22.6944 3.14413 22.9119 2.98692 22.9119 2.77731C22.9119 2.56771 22.6944 2.4105 22.4044 2.4105C22.1143 2.4105 21.8968 2.56771 21.8968 2.77731C21.8968 2.98692 22.1143 3.14413 22.4044 3.14413ZM36.2533 12C36.6884 12.1572 36.9784 12.1048 37.4134 12C36.7609 11.738 36.3983 11.5284 36.6884 10.952C36.8334 10.69 36.9784 10.4804 37.4134 10.428C37.1959 8.2271 36.3258 7.12666 33.498 6.13103L33.2805 6.18343V6.23583C33.2805 6.55024 33.063 6.70745 32.773 6.86465C33.2805 6.91705 33.7155 7.12666 33.7155 7.54587C33.7155 7.91269 33.353 8.12229 32.918 8.2271C33.063 8.4367 33.063 8.48911 33.063 8.75111C33.643 8.96072 33.7881 9.22273 33.643 9.64194C33.4255 10.2184 32.918 10.3232 32.1204 10.166C31.9754 11.1092 33.4255 11.476 34.1506 10.7948C34.1506 10.7424 34.1506 10.69 34.1506 10.6376C34.2956 10.2708 34.8032 10.0612 35.2382 10.166C35.7458 10.2708 36.0358 10.6376 35.8908 10.952C35.8908 11.0568 35.7458 11.1616 35.6733 11.2664C35.6733 11.5284 35.8908 11.8428 36.2533 12ZM23.202 3.87775C23.202 3.82535 23.202 3.77295 23.202 3.72055C19.5041 3.51094 16.8938 5.345 16.5313 7.86028C16.8213 7.96509 16.9663 8.06989 17.1113 8.2795C17.7639 8.2795 18.0539 8.4367 18.1989 8.85592C18.4165 9.43234 17.9814 9.69435 17.2563 9.85155C17.4739 10.2184 17.9814 10.4804 18.634 10.3756C19.1415 10.2708 19.4316 9.95635 19.4316 9.58954C19.3591 9.48474 19.2865 9.37994 19.2865 9.22273C19.2865 8.85592 19.7216 8.54151 20.2291 8.54151C20.7367 8.54151 21.1717 8.85592 21.1717 9.22273C21.1717 9.27513 21.1717 9.37994 21.0992 9.43234C21.2442 9.79915 21.6793 10.0088 22.1868 10.0088C22.8394 10.0088 23.202 9.69435 23.2745 9.27513C22.4769 9.27513 21.9693 9.11793 21.9693 8.48911C21.9693 8.06989 22.1868 7.80788 22.8394 7.75548C22.9844 7.23146 23.347 7.17906 23.9995 7.12666C24.6521 7.17906 25.0146 7.23146 25.1597 7.75548C25.8122 7.86028 26.0297 8.06989 26.0297 8.48911C26.0297 9.11793 25.5947 9.27513 24.7246 9.27513C24.7971 9.69435 25.1597 10.0088 25.8122 10.0088C26.3198 10.0088 26.7548 9.74675 26.8998 9.43234C26.8998 9.37994 26.8273 9.27513 26.8273 9.22273C26.8273 8.85592 27.2624 8.54151 27.7699 8.54151C28.2775 8.54151 28.7125 8.85592 28.7125 9.22273C28.7125 9.32753 28.64 9.48474 28.5675 9.58954C28.5675 9.95635 28.8575 10.2708 29.4376 10.3756C30.0902 10.4804 30.5252 10.2184 30.8152 9.85155C30.0177 9.69435 29.6551 9.48474 29.8726 8.85592C30.0177 8.4367 30.3077 8.2271 30.9603 8.2795C31.1053 8.06989 31.2503 7.96509 31.5403 7.86028C31.1778 5.345 28.5675 3.51094 24.8696 3.72055C24.8696 3.77295 24.8696 3.82535 24.8696 3.87775C24.8696 3.98255 24.7971 4.08736 24.7246 4.19216V4.82098C24.7971 4.92579 24.8696 5.03059 24.8696 5.13539C24.8696 5.2402 24.7971 5.345 24.7246 5.4498V6.13103C24.7971 6.23583 24.8696 6.34063 24.8696 6.44544C24.8696 6.81225 24.5071 6.91705 24.072 7.07426C23.7095 6.96945 23.2745 6.81225 23.2745 6.44544C23.2745 6.34063 23.347 6.23583 23.4195 6.13103V5.5022C23.347 5.3974 23.2745 5.2926 23.2745 5.18779C23.2745 5.08299 23.347 4.97819 23.4195 4.87338V4.24456C23.2745 4.13976 23.202 4.03496 23.202 3.87775ZM11.3107 10.952C11.6007 11.5284 11.2382 11.738 10.5856 12C11.0207 12.1048 11.3107 12.1572 11.7458 12C12.1808 11.8428 12.3258 11.5284 12.3258 11.214C11.9633 10.952 11.9633 10.5328 12.3258 10.2708C12.4708 10.166 12.6158 10.1136 12.7609 10.1136C13.2684 10.0088 13.776 10.2184 13.8485 10.5852C13.8485 10.6376 13.8485 10.69 13.8485 10.7424C14.5736 11.4236 15.9512 11.0568 15.8787 10.1136C15.0811 10.2708 14.5736 10.166 14.356 9.58954C14.211 9.17033 14.356 8.90832 14.9361 8.69871C14.9361 8.48911 14.9361 8.3843 15.0811 8.1747C14.6461 8.06989 14.2835 7.86028 14.2835 7.54587C14.2835 7.12666 14.7186 6.96945 15.2261 6.86465C14.9361 6.70745 14.7186 6.55024 14.7186 6.23583C14.7186 6.23583 14.7186 6.18343 14.501 6.13103C11.6733 7.12666 10.8032 8.1747 10.5856 10.428C11.0207 10.5328 11.1657 10.69 11.3107 10.952ZM35.6007 13.0481C32.0479 11.8428 28.1325 11.214 23.9995 11.214C19.8666 11.214 15.9512 11.8952 12.3983 13.0481C12.1808 13.1005 11.8908 13.0481 11.8183 12.8909C11.7458 12.7336 11.8183 12.5764 11.8908 12.4716C11.1657 12.6288 10.6581 12.6288 10.0056 12.262C8.84546 12.8385 7.54032 11.6856 8.41041 11.1616C7.97537 10.7948 7.97537 10.3756 8.55543 10.1136C8.48292 10.0088 8.41041 9.90395 8.41041 9.74675C8.41041 9.32753 8.84546 9.17033 9.35301 9.06552C9.06298 8.90832 8.84546 8.75111 8.84546 8.4367C8.84546 8.01749 9.35301 7.80788 9.86056 7.75548C9.71555 7.59828 9.64304 7.49347 9.64304 7.28386C9.64304 6.91705 10.0781 6.60264 10.5856 6.60264C10.7307 6.60264 10.8757 6.65504 11.0207 6.65504C10.9482 6.49784 10.8757 6.39303 10.8757 6.23583C10.8757 5.86902 11.3107 5.55461 11.8183 5.55461C12.0358 5.55461 12.1808 5.60701 12.3983 5.71181C12.3983 5.65941 12.3258 5.55461 12.3258 5.4498C12.3258 5.08299 12.7609 4.76858 13.2684 4.76858C13.5584 4.76858 13.7035 4.82098 13.921 4.92579C13.9935 4.55897 14.2835 4.29696 14.8636 4.29696C15.2986 4.29696 15.5162 4.45417 15.7337 4.66378C15.9512 4.50657 16.1687 4.40177 16.5313 4.40177C16.6763 4.40177 16.8213 4.40177 16.9663 4.45417C16.7488 4.34937 16.6763 4.24456 16.6763 4.13976C16.6763 3.77295 17.1113 3.45854 17.6189 3.45854C17.9089 3.45854 18.0539 3.56334 18.2714 3.66814C18.2714 3.61574 18.1989 3.51094 18.1989 3.40614C18.1989 3.03932 18.634 2.72491 19.1415 2.72491C19.4316 2.72491 19.5766 2.82972 19.7941 2.93452C19.8666 2.56771 20.1566 2.3057 20.7367 2.3057C21.0992 2.3057 21.2442 2.4105 21.4618 2.56771C21.6793 2.3057 21.8968 2.09609 22.4044 2.09609C22.5494 2.09609 22.6219 2.09609 22.7669 2.14849C23.0569 1.93889 23.347 1.83408 23.7095 1.78168V1.04806H22.9119V0.628842H23.7095V0.157227H24.2896V0.628842H25.0871V1.04806H24.2896V1.72928C24.6521 1.78168 24.9421 1.88648 25.2322 2.14849C25.3772 2.14849 25.4497 2.09609 25.5947 2.09609C26.0297 2.09609 26.3198 2.3057 26.4648 2.56771C26.6823 2.4105 26.8998 2.3057 27.1899 2.3057C27.7699 2.3057 27.9875 2.56771 28.1325 2.93452C28.35 2.82972 28.495 2.72491 28.785 2.72491C29.2926 2.72491 29.7276 3.03932 29.7276 3.40614C29.7276 3.51094 29.7276 3.61574 29.6551 3.66814C29.8727 3.56334 30.0177 3.45854 30.3077 3.45854C30.8152 3.45854 31.2503 3.77295 31.2503 4.13976C31.2503 4.29696 31.1778 4.40177 31.1053 4.50657C31.2503 4.50657 31.3953 4.45417 31.5403 4.45417C31.9029 4.45417 32.1204 4.55897 32.3379 4.71618C32.5554 4.50657 32.7729 4.34937 33.208 4.34937C33.7881 4.34937 34.0056 4.61138 34.1506 4.97819C34.3681 4.87338 34.5131 4.82098 34.8032 4.82098C35.3107 4.82098 35.7458 5.13539 35.7458 5.5022C35.7458 5.55461 35.7458 5.65941 35.6733 5.76421C35.8908 5.71181 36.0358 5.60701 36.2533 5.60701C36.7609 5.60701 37.1959 5.92142 37.1959 6.28823C37.1959 6.44544 37.1234 6.55024 37.0509 6.70745C37.1959 6.65504 37.3409 6.60264 37.4859 6.60264C37.9935 6.60264 38.4285 6.91705 38.4285 7.28386C38.4285 7.49347 38.356 7.59828 38.211 7.75548C38.7186 7.80788 39.2261 7.96509 39.2261 8.4367C39.2261 8.75111 39.0086 8.90832 38.7186 9.06552C39.2261 9.11793 39.6612 9.32753 39.6612 9.74675C39.6612 9.90395 39.5887 10.0088 39.5162 10.1136C40.0962 10.3756 40.0962 10.7948 39.7337 11.214C40.2412 11.5284 39.9512 12 39.5162 12.262C39.0811 12.524 38.5736 12.5764 38.066 12.3144C37.4134 12.6812 36.9059 12.6812 36.1808 12.524L36.2533 12.6812C36.3258 12.8909 35.9633 13.1529 35.6007 13.0481ZM13.631 13.7293L12.9059 13.5197L12.8334 13.4149C12.7609 13.4149 12.7609 13.4149 12.6884 13.4673C12.4708 13.4673 12.4708 13.3101 12.6158 13.3101C16.0962 12.1572 19.9391 11.476 23.9995 11.476C28.06 11.476 31.9754 12.1048 35.3832 13.3101C35.4557 13.3625 35.5282 13.5197 35.3107 13.4673C35.3107 13.4673 35.2382 13.4673 35.1657 13.4149L35.0932 13.5197L34.3681 13.7293L34.5856 14.3581L34.5131 14.4629C34.8757 14.5677 34.6581 14.7773 34.5131 14.7249C31.3228 13.6245 27.7699 13.0481 23.9995 13.0481C20.2291 13.0481 16.6763 13.6245 13.4859 14.7249C13.4134 14.7249 13.3409 14.7249 13.2684 14.6725C13.1959 14.6201 13.2684 14.5677 13.3409 14.5153C13.3409 14.5153 13.4134 14.4629 13.4859 14.4629L13.4134 14.3581L13.631 13.7293ZM17.7639 13.2577L19.3591 12.4716L17.4013 12.3144L15.8062 13.1005L17.7639 13.2577ZM33.498 13.9913C33.8606 13.9913 34.1506 13.7817 34.1506 13.5197C34.1506 13.2577 33.8606 13.0481 33.498 13.0481C33.1355 13.0481 32.8455 13.2577 32.8455 13.5197C32.8455 13.8341 33.1355 13.9913 33.498 13.9913ZM20.7367 12.786C21.0992 12.786 21.3893 12.5764 21.3893 12.3144C21.3893 12.0524 21.0992 11.8428 20.7367 11.8428C20.3742 11.8428 20.0841 12.0524 20.0841 12.3144C20.0841 12.5764 20.3742 12.786 20.7367 12.786ZM14.501 13.9913C14.8636 13.9913 15.1536 13.7817 15.1536 13.5197C15.1536 13.2577 14.8636 13.0481 14.501 13.0481C14.1385 13.0481 13.8485 13.2577 13.8485 13.5197C13.8485 13.8341 14.1385 13.9913 14.501 13.9913ZM27.2624 12.786C27.6249 12.786 27.9149 12.5764 27.9149 12.3144C27.9149 12.0524 27.6249 11.8428 27.2624 11.8428C26.8998 11.8428 26.6098 12.0524 26.6098 12.3144C26.6098 12.5764 26.8998 12.786 27.2624 12.786ZM30.2352 13.2577L32.1929 13.1005L30.5977 12.3144L28.64 12.4716L30.2352 13.2577ZM26.0297 12.2096L23.9995 11.6856L21.9693 12.2096L23.9995 12.7336L26.0297 12.2096ZM2.97234 30.7598C2.97234 39.0393 12.3983 45.8516 23.9995 45.8516C35.6007 45.8516 45.0267 39.0393 45.0267 30.7598C45.0267 22.428 35.6007 15.6681 23.9995 15.6681C12.4708 15.6681 2.97234 22.428 2.97234 30.7598ZM47.347 30.7598C47.347 39.9826 36.9059 47.476 23.9995 47.476C11.0932 47.476 0.724609 39.9302 0.724609 30.7598C0.724609 21.5371 11.1657 13.9913 24.072 13.9913C36.9784 13.9913 47.347 21.5371 47.347 30.7598ZM20.9542 23.6332L23.9995 25.8865L26.8273 23.738C25.8122 23.5284 24.8696 23.4236 23.8545 23.3712C22.8394 23.3188 21.8968 23.476 20.9542 23.6332ZM28.9301 22.0612L33.4255 18.7598C39.2261 21.1179 43.069 25.6245 43.069 30.7074C43.069 34.0088 41.4014 37.0481 38.6461 39.4585L36.5433 37.9389C38.8636 35.8952 40.4588 33.8516 40.4588 30.5502C40.4588 27.0393 37.921 23.1616 33.8606 21.1179L31.1778 23.1092C32.5554 23.8428 33.643 24.5764 34.5856 25.6245L32.5554 26.8821C31.7578 25.8341 30.6702 25.1529 29.3651 24.4716L23.9995 28.5066L18.489 24.4192C15.5887 25.8341 13.921 27.9302 13.8485 30.4978C13.776 33.904 16.8213 36.262 21.0992 37.3101V30.4978H27.6249V31.9127H23.637V33.7467H27.5524V35.3712H23.5645V37.6769C26.5373 37.7817 29.6551 36.5764 31.5403 35.0568L33.498 36.4716C30.9603 38.5677 27.3349 39.6157 23.5645 39.6157V41.7118H21.0267V39.4061C15.2261 38.3581 11.0207 34.7424 11.0932 30.393C11.1657 27.4061 13.3409 24.9433 16.6038 23.214L13.921 21.1703C9.71555 23.6332 7.46781 26.6725 7.25029 30.6026C7.10527 34.0612 9.57053 36.8385 11.1657 38.0437L9.35301 39.3013C6.52521 36.9433 4.85754 34.0612 4.85754 30.7074C4.85754 25.6245 8.77295 21.1703 14.501 18.8123L18.9965 22.2184C20.5917 21.7992 22.2594 21.5371 23.9995 21.5371C25.7397 21.5371 27.1899 21.7992 28.785 22.2184L28.9301 22.0612Z" fill="#FCBF00"/>
<path d="M48 30.7598C48 40.2445 37.1964 48 24 48C10.8036 48 0 40.2445 0 30.7598C0 21.2751 10.8036 13.5196 24 13.5196C37.1964 13.5196 48 21.2751 48 30.7598ZM47.3474 30.7598C47.3474 21.5371 36.9063 13.9913 24 13.9913C11.0937 13.9913 0.725076 21.5371 0.725076 30.7598C0.725076 39.9825 11.1662 47.476 24.0725 47.476C36.9789 47.476 47.3474 39.9301 47.3474 30.7598ZM3.69789 30.7598C3.69789 38.7773 12.8338 45.3275 24 45.3275C35.1662 45.3275 44.3021 38.7773 44.3021 30.7598C44.3021 22.69 35.1662 16.1921 24 16.1921C12.8338 16.1921 3.69789 22.69 3.69789 30.7598ZM2.97281 30.7598C2.97281 22.4279 12.3988 15.6681 24 15.6681C35.6012 15.6681 45.0272 22.4279 45.0272 30.7598C45.0272 39.0393 35.6012 45.8515 24 45.8515C12.4713 45.8515 2.97281 39.0393 2.97281 30.7598ZM26.4653 27.4061L37.8489 35.8428C39.1541 34.3231 39.8066 32.7511 39.8066 30.5502C39.8066 26.7773 36.8338 23.3188 34.006 21.7991L32.2659 23.0568C33.6435 23.8428 34.5861 24.6812 35.5287 25.7293L32.3384 27.6681C31.6133 26.6201 30.8157 25.8341 29.4381 25.1528C29.4381 25.2052 26.4653 27.4061 26.4653 27.4061ZM40.8943 38.0961C38.8641 40.6114 35.7462 42.5502 32.0483 43.7555L30.2357 42.393L26.7553 39.8253C25.9577 39.9301 25.1601 40.0349 24.3625 40.0349V42.131H20.4471V39.7205C14.574 38.5677 10.4411 34.5852 10.5136 30.2882C10.5136 29.5546 10.6586 28.8734 10.8761 28.1921L8.91843 26.7773C8.33837 27.9301 8.04834 29.1878 7.97583 30.5502C7.90332 33.2227 9.49849 36.1048 12.1813 37.9389L9.35347 40.0349C6.01813 37.3624 4.20544 34.3231 4.20544 30.655C4.20544 25.31 8.26586 20.6987 14.6465 18.131L19.2145 21.5371C20.7372 21.1703 22.4773 20.9607 24 20.9607C25.7402 20.9607 27.2628 21.1703 28.6405 21.5371L33.281 18.0786C39.7341 20.6463 43.7946 25.2576 43.7946 30.655C43.7946 33.4323 42.7795 35.8952 40.8943 38.0961ZM20.3746 35.214L14.5015 30.917C14.6465 33.3275 16.6767 35.5808 20.3746 36.6288V35.214ZM28.9305 22.0611L28.7855 22.1659C27.1903 21.7467 25.7402 21.4847 24 21.4847C22.2598 21.4847 20.5921 21.6943 18.997 22.1659L14.5015 18.8122C8.77341 21.1703 4.85801 25.6245 4.85801 30.7074C4.85801 34.0611 6.52568 36.9432 9.35347 39.3013L11.1662 37.9389C9.571 36.786 7.10574 33.9563 7.25076 30.4978C7.46828 26.5677 9.71601 23.5284 13.9215 21.0655L16.6042 23.1092C13.4139 24.8384 11.1662 27.3013 11.0937 30.2882C11.0937 34.69 15.2266 38.3581 21.0272 39.3537V41.6594H23.565V39.5633C27.4079 39.5633 30.9607 38.4629 33.4985 36.4192L31.5408 35.0044C29.6556 36.524 26.5378 37.7293 23.565 37.6245V35.3188H27.5529V33.6943H23.565V31.8603H27.5529V30.4454H21.0272V37.2576C16.7492 36.2096 13.6314 33.8515 13.7764 30.4454C13.8489 27.8777 15.5166 25.8341 18.4169 24.3668L23.9275 28.4541L29.2931 24.4192C30.6707 25.1004 31.6858 25.7817 32.4834 26.8297L34.5136 25.5721C33.571 24.524 32.4834 23.7904 31.1057 23.0568L33.7885 21.0655C37.8489 23.0568 40.3867 26.9869 40.3867 30.4978C40.3867 33.7467 38.864 35.7904 36.4713 37.8865L38.574 39.4061C41.3293 37.048 42.997 34.0087 42.997 30.655C42.997 25.5721 39.0816 21.1179 33.3535 18.7074L28.9305 22.0611ZM20.9547 23.6332C21.8973 23.476 22.9124 23.3188 23.855 23.3712C24.8701 23.3712 25.8127 23.5284 26.8278 23.738L24 25.8865L20.9547 23.6332ZM22.3323 23.9476L24 25.1528L25.5227 24C24.9426 23.9476 24.435 23.8952 23.855 23.8952C23.4199 23.8428 22.9124 23.8952 22.3323 23.9476ZM34.5861 13.7817L34.7311 14.2009L34.8036 14.3581L34.8761 14.3057L35.3837 14.0961L35.2387 13.6769V13.5721L34.5861 13.7817ZM35.6012 13.048C36.0363 13.1528 36.3263 12.8384 36.1813 12.5764L36.1088 12.4192C36.8338 12.5764 37.3414 12.5764 37.994 12.2096C38.5015 12.4716 38.9366 12.4192 39.4441 12.1572C39.8792 11.8952 40.1692 11.4236 39.6616 11.1092C40.0967 10.7424 40.0967 10.3231 39.4441 10.0087C39.5166 9.90393 39.5891 9.79913 39.5891 9.64192C39.5891 9.22271 39.1541 9.0655 38.6465 8.9607C38.9366 8.80349 39.1541 8.64629 39.1541 8.33188C39.1541 7.91266 38.6465 7.70306 38.139 7.65065C38.284 7.49345 38.3565 7.38865 38.3565 7.17904C38.3565 6.81223 37.9215 6.49782 37.4139 6.49782C37.2689 6.49782 37.1239 6.55022 36.9789 6.55022C37.0514 6.39301 37.1239 6.28821 37.1239 6.131C37.1239 5.76419 36.6888 5.44978 36.1813 5.44978C35.9637 5.44978 35.8187 5.50218 35.6012 5.60699C35.6012 5.55458 35.6737 5.44978 35.6737 5.34498C35.6737 4.97817 35.2387 4.66375 34.7311 4.66375C34.4411 4.66375 34.2961 4.71616 34.0786 4.82096C34.006 4.50655 33.716 4.19214 33.136 4.19214C32.7009 4.19214 32.4834 4.34934 32.2659 4.55895C32.0483 4.40175 31.8308 4.29694 31.4683 4.29694C31.3233 4.29694 31.1782 4.29694 31.0332 4.34934C31.1057 4.24454 31.1782 4.13974 31.1782 3.98253C31.1782 3.61572 30.7432 3.30131 30.2357 3.30131C29.9456 3.30131 29.8006 3.40611 29.5831 3.51092C29.5831 3.45852 29.6556 3.35371 29.6556 3.24891C29.6556 2.8821 29.2205 2.56769 28.713 2.56769C28.423 2.56769 28.2779 2.67249 28.0604 2.77729C27.9879 2.41048 27.6979 2.14847 27.1178 2.14847C26.7553 2.14847 26.6103 2.25327 26.3928 2.41048C26.3202 2.30568 26.1027 2.09607 25.5952 2.09607C25.4502 2.09607 25.3776 2.09607 25.2326 2.14847C24.9426 1.93886 24.7251 1.83406 24.29 1.72926V1.04803H25.0876V0.628821H24.29V0.157205H23.71V0.628821H22.9124V1.04803H23.71V1.72926C23.3474 1.78166 23.0574 1.88646 22.7674 2.14847C22.6224 2.14847 22.5498 2.09607 22.4048 2.09607C21.9698 2.09607 21.6798 2.30568 21.5347 2.56769C21.3172 2.41048 21.0997 2.30568 20.8097 2.30568C20.2296 2.30568 20.0121 2.56769 19.8671 2.9345C19.6495 2.82969 19.5045 2.72489 19.142 2.72489C18.6344 2.72489 18.1994 3.0393 18.1994 3.40611C18.1994 3.51092 18.1994 3.61572 18.2719 3.66812C18.0544 3.56332 17.9094 3.45852 17.6193 3.45852C17.1118 3.45852 16.6767 3.77293 16.6767 4.13974C16.6767 4.29694 16.7492 4.40175 16.8218 4.50655C16.6767 4.50655 16.5317 4.45415 16.3867 4.45415C16.0242 4.45415 15.8066 4.55895 15.5891 4.71616C15.3716 4.50655 15.1541 4.34934 14.719 4.34934C14.139 4.34934 13.9215 4.61135 13.7764 4.97817C13.5589 4.87336 13.4139 4.82096 13.1239 4.82096C12.6163 4.82096 12.1813 5.13537 12.1813 5.50218C12.1813 5.55458 12.1813 5.65939 12.2538 5.76419C12.0363 5.71179 11.8912 5.60699 11.6737 5.60699C11.1662 5.60699 10.7311 5.9214 10.7311 6.28821C10.7311 6.44541 10.8036 6.55022 10.8761 6.70742C10.7311 6.70742 10.5861 6.65502 10.4411 6.65502C9.93353 6.65502 9.49849 6.96943 9.49849 7.33624C9.49849 7.54585 9.571 7.65065 9.71601 7.80786C9.13595 7.80786 8.70091 8.01747 8.70091 8.48908C8.70091 8.80349 8.91843 8.9607 9.20846 9.1179C8.70091 9.17031 8.26586 9.37991 8.26586 9.79913C8.26586 9.95633 8.33837 10.0611 8.41088 10.1659C7.83082 10.4279 7.83082 10.8472 8.19335 11.2664C7.32326 11.7904 8.6284 12.9432 9.78852 12.3668C10.4411 12.7336 10.9486 12.7336 11.6737 12.5764C11.6012 12.7336 11.4562 12.8384 11.6012 12.9956C11.6737 13.1528 11.9637 13.2576 12.1813 13.1528C15.7341 11.9476 19.577 11.3188 23.7825 11.3188C27.9879 11.3188 32.0483 11.8952 35.6012 13.048ZM13.4864 13.7817L12.9789 13.6769L12.7613 13.6245V13.7293L12.6163 14.0961L13.1239 14.3057L13.2689 14.3581L13.3414 14.2009L13.4864 13.7817ZM13.1239 14.4105L12.3988 14.1485L12.5438 13.6245C12.2538 13.6245 12.1813 13.3624 12.2538 13.2052C11.9637 13.2576 11.6737 13.1004 11.5287 12.9432C11.4562 12.8384 11.4562 12.786 11.4562 12.6812C10.9486 12.7336 10.3686 12.6812 9.93353 12.4716C8.70091 12.9956 7.25076 11.738 8.04834 11.1616C7.6858 10.7948 7.75831 10.3231 8.26586 10.0611C7.97583 9.64192 8.26586 9.17031 8.77341 8.9607H8.84592C8.6284 8.80349 8.55589 8.64629 8.55589 8.43668C8.55589 8.06987 8.91843 7.75546 9.42598 7.65065C9.42598 7.49345 9.42598 7.38865 9.42598 7.23144C9.42598 6.75983 9.93354 6.44541 10.5861 6.44541H10.6586C10.5136 6.0262 10.8761 5.55458 11.4562 5.44978C11.5287 5.44978 11.6737 5.44978 11.7462 5.44978C11.8912 5.44978 11.9637 5.44978 12.1088 5.50218C12.1088 5.08297 12.6163 4.71616 13.2689 4.71616C13.4864 4.71616 13.6314 4.76856 13.7764 4.82096C13.994 4.40175 14.6465 4.19214 15.2266 4.34934C15.4441 4.40175 15.5891 4.50655 15.7341 4.61135C15.9517 4.50655 16.1692 4.40175 16.4592 4.40175H16.5317C16.3867 3.98253 16.7492 3.51092 17.4018 3.45852C17.4743 3.45852 17.5468 3.45852 17.6918 3.45852C17.8369 3.45852 17.9819 3.45852 18.1269 3.51092C18.1269 3.0393 18.6344 2.72489 19.287 2.72489C19.5045 2.72489 19.6495 2.77729 19.7946 2.82969C19.9396 2.51528 20.3746 2.30568 20.8822 2.30568C21.1722 2.30568 21.3897 2.35808 21.6073 2.46288C21.8248 2.25327 22.1873 2.09607 22.5499 2.09607C22.6224 2.09607 22.7674 2.09607 22.8399 2.09607C22.9849 1.93886 23.2749 1.83406 23.4924 1.78166H23.6375V1.20524H22.8399V0.471616H23.6375V0H24.6526V0.471616H25.4501V1.20524H24.6526V1.62445H24.7976C25.0151 1.67686 25.3051 1.78166 25.4501 1.93886C25.5227 1.93886 25.6677 1.93886 25.7402 1.93886C26.1752 1.93886 26.4653 2.09607 26.6828 2.30568C26.9003 2.20087 27.1178 2.14847 27.4079 2.14847C27.9154 2.14847 28.2779 2.35808 28.4955 2.67249C28.6405 2.62009 28.858 2.56769 29.0755 2.56769C29.7281 2.56769 30.1631 2.9345 30.2357 3.35371C30.8157 3.19651 31.4683 3.40611 31.6858 3.82533C31.7583 3.93013 31.7583 4.03493 31.7583 4.13974C31.7583 4.19214 31.7583 4.24454 31.7583 4.29694H31.8308C32.1208 4.29694 32.3384 4.34935 32.5559 4.50655C32.5559 4.29694 32.8459 4.19214 33.2085 4.19214C33.716 4.19214 34.0785 4.40175 34.2961 4.71616C34.8036 4.55895 35.5287 4.66376 35.8187 5.08297C35.8912 5.18777 35.9637 5.34498 35.9637 5.44978C36.0363 5.44978 36.1813 5.39738 36.3263 5.39738C36.9789 5.39738 37.4864 5.76419 37.4864 6.18341C37.4864 6.23581 37.4864 6.34061 37.4864 6.39301H37.5589C38.2115 6.39301 38.719 6.75983 38.719 7.17904C38.719 7.28384 38.719 7.44105 38.6465 7.54585C39.1541 7.65065 39.5166 7.96507 39.5166 8.33188C39.5166 8.54148 39.4441 8.75109 39.2266 8.8559C39.8066 9.0131 40.0967 9.48472 39.8792 9.90393V9.95633C40.3142 10.2183 40.3867 10.69 40.0967 11.0568C40.6042 11.4236 40.1692 12 39.7341 12.262C39.2991 12.4716 38.719 12.6288 38.2115 12.3668C37.7764 12.5764 37.1964 12.6812 36.6888 12.5764C36.7613 12.8908 36.3263 13.2052 35.8912 13.1528C36.0363 13.31 35.8912 13.5197 35.6012 13.5721L35.7462 14.0961L35.0211 14.3581C35.0937 14.4105 35.1662 14.5677 35.0937 14.6725C35.0211 14.8297 34.8036 14.8821 34.5861 14.8297C31.3233 13.7293 27.7704 13.1528 24.2175 13.1528C20.5196 13.1528 16.9668 13.7293 13.8489 14.8297C13.6314 14.8821 13.4139 14.8297 13.3414 14.6725C13.0514 14.6201 13.0514 14.5153 13.1239 14.4105ZM13.6314 13.7293L13.4139 14.3581L13.4864 14.4629C13.4864 14.4629 13.4139 14.4629 13.3414 14.5153C13.2689 14.5677 13.2689 14.6201 13.2689 14.6725C13.2689 14.7249 13.4139 14.7773 13.4864 14.7249C16.6767 13.6245 20.2296 13.048 24 13.048C27.7704 13.048 31.3233 13.6245 34.5136 14.7249C34.6586 14.7773 34.9486 14.5677 34.5136 14.4629L34.5861 14.3581L34.3686 13.7293L35.0937 13.5196L35.1662 13.4148C35.2387 13.4148 35.2387 13.4148 35.3112 13.4672C35.5287 13.4672 35.5287 13.31 35.3837 13.31C31.9033 12.1572 28.0604 11.476 24 11.476C19.9396 11.476 16.0242 12.1048 12.6163 13.31C12.5438 13.3624 12.5438 13.5197 12.6888 13.4672C12.6888 13.4672 12.7613 13.4672 12.8338 13.4148L12.9063 13.5196L13.6314 13.7293ZM30.8157 6.55022C29.9456 4.92576 27.8429 3.77293 25.0151 3.87773C25.0151 4.03493 24.9426 4.13974 24.8701 4.24454V4.76856C25.0876 4.97817 25.0876 5.29258 24.8701 5.55458V5.9214C26.7553 5.76419 29.003 5.869 30.8157 6.55022ZM24.8701 6.131C25.1601 6.44541 25.0876 6.86463 24.6526 7.07424C25.0151 7.17904 25.2326 7.33624 25.3776 7.65065C26.0302 7.75546 26.2477 8.12227 26.2477 8.54148C26.2477 9.0131 25.9577 9.43231 25.0151 9.48472C24.8701 9.79913 25.0876 10.2183 25.5952 10.3231C26.0302 10.4279 26.6103 10.2707 26.7553 9.90393C26.8278 9.74672 26.8278 9.64192 26.7553 9.48472C26.7553 9.43231 26.7553 9.32751 26.7553 9.27511C26.7553 8.80349 27.2628 8.43668 27.9154 8.43668C28.568 8.43668 29.0755 8.80349 29.0755 9.27511C29.0755 9.43231 29.003 9.53712 28.9305 9.64192C28.9305 9.90393 29.2205 10.1659 29.5831 10.2183C29.9456 10.2707 30.3807 10.1659 30.5982 9.95633C29.6556 9.74673 29.5831 9.32751 29.7281 8.8559C29.8731 8.48908 30.1631 8.12227 30.8882 8.17467C31.0332 8.01747 31.1782 7.86026 31.3958 7.80786C31.3233 7.44105 31.1782 7.07424 31.0332 6.70742C29.2205 5.9738 26.9003 5.869 25.0151 6.0786C24.8701 6.0262 24.8701 6.131 24.8701 6.131ZM23.2024 3.87773C23.2024 3.98253 23.2749 4.08734 23.3474 4.19214V4.82096C23.2749 4.97817 23.2024 5.08297 23.2024 5.24017C23.2024 5.39738 23.2749 5.44978 23.3474 5.55458V6.18341C23.2749 6.28821 23.2024 6.39301 23.2024 6.55022C23.2024 6.91703 23.565 7.02183 24 7.17904C24.3625 7.07424 24.7976 6.91703 24.7976 6.55022C24.7976 6.44541 24.7251 6.34061 24.6526 6.23581V5.55458C24.7251 5.44978 24.7976 5.34498 24.7976 5.24017C24.7976 5.13537 24.7251 4.97817 24.6526 4.87336V4.24454C24.7251 4.13974 24.7976 4.03493 24.7976 3.93013C24.7976 3.87773 24.7976 3.82533 24.7976 3.77293C28.4955 3.56332 31.1057 5.34498 31.4683 7.91266C31.1782 8.01747 31.0332 8.12227 30.8882 8.33188C30.2356 8.33188 29.9456 8.48908 29.8006 8.9083C29.5831 9.48472 29.9456 9.74672 30.7432 9.90393C30.5257 10.2707 30.0181 10.5328 29.3656 10.4279C28.858 10.3231 28.4955 10.0087 28.4955 9.64192C28.568 9.53712 28.6405 9.43231 28.6405 9.27511C28.6405 8.9083 28.2054 8.59389 27.6979 8.59389C27.1903 8.59389 26.7553 8.9083 26.7553 9.27511C26.7553 9.32751 26.7553 9.43231 26.8278 9.48472C26.6828 9.85153 26.2477 10.0611 25.7402 10.0611C25.0876 10.0611 24.7251 9.74672 24.6526 9.32751C25.4502 9.32751 25.9577 9.17031 25.9577 8.54148C25.9577 8.12227 25.7402 7.86026 25.0876 7.80786C24.9426 7.28384 24.5801 7.23144 23.9275 7.17904C23.2749 7.23144 22.9124 7.28384 22.7674 7.80786C22.1148 7.91266 21.8973 8.12227 21.8973 8.54148C21.8973 9.17031 22.3323 9.32751 23.2024 9.32751C23.1299 9.74672 22.7674 10.0611 22.1148 10.0611C21.6073 10.0611 21.1722 9.79913 21.0272 9.48472C21.0272 9.43231 21.0997 9.32751 21.0997 9.27511C21.0997 8.9083 20.6647 8.59389 20.1571 8.59389C19.6495 8.59389 19.2145 8.9083 19.2145 9.27511C19.2145 9.37991 19.287 9.53712 19.3595 9.64192C19.3595 10.0087 19.0695 10.3231 18.5619 10.4279C17.9094 10.5328 17.4743 10.2707 17.1843 9.90393C17.9819 9.74672 18.3444 9.53712 18.1269 8.9083C17.9819 8.48908 17.6918 8.27948 17.0393 8.33188C16.8943 8.12227 16.7492 8.01747 16.4592 7.91266C16.8218 5.39738 19.432 3.56332 23.1299 3.77293C23.2024 3.77293 23.2024 3.82533 23.2024 3.87773ZM17.1843 6.70742C17.0393 7.07424 16.8943 7.44105 16.8218 7.80786C17.0393 7.86026 17.1843 8.01747 17.3293 8.17467C18.0544 8.17467 18.3444 8.48908 18.4894 8.8559C18.6344 9.32751 18.5619 9.74673 17.6193 9.95633C17.6193 10.3231 17.9819 10.6376 18.4894 10.6376C18.997 10.6376 19.432 10.3755 19.432 10.0087C19.432 9.90393 19.432 9.74672 19.287 9.64192C19.2145 9.53712 19.142 9.37991 19.142 9.27511C19.142 8.80349 19.6495 8.43668 20.3021 8.43668C20.9547 8.43668 21.4622 8.80349 21.4622 9.27511C21.4622 9.32751 21.4622 9.43231 21.4622 9.48472C21.6073 9.79913 22.1148 10.0087 22.6224 9.90393C22.9124 9.85153 23.0574 9.69432 23.2024 9.48472C22.2598 9.43231 21.9698 9.0655 21.9698 8.54148C21.9698 8.12227 22.1873 7.75546 22.8399 7.65065C22.9124 7.33624 23.2024 7.12664 23.565 7.07424C23.2024 6.86463 23.0574 6.44541 23.3474 6.131V6.0262C21.3172 5.869 18.997 5.9738 17.1843 6.70742ZM22.9849 3.87773C20.1571 3.77293 18.1269 4.92576 17.1843 6.55022C18.9245 5.9214 21.1722 5.76419 23.1299 5.9214V5.55458C22.9124 5.34498 22.9124 5.03057 23.1299 4.76856V4.29694C23.0574 4.13974 22.9849 4.03493 22.9849 3.87773ZM34.3686 11.2664C34.5136 11.3188 34.6586 11.3188 34.8036 11.3712H35.0211C35.0937 11.6332 35.2387 11.8952 35.5287 12.1048L35.3837 12.2096C34.7311 12 34.006 11.7904 33.3535 11.6332V11.476C33.716 11.5284 34.0786 11.4236 34.3686 11.2664ZM34.4411 11.4236C34.2236 11.5284 34.006 11.5808 33.7885 11.6332C34.2236 11.738 34.6586 11.8428 35.0937 12C34.9486 11.8428 34.8761 11.6856 34.8036 11.5284C34.6586 11.5284 34.5136 11.476 34.4411 11.4236ZM23.9275 9.48472H24.145C24.2175 9.90393 24.5801 10.2707 25.0876 10.4279L25.0151 10.5852C24.6526 10.5852 24.3625 10.5852 24 10.5852C23.6375 10.5852 23.3474 10.5852 22.9849 10.5852L22.9124 10.4279C23.4199 10.2183 23.7825 9.90393 23.9275 9.48472ZM24 9.79913C23.855 10.0611 23.6375 10.2707 23.3474 10.4279C23.565 10.4279 23.7825 10.4279 24 10.4279C24.2175 10.4279 24.435 10.4279 24.6526 10.4279C24.3625 10.2183 24.145 10.0087 24 9.79913ZM12.6163 12.262L12.4713 12.1572C12.7613 11.9476 12.9063 11.738 12.9789 11.4236C13.2689 11.4236 13.3414 11.3712 13.5589 11.2664C13.8489 11.4236 14.2115 11.5284 14.6465 11.5284V11.6856C13.994 11.8428 13.2689 12.0524 12.6163 12.262ZM12.9063 12C13.3414 11.8952 13.7764 11.738 14.2115 11.6332C13.994 11.5808 13.7764 11.5284 13.5589 11.4236C13.4864 11.476 13.3414 11.5284 13.1964 11.5284H13.1239C13.1239 11.6856 13.0514 11.8428 12.9063 12ZM17.9819 10.8472V11.0044C17.3293 11.1092 16.6767 11.214 16.0242 11.3712L15.9517 11.214C16.3867 10.952 16.6042 10.5328 16.5317 10.1135L16.7492 10.0611C16.9668 10.4803 17.4018 10.7948 17.9819 10.8472ZM17.5468 10.8996C17.2568 10.7948 16.9668 10.6376 16.7492 10.4279C16.7492 10.69 16.6042 10.952 16.3867 11.1092C16.7492 11.0568 17.1843 11.0044 17.5468 10.8996ZM19.3595 10.7948L19.287 10.6376C19.6495 10.4803 19.9396 10.2183 20.0846 9.90393H20.2296C20.3746 9.90393 20.4471 9.90393 20.5921 9.85153C20.8822 10.1135 21.1722 10.3231 21.6073 10.4279V10.5852C20.8097 10.6376 20.0846 10.7424 19.3595 10.7948ZM20.2296 10.0611C20.1571 10.2707 19.9396 10.4279 19.7221 10.5852C20.1571 10.5328 20.6647 10.4803 21.0997 10.4803C20.8097 10.3755 20.5921 10.2183 20.4471 10.0611C20.3746 10.0611 20.3021 10.0611 20.2296 10.0611ZM26.4653 10.6376V10.4803C26.9003 10.3755 27.2628 10.1659 27.4804 9.90393C27.6254 9.90393 27.6979 9.95633 27.8429 9.95633H27.9879C28.1329 10.2707 28.3505 10.5328 28.7855 10.69L28.713 10.8472C27.9154 10.7424 27.1903 10.6376 26.4653 10.6376ZM27.7704 10.0611C27.6979 10.0611 27.6254 10.0611 27.5529 10.0611C27.4079 10.2183 27.1178 10.3755 26.9003 10.4803C27.3353 10.5328 27.8429 10.5328 28.2779 10.5852C28.0604 10.4803 27.9154 10.3231 27.7704 10.0611ZM32.1208 11.214L32.0483 11.3188C31.3958 11.1616 30.7432 11.0568 30.0906 10.952V10.7948C30.6707 10.69 31.1057 10.4279 31.3233 10.0611L31.5408 10.1135C31.4683 10.5852 31.6858 10.952 32.1208 11.214ZM31.6858 11.1616C31.4683 10.952 31.3233 10.7424 31.3233 10.4803C31.1057 10.69 30.8157 10.8472 30.5257 10.952C30.8882 11.0044 31.2508 11.0568 31.6858 11.1616ZM31.9758 8.48908C31.4683 8.38428 31.0332 8.59389 30.8882 8.9607C30.7432 9.32751 31.0332 9.64192 31.5408 9.74673C32.0483 9.85153 32.5559 9.64192 32.6284 9.27511C32.7734 8.9083 32.4834 8.54148 31.9758 8.48908ZM32.0483 8.38428C32.6284 8.48908 32.9184 8.9083 32.7734 9.32751C32.6284 9.74672 32.0483 9.95633 31.4683 9.85153C30.8882 9.74672 30.5982 9.32751 30.7432 8.9607C30.8882 8.54148 31.4683 8.27948 32.0483 8.38428ZM32.7734 7.17904C32.4834 7.17904 32.2659 7.33624 32.2659 7.54585C32.2659 7.75546 32.4834 7.91266 32.7734 7.91266C33.0634 7.91266 33.281 7.75546 33.281 7.54585C33.281 7.33624 33.0634 7.17904 32.7734 7.17904ZM32.7734 7.07424C33.136 7.07424 33.426 7.28384 33.426 7.54585C33.426 7.80786 33.136 8.01747 32.7734 8.01747C32.4109 8.01747 32.1208 7.80786 32.1208 7.54585C32.1208 7.28384 32.4834 7.07424 32.7734 7.07424ZM32.4109 5.869C32.1208 5.869 31.9033 6.0262 31.9033 6.23581C31.9033 6.44541 32.1208 6.60262 32.4109 6.60262C32.7009 6.60262 32.9184 6.44541 32.9184 6.23581C32.9184 6.0786 32.7009 5.9214 32.4109 5.869ZM32.4109 5.76419C32.7734 5.76419 33.0634 5.9738 33.0634 6.23581C33.0634 6.49782 32.7734 6.70742 32.4109 6.70742C32.0483 6.70742 31.7583 6.49782 31.7583 6.23581C31.7583 5.9738 32.0483 5.76419 32.4109 5.76419ZM38.6465 9.32751C38.3565 9.32751 38.139 9.48472 38.139 9.69432C38.139 9.90393 38.3565 10.0611 38.6465 10.0611C38.9366 10.0611 39.1541 9.90393 39.1541 9.69432C39.1541 9.48472 38.9366 9.32751 38.6465 9.32751ZM38.6465 9.22271C39.0091 9.22271 39.2991 9.43231 39.2991 9.69432C39.2991 9.95633 39.0091 10.1659 38.6465 10.1659C38.284 10.1659 37.994 9.95633 37.994 9.69432C37.994 9.43231 38.284 9.22271 38.6465 9.22271ZM38.2115 8.01747C37.9215 8.01747 37.7039 8.17467 37.7039 8.38428C37.7039 8.59389 37.9215 8.75109 38.2115 8.75109C38.5015 8.75109 38.719 8.59389 38.719 8.38428C38.719 8.17467 38.5015 8.01747 38.2115 8.01747ZM38.2115 7.91266C38.574 7.91266 38.864 8.12227 38.864 8.38428C38.864 8.64629 38.574 8.8559 38.2115 8.8559C37.8489 8.8559 37.5589 8.64629 37.5589 8.38428C37.5589 8.12227 37.8489 7.91266 38.2115 7.91266ZM37.4864 6.86463C37.1964 6.86463 36.9789 7.02183 36.9789 7.23144C36.9789 7.44105 37.1964 7.59825 37.4864 7.59825C37.7764 7.59825 37.994 7.44105 37.994 7.23144C37.994 7.02183 37.7039 6.86463 37.4864 6.86463ZM37.4864 6.75982C37.8489 6.75982 38.139 6.96943 38.139 7.23144C38.139 7.49345 37.8489 7.70306 37.4864 7.70306C37.1239 7.70306 36.8338 7.49345 36.8338 7.23144C36.8338 6.96943 37.1239 6.75982 37.4864 6.75982ZM36.2538 5.869C35.9637 5.869 35.7462 6.0262 35.7462 6.23581C35.7462 6.44541 35.9637 6.60262 36.2538 6.60262C36.5438 6.60262 36.7613 6.44541 36.7613 6.23581C36.7613 6.0262 36.5438 5.869 36.2538 5.869ZM36.2538 5.76419C36.6163 5.76419 36.9063 5.9738 36.9063 6.23581C36.9063 6.49782 36.6163 6.70742 36.2538 6.70742C35.8912 6.70742 35.6012 6.49782 35.6012 6.23581C35.6012 5.9738 35.8912 5.76419 36.2538 5.76419ZM34.8036 5.08297C34.5136 5.08297 34.2961 5.24017 34.2961 5.44978C34.2961 5.65939 34.5136 5.81659 34.8036 5.81659C35.0937 5.81659 35.3112 5.65939 35.3112 5.44978C35.3112 5.24017 35.0937 5.08297 34.8036 5.08297ZM34.8036 4.97817C35.1662 4.97817 35.4562 5.18777 35.4562 5.44978C35.4562 5.71179 35.1662 5.9214 34.8036 5.9214C34.4411 5.9214 34.1511 5.71179 34.1511 5.44978C34.1511 5.18777 34.4411 4.97817 34.8036 4.97817ZM33.2085 4.66375C32.9184 4.66375 32.7009 4.82096 32.7009 5.03057C32.7009 5.24017 32.9184 5.39738 33.2085 5.39738C33.4985 5.39738 33.716 5.24017 33.716 5.03057C33.716 4.82096 33.4985 4.66375 33.2085 4.66375ZM33.2085 4.55895C33.571 4.55895 33.861 4.76856 33.861 5.03057C33.861 5.29258 33.571 5.50218 33.2085 5.50218C32.8459 5.50218 32.5559 5.29258 32.5559 5.03057C32.5559 4.76856 32.8459 4.55895 33.2085 4.55895ZM31.6133 4.76856C31.3233 4.76856 31.1057 4.92576 31.1057 5.13537C31.1057 5.34498 31.3233 5.50218 31.6133 5.50218C31.9033 5.50218 32.1208 5.34498 32.1208 5.13537C32.1208 4.92576 31.9033 4.76856 31.6133 4.76856ZM31.6133 4.66375C31.9758 4.66375 32.2659 4.87336 32.2659 5.13537C32.2659 5.39738 31.9758 5.60699 31.6133 5.60699C31.2508 5.60699 30.9607 5.39738 30.9607 5.13537C30.9607 4.87336 31.2508 4.66375 31.6133 4.66375ZM30.3807 3.77293C30.0906 3.77293 29.8731 3.93013 29.8731 4.13974C29.8731 4.34934 30.0906 4.50655 30.3807 4.50655C30.6707 4.50655 30.8882 4.34934 30.8882 4.13974C30.8882 3.93013 30.6707 3.77293 30.3807 3.77293ZM30.3807 3.66812C30.7432 3.66812 31.0332 3.87773 31.0332 4.13974C31.0332 4.40175 30.7432 4.61135 30.3807 4.61135C30.0181 4.61135 29.7281 4.40175 29.7281 4.13974C29.7281 3.87773 30.0181 3.66812 30.3807 3.66812ZM28.858 3.0393C28.568 3.0393 28.3505 3.19651 28.3505 3.40611C28.3505 3.61572 28.568 3.77293 28.858 3.77293C29.148 3.77293 29.3656 3.61572 29.3656 3.40611C29.3656 3.19651 29.148 3.0393 28.858 3.0393ZM28.858 2.9345C29.2205 2.9345 29.5106 3.1441 29.5106 3.40611C29.5106 3.66812 29.2205 3.87773 28.858 3.87773C28.4955 3.87773 28.2054 3.66812 28.2054 3.40611C28.2054 3.1441 28.4955 2.9345 28.858 2.9345ZM27.2628 2.62009C26.9728 2.62009 26.7553 2.77729 26.7553 2.9869C26.7553 3.19651 26.9728 3.35371 27.2628 3.35371C27.5529 3.35371 27.7704 3.19651 27.7704 2.9869C27.7704 2.77729 27.5529 2.62009 27.2628 2.62009ZM27.2628 2.51528C27.6254 2.51528 27.9154 2.72489 27.9154 2.9869C27.9154 3.24891 27.6254 3.45852 27.2628 3.45852C26.9003 3.45852 26.6103 3.24891 26.6103 2.9869C26.6103 2.72489 26.9003 2.51528 27.2628 2.51528ZM25.5952 2.41048C25.3051 2.41048 25.0876 2.56769 25.0876 2.77729C25.0876 2.9869 25.3051 3.1441 25.5952 3.1441C25.8852 3.1441 26.1027 2.9869 26.1027 2.77729C26.1027 2.56769 25.8852 2.41048 25.5952 2.41048ZM25.5952 2.30568C25.9577 2.30568 26.2477 2.51528 26.2477 2.77729C26.2477 3.0393 25.9577 3.24891 25.5952 3.24891C25.2326 3.24891 24.9426 3.0393 24.9426 2.77729C24.9426 2.51528 25.2326 2.30568 25.5952 2.30568ZM10.006 11.9476C10.4411 11.7904 10.5861 11.3712 10.3686 11.0568C10.1511 10.7424 9.571 10.6376 9.13595 10.7948C8.70091 10.952 8.55589 11.3712 8.77341 11.6856C8.99094 12 9.571 12.1048 10.006 11.9476ZM10.0785 12.0524C9.571 12.262 8.91843 12.1048 8.6284 11.738C8.33837 11.3712 8.55589 10.8996 9.06344 10.7424C9.571 10.5328 10.2236 10.69 10.5136 11.0568C10.8036 11.3712 10.5861 11.8428 10.0785 12.0524ZM16.4592 9.74673C16.9668 9.64192 17.2568 9.32751 17.1118 8.9607C16.9668 8.59389 16.4592 8.38428 16.0242 8.48908C15.5166 8.59389 15.2266 8.9083 15.3716 9.27511C15.5166 9.64192 16.0242 9.85153 16.4592 9.74673ZM16.5317 9.85153C15.9517 9.95633 15.3716 9.69432 15.2266 9.32751C15.0816 8.9083 15.4441 8.48908 15.9517 8.38428C16.4592 8.27948 17.1118 8.54148 17.2568 8.9083C17.4018 9.32751 17.1118 9.74672 16.5317 9.85153ZM24 9.0655C24.5076 9.0655 24.9426 8.75109 24.9426 8.43668C24.9426 8.06987 24.5076 7.80786 24 7.80786C23.4924 7.80786 23.0574 8.12227 23.0574 8.43668C23.1299 8.75109 23.4924 9.0655 24 9.0655ZM24 9.17031C23.4199 9.17031 22.9849 8.8559 22.9124 8.43668C22.9124 8.01747 23.3474 7.70306 24 7.70306C24.5801 7.70306 25.0876 8.01747 25.0876 8.43668C25.0876 8.80349 24.5801 9.17031 24 9.17031ZM15.2266 7.91266C15.5166 7.91266 15.7341 7.75546 15.7341 7.54585C15.7341 7.33624 15.5166 7.17904 15.2266 7.17904C14.9366 7.17904 14.719 7.33624 14.719 7.54585C14.719 7.75546 14.9366 7.91266 15.2266 7.91266ZM15.2266 8.01747C14.864 8.01747 14.574 7.80786 14.574 7.54585C14.574 7.28384 14.864 7.07424 15.2266 7.07424C15.5891 7.07424 15.8792 7.28384 15.8792 7.54585C15.8792 7.80786 15.5891 8.01747 15.2266 8.01747ZM15.6616 6.60262C15.9517 6.60262 16.1692 6.44541 16.1692 6.23581C16.1692 6.0262 15.9517 5.869 15.6616 5.869C15.3716 5.869 15.1541 6.0262 15.1541 6.23581C15.1541 6.44541 15.3716 6.60262 15.6616 6.60262ZM15.6616 6.70742C15.2991 6.70742 15.0091 6.49782 15.0091 6.23581C15.0091 5.9738 15.2991 5.76419 15.6616 5.76419C16.0242 5.76419 16.3142 5.9738 16.3142 6.23581C16.2417 6.49782 15.9517 6.70742 15.6616 6.70742ZM9.35347 10.0611C9.6435 10.0611 9.86103 9.90393 9.86103 9.69432C9.86103 9.48472 9.6435 9.32751 9.35347 9.32751C9.06344 9.32751 8.84592 9.48472 8.84592 9.69432C8.84592 9.90393 9.13595 10.0611 9.35347 10.0611ZM9.35347 10.1135C8.99094 10.1135 8.70091 9.90393 8.70091 9.64192C8.70091 9.37991 8.99094 9.17031 9.35347 9.17031C9.71601 9.17031 10.006 9.37991 10.006 9.64192C10.006 9.95633 9.71601 10.1135 9.35347 10.1135ZM9.78852 8.75109C10.0786 8.75109 10.2961 8.59389 10.2961 8.38428C10.2961 8.17467 10.0786 8.01747 9.78852 8.01747C9.49849 8.01747 9.28097 8.17467 9.28097 8.38428C9.28097 8.59389 9.49849 8.75109 9.78852 8.75109ZM9.78852 8.8559C9.42598 8.8559 9.13595 8.64629 9.13595 8.38428C9.13595 8.12227 9.42598 7.91266 9.78852 7.91266C10.1511 7.91266 10.4411 8.12227 10.4411 8.38428C10.4411 8.64629 10.1511 8.8559 9.78852 8.8559ZM10.5136 7.59825C10.8036 7.59825 11.0211 7.44105 11.0211 7.23144C11.0211 7.02183 10.8036 6.86463 10.5136 6.86463C10.2236 6.86463 10.006 7.02183 10.006 7.23144C10.006 7.44105 10.2961 7.59825 10.5136 7.59825ZM10.5136 7.70306C10.1511 7.70306 9.86103 7.49345 9.86103 7.23144C9.86103 6.96943 10.1511 6.75982 10.5136 6.75982C10.8761 6.75982 11.1662 6.96943 11.1662 7.23144C11.1662 7.49345 10.8761 7.70306 10.5136 7.70306ZM11.7462 6.60262C12.0363 6.60262 12.2538 6.44541 12.2538 6.23581C12.2538 6.0262 12.0363 5.869 11.7462 5.869C11.4562 5.869 11.2387 6.0262 11.2387 6.23581C11.2387 6.44541 11.4562 6.60262 11.7462 6.60262ZM11.7462 6.70742C11.3837 6.70742 11.0937 6.49782 11.0937 6.23581C11.0937 5.9738 11.3837 5.76419 11.7462 5.76419C12.1088 5.76419 12.3988 5.9738 12.3988 6.23581C12.3988 6.49782 12.1088 6.70742 11.7462 6.70742ZM13.1964 5.81659C13.4864 5.81659 13.7039 5.65939 13.7039 5.44978C13.7039 5.24017 13.4864 5.08297 13.1964 5.08297C12.9063 5.08297 12.6888 5.24017 12.6888 5.44978C12.6888 5.65939 12.9063 5.81659 13.1964 5.81659ZM13.1964 5.9214C12.8338 5.9214 12.5438 5.71179 12.5438 5.44978C12.5438 5.18777 12.8338 4.97817 13.1964 4.97817C13.5589 4.97817 13.8489 5.18777 13.8489 5.44978C13.8489 5.71179 13.5589 5.9214 13.1964 5.9214ZM14.7915 5.39738C15.0816 5.39738 15.2991 5.24017 15.2991 5.03057C15.2991 4.82096 15.0816 4.66375 14.7915 4.66375C14.5015 4.66375 14.284 4.82096 14.284 5.03057C14.284 5.24017 14.5015 5.39738 14.7915 5.39738ZM14.7915 5.50218C14.429 5.50218 14.139 5.29258 14.139 5.03057C14.139 4.76856 14.429 4.55895 14.7915 4.55895C15.1541 4.55895 15.4441 4.76856 15.4441 5.03057C15.4441 5.29258 15.1541 5.50218 14.7915 5.50218ZM16.3867 5.50218C16.6767 5.50218 16.8943 5.34498 16.8943 5.13537C16.8943 4.92576 16.6767 4.76856 16.3867 4.76856C16.0967 4.76856 15.8792 4.92576 15.8792 5.13537C15.8792 5.34498 16.1692 5.50218 16.3867 5.50218ZM16.3867 5.60699C16.0242 5.60699 15.7341 5.39738 15.7341 5.13537C15.7341 4.87336 16.0242 4.66375 16.3867 4.66375C16.7492 4.66375 17.0393 4.87336 17.0393 5.13537C17.0393 5.39738 16.7492 5.60699 16.3867 5.60699ZM17.6193 4.50655C17.9094 4.50655 18.1269 4.34934 18.1269 4.13974C18.1269 3.93013 17.9094 3.77293 17.6193 3.77293C17.3293 3.77293 17.1118 3.93013 17.1118 4.13974C17.1118 4.34934 17.3293 4.50655 17.6193 4.50655ZM17.6193 4.61135C17.2568 4.61135 16.9668 4.40175 16.9668 4.13974C16.9668 3.87773 17.2568 3.66812 17.6193 3.66812C17.9819 3.66812 18.2719 3.87773 18.2719 4.13974C18.2719 4.40175 17.9819 4.61135 17.6193 4.61135ZM19.142 3.77293C19.432 3.77293 19.6495 3.61572 19.6495 3.40611C19.6495 3.19651 19.432 3.0393 19.142 3.0393C18.852 3.0393 18.6344 3.19651 18.6344 3.40611C18.6344 3.61572 18.852 3.77293 19.142 3.77293ZM19.142 3.87773C18.7795 3.87773 18.4894 3.66812 18.4894 3.40611C18.4894 3.1441 18.7795 2.9345 19.142 2.9345C19.5045 2.9345 19.7946 3.1441 19.7946 3.40611C19.7946 3.66812 19.5045 3.87773 19.142 3.87773ZM20.7372 3.35371C21.0272 3.35371 21.2447 3.19651 21.2447 2.9869C21.2447 2.77729 21.0272 2.62009 20.7372 2.62009C20.4471 2.62009 20.2296 2.77729 20.2296 2.9869C20.2296 3.19651 20.4471 3.35371 20.7372 3.35371ZM20.7372 3.45852C20.3746 3.45852 20.0846 3.24891 20.0846 2.9869C20.0846 2.72489 20.3746 2.51528 20.7372 2.51528C21.0997 2.51528 21.3897 2.72489 21.3897 2.9869C21.3897 3.24891 21.0997 3.45852 20.7372 3.45852ZM24 6.86463C24.29 6.86463 24.5076 6.70742 24.5076 6.49782C24.5076 6.28821 24.29 6.131 24 6.131C23.71 6.131 23.4924 6.28821 23.4924 6.49782C23.4924 6.70742 23.71 6.86463 24 6.86463ZM24 6.96943C23.6375 6.96943 23.3474 6.75982 23.3474 6.49782C23.3474 6.23581 23.6375 6.0262 24 6.0262C24.3625 6.0262 24.6526 6.23581 24.6526 6.49782C24.6526 6.75982 24.3625 6.96943 24 6.96943ZM24 5.55458C24.29 5.55458 24.5076 5.39738 24.5076 5.18777C24.5076 4.97817 24.29 4.82096 24 4.82096C23.71 4.82096 23.4924 4.97817 23.4924 5.18777C23.4924 5.39738 23.71 5.55458 24 5.55458ZM24 5.65939C23.6375 5.65939 23.3474 5.44978 23.3474 5.18777C23.3474 4.92576 23.6375 4.71616 24 4.71616C24.3625 4.71616 24.6526 4.92576 24.6526 5.18777C24.6526 5.44978 24.3625 5.65939 24 5.65939ZM24 4.24454C24.29 4.24454 24.5076 4.08734 24.5076 3.87773C24.5076 3.66812 24.29 3.51092 24 3.51092C23.71 3.51092 23.4924 3.66812 23.4924 3.87773C23.4924 4.08734 23.71 4.24454 24 4.24454ZM24 4.34934C23.6375 4.34934 23.3474 4.13974 23.3474 3.87773C23.3474 3.61572 23.6375 3.40611 24 3.40611C24.3625 3.40611 24.6526 3.61572 24.6526 3.87773C24.6526 4.13974 24.3625 4.34934 24 4.34934ZM22.4048 3.1441C22.6949 3.1441 22.9124 2.9869 22.9124 2.77729C22.9124 2.56769 22.6949 2.41048 22.4048 2.41048C22.1148 2.41048 21.8973 2.56769 21.8973 2.77729C21.8973 2.9869 22.1148 3.1441 22.4048 3.1441ZM22.4048 3.24891C22.0423 3.24891 21.7523 3.0393 21.7523 2.77729C21.7523 2.51528 22.0423 2.30568 22.4048 2.30568C22.7674 2.30568 23.0574 2.51528 23.0574 2.77729C23.0574 3.0393 22.7674 3.24891 22.4048 3.24891ZM38.864 10.7948C38.429 10.6376 37.8489 10.7424 37.6314 11.0568C37.4139 11.3712 37.5589 11.7904 37.994 11.9476C38.429 12.1048 39.0091 12 39.2266 11.6856C39.4441 11.3712 39.2991 10.952 38.864 10.7948ZM38.9366 10.69C39.4441 10.8996 39.6616 11.3712 39.3716 11.738C39.0816 12.1048 38.429 12.2096 37.9215 12.0524C37.4139 11.8428 37.1964 11.4236 37.4864 11.0568C37.7764 10.6376 38.429 10.4803 38.9366 10.69ZM11.3112 10.952C11.1662 10.69 11.0211 10.4803 10.5861 10.4279C10.8036 8.17467 11.6012 7.17904 14.429 6.131C14.6465 6.18341 14.6465 6.23581 14.6465 6.23581C14.6465 6.55022 14.864 6.70742 15.1541 6.86463C14.6465 6.91703 14.2115 7.12664 14.2115 7.54585C14.2115 7.91266 14.574 8.12227 15.0091 8.17467C14.864 8.38428 14.864 8.43668 14.864 8.69869C14.284 8.9083 14.139 9.17031 14.284 9.58952C14.5015 10.1659 15.0091 10.2707 15.8066 10.1135C15.9517 11.0568 14.5015 11.4236 13.7764 10.7424C13.7764 10.69 13.7764 10.6376 13.7764 10.5852C13.6314 10.2183 13.1239 10.0087 12.6888 10.1135C12.1813 10.2183 11.8912 10.5852 12.0363 10.8996C12.0363 11.0044 12.1813 11.1092 12.2538 11.214C12.3263 11.5284 12.1088 11.8428 11.6737 12C11.2387 12.1572 10.9486 12.1048 10.5136 12C11.2387 11.738 11.6012 11.5284 11.3112 10.952ZM11.3112 8.54148C11.0211 9.0655 10.8761 9.64192 10.8036 10.3231C11.1662 10.4279 11.3112 10.69 11.4562 10.8996C11.6737 11.2664 11.6737 11.6332 11.0937 11.9476C11.2387 11.9476 11.4562 11.9476 11.6012 11.8952C11.8912 11.7904 12.1088 11.5284 12.0363 11.3188C11.9637 11.214 11.8187 11.1092 11.8187 11.0044C11.6737 10.5852 12.0363 10.1135 12.6163 10.0087C13.1964 9.90393 13.8489 10.1659 13.994 10.5852V10.7424C14.5015 11.214 15.5166 10.952 15.5891 10.3755C14.6465 10.5328 14.2115 10.1659 14.0665 9.69432C13.9215 9.32751 13.994 8.9083 14.574 8.69869C14.574 8.59389 14.574 8.48908 14.6465 8.38428C14.284 8.27948 14.0665 8.06987 13.994 7.80786C13.4864 7.91266 12.8338 8.01747 12.3263 8.12227C11.9637 8.17467 11.6012 8.38428 11.3112 8.54148ZM14.5015 6.28821C12.9063 6.86463 12.0363 7.49345 11.4562 8.33188C11.7462 8.17467 12.0363 8.06987 12.3988 7.96507C12.9063 7.80786 13.5589 7.70306 14.0665 7.59825V7.54585C14.0665 7.23144 14.3565 6.91703 14.7915 6.81223C14.6465 6.65502 14.5015 6.49782 14.5015 6.28821ZM36.2538 12C35.8187 11.8428 35.6737 11.5284 35.6737 11.214C35.7462 11.1092 35.8187 11.0568 35.8912 10.8996C36.0363 10.5328 35.7462 10.1659 35.2387 10.1135C34.7311 10.0087 34.2236 10.2183 34.1511 10.5852C34.1511 10.6376 34.1511 10.69 34.1511 10.7424C33.426 11.4236 32.0483 11.0568 32.1208 10.1135C32.9184 10.2707 33.426 10.1659 33.6435 9.58952C33.7885 9.17031 33.6435 8.9083 33.0634 8.69869C33.0634 8.48908 33.0634 8.38428 32.9184 8.17467C33.3535 8.06987 33.716 7.86026 33.716 7.49345C33.716 7.07424 33.281 6.91703 32.7734 6.81223C33.0634 6.65502 33.281 6.49782 33.281 6.18341V6.131L33.4985 6.0786C36.3263 7.07424 37.1964 8.12227 37.4139 10.3755C37.0514 10.4803 36.8338 10.6376 36.6888 10.8996C36.3988 11.476 36.7613 11.6856 37.4139 11.9476C37.0514 12.1048 36.6888 12.1572 36.2538 12ZM33.9335 7.70306C33.861 7.96507 33.571 8.17467 33.281 8.27948C33.3535 8.38428 33.3535 8.48908 33.3535 8.59389C34.006 8.80349 34.006 9.22271 33.861 9.58952C33.716 10.0611 33.281 10.3755 32.3384 10.2707C32.4109 10.8472 33.426 11.1092 33.9335 10.6376C33.9335 10.5852 33.9335 10.5328 33.9335 10.4803C34.0785 10.0611 34.7311 9.79913 35.3112 9.90393C35.8912 10.0087 36.2538 10.4279 36.1088 10.8996C36.0363 11.0044 35.9637 11.1616 35.8912 11.214C35.8912 11.5808 36.3263 11.8952 36.8338 11.8952C36.2538 11.6332 36.2538 11.214 36.4713 10.8472C36.6163 10.5852 36.8338 10.3755 37.1239 10.2707C37.0514 9.58952 36.9063 8.9607 36.6163 8.48908C36.3263 8.33188 35.9637 8.12227 35.5287 8.01747C35.0937 7.91266 34.4411 7.80786 33.9335 7.70306ZM33.4985 6.28821C33.4985 6.49782 33.3535 6.65502 33.2085 6.81223C33.6435 6.91703 33.9335 7.23144 33.9335 7.54585V7.59825C34.5136 7.70306 35.0937 7.80786 35.6012 7.96507C35.9637 8.06987 36.2538 8.22707 36.5438 8.33188C36.0363 7.49345 35.0937 6.91703 33.4985 6.28821ZM30.2357 13.2576L28.6405 12.4716L30.5982 12.3144L32.1934 13.1004L30.2357 13.2576ZM27.2628 12.786C26.9003 12.786 26.6103 12.5764 26.6103 12.3144C26.6103 12.0524 26.9003 11.8428 27.2628 11.8428C27.6254 11.8428 27.9154 12.0524 27.9154 12.3144C27.9154 12.5764 27.6254 12.786 27.2628 12.786ZM27.2628 12.6812C27.5529 12.6812 27.7704 12.524 27.7704 12.3144C27.7704 12.1048 27.5529 11.9476 27.2628 11.9476C26.9728 11.9476 26.7553 12.1048 26.7553 12.3144C26.7553 12.524 26.9728 12.6812 27.2628 12.6812ZM14.5015 13.9389C14.7915 13.9389 15.0091 13.7817 15.0091 13.5721C15.0091 13.3624 14.7915 13.2052 14.5015 13.2052C14.2115 13.2052 13.994 13.3624 13.994 13.5721C13.994 13.7293 14.2115 13.9389 14.5015 13.9389ZM14.5015 13.9913C14.139 13.9913 13.8489 13.7817 13.8489 13.5196C13.8489 13.2576 14.139 13.048 14.5015 13.048C14.864 13.048 15.1541 13.2576 15.1541 13.5196C15.1541 13.8341 14.864 13.9913 14.5015 13.9913ZM20.7372 12.6812C21.0272 12.6812 21.2447 12.524 21.2447 12.3144C21.2447 12.1048 21.0272 11.9476 20.7372 11.9476C20.4471 11.9476 20.2296 12.1048 20.2296 12.3144C20.2296 12.524 20.5196 12.6812 20.7372 12.6812ZM20.7372 12.786C20.3746 12.786 20.0846 12.5764 20.0846 12.3144C20.0846 12.0524 20.3746 11.8428 20.7372 11.8428C21.0997 11.8428 21.3897 12.0524 21.3897 12.3144C21.3897 12.5764 21.0997 12.786 20.7372 12.786ZM33.4985 13.9389C33.7885 13.9389 34.006 13.7817 34.006 13.5721C34.006 13.3624 33.7885 13.2052 33.4985 13.2052C33.2085 13.2052 32.9909 13.3624 32.9909 13.5721C32.9909 13.7293 33.2085 13.9389 33.4985 13.9389ZM33.4985 13.9913C33.136 13.9913 32.8459 13.7817 32.8459 13.5196C32.8459 13.2576 33.136 13.048 33.4985 13.048C33.861 13.048 34.1511 13.2576 34.1511 13.5196C34.1511 13.8341 33.861 13.9913 33.4985 13.9913ZM17.7644 13.2576L15.8066 13.1004L17.4018 12.3144L19.3595 12.4716L17.7644 13.2576ZM25.5952 12.2096L24 11.7904L22.4048 12.2096L24 12.6288L25.5952 12.2096ZM26.0302 12.2096L24 12.7336L21.9698 12.2096L24 11.6856L26.0302 12.2096Z" fill="#004996"/>
</svg>
