<svg width="48" height="48" viewBox="0 0 48 48" fill="none" xmlns="http://www.w3.org/2000/svg">
<g clip-path="url(#clip0_204_1889)">
<path d="M30.2224 18.9769C28.6113 17.0733 26.4159 15.8994 23.9994 15.8994C21.5832 15.8994 19.3881 17.0733 17.7771 18.9769H0L24 48.0002L48 18.9769H30.2224Z" fill="#DE9500"/>
<path d="M23.9993 16.9155C28.4704 16.9155 32.1092 21.3467 32.1092 26.794C32.1092 32.2411 28.4704 36.6715 23.9993 36.6715C19.5282 36.6715 15.8906 32.241 15.8906 26.794C15.8906 21.3466 19.5282 16.9155 23.9993 16.9155Z" fill="white"/>
<path d="M20.2543 24.878H20.9247V23.6392H20.2543V22.148H22.2189V26.2284H20.2543V24.878ZM20.2543 30.2536H20.9247V29.0161H20.2543V27.6925H22.2189V31.663H20.2543V30.2536ZM25.7546 31.6629H23.3747V27.6924H23.838V28.1157H24.5077V27.6924H25.4556C25.7177 27.6924 25.7546 28.2617 25.7546 28.2617L25.7546 31.6629ZM25.7546 25.3953L25.751 25.5814C25.751 25.5814 25.6923 26.2192 25.3514 26.2285H24.5078V25.6944H23.838V26.2285H23.3748V22.1481H25.7547L25.7546 25.3953ZM28.6826 30.3669C28.6223 30.5806 28.3099 31.6517 27.9742 31.6517C27.957 31.6517 27.9464 31.6598 27.9352 31.663H26.7942V28.2002H26.7877C26.7721 27.9703 26.6916 27.7233 26.6795 27.6925H27.8622C27.9555 27.7037 28.73 28.0725 28.7333 29.2413H27.9743V30.3669H28.6826ZM28.7351 24.8502V24.8517C28.7351 24.8517 28.3191 26.2271 27.9548 26.2271L27.93 26.2284H26.6387C26.6576 26.1834 26.7942 25.8672 26.7942 25.5813V22.1478H27.8967C27.9163 22.1558 28.7351 22.5077 28.7351 23.7232H27.9742V24.8501L28.7351 24.8502ZM30.5172 23.7233H29.8284C29.8284 23.7142 29.6854 21.4975 28.3197 20.7686H26.8501V20.7243C26.8501 18.9295 25.77 18.5609 24.983 18.5609C24.1968 18.5609 23.8308 18.9619 23.8308 18.9619V20.2562C23.8308 20.2562 23.8495 19.8002 24.8672 19.8002C26.0011 19.8002 25.7784 20.7677 25.7784 20.7677L23.3747 20.7685V19.9787C23.3747 18.6398 22.8186 18.2886 22.1686 18.2886L21.7109 18.2903V19.7262H21.9875C22.1719 19.7262 22.2107 19.8938 22.2189 20.0097V20.7684H18.5215V22.1476H19.3315V23.6389H18.5215V24.8777H19.3315V26.2281H18.5215V27.6922H19.3315V29.0158H18.5215V30.2533H19.3315V31.6627H18.5215V32.9015H22.1615V33.2528C22.1615 33.4922 21.9875 33.4633 21.9875 33.4633H21.62V34.8993H22.3574C22.6606 34.8993 23.3518 34.5172 23.3518 33.5752V33.0697L23.353 32.9014H25.7626C25.7626 33.5568 25.4809 33.8679 24.7418 33.8679C24.0031 33.8679 23.7953 33.4336 23.7953 33.4336V34.7389C24.0147 35.0366 24.9174 35.1212 24.9174 35.1212C26.752 35.1212 26.8061 33.2527 26.7991 32.9014H28.4346C28.4346 32.9014 29.5955 32.3055 29.7492 30.3665H30.5171V29.2409H29.7998C29.7982 29.1591 29.7628 27.3545 28.9812 26.8383C28.9812 26.8383 29.7324 26.3208 29.7392 24.8513L29.7338 24.8498H30.5172V23.7233Z" fill="#00954C"/>
<path d="M5.40527 19.9927V24.0812L8.78614 28.1697V19.9927H5.40527Z" fill="#00954C"/>
<path d="M5.40528 24.0812V19.9927H2.02441L5.40528 24.0812Z" fill="white"/>
<path d="M15.0565 26.7937C15.0565 25.5482 15.2304 24.3517 15.5479 23.2362V19.9927H12.167V32.2582L15.5479 36.3466V30.3553C15.2298 29.2388 15.0565 28.0405 15.0565 26.7937Z" fill="#00954C"/>
<path d="M12.167 19.9927H8.78613V28.1697L12.167 32.2582V19.9927Z" fill="white"/>
<path d="M18.9287 35.7617V40.4351L22.3096 44.5236V37.4914C21.074 37.2023 19.928 36.6028 18.9287 35.7617Z" fill="#00954C"/>
<path d="M15.5479 30.3555V36.3468L18.9287 40.4353V35.7619C17.3758 34.455 16.1774 32.566 15.5479 30.3555Z" fill="white"/>
<path d="M17.0185 19.9927H15.5479V23.2362C15.8856 22.0493 16.386 20.9542 17.0185 19.9927Z" fill="white"/>
<path d="M25.6904 37.4911V44.5236L29.0713 40.435V35.7612C28.072 36.6023 26.926 37.2019 25.6904 37.4911Z" fill="#00954C"/>
<path d="M23.9994 37.6874C23.4217 37.6874 22.857 37.6195 22.3096 37.4915V44.5237L24 46.568L25.6904 44.5237V37.4912C25.1427 37.6193 24.5774 37.6874 23.9994 37.6874Z" fill="white"/>
<path d="M32.4521 19.9927V23.2364C32.7696 24.3518 32.9435 25.5483 32.9435 26.7937C32.9435 28.0403 32.7702 29.2386 32.4521 30.3552V36.3467L35.833 32.2582V19.9927H32.4521Z" fill="#00954C"/>
<path d="M29.0713 35.7612V40.435L32.4522 36.3465V30.355C31.8226 32.5653 30.6242 34.4542 29.0713 35.7612Z" fill="white"/>
<path d="M30.9814 19.9927C31.614 20.9543 32.1144 22.0494 32.4523 23.2364V19.9927H30.9814Z" fill="white"/>
<path d="M39.2139 28.1696L42.5947 24.0812V19.9927H39.2139V28.1696Z" fill="#00954C"/>
<path d="M39.2139 19.9927H35.833V32.2581L39.2139 28.1696V19.9927Z" fill="white"/>
<path d="M45.9756 19.9927H42.5947V24.0812L45.9756 19.9927Z" fill="white"/>
<path d="M22.9324 10.6225C22.9324 10.1527 23.1405 9.74282 23.4494 9.51865V6.63135C21.5363 6.73258 19.8032 7.368 18.4736 8.35877C18.6073 9.01805 18.9477 9.64902 19.4648 10.1969C19.5948 10.1262 19.7385 10.0861 19.8906 10.0861C20.4736 10.0861 20.9458 10.6617 20.9458 11.3721C20.9458 11.8808 20.7023 12.3193 20.3504 12.5275L20.356 12.544C20.4551 12.7868 20.6259 12.9687 20.8373 13.0553C21.0483 13.1416 21.2745 13.1227 21.4745 13.0021C21.6744 12.8812 21.823 12.6728 21.8938 12.4154C21.9046 12.3781 21.9122 12.3398 21.9188 12.3009C21.7539 12.2125 21.6678 11.9849 21.7261 11.7724C21.7883 11.5466 21.9895 11.4257 22.1745 11.5017C22.3593 11.5772 22.4589 11.8216 22.3969 12.0475C22.3738 12.1295 22.3328 12.1974 22.2807 12.2473C22.3787 12.4729 22.5435 12.6519 22.7483 12.7352C22.9596 12.8215 23.1855 12.803 23.3855 12.6819C23.5854 12.5611 23.7337 12.3534 23.8049 12.0956C23.8237 12.0295 23.8337 11.962 23.8405 11.894C23.3279 11.8059 22.9324 11.2717 22.9324 10.6225Z" fill="#D7013E"/>
<path d="M19.8902 12.6572C19.3072 12.6572 18.8347 12.0819 18.8347 11.3722C18.8347 11.3503 18.8364 11.3285 18.838 11.3068C18.2256 10.6875 17.7822 9.96524 17.5349 9.18799C16.6343 10.1308 16.0378 11.2753 15.8672 12.5251C15.9608 12.4916 16.0589 12.473 16.162 12.473C16.7442 12.473 17.2167 13.0483 17.2167 13.7583C17.2167 14.0902 17.1124 14.3928 16.9422 14.621C17.0921 14.7964 17.2949 14.9041 17.5187 14.9041C17.9785 14.9041 18.3529 14.4484 18.3529 13.8882C18.3529 13.8482 18.3501 13.8094 18.3461 13.7705C18.1669 13.7495 18.0259 13.568 18.0259 13.3436C18.0259 13.1056 18.1841 12.9129 18.3793 12.9129C18.5749 12.9129 18.7329 13.1056 18.7329 13.3436C18.7329 13.4301 18.7118 13.5108 18.6755 13.5782C18.8277 13.7544 19.0307 13.8594 19.2464 13.8594C19.7068 13.8594 20.0808 13.4039 20.0808 12.8437C20.0808 12.7737 20.0735 12.7056 20.062 12.6387C20.0056 12.6499 19.9491 12.6572 19.8902 12.6572Z" fill="#D7013E"/>
<path d="M25.0683 10.6225C25.0683 10.1527 24.8601 9.74282 24.5512 9.51865V6.63135C26.4643 6.73258 28.1974 7.368 29.527 8.35877C29.3933 9.01805 29.0529 9.64902 28.5359 10.1969C28.4059 10.1262 28.2621 10.0861 28.1101 10.0861C27.527 10.0861 27.0548 10.6617 27.0548 11.3721C27.0548 11.8808 27.2983 12.3193 27.6502 12.5275L27.6447 12.544C27.5455 12.7868 27.3747 12.9687 27.1633 13.0553C26.9523 13.1416 26.7261 13.1227 26.5261 13.0021C26.3263 12.8812 26.1776 12.6728 26.1068 12.4154C26.096 12.3781 26.0884 12.3398 26.0819 12.3009C26.2467 12.2125 26.3328 11.9849 26.2745 11.7724C26.2124 11.5466 26.0111 11.4257 25.8262 11.5017C25.6413 11.5772 25.5417 11.8216 25.6037 12.0475C25.6268 12.1295 25.6678 12.1974 25.7199 12.2473C25.622 12.4729 25.4571 12.6519 25.2523 12.7352C25.041 12.8215 24.8151 12.803 24.6151 12.6819C24.4153 12.5611 24.2669 12.3534 24.1958 12.0956C24.1769 12.0295 24.1669 11.962 24.1602 11.894C24.6727 11.8059 25.0683 11.2717 25.0683 10.6225Z" fill="#D7013E"/>
<path d="M28.1095 12.6572C28.6925 12.6572 29.165 12.0819 29.165 11.3722C29.165 11.3503 29.1633 11.3285 29.1617 11.3068C29.7741 10.6875 30.2175 9.96524 30.4648 9.18799C31.3654 10.1308 31.9619 11.2753 32.1325 12.5251C32.0389 12.4916 31.9408 12.473 31.8377 12.473C31.2555 12.473 30.783 13.0483 30.783 13.7583C30.783 14.0902 30.8873 14.3928 31.0575 14.621C30.9076 14.7964 30.7048 14.9041 30.481 14.9041C30.0212 14.9041 29.6468 14.4484 29.6468 13.8882C29.6468 13.8482 29.6496 13.8094 29.6536 13.7705C29.8328 13.7495 29.9738 13.568 29.9738 13.3436C29.9738 13.1056 29.8156 12.9129 29.6204 12.9129C29.4248 12.9129 29.2668 13.1056 29.2668 13.3436C29.2668 13.4301 29.2879 13.5108 29.3242 13.5782C29.172 13.7544 28.969 13.8594 28.7533 13.8594C28.2929 13.8594 27.9189 13.4039 27.9189 12.8437C27.9189 12.7737 27.9262 12.7056 27.9377 12.6387C27.9941 12.6499 28.0506 12.6572 28.1095 12.6572Z" fill="#D7013E"/>
<path d="M34.4618 10.1059C34.4618 8.88742 34.0273 7.71773 33.2379 6.81373C32.3915 5.84175 31.2515 5.30148 29.9916 5.25975C29.0202 3.61269 27.1086 2.42182 24.8473 2.1772C24.8448 1.70738 24.5892 1.31142 24.2377 1.18095V0.984782L24.6589 0.984059L24.6584 0.396785L24.2364 0.397508L24.2362 0L24.0004 0.000309907L23.7647 0L23.7645 0.397508L23.3424 0.396785L23.342 0.984059L23.7631 0.984782V1.18095C23.4115 1.31142 23.156 1.70738 23.1536 2.1772C20.8922 2.42182 18.9807 3.61269 18.0093 5.25975C16.7494 5.30148 15.6093 5.84175 14.763 6.81373C13.9735 7.71773 13.5391 8.88742 13.5391 10.1059C13.5391 11.4316 14.107 12.6883 15.1241 13.6697C15.1225 13.6988 15.1203 13.7282 15.1203 13.758C15.1203 14.4672 15.5931 15.0429 16.1761 15.0429C16.292 15.0429 16.4035 15.0195 16.5082 14.9773C16.5944 15.1846 16.8784 15.7109 17.5456 15.7266C17.5043 15.7626 17.4618 15.7971 17.4204 15.8342C17.3101 15.9362 17.1484 16.218 17.3269 16.5579C17.4099 16.7146 17.5315 16.7972 17.679 16.7972C17.7307 16.7972 17.7789 16.7863 17.8196 16.7733L18.3602 17.6738L18.468 17.5778C20.0839 16.1357 21.9965 15.3727 24.0003 15.3727C26.0041 15.3727 27.9168 16.1357 29.5326 17.5778L29.6403 17.6738L30.1809 16.7733C30.2216 16.7863 30.2699 16.7972 30.3215 16.7972C30.4691 16.7972 30.5906 16.7145 30.6736 16.5579C30.8521 16.218 30.6904 15.9362 30.5802 15.8342C30.5388 15.797 30.4963 15.7625 30.4549 15.7266C31.1222 15.7109 31.4062 15.1846 31.4923 14.9773C31.597 15.0196 31.7085 15.0429 31.8244 15.0429C32.4075 15.0429 32.8802 14.4671 32.8802 13.758C32.8802 13.7282 32.8781 13.6988 32.8764 13.6697C33.8939 12.6883 34.4618 11.4316 34.4618 10.1059ZM19.2606 13.8587C19.0446 13.8587 18.8417 13.7537 18.6896 13.5775C18.7259 13.5102 18.7473 13.4297 18.7473 13.3431C18.7473 13.1053 18.589 12.9125 18.3933 12.9125C18.1983 12.9125 18.04 13.1053 18.04 13.3431C18.04 13.5676 18.1809 13.7491 18.3603 13.7701C18.3642 13.8089 18.367 13.8477 18.367 13.8879C18.367 14.4481 17.9927 14.9037 17.5327 14.9037C17.3089 14.9037 17.1062 14.7959 16.9564 14.6205C17.1264 14.3925 17.2309 14.0897 17.2309 13.758C17.2309 13.048 16.7584 12.4727 16.1761 12.4727C16.0731 12.4727 15.9749 12.4911 15.8815 12.5248C15.8373 12.5407 15.7942 12.5584 15.7525 12.5808C15.0305 11.8642 14.6286 10.9948 14.6286 10.1058C14.6286 9.25704 14.9413 8.43041 15.5093 7.78002C16.0268 7.18644 16.6949 6.8036 17.4465 6.65505C17.365 7.00236 17.3214 7.36113 17.3214 7.72837C17.3214 8.22804 17.3996 8.71769 17.5492 9.18762C17.7963 9.96497 18.2398 10.6871 18.8521 11.3062C18.8504 11.328 18.8488 11.3497 18.8488 11.3717C18.8488 12.0816 19.3215 12.6567 19.9043 12.6567C19.9631 12.6567 20.0197 12.6493 20.0762 12.6382C20.0872 12.705 20.0947 12.7732 20.0947 12.8429C20.0948 13.4033 19.7208 13.8587 19.2606 13.8587ZM23.8186 12.0956C23.7475 12.3532 23.5991 12.5611 23.3994 12.6818C23.1996 12.8027 22.9732 12.8213 22.7623 12.7349C22.5573 12.6516 22.3925 12.4727 22.2947 12.247C22.3466 12.1973 22.3878 12.1295 22.4107 12.0472C22.4726 11.8213 22.3731 11.5769 22.1882 11.5017C22.003 11.4257 21.802 11.5466 21.7396 11.7723C21.6816 11.9848 21.7677 12.2121 21.9327 12.3008C21.9262 12.3398 21.9181 12.378 21.9076 12.4153C21.8368 12.6725 21.6879 12.8812 21.4882 13.0021C21.2883 13.1226 21.0622 13.1415 20.8511 13.0551C20.6398 12.9684 20.4689 12.7867 20.3697 12.544L20.3641 12.5272C20.7161 12.319 20.9596 11.8805 20.9596 11.3718C20.9596 10.6616 20.4874 10.0858 19.9043 10.0858C19.7523 10.0858 19.6086 10.1262 19.4783 10.1969C18.9615 9.64896 18.6212 9.01799 18.4875 8.35872C18.4454 8.15077 18.4234 7.94055 18.4234 7.72847C18.4234 5.56222 20.6793 3.71145 23.463 3.49245V9.51839C23.1543 9.74276 22.9462 10.1526 22.9462 10.6225C22.9462 11.2716 23.3415 11.8058 23.8541 11.8939C23.8473 11.9618 23.8372 12.0293 23.8186 12.0956ZM27.631 12.544C27.5319 12.7867 27.3609 12.9684 27.1497 13.0551C26.9387 13.1415 26.7125 13.1226 26.5125 13.0021C26.3129 12.8812 26.164 12.6726 26.0932 12.4153C26.0827 12.378 26.0746 12.3398 26.0681 12.3008C26.2331 12.2122 26.3192 11.9848 26.2612 11.7723C26.1988 11.5465 25.9978 11.4257 25.8126 11.5017C25.6277 11.5769 25.5281 11.8213 25.5901 12.0472C25.6131 12.1295 25.6542 12.1973 25.7061 12.247C25.6083 12.4728 25.4435 12.6517 25.2385 12.7349C25.0277 12.8213 24.8013 12.8028 24.6014 12.6818C24.4016 12.5611 24.2533 12.3531 24.1822 12.0956C24.1636 12.0293 24.1535 11.9619 24.1466 11.8939C24.6592 11.8058 25.0545 11.2716 25.0545 10.6225C25.0545 10.1527 24.8464 9.74276 24.5377 9.51839V3.49245C27.3214 3.71155 29.5773 5.56222 29.5773 7.72847C29.5773 7.94055 29.5553 8.15077 29.5132 8.35872C29.3796 9.01799 29.0392 9.64896 28.5224 10.1969C28.3921 10.1261 28.2484 10.0858 28.0964 10.0858C27.5133 10.0858 27.0411 10.6616 27.0411 11.3718C27.0411 11.8805 27.2846 12.319 27.6366 12.5272L27.631 12.544ZM32.2483 12.5809C32.2067 12.5584 32.1635 12.5408 32.1193 12.5249C32.0258 12.4912 31.9277 12.4728 31.8247 12.4728C31.2424 12.4728 30.7699 13.0481 30.7699 13.7581C30.7699 14.0898 30.8744 14.3926 31.0444 14.6206C30.8946 14.796 30.6919 14.9038 30.4681 14.9038C30.0081 14.9038 29.6338 14.4482 29.6338 13.888C29.6338 13.8479 29.6366 13.809 29.6404 13.7702C29.8199 13.7492 29.9608 13.5677 29.9608 13.3432C29.9608 13.1054 29.8025 12.9126 29.6074 12.9126C29.4118 12.9126 29.2535 13.1054 29.2535 13.3432C29.2535 13.4298 29.2749 13.5103 29.3112 13.5776C29.1591 13.7538 28.9561 13.8589 28.7401 13.8589C28.28 13.8589 27.906 13.4033 27.906 12.8431C27.906 12.7733 27.9135 12.7051 27.9245 12.6384C27.981 12.6494 28.0376 12.6569 28.0964 12.6569C28.6792 12.6569 29.1519 12.0818 29.1519 11.3719C29.1519 11.3499 29.1502 11.3282 29.1486 11.3065C29.7609 10.6873 30.2044 9.96517 30.4515 9.18782C30.6011 8.7179 30.6793 8.22825 30.6793 7.72857C30.6793 7.36144 30.6357 7.00267 30.5542 6.65526C31.3058 6.80381 31.9739 7.18665 32.4914 7.78022C33.0594 8.43062 33.3721 9.25724 33.3721 10.106C33.3722 10.9949 32.9703 11.8643 32.2483 12.5809Z" fill="#DE9500"/>
</g>
<defs>
<clipPath id="clip0_204_1889">
<rect width="48" height="48" fill="white"/>
</clipPath>
</defs>
</svg>
