<svg width="48" height="48" viewBox="0 0 48 48" fill="none" xmlns="http://www.w3.org/2000/svg">
<mask id="mask0_204_34862" style="mask-type:luminance" maskUnits="userSpaceOnUse" x="0" y="0" width="48" height="48">
<path d="M0 0H48V48H0V0Z" fill="white"/>
</mask>
<g mask="url(#mask0_204_34862)">
<path d="M24.5023 8.80866V16.4294C26.9154 16.6484 28.8715 18.0755 29.2095 20.2848H43.7551C44.845 17.1137 45.6017 13.6767 46.0158 10.361C40.4282 5.71191 31.2365 5.21924 24.5023 8.80866ZM29.2152 21.0046C28.9249 23.4444 27.0449 24.9029 24.0179 24.9029C20.8766 24.9069 19.1156 23.1473 18.8253 21.0046H4.61352C7.75475 29.5833 13.3329 37.6539 21.1623 44.1753C22.3426 45.1567 23.3279 45.8958 24.0131 46.3845C24.7032 45.8957 25.6884 45.1566 26.864 44.1753C34.6933 37.6533 40.2716 29.583 43.4127 21.0046H29.2152ZM19.682 20.6957C19.682 22.6624 21.6239 24.2577 24.0179 24.2577C26.4167 24.2577 28.3585 22.6624 28.3585 20.6957C28.3585 18.7249 26.4166 17.1297 24.0179 17.1297C21.6239 17.1297 19.682 18.725 19.682 20.6957ZM47.6059 1.15657C48.9671 18.3024 42.6228 31.0878 28.8969 44.1246C26.5125 46.3924 24.0137 47.8235 24.0137 47.8235C24.0137 47.8235 21.5244 46.3846 19.1305 44.1246C5.51332 31.26 -1.08808 17.994 0.277782 0.848227C3.4619 2.98312 7.2123 3.92155 11.6434 3.92155C16.36 3.92155 20.7436 2.58826 24.0129 0.203125C27.2827 2.58826 31.59 4.035 36.3068 4.035C40.7378 4.035 44.3742 3.12784 47.563 0.9929L47.6059 1.15657ZM46.1828 8.90244C46.3684 6.93571 46.435 4.95327 46.3779 2.95912C43.408 4.35499 39.9716 5.15267 36.3069 5.15267C31.6854 5.15267 27.4257 3.8858 24.013 1.75091C20.6004 3.8858 16.3406 5.15267 11.7239 5.15267C8.05436 5.15267 4.61799 4.35501 1.65283 2.95912C1.59568 4.95327 1.6577 6.93571 1.84321 8.90244C7.9401 4.49973 17.1016 4.1869 24.0125 7.7607C30.9233 4.1869 40.0907 4.49973 46.1828 8.90244Z" fill="#C79100"/>
<path d="M1.70506 3.02285C1.65267 4.94663 1.71481 6.88992 1.89068 8.8097C5.0938 6.52226 9.28684 5.26717 13.7036 5.26717C17.3589 5.26717 20.9239 6.10784 24.0174 7.70315C27.1112 6.10779 30.6759 5.26717 34.3312 5.26717C38.748 5.26717 42.9411 6.52226 46.1442 8.8097C46.3203 6.88982 46.3822 4.94653 46.3298 3.02285C43.2885 4.43833 39.8237 5.18909 36.3111 5.18909C31.8276 5.18909 27.5774 4.01602 24.0172 1.79514C20.457 4.01612 16.2067 5.18909 11.728 5.18909C8.21078 5.18909 4.74638 4.43833 1.70506 3.02285ZM46.2344 8.98571L46.1535 8.93097C42.9599 6.62402 38.762 5.35325 34.331 5.35325C30.6852 5.35325 27.1299 6.19391 24.0458 7.78923L24.0172 7.80487L23.9887 7.78923C20.9045 6.19387 17.3491 5.35325 13.7033 5.35325C9.27229 5.35325 5.07448 6.62402 1.88086 8.93097L1.79995 8.98571L1.79504 8.89969C1.60941 6.92896 1.54754 4.92705 1.60466 2.94862V2.87823L1.68081 2.91349C4.72688 4.34459 8.19647 5.10313 11.7281 5.10313C16.1973 5.10313 20.4379 3.93006 23.9843 1.70918L24.0177 1.68963L24.0509 1.70918C27.5968 3.93016 31.8374 5.10313 36.3108 5.10313C39.8327 5.10313 43.3072 4.34458 46.3533 2.91349L46.4294 2.87823V2.94862C46.4866 4.92715 46.4246 6.92906 46.2438 8.89969L46.2344 8.98571ZM29.2617 20.2347H43.7208C44.7584 17.1926 45.539 13.7792 45.9674 10.3696C42.9451 7.86322 38.7901 6.48296 34.259 6.48296C30.7989 6.48296 27.4433 7.29232 24.5545 8.82504V16.3832C27.0817 16.6295 28.9237 18.1389 29.2617 20.2347ZM43.8023 20.3207H29.1665L29.1617 20.2855C28.8428 18.1936 27.0152 16.6921 24.4974 16.4614L24.4545 16.4574V8.77799L24.4783 8.76235C27.3863 7.21394 30.7704 6.39675 34.2591 6.39675C38.8235 6.39675 43.0166 7.79266 46.0579 10.3225L46.0722 10.3381V10.3578C45.6438 13.7948 44.8585 17.2279 43.8113 20.2895L43.8023 20.3207ZM24.0224 17.1653C21.6569 17.1653 19.7341 18.745 19.7341 20.6883C19.7341 22.6277 21.6569 24.2073 24.0224 24.2073C26.3878 24.2073 28.3106 22.6277 28.3106 20.6883C28.3106 18.745 26.3878 17.1653 24.0224 17.1653ZM24.0224 24.2934C21.5998 24.2934 19.634 22.6785 19.634 20.6883C19.634 18.698 21.5998 17.0792 24.0224 17.0792C26.445 17.0792 28.4107 18.698 28.4107 20.6883C28.4107 22.6785 26.445 24.2934 24.0224 24.2934ZM4.68955 21.0402C7.92594 29.8457 13.6326 37.8297 21.2053 44.1368C22.3952 45.1339 23.3852 45.869 24.0182 46.3226C24.6512 45.869 25.6411 45.13 26.831 44.1368C34.4033 37.8299 40.1143 29.8458 43.3468 21.0402L29.2631 21.0362C28.9585 23.5152 27.0499 24.9384 24.0229 24.9384C20.5723 24.9384 19.054 22.9326 18.7826 21.0362L4.68955 21.0402ZM24.0174 46.4361L23.9841 46.4126C23.3511 45.963 22.3468 45.2123 21.1284 44.1996C13.5322 37.8692 7.80117 29.8496 4.5699 21.0089L4.54617 20.9541H18.8724L18.8822 20.9892C19.1344 22.8583 20.6146 24.8524 24.0176 24.8524C27.0065 24.8524 28.8771 23.4448 29.1674 20.9892L29.1723 20.9541H43.4888L43.4651 21.0089C40.2334 29.8496 34.5029 37.8694 26.9066 44.1996C25.6929 45.2123 24.6839 45.963 24.0508 46.4126L24.0174 46.4361ZM0.325179 0.926494C-0.950393 17.2545 4.86577 30.5685 19.173 44.0898C21.3957 46.1894 23.7278 47.5932 24.0182 47.7653C24.3085 47.5932 26.6503 46.1934 28.8634 44.0898C35.9598 37.3449 40.8717 30.8268 43.8647 24.1602C47.0202 17.1339 48.2291 9.60698 47.558 1.15371L47.5342 1.06377C44.4405 3.11658 40.8709 4.07056 36.3114 4.07056C31.7756 4.07056 27.4111 2.71379 24.0174 0.250478C20.7239 2.64342 16.3309 3.95717 11.648 3.95717C7.1169 3.95717 3.40939 2.9637 0.325179 0.926494ZM24.0174 47.8708L23.989 47.8513C23.9652 47.8396 21.4617 46.385 19.0962 44.1445C4.74191 30.5843 -1.07967 17.2272 0.230138 0.836134L0.234972 0.754023L0.315883 0.804915C3.39534 2.86944 7.10287 3.87042 11.6482 3.87042C16.322 3.87042 20.7055 2.5527 23.9848 0.163662L24.0182 0.13623L24.0515 0.163662C27.4307 2.62697 31.7857 3.98381 36.3113 3.98381C40.8804 3.98381 44.4453 3.02194 47.5341 0.953559L47.6008 0.906577L47.6579 1.14118C48.3337 9.61428 47.1248 17.1529 43.9646 24.1908C40.9614 30.8653 36.0496 37.3947 28.9438 44.1443C26.5784 46.3887 24.0749 47.8393 24.0464 47.851L24.0174 47.8708Z" fill="#C79100"/>
<path d="M0.511157 1.17112L0.501415 1.28451C-0.150627 9.46442 1.27726 17.3983 4.74695 24.8666C7.92632 31.7171 12.8095 38.1646 19.2584 44.0264C21.3906 45.9463 23.5181 47.3304 24.0132 47.6393C24.5082 47.3304 26.6403 45.9463 28.7678 44.0264C35.9975 37.1642 40.7761 30.8375 43.7984 24.1239C46.9253 17.1679 48.1248 9.68371 47.4584 1.24645C44.3695 3.27584 40.9236 4.18292 36.3023 4.18292C31.776 4.18292 27.4163 2.83785 24.0132 0.394056C20.6815 2.78309 16.3266 4.09684 11.7241 4.09684C7.24543 4.09684 3.57586 3.1389 0.510785 1.1721M24.013 48.007L23.9084 47.9405C23.8846 47.9288 21.4383 46.4234 18.9967 44.2221C12.519 38.3335 7.61196 31.8579 4.41334 24.9692C0.929366 17.4658 -0.508013 9.48905 0.148841 1.266L0.186843 0.581739L0.458133 0.765513C3.51371 2.81052 7.19749 3.80364 11.7238 3.80364C16.2929 3.80364 20.6146 2.48598 23.8938 0.0930407L24.0129 0.00708008L24.1318 0.0930407C27.4872 2.54074 31.8089 3.88973 36.3018 3.88973C40.8947 3.88973 44.3025 2.97872 47.3486 0.941589L47.7626 0.577951L47.8103 1.19965C48.4862 9.68847 47.282 17.2233 44.1265 24.2262C41.0899 30.975 36.2924 37.329 29.0289 44.2227C26.5873 46.4241 24.1457 47.9295 24.1172 47.9412L24.013 48.007Z" fill="black"/>
</g>
</svg>
