<svg width="12" height="13" viewBox="0 0 12 13" fill="none" xmlns="http://www.w3.org/2000/svg">
<path d="M4.26672 8.23297L0.823592 6.96422C0.728652 6.92917 0.646735 6.86587 0.588877 6.78284C0.531019 6.69981 0.5 6.60104 0.5 6.49984C0.5 6.39864 0.531019 6.29987 0.588877 6.21684C0.646735 6.13381 0.728652 6.07051 0.823592 6.03547L4.26672 4.76672L5.53547 1.32359C5.57051 1.22865 5.63381 1.14673 5.71684 1.08888C5.79987 1.03102 5.89864 1 5.99984 1C6.10104 1 6.19981 1.03102 6.28284 1.08888C6.36587 1.14673 6.42917 1.22865 6.46422 1.32359L7.73297 4.76672L11.1761 6.03547C11.271 6.07051 11.3529 6.13381 11.4108 6.21684C11.4687 6.29987 11.4997 6.39864 11.4997 6.49984C11.4997 6.60104 11.4687 6.69981 11.4108 6.78284C11.3529 6.86587 11.271 6.92917 11.1761 6.96422L7.73297 8.23297L6.46422 11.6761C6.42917 11.771 6.36587 11.8529 6.28284 11.9108C6.19981 11.9687 6.10104 11.9997 5.99984 11.9997C5.89864 11.9997 5.79987 11.9687 5.71684 11.9108C5.63381 11.8529 5.57051 11.771 5.53547 11.6761L4.26672 8.23297Z" stroke="#FFD15C" stroke-linecap="round" stroke-linejoin="round"/>
</svg>
