<svg width="48" height="48" viewBox="0 0 48 48" fill="none" xmlns="http://www.w3.org/2000/svg">
<g clip-path="url(#clip0_204_50562)">
<path d="M14.3078 30.1711C14.1509 30.1601 13.9908 30.1693 13.8436 30.1979C13.6965 30.2265 13.5674 30.2735 13.4695 30.3341C13.1967 30.4874 12.9904 30.6659 12.8633 30.8589C12.7361 31.0519 12.6907 31.2555 12.7296 31.4573V31.4569C12.7341 31.5532 12.7728 31.6485 12.8439 31.7384C12.8922 31.8097 12.9754 31.8743 13.0862 31.9265C13.197 31.9788 13.3323 32.0173 13.4804 32.0387C13.6423 32.0418 13.803 32.0244 13.9468 31.9882C14.0906 31.9519 14.2124 31.8981 14.3003 31.832C14.603 31.6397 14.8108 31.4162 14.9077 31.1787C15.0046 30.9412 14.9881 30.6961 14.8593 30.4622C14.828 30.3945 14.7606 30.3319 14.6638 30.2808C14.567 30.2297 14.4442 30.1919 14.3078 30.1711ZM33.9014 34.3274C34.0396 34.059 33.9686 33.7752 33.702 33.5307C33.5896 33.4325 33.4368 33.3466 33.253 33.2784C33.0692 33.2101 32.8584 33.1611 32.6338 33.1342L32.1514 33.0848C31.7126 33.0416 31.0493 32.9763 30.0561 32.8559C28.7266 32.6944 27.5855 32.9904 26.9558 33.6501C27.6035 33.7415 28.2413 33.8263 28.8631 33.9028C28.9215 33.7706 28.9622 33.6366 28.985 33.5018C28.9912 33.4529 29.037 33.4072 29.1124 33.3748C29.1878 33.3423 29.2867 33.3256 29.3873 33.3285C29.4879 33.3313 29.5821 33.3534 29.6493 33.39C29.7164 33.4265 29.7509 33.4745 29.7454 33.5234C29.7198 33.6805 29.6725 33.8365 29.6039 33.9905C29.727 34.0045 29.8497 34.0186 29.9711 34.032C30.0959 34.0456 30.2186 34.0588 30.3392 34.0713C30.448 33.8113 30.5171 33.5901 30.5188 33.5858C30.5341 33.5374 30.5884 33.4939 30.6697 33.4649C30.751 33.4358 30.8527 33.4236 30.9525 33.431C31.0522 33.4384 31.1419 33.4646 31.2018 33.5041C31.2618 33.5435 31.287 33.5929 31.2721 33.6414C31.2662 33.6591 31.1963 33.8804 31.0841 34.1457C31.3399 34.1697 31.5811 34.1911 31.8106 34.2098C31.8621 34.0757 31.8973 33.9402 31.9161 33.8041C31.9209 33.7551 31.9656 33.7091 32.0404 33.6761C32.1151 33.6431 32.2137 33.6259 32.3145 33.6283C32.4154 33.6306 32.5102 33.6523 32.5781 33.6886C32.646 33.7249 32.6814 33.7728 32.6765 33.8218C32.6577 33.9707 32.6204 34.1189 32.5647 34.2655C33.0919 34.3003 33.535 34.3192 33.9014 34.3274ZM26.8486 34.7796C27.0826 35.0346 27.5136 35.2347 28.0487 35.3366C29.0074 35.4697 29.9877 35.563 30.979 35.6154C32.1866 35.6803 33.1309 35.3535 33.6702 34.6932C33.2661 34.682 32.8327 34.6592 32.3855 34.6287C32.3046 34.7617 32.1941 34.8901 32.056 35.0116C32.0058 35.054 31.9231 35.0851 31.8259 35.0979C31.7286 35.1108 31.6249 35.1044 31.5373 35.0802C31.4498 35.056 31.3856 35.0159 31.3588 34.9687C31.332 34.9215 31.3448 34.8711 31.3944 34.8285C31.4881 34.7463 31.5649 34.6599 31.6238 34.5705C31.3881 34.551 31.1511 34.5294 30.9149 34.507C30.8462 34.6463 30.7558 34.7828 30.6444 34.9153C30.6245 34.9377 30.5957 34.9579 30.5597 34.9748C30.5237 34.9917 30.4811 35.005 30.4345 35.014C30.3879 35.0229 30.3381 35.0273 30.288 35.0268C30.2379 35.0264 30.1884 35.0211 30.1425 35.0114C30.0966 35.0016 30.055 34.9876 30.0203 34.97C29.9856 34.9525 29.9583 34.9318 29.9401 34.9091C29.9219 34.8864 29.9131 34.8622 29.9142 34.8378C29.9152 34.8135 29.9262 34.7895 29.9464 34.7672C30.0374 34.6584 30.1119 34.5465 30.1691 34.4324C30.0465 34.4189 29.9233 34.4059 29.8028 34.3927C29.6742 34.3784 29.544 34.3636 29.4133 34.3487C29.3421 34.4611 29.2593 34.5717 29.165 34.6799C29.1457 34.7024 29.1174 34.7227 29.0819 34.7398C29.0463 34.7569 29.0042 34.7704 28.9578 34.7796C28.9115 34.7887 28.8619 34.7934 28.8119 34.7932C28.7619 34.7931 28.7124 34.7881 28.6663 34.7787C28.6203 34.7692 28.5785 34.7554 28.5434 34.7381C28.5083 34.7208 28.4806 34.7003 28.4618 34.6777C28.4431 34.6552 28.4337 34.6311 28.4341 34.6068C28.4346 34.5825 28.4449 34.5585 28.4645 34.5361C28.5453 34.4429 28.6135 34.35 28.6717 34.2607C28.0302 34.1817 27.3712 34.0938 26.7028 33.9992C26.5685 34.2599 26.6198 34.535 26.8486 34.7796ZM35.32 30.0682C34.7443 29.3342 32.8177 28.8142 30.2789 28.5351C25.5877 28.0195 19.4235 28.8709 15.5016 30.4738C15.6451 30.7921 15.6117 31.1233 15.4049 31.4333C18.8699 32.2951 22.4895 33.0015 26.2188 33.5437C27.1308 32.5257 28.8786 32.3316 30.2408 32.497C31.2168 32.6154 31.8445 32.6773 32.303 32.7222L32.8072 32.7741C33.1339 32.8127 33.4407 32.8835 33.7086 32.9822C33.9764 33.0809 34.1996 33.2054 34.3641 33.3478C34.6998 33.6469 34.8098 33.9935 34.6752 34.3278C34.9401 34.3361 35.2044 34.3071 35.4364 34.2444C36.4083 32.8889 36.367 31.4104 35.32 30.0682ZM30.8952 35.983C29.8477 35.9278 28.812 35.8285 27.7999 35.686C27.4381 35.6195 27.1067 35.519 26.8249 35.3902C26.5431 35.2614 26.3164 35.1069 26.1577 34.9355C25.9846 34.7542 25.8873 34.5581 25.8712 34.3585C25.8595 34.2019 25.8934 34.0453 25.9717 33.8932C22.2282 33.3469 18.5933 32.6382 15.111 31.7756C15.013 31.8634 14.8974 31.9462 14.7659 32.0228C14.5757 32.1367 14.3336 32.2274 14.0587 32.2879C14.3332 33.4571 15.1598 34.5797 16.4739 35.5682C18.2213 36.8793 20.6014 37.7779 23.1729 38.0605C24.0845 38.1606 25.2762 38.2851 26.3415 38.1704C28.2635 37.9618 30.0574 37.5362 31.5777 36.928C33.098 36.3198 34.3019 35.5461 35.0918 34.6696C34.8886 34.6859 34.6834 34.6956 34.4775 34.6985C33.5756 35.9803 31.6791 36.0251 30.8952 35.983ZM12.5387 30.5721C12.6609 30.4331 12.8236 30.3034 13.0219 30.187C13.1629 30.1042 13.3299 30.0328 13.5168 29.9754C13.9292 28.9618 14.9203 28.0251 16.3768 27.2723C14.2368 28.0112 12.6269 29.0573 11.7732 30.2635C12.0004 30.3817 12.2576 30.4854 12.5387 30.5721ZM12.2966 30.9312C12.0303 30.8417 11.7767 30.7437 11.5375 30.6378C11.2024 31.2381 11.0591 31.8598 11.1124 32.4812C11.1233 32.6095 11.1422 32.7375 11.169 32.8638C11.3977 32.4461 11.7679 32.0497 12.2644 31.691C12.1649 31.4394 12.1759 31.1805 12.2966 30.9312ZM13.2995 32.3221C13.0143 32.2853 12.7662 32.1996 12.601 32.0808C11.6677 32.7796 11.2749 33.4046 11.6174 33.9659C12.3302 35.1286 13.7418 36.1613 15.671 36.9315C17.6003 37.7018 19.9592 38.1744 22.4451 38.2888C17.5526 37.567 13.9326 35.0905 13.2995 32.3221ZM19.3239 3.51584C19.3281 3.20583 19.2572 2.89665 19.1128 2.59467C19.1128 2.59467 20.2384 2.56598 20.2384 1.90013C20.2384 1.35165 19.4851 0.977324 19.2828 0.977324C19.1195 0.977324 19.0797 1.06114 18.7268 1.06114C17.8662 1.06114 17.803 0.527315 17.803 0.527315C17.9303 0.52508 18.0612 0.523995 18.1958 0.52406C20.6584 0.52406 22.9372 0.88659 22.9372 3.51584C22.9163 4.38529 22.7972 5.25352 22.5804 6.11662C22.3891 6.82595 22.2976 7.5408 22.3065 8.25619C22.3065 8.25619 18.0183 8.01084 18.0183 6.44354C18.0183 5.42594 19.3239 5.17835 19.3239 3.51584ZM26.1438 20.8835C26.1438 22.9411 24.3374 24.6142 23.2935 25.1213C20.06 26.6925 17.3914 25.5484 17.3625 27.125C15.8953 27.7707 14.8396 28.7525 14.3216 29.8739C14.3537 29.8752 14.3855 29.8774 14.4171 29.8804C14.7279 29.9099 15.0024 29.9976 15.1813 30.1245C19.2887 28.498 25.6133 27.6432 30.4472 28.1742C31.852 28.3031 33.1679 28.6009 34.2749 29.0404C32.7809 27.8666 30.5124 26.9733 27.8393 26.5064C27.202 26.3955 26.0706 26.2683 26.0706 25.2648C26.0706 23.3915 30.2889 24.8479 33.0676 22.8074C33.2042 22.7071 33.0078 22.6188 32.8449 22.698C32.0041 23.1063 29.9397 23.387 28.8472 23.387C28.333 23.4065 27.8167 23.365 27.3427 23.2662C28.0201 22.6235 28.7947 22.0062 29.66 21.4191C27.0806 20.1655 31.4224 13.2738 42.913 13.2738C42.9386 12.0063 42.6804 10.7412 42.1429 9.50083C41.8695 9.53298 39.7046 9.78117 39.6058 9.55983C39.5187 9.36412 41.2004 8.93934 41.779 8.79978C41.5209 8.31157 41.1426 7.84026 40.6522 7.39605C30.8035 8.90374 32.7829 12.8653 30.3835 12.8653C28.8221 12.8653 27.5956 12.2745 27.1576 12.0617C21.2752 9.20422 24.0162 7.31325 24.0162 3.51584C24.0162 0.957794 21.9715 0 18.1958 0C14.4192 0 13.0709 0.794025 13.0709 0.794025C13.0709 0.794025 18.2448 0.875401 18.2448 3.51584C18.2448 6.27977 11.8377 7.04267 11.8377 10.5492C11.8377 16.3862 26.1438 16.2768 26.1438 20.8835Z" fill="#132257"/>
<path d="M4.46248 37.5545C5.42264 37.8623 6.43975 38.1386 6.43975 38.1386L6.08341 38.5869C5.95067 38.3156 5.39668 38.1681 4.68064 37.953L2.33864 39.5987C1.96289 39.8433 1.66361 40.1135 1.4505 40.4006C1.4505 40.4006 1.06652 40.2818 0.715202 40.1549C0.34797 40.0222 0 39.8993 0 39.8993C0.349226 39.8576 0.952207 39.4257 1.31525 39.1865L3.59444 37.6066C2.74063 37.2864 2.40732 37.2235 1.80434 37.2084L2.61543 36.9128C2.61543 36.9128 3.39512 37.2123 4.46248 37.5545Z" fill="#132257"/>
<path d="M8.66187 38.9049C7.62173 38.6641 6.8031 39.2347 6.1863 39.8623C5.5695 40.4899 5.16625 41.1623 6.2064 41.4036C7.24696 41.6445 8.06936 41.0695 8.68574 40.4421C9.30296 39.8147 9.70201 39.1466 8.66187 38.9049ZM5.9786 41.6357C4.35139 41.2581 4.13616 40.3876 4.93679 39.5724C5.7416 38.7536 7.27501 38.2932 8.89385 38.6692C10.5131 39.0443 10.7409 39.913 9.93567 40.7322C9.13504 41.547 7.6054 42.0131 5.9786 41.6357Z" fill="#132257"/>
<path d="M13.2585 39.5106C14.3585 39.6615 15.2542 39.7626 15.2542 39.7626L15.1583 40.2409C14.8635 40.0342 14.7286 39.9836 13.7894 39.8672L12.6517 41.7274C12.5596 41.8975 12.1053 42.5414 12.251 42.6627C12.251 42.6627 11.9344 42.6301 11.424 42.5613C10.8507 42.484 10.5811 42.4318 10.5811 42.4318C10.8746 42.3376 11.2456 41.7869 11.3662 41.5631L12.5106 39.6908C11.5379 39.5334 11.3117 39.5222 10.8465 39.6273L11.4106 39.2192C11.4106 39.2192 12.0458 39.3439 13.2585 39.5106Z" fill="#132257"/>
<path d="M17.7968 40.0049C18.8813 40.0845 19.9026 40.1296 19.9026 40.1296L19.9424 40.6095C19.5383 40.4346 19.3859 40.3778 18.3148 40.3123L17.695 42.2224C17.6515 42.397 17.4208 43.0612 17.5996 43.1717C17.5996 43.1717 17.2244 43.1517 16.7056 43.1161C16.1868 43.0805 15.8681 43.0453 15.8681 43.0453C16.1214 42.9489 16.3316 42.3196 16.3756 42.1449L17.0108 40.2108C16.0833 40.1209 15.8924 40.1557 15.4473 40.281L15.8505 39.8269C15.8505 39.8269 16.7173 39.9258 17.7968 40.0049Z" fill="#132257"/>
<path d="M21.8172 41.8206L21.7352 43.1041C23.1199 43.1128 24.0688 43.0705 24.4913 42.7786L24.2794 43.3614C24.2794 43.3614 23.5123 43.3694 22.3892 43.3614C21.1531 43.3529 20.1846 43.314 20.1846 43.314C20.3898 43.215 20.4413 42.5898 20.4438 42.4134L20.5564 41.1539C20.561 40.8184 20.6242 40.2765 20.3927 40.1624C21.396 40.1961 21.2683 40.1955 22.1899 40.213C23.3963 40.2362 24.0805 40.2187 24.0805 40.2187L24.2317 40.7C23.7602 40.5092 23.0546 40.4872 21.9018 40.4838L21.8382 41.5608L23.6086 41.5659C23.7685 41.5667 23.779 41.61 23.7777 41.6961C23.7761 41.7811 23.7736 41.8267 23.6052 41.8257L21.8172 41.8206Z" fill="#132257"/>
<path d="M29.5527 42.2072C29.6548 42.6743 29.7558 43.0098 29.9748 43.071C29.9215 43.1068 29.8528 43.1363 29.7734 43.1577C29.694 43.179 29.6059 43.1916 29.5154 43.1945C29.3832 43.1985 29.2512 43.1859 29.132 43.1578C29.0129 43.1297 28.9107 43.0871 28.8354 43.0342L25.6957 41.2844L25.8133 42.3975C25.8519 42.5726 25.8929 43.2362 26.1178 43.3243L25.0709 43.3477C25.2531 43.2385 25.2045 42.6062 25.166 42.431L25.0182 41.1744C24.9792 40.9992 24.9122 40.3047 24.6865 40.2166L25.6463 40.1997L28.8655 42.0567L28.5971 40.988C28.559 40.8127 28.363 40.1757 28.1465 40.087C28.1465 40.087 28.2617 40.0819 28.6524 40.0563C29.0426 40.0304 29.185 40.0166 29.185 40.0166C29.0033 40.1263 29.2139 40.7791 29.252 40.9547L29.5527 42.2072Z" fill="#132257"/>
<path d="M35.4534 41.5451C35.5644 41.7622 35.7855 42.3204 36.1146 42.4297C36.1146 42.4297 35.6172 42.4993 35.3148 42.5446C35.0443 42.5853 34.4485 42.66 34.4485 42.66C34.5892 42.5395 34.2755 41.87 34.1893 41.7026L33.8907 41.1197L31.895 41.3576L32.122 41.9504C32.1873 42.142 32.3954 42.7867 32.6642 42.8653C32.6642 42.8653 32.3858 42.8935 31.8037 42.9513C31.3159 42.9997 30.978 43.0258 30.978 43.0258C31.1266 42.9053 30.9265 42.3074 30.8641 42.1168L30.3809 40.8638C30.2929 40.6303 30.071 40.0393 29.8047 39.9703C29.8047 39.9703 30.0622 39.9463 30.6325 39.8926C31.2029 39.8387 31.4817 39.8021 31.4817 39.8021C31.3419 39.9422 31.5893 40.509 31.6568 40.7078L31.8104 41.1053L33.7739 40.873L33.5616 40.4665C33.4464 40.2517 33.2023 39.7349 32.9293 39.6391C32.9293 39.6391 33.1994 39.6011 33.7458 39.526C34.2923 39.4509 34.528 39.4082 34.528 39.4082C34.4192 39.5512 34.7232 40.0543 34.8488 40.3137L35.4534 41.5451Z" fill="#132257"/>
<path d="M38.746 40.5983L37.0154 39.4338L37.1377 40.8965L38.746 40.5983ZM39.0994 40.8021L37.1519 41.1726L37.2197 41.692C37.2304 41.8377 37.2721 41.9824 37.3441 42.1239C37.3772 42.1633 37.4374 42.196 37.5145 42.2163C37.5145 42.2163 37.3123 42.2521 36.9777 42.3047C36.6435 42.3574 36.4593 42.3831 36.4593 42.3831C36.5777 42.258 36.6242 42.1197 36.5937 41.9829L36.4229 39.5201C36.4147 39.4368 36.3809 39.3546 36.3228 39.2761C36.2757 39.227 36.204 39.1844 36.1143 39.1522C36.362 39.0734 36.6233 39.0051 36.8952 38.948C37.3428 38.8564 37.5304 38.8603 37.8566 39.0452L40.7141 40.7665C41.2337 41.0951 41.6918 41.3162 41.9908 41.3602C41.9908 41.3602 41.6989 41.4259 41.1508 41.5445C40.601 41.6631 40.238 41.7302 40.238 41.7302C40.276 41.6625 40.2636 41.5903 40.2028 41.5266C40.0462 41.3923 39.8659 41.2648 39.6639 41.1456L39.0994 40.8021Z" fill="#132257"/>
<path d="M47.2575 39.9093C46.866 40.0377 46.5729 40.1359 46.5729 40.1359C46.5436 39.9486 45.7999 39.4856 45.5809 39.3454L43.903 38.2816L45.2522 40.3784C45.1892 40.4287 45.1092 40.4735 45.0156 40.5109C44.908 40.555 44.7706 40.5782 44.6298 40.5761C44.4891 40.574 44.3549 40.5467 44.2531 40.4995L41.0581 39.2123L42.1761 40.2133C42.45 40.4667 42.9772 40.9941 43.3314 41.0459C43.3314 41.0459 43.112 41.1033 42.8327 41.1692C42.5551 41.2341 42.3859 41.2724 42.3859 41.2724C42.4471 41.1253 41.9287 40.6875 41.6259 40.4075L40.381 39.2703C40.0037 38.9281 39.5879 38.5796 39.2295 38.5101C39.5067 38.4448 39.59 38.4246 39.9857 38.3302C40.3157 38.2511 40.6063 38.1736 40.6063 38.1736L44.2045 39.6607L42.7892 37.5553C42.7892 37.5553 42.9793 37.4929 43.3381 37.3763C43.697 37.2595 44.0215 37.1436 44.0215 37.1436C44.0483 37.3321 44.7966 37.8119 45.0696 37.9836L46.6194 38.9523C46.9485 39.1513 47.5624 39.5948 48.0004 39.6459C48.0004 39.6459 47.649 39.7809 47.2575 39.9093Z" fill="#132257"/>
<path d="M10.4391 43.7375C10.7724 43.7967 11.2029 43.8694 11.2029 43.8694C10.8407 43.9969 10.5069 44.5047 10.2917 44.7804L9.45634 45.9066C9.23231 46.2122 8.85126 46.6551 8.97898 46.8131C8.97898 46.8131 8.5192 46.736 8.14695 46.6718C7.82912 46.6168 7.64865 46.5871 7.31115 46.5173C7.72109 46.4649 8.10758 45.8029 8.23237 45.6365L8.61509 45.111L6.61269 44.7051L6.03358 45.3063C5.84515 45.5152 5.39417 45.9878 5.50095 46.1363C5.50095 46.1363 5.14795 46.0659 4.62956 45.9504C4.01988 45.8141 3.88672 45.7774 3.88672 45.7774C4.31676 45.6749 4.57052 45.3382 4.89797 44.9977L5.94565 43.8708C6.29948 43.4855 6.61898 43.151 6.59511 42.9309C6.59511 42.9309 6.78186 42.9852 7.29691 43.0977C7.70727 43.1874 7.91664 43.232 8.14695 43.2768C7.82075 43.34 7.36768 43.9086 7.12774 44.1636L6.82123 44.4823L8.77756 44.8734L9.0778 44.5122C9.21766 44.3281 9.70255 43.7774 9.59829 43.5884C9.59829 43.5884 9.99986 43.6594 10.4391 43.7375Z" fill="#132257"/>
<path d="M14.2513 44.529C13.1371 44.3864 12.5609 45.0075 12.2041 45.6657C11.8474 46.3236 11.7184 47.0063 12.8335 47.1489C13.9477 47.2915 14.5264 46.666 14.8828 46.0083C15.2395 45.3499 15.3668 44.6714 14.2513 44.529ZM12.7012 47.3927C10.9571 47.1697 10.4019 46.3494 10.865 45.4944C11.3302 44.6352 12.6509 44.0595 14.3866 44.2811C16.1206 44.503 16.6871 45.3202 16.2223 46.1793C15.7596 47.0342 14.4452 47.6156 12.7012 47.3927Z" fill="#132257"/>
<path d="M17.4248 47.6951C17.5112 47.6428 17.5746 47.5825 17.6111 47.5179C17.7229 47.2743 17.8087 47.0281 17.8682 46.7802L18.3569 44.9458C17.3159 44.8827 17.0521 44.9189 16.5957 45.0503L17.0232 44.5808C17.3482 44.6156 18.0655 44.6534 18.939 44.7067C19.5223 44.7425 21.2629 44.8186 21.2629 44.8186L21.3224 45.2884C20.9384 45.0723 20.5402 45.0534 19.6738 45.02L19.1868 46.8606C19.1433 47.0316 18.9494 47.6263 19.1416 47.8023C18.9327 47.7907 18.5855 47.772 18.2954 47.7577C17.9947 47.7429 17.5982 47.7093 17.4248 47.6951Z" fill="#132257"/>
<path d="M25.7138 47.0576C25.7251 47.6101 24.8009 48.0101 23.3797 47.9997C22.6858 48.0092 22.0084 47.8958 21.4736 47.6807L21.7044 47.1566C21.8307 47.3127 22.0419 47.4492 22.3153 47.5516C22.5887 47.654 22.9142 47.7184 23.257 47.7381C23.4064 47.7466 23.5578 47.74 23.7015 47.7185C23.8452 47.697 23.9782 47.6611 24.0917 47.6132C24.2053 47.5653 24.297 47.5064 24.361 47.4403C24.425 47.3742 24.4599 47.3023 24.4634 47.2293C24.4705 46.9951 24.2051 46.8537 23.0883 46.5713C22.0188 46.3028 21.6206 46.0351 21.6206 45.6355C21.6206 45.0923 22.5942 44.8161 23.7373 44.8155C24.3652 44.8137 24.9837 44.8898 25.5341 45.0366L25.2959 45.5163C24.7858 45.1857 24.3248 45.0626 23.7675 45.0588C23.6476 45.0506 23.5255 45.0555 23.41 45.0729C23.2944 45.0904 23.1882 45.12 23.099 45.1597C23.0097 45.1994 22.9396 45.2482 22.8937 45.3026C22.8478 45.357 22.8271 45.4157 22.8333 45.4744C22.8379 45.7724 23.5133 45.9342 24.4253 46.182C25.4734 46.4668 25.7071 46.7524 25.7138 47.0576Z" fill="#132257"/>
<path d="M30.8925 45.3664C30.9314 45.4334 30.9573 45.5021 30.9699 45.5714C30.9828 45.6394 30.9837 45.7077 30.9729 45.7757C30.9321 45.9748 30.7584 46.162 30.4783 46.3087C30.245 46.4221 29.9674 46.5118 29.6618 46.5724C29.3562 46.6329 29.0288 46.6632 28.6987 46.6615C28.4043 46.6702 28.3336 46.6263 28.3135 46.5235L28.3118 46.501C28.3118 46.501 28.3055 46.4611 28.37 46.459L28.4437 46.4556C28.6031 46.4498 28.7585 46.4285 28.9007 46.393C29.0429 46.3575 29.169 46.3085 29.2715 46.2489C29.5283 46.0705 29.6358 45.8512 29.5722 45.6357C29.5702 45.532 29.5215 45.4297 29.4296 45.336C29.3376 45.2424 29.2047 45.1596 29.04 45.0936C28.7575 44.9909 28.4053 44.9443 28.0547 44.9632C28.0547 44.9632 27.9132 44.9688 27.7565 44.9804C27.7445 44.9808 27.7327 44.9824 27.7219 44.9851C27.7112 44.9877 27.7016 44.9914 27.6938 44.9958C27.686 45.0003 27.6801 45.0055 27.6765 45.0111C27.6729 45.0167 27.6716 45.0226 27.6728 45.0285L28.0501 46.9308C28.0836 47.0983 28.177 47.688 28.4604 47.8099C28.4604 47.8099 28.1389 47.8264 27.5317 47.8506C27.0698 47.8685 26.7093 47.8734 26.7093 47.8734C26.8157 47.6732 26.8398 47.4648 26.7801 47.2602L26.4878 45.76C26.4543 45.5883 26.394 44.9996 26.1055 44.8541C26.1055 44.8541 26.8805 44.7984 28.3156 44.7327C28.9727 44.682 29.6454 44.7482 30.2103 44.919C30.538 45.025 30.7793 45.1832 30.8925 45.3664Z" fill="#132257"/>
<path d="M36.7587 45.9798C36.8496 46.127 36.8758 46.2817 36.8356 46.4341C36.7955 46.5865 36.6899 46.733 36.5257 46.8643C36.3615 46.9956 36.1424 47.1086 35.8825 47.1961C35.6226 47.2836 35.3278 47.3436 35.0172 47.3722C34.0248 47.4926 32.5952 47.3158 32.1962 46.4697L31.7113 45.4712C31.5827 45.1919 31.3738 44.6967 31.04 44.568C31.04 44.568 31.4123 44.5421 31.9969 44.489C32.581 44.4363 32.8523 44.405 32.8523 44.405C32.6991 44.5222 32.8599 44.9846 33.0123 45.3246L33.632 46.5942C33.6823 46.7826 33.8732 46.9554 34.1684 47.0798C34.2767 47.1143 34.3981 47.1377 34.5255 47.1488C34.6528 47.1599 34.7835 47.1584 34.9096 47.1443C35.0444 47.1341 35.1729 47.1094 35.2856 47.072C35.3983 47.0347 35.4924 46.9855 35.5611 46.9283C35.7055 46.7524 35.717 46.5573 35.5934 46.3778L34.8974 45.1083C34.7069 44.759 34.4879 44.3216 34.2526 44.2484C34.2526 44.2484 34.5361 44.2109 35.0733 44.1365C35.4799 44.0799 35.7219 44.0455 35.8978 44.0156C35.7378 44.2067 36.1206 44.7924 36.201 44.9604L36.7587 45.9798Z" fill="#132257"/>
<path d="M43.1002 45.7197C43.2268 45.75 43.3721 45.7562 43.5076 45.7372C43.4674 45.8092 43.3888 45.8748 43.2798 45.9274C43.1318 46.0201 42.9296 46.0889 42.6996 46.1248C42.4697 46.1606 42.2228 46.1619 41.9914 46.1284C40.9839 45.8831 40.071 45.5553 39.2926 45.1594C39.2901 45.1567 39.2888 45.1538 39.2887 45.1509C39.2887 45.1479 39.2898 45.145 39.2922 45.1423C39.2946 45.1396 39.298 45.1371 39.3024 45.1351C39.3068 45.1331 39.312 45.1315 39.3177 45.1305L39.378 45.1177C39.5457 45.0792 39.6956 45.0247 39.8188 44.9574C39.9419 44.89 40.0357 44.8113 40.0946 44.7259C40.1534 44.6404 40.1761 44.5501 40.1612 44.4603C40.1462 44.3705 40.0941 44.2832 40.0078 44.2034C39.9399 44.1129 39.8339 44.0303 39.6965 43.9608C39.5592 43.8914 39.3935 43.8366 39.2101 43.8C38.9257 43.7579 38.6198 43.7661 38.3467 43.8232C38.2379 43.843 38.135 43.8697 38.0406 43.9025C38.0406 43.9025 37.9937 43.9213 38.0485 43.9996L39.2926 45.7252C39.481 45.9795 39.8093 46.4744 40.1066 46.5582C40.1066 46.5582 39.7708 46.6225 39.2616 46.712C38.7512 46.8013 38.4409 46.8429 38.4409 46.8429C38.5448 46.6504 38.1528 46.1263 38.0544 45.9793L37.2492 44.8131C37.0482 44.5326 36.6818 44.0285 36.3828 43.9483C37.0309 43.8487 37.6674 43.7321 38.2893 43.5988C38.9075 43.4496 39.6124 43.4083 40.2859 43.4818C40.626 43.5253 40.9214 43.6281 41.1158 43.7705C41.1892 43.8234 41.2515 43.8798 41.3017 43.9388C41.3471 43.9938 41.3801 44.051 41.4001 44.1094C41.4691 44.2952 41.3985 44.4869 41.2012 44.6496C41.0529 44.7749 40.8509 44.8833 40.6087 44.9673C41.3622 45.2738 42.2009 45.5271 43.1002 45.7197Z" fill="#132257"/>
</g>
<defs>
<clipPath id="clip0_204_50562">
<rect width="48" height="48" fill="white"/>
</clipPath>
</defs>
</svg>
