<svg width="16" height="17" viewBox="0 0 16 17" fill="none" xmlns="http://www.w3.org/2000/svg">
<g clip-path="url(#clip0_208_9243)">
<path d="M11.25 3H13.5V5.25" stroke="#FFD15C" stroke-linecap="round" stroke-linejoin="round"/>
<path d="M11.25 14H13.5V11.75" stroke="#FFD15C" stroke-linecap="round" stroke-linejoin="round"/>
<path d="M4.75 14H2.5V11.75" stroke="#FFD15C" stroke-linecap="round" stroke-linejoin="round"/>
<path d="M4.75 3H2.5V5.25" stroke="#FFD15C" stroke-linecap="round" stroke-linejoin="round"/>
<path d="M8 9.5C9.10457 9.5 10 8.60457 10 7.5C10 6.39543 9.10457 5.5 8 5.5C6.89543 5.5 6 6.39543 6 7.5C6 8.60457 6.89543 9.5 8 9.5Z" stroke="#FFD15C" stroke-linecap="round" stroke-linejoin="round"/>
<path d="M5 11C5.3493 10.5343 5.80224 10.1563 6.32295 9.8959C6.84366 9.63554 7.41783 9.5 8 9.5C8.58217 9.5 9.15634 9.63554 9.67705 9.8959C10.1978 10.1563 10.6507 10.5343 11 11" stroke="#FFD15C" stroke-linecap="round" stroke-linejoin="round"/>
</g>
<defs>
<clipPath id="clip0_208_9243">
<rect width="16" height="16" fill="white" transform="translate(0 0.5)"/>
</clipPath>
</defs>
</svg>
